G04 #@! TF.FileFunction,Legend,Bot*
%FSLAX46Y46*%
G04 Gerber Fmt 4.6, Leading zero omitted, Abs format (unit mm)*
G04 Created by KiCad (PCBNEW 4.0.7) date Thursday, May 03, 2018 'PMt' 09:58:57 PM*
%MOMM*%
%LPD*%
G01*
G04 APERTURE LIST*
%ADD10C,0.100000*%
%ADD11C,0.300000*%
G04 APERTURE END LIST*
D10*
D11*
X166257286Y-110890857D02*
X166043000Y-110962286D01*
X165971572Y-111033714D01*
X165900143Y-111176571D01*
X165900143Y-111390857D01*
X165971572Y-111533714D01*
X166043000Y-111605143D01*
X166185858Y-111676571D01*
X166757286Y-111676571D01*
X166757286Y-110176571D01*
X166257286Y-110176571D01*
X166114429Y-110248000D01*
X166043000Y-110319429D01*
X165971572Y-110462286D01*
X165971572Y-110605143D01*
X166043000Y-110748000D01*
X166114429Y-110819429D01*
X166257286Y-110890857D01*
X166757286Y-110890857D01*
X165043000Y-111676571D02*
X165185858Y-111605143D01*
X165257286Y-111533714D01*
X165328715Y-111390857D01*
X165328715Y-110962286D01*
X165257286Y-110819429D01*
X165185858Y-110748000D01*
X165043000Y-110676571D01*
X164828715Y-110676571D01*
X164685858Y-110748000D01*
X164614429Y-110819429D01*
X164543000Y-110962286D01*
X164543000Y-111390857D01*
X164614429Y-111533714D01*
X164685858Y-111605143D01*
X164828715Y-111676571D01*
X165043000Y-111676571D01*
X163257286Y-111676571D02*
X163257286Y-110890857D01*
X163328715Y-110748000D01*
X163471572Y-110676571D01*
X163757286Y-110676571D01*
X163900143Y-110748000D01*
X163257286Y-111605143D02*
X163400143Y-111676571D01*
X163757286Y-111676571D01*
X163900143Y-111605143D01*
X163971572Y-111462286D01*
X163971572Y-111319429D01*
X163900143Y-111176571D01*
X163757286Y-111105143D01*
X163400143Y-111105143D01*
X163257286Y-111033714D01*
X162543000Y-111676571D02*
X162543000Y-110676571D01*
X162543000Y-110962286D02*
X162471572Y-110819429D01*
X162400143Y-110748000D01*
X162257286Y-110676571D01*
X162114429Y-110676571D01*
X160971572Y-111676571D02*
X160971572Y-110176571D01*
X160971572Y-111605143D02*
X161114429Y-111676571D01*
X161400143Y-111676571D01*
X161543001Y-111605143D01*
X161614429Y-111533714D01*
X161685858Y-111390857D01*
X161685858Y-110962286D01*
X161614429Y-110819429D01*
X161543001Y-110748000D01*
X161400143Y-110676571D01*
X161114429Y-110676571D01*
X160971572Y-110748000D01*
X159114429Y-111676571D02*
X159114429Y-110176571D01*
X159114429Y-110748000D02*
X158971572Y-110676571D01*
X158685858Y-110676571D01*
X158543001Y-110748000D01*
X158471572Y-110819429D01*
X158400143Y-110962286D01*
X158400143Y-111390857D01*
X158471572Y-111533714D01*
X158543001Y-111605143D01*
X158685858Y-111676571D01*
X158971572Y-111676571D01*
X159114429Y-111605143D01*
X157900143Y-110676571D02*
X157543000Y-111676571D01*
X157185858Y-110676571D02*
X157543000Y-111676571D01*
X157685858Y-112033714D01*
X157757286Y-112105143D01*
X157900143Y-112176571D01*
X154828715Y-111605143D02*
X154971572Y-111676571D01*
X155257286Y-111676571D01*
X155400144Y-111605143D01*
X155471572Y-111533714D01*
X155543001Y-111390857D01*
X155543001Y-110962286D01*
X155471572Y-110819429D01*
X155400144Y-110748000D01*
X155257286Y-110676571D01*
X154971572Y-110676571D01*
X154828715Y-110748000D01*
X153971572Y-111676571D02*
X154114430Y-111605143D01*
X154185858Y-111533714D01*
X154257287Y-111390857D01*
X154257287Y-110962286D01*
X154185858Y-110819429D01*
X154114430Y-110748000D01*
X153971572Y-110676571D01*
X153757287Y-110676571D01*
X153614430Y-110748000D01*
X153543001Y-110819429D01*
X153471572Y-110962286D01*
X153471572Y-111390857D01*
X153543001Y-111533714D01*
X153614430Y-111605143D01*
X153757287Y-111676571D01*
X153971572Y-111676571D01*
X152828715Y-111676571D02*
X152828715Y-110676571D01*
X152828715Y-110819429D02*
X152757287Y-110748000D01*
X152614429Y-110676571D01*
X152400144Y-110676571D01*
X152257287Y-110748000D01*
X152185858Y-110890857D01*
X152185858Y-111676571D01*
X152185858Y-110890857D02*
X152114429Y-110748000D01*
X151971572Y-110676571D01*
X151757287Y-110676571D01*
X151614429Y-110748000D01*
X151543001Y-110890857D01*
X151543001Y-111676571D01*
X150828715Y-110676571D02*
X150828715Y-112176571D01*
X150828715Y-110748000D02*
X150685858Y-110676571D01*
X150400144Y-110676571D01*
X150257287Y-110748000D01*
X150185858Y-110819429D01*
X150114429Y-110962286D01*
X150114429Y-111390857D01*
X150185858Y-111533714D01*
X150257287Y-111605143D01*
X150400144Y-111676571D01*
X150685858Y-111676571D01*
X150828715Y-111605143D01*
X148828715Y-110676571D02*
X148828715Y-111676571D01*
X149471572Y-110676571D02*
X149471572Y-111462286D01*
X149400144Y-111605143D01*
X149257286Y-111676571D01*
X149043001Y-111676571D01*
X148900144Y-111605143D01*
X148828715Y-111533714D01*
X148114429Y-111676571D02*
X148114429Y-110176571D01*
X147971572Y-111105143D02*
X147543001Y-111676571D01*
X147543001Y-110676571D02*
X148114429Y-111248000D01*
X146900143Y-111676571D02*
X146900143Y-110676571D01*
X146900143Y-110176571D02*
X146971572Y-110248000D01*
X146900143Y-110319429D01*
X146828715Y-110248000D01*
X146900143Y-110176571D01*
X146900143Y-110319429D01*
X145543000Y-111676571D02*
X145543000Y-110176571D01*
X145543000Y-111605143D02*
X145685857Y-111676571D01*
X145971571Y-111676571D01*
X146114429Y-111605143D01*
X146185857Y-111533714D01*
X146257286Y-111390857D01*
X146257286Y-110962286D01*
X146185857Y-110819429D01*
X146114429Y-110748000D01*
X145971571Y-110676571D01*
X145685857Y-110676571D01*
X145543000Y-110748000D01*
X144828714Y-111676571D02*
X144828714Y-110676571D01*
X144828714Y-110819429D02*
X144757286Y-110748000D01*
X144614428Y-110676571D01*
X144400143Y-110676571D01*
X144257286Y-110748000D01*
X144185857Y-110890857D01*
X144185857Y-111676571D01*
X144185857Y-110890857D02*
X144114428Y-110748000D01*
X143971571Y-110676571D01*
X143757286Y-110676571D01*
X143614428Y-110748000D01*
X143543000Y-110890857D01*
X143543000Y-111676571D01*
X142828714Y-111676571D02*
X142828714Y-110676571D01*
X142828714Y-110176571D02*
X142900143Y-110248000D01*
X142828714Y-110319429D01*
X142757286Y-110248000D01*
X142828714Y-110176571D01*
X142828714Y-110319429D01*
X142114428Y-111676571D02*
X142114428Y-110176571D01*
X141971571Y-111105143D02*
X141543000Y-111676571D01*
X141543000Y-110676571D02*
X142114428Y-111248000D01*
X140328714Y-111605143D02*
X140471571Y-111676571D01*
X140757285Y-111676571D01*
X140900142Y-111605143D01*
X140971571Y-111462286D01*
X140971571Y-110890857D01*
X140900142Y-110748000D01*
X140757285Y-110676571D01*
X140471571Y-110676571D01*
X140328714Y-110748000D01*
X140257285Y-110890857D01*
X140257285Y-111033714D01*
X140971571Y-111176571D01*
X134294714Y-84204571D02*
X134794714Y-83490286D01*
X135151857Y-84204571D02*
X135151857Y-82704571D01*
X134580429Y-82704571D01*
X134437571Y-82776000D01*
X134366143Y-82847429D01*
X134294714Y-82990286D01*
X134294714Y-83204571D01*
X134366143Y-83347429D01*
X134437571Y-83418857D01*
X134580429Y-83490286D01*
X135151857Y-83490286D01*
X133223286Y-82704571D02*
X133223286Y-83776000D01*
X133294714Y-83990286D01*
X133437571Y-84133143D01*
X133651857Y-84204571D01*
X133794714Y-84204571D01*
X131866143Y-83204571D02*
X131866143Y-84204571D01*
X132223286Y-82633143D02*
X132580429Y-83704571D01*
X131651857Y-83704571D01*
X130366143Y-82704571D02*
X131080429Y-82704571D01*
X131151858Y-83418857D01*
X131080429Y-83347429D01*
X130937572Y-83276000D01*
X130580429Y-83276000D01*
X130437572Y-83347429D01*
X130366143Y-83418857D01*
X130294715Y-83561714D01*
X130294715Y-83918857D01*
X130366143Y-84061714D01*
X130437572Y-84133143D01*
X130580429Y-84204571D01*
X130937572Y-84204571D01*
X131080429Y-84133143D01*
X131151858Y-84061714D01*
X134366143Y-86754571D02*
X135223286Y-86754571D01*
X134794714Y-86754571D02*
X134794714Y-85254571D01*
X134937571Y-85468857D01*
X135080429Y-85611714D01*
X135223286Y-85683143D01*
X133723286Y-86183143D02*
X132580429Y-86183143D01*
X131937572Y-86683143D02*
X131723286Y-86754571D01*
X131366143Y-86754571D01*
X131223286Y-86683143D01*
X131151857Y-86611714D01*
X131080429Y-86468857D01*
X131080429Y-86326000D01*
X131151857Y-86183143D01*
X131223286Y-86111714D01*
X131366143Y-86040286D01*
X131651857Y-85968857D01*
X131794715Y-85897429D01*
X131866143Y-85826000D01*
X131937572Y-85683143D01*
X131937572Y-85540286D01*
X131866143Y-85397429D01*
X131794715Y-85326000D01*
X131651857Y-85254571D01*
X131294715Y-85254571D01*
X131080429Y-85326000D01*
X130437572Y-86754571D02*
X130437572Y-85254571D01*
X130080429Y-85254571D01*
X129866144Y-85326000D01*
X129723286Y-85468857D01*
X129651858Y-85611714D01*
X129580429Y-85897429D01*
X129580429Y-86111714D01*
X129651858Y-86397429D01*
X129723286Y-86540286D01*
X129866144Y-86683143D01*
X130080429Y-86754571D01*
X130437572Y-86754571D01*
X129009001Y-86326000D02*
X128294715Y-86326000D01*
X129151858Y-86754571D02*
X128651858Y-85254571D01*
X128151858Y-86754571D01*
X135223286Y-87947429D02*
X135151857Y-87876000D01*
X135009000Y-87804571D01*
X134651857Y-87804571D01*
X134509000Y-87876000D01*
X134437571Y-87947429D01*
X134366143Y-88090286D01*
X134366143Y-88233143D01*
X134437571Y-88447429D01*
X135294714Y-89304571D01*
X134366143Y-89304571D01*
X133723286Y-88733143D02*
X132580429Y-88733143D01*
X131937572Y-89233143D02*
X131723286Y-89304571D01*
X131366143Y-89304571D01*
X131223286Y-89233143D01*
X131151857Y-89161714D01*
X131080429Y-89018857D01*
X131080429Y-88876000D01*
X131151857Y-88733143D01*
X131223286Y-88661714D01*
X131366143Y-88590286D01*
X131651857Y-88518857D01*
X131794715Y-88447429D01*
X131866143Y-88376000D01*
X131937572Y-88233143D01*
X131937572Y-88090286D01*
X131866143Y-87947429D01*
X131794715Y-87876000D01*
X131651857Y-87804571D01*
X131294715Y-87804571D01*
X131080429Y-87876000D01*
X129580429Y-89161714D02*
X129651858Y-89233143D01*
X129866144Y-89304571D01*
X130009001Y-89304571D01*
X130223286Y-89233143D01*
X130366144Y-89090286D01*
X130437572Y-88947429D01*
X130509001Y-88661714D01*
X130509001Y-88447429D01*
X130437572Y-88161714D01*
X130366144Y-88018857D01*
X130223286Y-87876000D01*
X130009001Y-87804571D01*
X129866144Y-87804571D01*
X129651858Y-87876000D01*
X129580429Y-87947429D01*
X128223286Y-89304571D02*
X128937572Y-89304571D01*
X128937572Y-87804571D01*
X135294714Y-90354571D02*
X134366143Y-90354571D01*
X134866143Y-90926000D01*
X134651857Y-90926000D01*
X134509000Y-90997429D01*
X134437571Y-91068857D01*
X134366143Y-91211714D01*
X134366143Y-91568857D01*
X134437571Y-91711714D01*
X134509000Y-91783143D01*
X134651857Y-91854571D01*
X135080429Y-91854571D01*
X135223286Y-91783143D01*
X135294714Y-91711714D01*
X133723286Y-91283143D02*
X132580429Y-91283143D01*
X131866143Y-91854571D02*
X131866143Y-90354571D01*
X131151857Y-91854571D02*
X131151857Y-90354571D01*
X130294714Y-91854571D01*
X130294714Y-90354571D01*
X129794714Y-90354571D02*
X128937571Y-90354571D01*
X129366142Y-91854571D02*
X129366142Y-90354571D01*
X134509000Y-93404571D02*
X134509000Y-94404571D01*
X134866143Y-92833143D02*
X135223286Y-93904571D01*
X134294714Y-93904571D01*
X133723286Y-93833143D02*
X132580429Y-93833143D01*
X131151857Y-92904571D02*
X131866143Y-92904571D01*
X131937572Y-93618857D01*
X131866143Y-93547429D01*
X131723286Y-93476000D01*
X131366143Y-93476000D01*
X131223286Y-93547429D01*
X131151857Y-93618857D01*
X131080429Y-93761714D01*
X131080429Y-94118857D01*
X131151857Y-94261714D01*
X131223286Y-94333143D01*
X131366143Y-94404571D01*
X131723286Y-94404571D01*
X131866143Y-94333143D01*
X131937572Y-94261714D01*
X130651858Y-92904571D02*
X130151858Y-94404571D01*
X129651858Y-92904571D01*
X134437571Y-95454571D02*
X135151857Y-95454571D01*
X135223286Y-96168857D01*
X135151857Y-96097429D01*
X135009000Y-96026000D01*
X134651857Y-96026000D01*
X134509000Y-96097429D01*
X134437571Y-96168857D01*
X134366143Y-96311714D01*
X134366143Y-96668857D01*
X134437571Y-96811714D01*
X134509000Y-96883143D01*
X134651857Y-96954571D01*
X135009000Y-96954571D01*
X135151857Y-96883143D01*
X135223286Y-96811714D01*
X133723286Y-96383143D02*
X132580429Y-96383143D01*
X131151857Y-95454571D02*
X131866143Y-95454571D01*
X131937572Y-96168857D01*
X131866143Y-96097429D01*
X131723286Y-96026000D01*
X131366143Y-96026000D01*
X131223286Y-96097429D01*
X131151857Y-96168857D01*
X131080429Y-96311714D01*
X131080429Y-96668857D01*
X131151857Y-96811714D01*
X131223286Y-96883143D01*
X131366143Y-96954571D01*
X131723286Y-96954571D01*
X131866143Y-96883143D01*
X131937572Y-96811714D01*
X130651858Y-95454571D02*
X130151858Y-96954571D01*
X129651858Y-95454571D01*
X134509000Y-98004571D02*
X134794714Y-98004571D01*
X134937571Y-98076000D01*
X135009000Y-98147429D01*
X135151857Y-98361714D01*
X135223286Y-98647429D01*
X135223286Y-99218857D01*
X135151857Y-99361714D01*
X135080429Y-99433143D01*
X134937571Y-99504571D01*
X134651857Y-99504571D01*
X134509000Y-99433143D01*
X134437571Y-99361714D01*
X134366143Y-99218857D01*
X134366143Y-98861714D01*
X134437571Y-98718857D01*
X134509000Y-98647429D01*
X134651857Y-98576000D01*
X134937571Y-98576000D01*
X135080429Y-98647429D01*
X135151857Y-98718857D01*
X135223286Y-98861714D01*
X133723286Y-98933143D02*
X132580429Y-98933143D01*
X131866143Y-99504571D02*
X131866143Y-98004571D01*
X131009000Y-99504571D01*
X131009000Y-98004571D01*
X129437571Y-99361714D02*
X129509000Y-99433143D01*
X129723286Y-99504571D01*
X129866143Y-99504571D01*
X130080428Y-99433143D01*
X130223286Y-99290286D01*
X130294714Y-99147429D01*
X130366143Y-98861714D01*
X130366143Y-98647429D01*
X130294714Y-98361714D01*
X130223286Y-98218857D01*
X130080428Y-98076000D01*
X129866143Y-98004571D01*
X129723286Y-98004571D01*
X129509000Y-98076000D01*
X129437571Y-98147429D01*
X135294714Y-100554571D02*
X134294714Y-100554571D01*
X134937571Y-102054571D01*
X133723286Y-101483143D02*
X132580429Y-101483143D01*
X131080429Y-100626000D02*
X131223286Y-100554571D01*
X131437572Y-100554571D01*
X131651857Y-100626000D01*
X131794715Y-100768857D01*
X131866143Y-100911714D01*
X131937572Y-101197429D01*
X131937572Y-101411714D01*
X131866143Y-101697429D01*
X131794715Y-101840286D01*
X131651857Y-101983143D01*
X131437572Y-102054571D01*
X131294715Y-102054571D01*
X131080429Y-101983143D01*
X131009000Y-101911714D01*
X131009000Y-101411714D01*
X131294715Y-101411714D01*
X130366143Y-102054571D02*
X130366143Y-100554571D01*
X129509000Y-102054571D01*
X129509000Y-100554571D01*
X128794714Y-102054571D02*
X128794714Y-100554571D01*
X128437571Y-100554571D01*
X128223286Y-100626000D01*
X128080428Y-100768857D01*
X128009000Y-100911714D01*
X127937571Y-101197429D01*
X127937571Y-101411714D01*
X128009000Y-101697429D01*
X128080428Y-101840286D01*
X128223286Y-101983143D01*
X128437571Y-102054571D01*
X128794714Y-102054571D01*
X134937571Y-103747429D02*
X135080429Y-103676000D01*
X135151857Y-103604571D01*
X135223286Y-103461714D01*
X135223286Y-103390286D01*
X135151857Y-103247429D01*
X135080429Y-103176000D01*
X134937571Y-103104571D01*
X134651857Y-103104571D01*
X134509000Y-103176000D01*
X134437571Y-103247429D01*
X134366143Y-103390286D01*
X134366143Y-103461714D01*
X134437571Y-103604571D01*
X134509000Y-103676000D01*
X134651857Y-103747429D01*
X134937571Y-103747429D01*
X135080429Y-103818857D01*
X135151857Y-103890286D01*
X135223286Y-104033143D01*
X135223286Y-104318857D01*
X135151857Y-104461714D01*
X135080429Y-104533143D01*
X134937571Y-104604571D01*
X134651857Y-104604571D01*
X134509000Y-104533143D01*
X134437571Y-104461714D01*
X134366143Y-104318857D01*
X134366143Y-104033143D01*
X134437571Y-103890286D01*
X134509000Y-103818857D01*
X134651857Y-103747429D01*
X133723286Y-104033143D02*
X132580429Y-104033143D01*
X131080429Y-103176000D02*
X131223286Y-103104571D01*
X131437572Y-103104571D01*
X131651857Y-103176000D01*
X131794715Y-103318857D01*
X131866143Y-103461714D01*
X131937572Y-103747429D01*
X131937572Y-103961714D01*
X131866143Y-104247429D01*
X131794715Y-104390286D01*
X131651857Y-104533143D01*
X131437572Y-104604571D01*
X131294715Y-104604571D01*
X131080429Y-104533143D01*
X131009000Y-104461714D01*
X131009000Y-103961714D01*
X131294715Y-103961714D01*
X130366143Y-104604571D02*
X130366143Y-103104571D01*
X129509000Y-104604571D01*
X129509000Y-103104571D01*
X128794714Y-104604571D02*
X128794714Y-103104571D01*
X128437571Y-103104571D01*
X128223286Y-103176000D01*
X128080428Y-103318857D01*
X128009000Y-103461714D01*
X127937571Y-103747429D01*
X127937571Y-103961714D01*
X128009000Y-104247429D01*
X128080428Y-104390286D01*
X128223286Y-104533143D01*
X128437571Y-104604571D01*
X128794714Y-104604571D01*
M02*
