M48
INCH,TZ
T1C0.016
T2C0.030
T3C0.035
T4C0.039
T5C0.126
%
G90
G05
T1
X52250Y-36500
X52250Y-37500
X52300Y-35550
T2
X45500Y-35500
X45500Y-36000
X45500Y-36500
X45500Y-37000
T3
X45094Y-41299
X45496Y-42000
X45898Y-41299
X46299Y-42000
X46701Y-41299
X47102Y-42000
X47504Y-41299
X47906Y-42000
X72000Y-31500
X72000Y-32500
X72000Y-33500
X72000Y-34500
X72000Y-35500
X72000Y-36500
X72000Y-37500
X72000Y-38500
X72000Y-39500
X72000Y-40500
X72000Y-41500
X72000Y-42500
X72000Y-43500
X72000Y-44500
X73000Y-31500
X74000Y-31500
X75000Y-31500
X76000Y-31500
X77000Y-31500
X78000Y-31500
X78000Y-32500
X78000Y-33500
X78000Y-34500
X78000Y-35500
X78000Y-36500
X78000Y-37500
X78000Y-38500
X78000Y-39500
X78000Y-40500
X78000Y-41500
X78000Y-42500
X78000Y-43500
X78000Y-44500
T4
X57500Y-33500
X58500Y-33500
X58994Y-35529
X59500Y-33500
X59994Y-35529
X60500Y-33500
X60994Y-35529
X61500Y-33500
X61994Y-35529
X62500Y-33500
X63500Y-33500
T5
X44000Y-43000
X49000Y-43000
T0
M30
