G04 #@! TF.FileFunction,Copper,L1,Top,Signal*
%FSLAX46Y46*%
G04 Gerber Fmt 4.6, Leading zero omitted, Abs format (unit mm)*
G04 Created by KiCad (PCBNEW 4.0.7) date Thursday, May 03, 2018 'PMt' 09:58:57 PM*
%MOMM*%
%LPD*%
G01*
G04 APERTURE LIST*
%ADD10C,0.100000*%
%ADD11R,1.700000X1.700000*%
%ADD12O,1.700000X1.700000*%
%ADD13O,1.905000X1.117600*%
%ADD14R,1.905000X1.117600*%
%ADD15R,1.500000X1.500000*%
%ADD16C,1.500000*%
%ADD17R,1.500000X1.300000*%
%ADD18C,1.524000*%
%ADD19C,0.600000*%
%ADD20C,0.254000*%
G04 APERTURE END LIST*
D10*
D11*
X149845517Y-90242409D03*
D12*
X152385517Y-90242409D03*
X154925517Y-90242409D03*
X157465517Y-90242409D03*
D13*
X115570000Y-90170000D03*
D14*
X115570000Y-91440000D03*
D13*
X115570000Y-92710000D03*
X115570000Y-93980000D03*
D15*
X121680000Y-106680000D03*
D16*
X120660000Y-104900000D03*
X119640000Y-106680000D03*
X118620000Y-104900000D03*
X117600000Y-106680000D03*
X116580000Y-104900000D03*
X115560000Y-106680000D03*
X114540000Y-104900000D03*
D11*
X146050000Y-85090000D03*
D12*
X148590000Y-85090000D03*
X151130000Y-85090000D03*
X153670000Y-85090000D03*
X156210000Y-85090000D03*
X158750000Y-85090000D03*
X161290000Y-85090000D03*
D17*
X121840000Y-90170000D03*
X124540000Y-90170000D03*
X121840000Y-92710000D03*
X124540000Y-92710000D03*
X121840000Y-95250000D03*
X124540000Y-95250000D03*
D18*
X198120000Y-80010000D03*
X198120000Y-82550000D03*
X198120000Y-85090000D03*
X198120000Y-87630000D03*
X198120000Y-90170000D03*
X198120000Y-92710000D03*
X198120000Y-95250000D03*
X198120000Y-113030000D03*
X198120000Y-110490000D03*
X198120000Y-107950000D03*
X198120000Y-105410000D03*
X198120000Y-102870000D03*
X198120000Y-100330000D03*
X198120000Y-97790000D03*
X182880000Y-97790000D03*
X182880000Y-100330000D03*
X182880000Y-102870000D03*
X182880000Y-105410000D03*
X182880000Y-107950000D03*
X182880000Y-110490000D03*
X182880000Y-113030000D03*
X182880000Y-95250000D03*
X182880000Y-92710000D03*
X182880000Y-90170000D03*
X182880000Y-87630000D03*
X182880000Y-85090000D03*
X182880000Y-82550000D03*
X182880000Y-80010000D03*
X185420000Y-80010000D03*
X187960000Y-80010000D03*
X190500000Y-80010000D03*
X193040000Y-80010000D03*
X195580000Y-80010000D03*
D19*
X132842000Y-90297000D03*
X132715000Y-92710000D03*
X132715000Y-95250000D03*
D20*
X115570000Y-92710000D02*
X121840000Y-92710000D01*
X118110000Y-93980000D02*
X119380000Y-95250000D01*
X119380000Y-95250000D02*
X121840000Y-95250000D01*
X115570000Y-93980000D02*
X118110000Y-93980000D01*
X121680000Y-106680000D02*
X142769888Y-106680000D01*
X158642518Y-89677448D02*
X158030478Y-89065408D01*
X142769888Y-106680000D02*
X158642518Y-90807370D01*
X158642518Y-90807370D02*
X158642518Y-89677448D01*
X158030478Y-89065408D02*
X156102518Y-89065408D01*
X156102518Y-89065408D02*
X155775516Y-89392410D01*
X155775516Y-89392410D02*
X154925517Y-90242409D01*
X120660000Y-104900000D02*
X142807926Y-104900000D01*
X142807926Y-104900000D02*
X157465517Y-90242409D01*
X119640000Y-106680000D02*
X120717001Y-107757001D01*
X189410999Y-104086001D02*
X189410999Y-103959001D01*
X120717001Y-107757001D02*
X123071037Y-107757001D01*
X123071037Y-107757001D02*
X123694028Y-107134010D01*
X123694028Y-107134010D02*
X182084268Y-107134010D01*
X183402721Y-106860999D02*
X183675732Y-107134010D01*
X182084268Y-107134010D02*
X182357279Y-106860999D01*
X182357279Y-106860999D02*
X183402721Y-106860999D01*
X183675732Y-107134010D02*
X186362990Y-107134010D01*
X186362990Y-107134010D02*
X189410999Y-104086001D01*
X189410999Y-103959001D02*
X197358001Y-96011999D01*
X197358001Y-96011999D02*
X198120000Y-95250000D01*
X182880000Y-90170000D02*
X175313990Y-82603990D01*
X175313990Y-82603990D02*
X147432010Y-82603990D01*
X147432010Y-82603990D02*
X146050000Y-83986000D01*
X146050000Y-83986000D02*
X146050000Y-85090000D01*
X182880000Y-92710000D02*
X173228000Y-83058000D01*
X173228000Y-83058000D02*
X150622000Y-83058000D01*
X150622000Y-83058000D02*
X149439999Y-84240001D01*
X149439999Y-84240001D02*
X148590000Y-85090000D01*
X182880000Y-102870000D02*
X163922999Y-83912999D01*
X163922999Y-83912999D02*
X152307001Y-83912999D01*
X152307001Y-83912999D02*
X151979999Y-84240001D01*
X151979999Y-84240001D02*
X151130000Y-85090000D01*
X182880000Y-105410000D02*
X166081398Y-88611398D01*
X166081398Y-88611398D02*
X157191398Y-88611398D01*
X157191398Y-88611398D02*
X154519999Y-85939999D01*
X154519999Y-85939999D02*
X153670000Y-85090000D01*
X132842000Y-90297000D02*
X124667000Y-90297000D01*
X124667000Y-90297000D02*
X124540000Y-90170000D01*
X124540000Y-92710000D02*
X132715000Y-92710000D01*
X132715000Y-95250000D02*
X124540000Y-95250000D01*
X115570000Y-90170000D02*
X121840000Y-90170000D01*
G36*
X199950000Y-114860000D02*
X108660000Y-114860000D01*
X108660000Y-114010213D01*
X182079392Y-114010213D01*
X182148857Y-114252397D01*
X182672302Y-114439144D01*
X183227368Y-114411362D01*
X183611143Y-114252397D01*
X183680608Y-114010213D01*
X182880000Y-113209605D01*
X182079392Y-114010213D01*
X108660000Y-114010213D01*
X108660000Y-112822302D01*
X181470856Y-112822302D01*
X181498638Y-113377368D01*
X181657603Y-113761143D01*
X181899787Y-113830608D01*
X182700395Y-113030000D01*
X183059605Y-113030000D01*
X183860213Y-113830608D01*
X184102397Y-113761143D01*
X184289144Y-113237698D01*
X184261362Y-112682632D01*
X184102397Y-112298857D01*
X183860213Y-112229392D01*
X183059605Y-113030000D01*
X182700395Y-113030000D01*
X181899787Y-112229392D01*
X181657603Y-112298857D01*
X181470856Y-112822302D01*
X108660000Y-112822302D01*
X108660000Y-109662619D01*
X109524613Y-109662619D01*
X109864155Y-110484372D01*
X110492321Y-111113636D01*
X111313481Y-111454611D01*
X112202619Y-111455387D01*
X113024372Y-111115845D01*
X113653636Y-110487679D01*
X113994611Y-109666519D01*
X113995387Y-108777381D01*
X113655845Y-107955628D01*
X113027679Y-107326364D01*
X112206519Y-106985389D01*
X111317381Y-106984613D01*
X110495628Y-107324155D01*
X109866364Y-107952321D01*
X109525389Y-108773481D01*
X109524613Y-109662619D01*
X108660000Y-109662619D01*
X108660000Y-105174285D01*
X113154760Y-105174285D01*
X113365169Y-105683515D01*
X113754436Y-106073461D01*
X114230174Y-106271005D01*
X114175241Y-106403298D01*
X114174760Y-106954285D01*
X114385169Y-107463515D01*
X114774436Y-107853461D01*
X115283298Y-108064759D01*
X115834285Y-108065240D01*
X116343515Y-107854831D01*
X116547183Y-107651517D01*
X116808088Y-107651517D01*
X116876077Y-107892460D01*
X117395171Y-108077201D01*
X117945448Y-108049230D01*
X118323923Y-107892460D01*
X118391912Y-107651517D01*
X117600000Y-106859605D01*
X116808088Y-107651517D01*
X116547183Y-107651517D01*
X116733461Y-107465564D01*
X116803497Y-107296898D01*
X117420395Y-106680000D01*
X117406253Y-106665858D01*
X117585858Y-106486253D01*
X117600000Y-106500395D01*
X117614143Y-106486253D01*
X117793748Y-106665858D01*
X117779605Y-106680000D01*
X118396199Y-107296594D01*
X118465169Y-107463515D01*
X118854436Y-107853461D01*
X119363298Y-108064759D01*
X119914285Y-108065240D01*
X119937866Y-108055497D01*
X120178185Y-108295816D01*
X120425396Y-108460997D01*
X120717001Y-108519001D01*
X122331058Y-108519001D01*
X122225389Y-108773481D01*
X122224613Y-109662619D01*
X122564155Y-110484372D01*
X123192321Y-111113636D01*
X124013481Y-111454611D01*
X124902619Y-111455387D01*
X125724372Y-111115845D01*
X126353636Y-110487679D01*
X126694611Y-109666519D01*
X126695387Y-108777381D01*
X126355845Y-107955628D01*
X126296331Y-107896010D01*
X181483047Y-107896010D01*
X181482758Y-108226661D01*
X181694990Y-108740303D01*
X182087630Y-109133629D01*
X182295512Y-109219949D01*
X182089697Y-109304990D01*
X181696371Y-109697630D01*
X181483243Y-110210900D01*
X181482758Y-110766661D01*
X181694990Y-111280303D01*
X182087630Y-111673629D01*
X182279727Y-111753395D01*
X182148857Y-111807603D01*
X182079392Y-112049787D01*
X182880000Y-112850395D01*
X183680608Y-112049787D01*
X183611143Y-111807603D01*
X183470682Y-111757491D01*
X183670303Y-111675010D01*
X184063629Y-111282370D01*
X184276757Y-110769100D01*
X184277242Y-110213339D01*
X184065010Y-109699697D01*
X183672370Y-109306371D01*
X183464488Y-109220051D01*
X183670303Y-109135010D01*
X184063629Y-108742370D01*
X184276757Y-108229100D01*
X184277048Y-107896010D01*
X186362990Y-107896010D01*
X186654595Y-107838006D01*
X186901805Y-107672825D01*
X189949815Y-104624816D01*
X190048833Y-104476624D01*
X190114995Y-104377606D01*
X190126161Y-104321469D01*
X196723057Y-97724573D01*
X196722758Y-98066661D01*
X196934990Y-98580303D01*
X197327630Y-98973629D01*
X197535512Y-99059949D01*
X197329697Y-99144990D01*
X196936371Y-99537630D01*
X196723243Y-100050900D01*
X196722758Y-100606661D01*
X196934990Y-101120303D01*
X197327630Y-101513629D01*
X197535512Y-101599949D01*
X197329697Y-101684990D01*
X196936371Y-102077630D01*
X196723243Y-102590900D01*
X196722758Y-103146661D01*
X196934990Y-103660303D01*
X197327630Y-104053629D01*
X197535512Y-104139949D01*
X197329697Y-104224990D01*
X196936371Y-104617630D01*
X196723243Y-105130900D01*
X196722758Y-105686661D01*
X196934990Y-106200303D01*
X197327630Y-106593629D01*
X197535512Y-106679949D01*
X197329697Y-106764990D01*
X196936371Y-107157630D01*
X196723243Y-107670900D01*
X196722758Y-108226661D01*
X196934990Y-108740303D01*
X197327630Y-109133629D01*
X197535512Y-109219949D01*
X197329697Y-109304990D01*
X196936371Y-109697630D01*
X196723243Y-110210900D01*
X196722758Y-110766661D01*
X196934990Y-111280303D01*
X197327630Y-111673629D01*
X197535512Y-111759949D01*
X197329697Y-111844990D01*
X196936371Y-112237630D01*
X196723243Y-112750900D01*
X196722758Y-113306661D01*
X196934990Y-113820303D01*
X197327630Y-114213629D01*
X197840900Y-114426757D01*
X198396661Y-114427242D01*
X198910303Y-114215010D01*
X199303629Y-113822370D01*
X199516757Y-113309100D01*
X199517242Y-112753339D01*
X199305010Y-112239697D01*
X198912370Y-111846371D01*
X198704488Y-111760051D01*
X198910303Y-111675010D01*
X199303629Y-111282370D01*
X199516757Y-110769100D01*
X199517242Y-110213339D01*
X199305010Y-109699697D01*
X198912370Y-109306371D01*
X198704488Y-109220051D01*
X198910303Y-109135010D01*
X199303629Y-108742370D01*
X199516757Y-108229100D01*
X199517242Y-107673339D01*
X199305010Y-107159697D01*
X198912370Y-106766371D01*
X198704488Y-106680051D01*
X198910303Y-106595010D01*
X199303629Y-106202370D01*
X199516757Y-105689100D01*
X199517242Y-105133339D01*
X199305010Y-104619697D01*
X198912370Y-104226371D01*
X198704488Y-104140051D01*
X198910303Y-104055010D01*
X199303629Y-103662370D01*
X199516757Y-103149100D01*
X199517242Y-102593339D01*
X199305010Y-102079697D01*
X198912370Y-101686371D01*
X198704488Y-101600051D01*
X198910303Y-101515010D01*
X199303629Y-101122370D01*
X199516757Y-100609100D01*
X199517242Y-100053339D01*
X199305010Y-99539697D01*
X198912370Y-99146371D01*
X198704488Y-99060051D01*
X198910303Y-98975010D01*
X199303629Y-98582370D01*
X199516757Y-98069100D01*
X199517242Y-97513339D01*
X199305010Y-96999697D01*
X198912370Y-96606371D01*
X198704488Y-96520051D01*
X198910303Y-96435010D01*
X199303629Y-96042370D01*
X199516757Y-95529100D01*
X199517242Y-94973339D01*
X199305010Y-94459697D01*
X198912370Y-94066371D01*
X198704488Y-93980051D01*
X198910303Y-93895010D01*
X199303629Y-93502370D01*
X199516757Y-92989100D01*
X199517242Y-92433339D01*
X199305010Y-91919697D01*
X198912370Y-91526371D01*
X198704488Y-91440051D01*
X198910303Y-91355010D01*
X199303629Y-90962370D01*
X199516757Y-90449100D01*
X199517242Y-89893339D01*
X199305010Y-89379697D01*
X198912370Y-88986371D01*
X198704488Y-88900051D01*
X198910303Y-88815010D01*
X199303629Y-88422370D01*
X199516757Y-87909100D01*
X199517242Y-87353339D01*
X199305010Y-86839697D01*
X198912370Y-86446371D01*
X198704488Y-86360051D01*
X198910303Y-86275010D01*
X199303629Y-85882370D01*
X199516757Y-85369100D01*
X199517242Y-84813339D01*
X199305010Y-84299697D01*
X198912370Y-83906371D01*
X198704488Y-83820051D01*
X198910303Y-83735010D01*
X199303629Y-83342370D01*
X199516757Y-82829100D01*
X199517242Y-82273339D01*
X199305010Y-81759697D01*
X198912370Y-81366371D01*
X198704488Y-81280051D01*
X198910303Y-81195010D01*
X199303629Y-80802370D01*
X199516757Y-80289100D01*
X199517242Y-79733339D01*
X199305010Y-79219697D01*
X198912370Y-78826371D01*
X198399100Y-78613243D01*
X197843339Y-78612758D01*
X197329697Y-78824990D01*
X196936371Y-79217630D01*
X196850051Y-79425512D01*
X196765010Y-79219697D01*
X196372370Y-78826371D01*
X195859100Y-78613243D01*
X195303339Y-78612758D01*
X194789697Y-78824990D01*
X194396371Y-79217630D01*
X194310051Y-79425512D01*
X194225010Y-79219697D01*
X193832370Y-78826371D01*
X193319100Y-78613243D01*
X192763339Y-78612758D01*
X192249697Y-78824990D01*
X191856371Y-79217630D01*
X191770051Y-79425512D01*
X191685010Y-79219697D01*
X191292370Y-78826371D01*
X190779100Y-78613243D01*
X190223339Y-78612758D01*
X189709697Y-78824990D01*
X189316371Y-79217630D01*
X189230051Y-79425512D01*
X189145010Y-79219697D01*
X188752370Y-78826371D01*
X188239100Y-78613243D01*
X187683339Y-78612758D01*
X187169697Y-78824990D01*
X186776371Y-79217630D01*
X186690051Y-79425512D01*
X186605010Y-79219697D01*
X186212370Y-78826371D01*
X185699100Y-78613243D01*
X185143339Y-78612758D01*
X184629697Y-78824990D01*
X184236371Y-79217630D01*
X184150051Y-79425512D01*
X184065010Y-79219697D01*
X183672370Y-78826371D01*
X183159100Y-78613243D01*
X182603339Y-78612758D01*
X182089697Y-78824990D01*
X181696371Y-79217630D01*
X181483243Y-79730900D01*
X181482758Y-80286661D01*
X181694990Y-80800303D01*
X182087630Y-81193629D01*
X182295512Y-81279949D01*
X182089697Y-81364990D01*
X181696371Y-81757630D01*
X181483243Y-82270900D01*
X181482758Y-82826661D01*
X181694990Y-83340303D01*
X182087630Y-83733629D01*
X182295512Y-83819949D01*
X182089697Y-83904990D01*
X181696371Y-84297630D01*
X181483243Y-84810900D01*
X181482758Y-85366661D01*
X181694990Y-85880303D01*
X182087630Y-86273629D01*
X182295512Y-86359949D01*
X182089697Y-86444990D01*
X181696371Y-86837630D01*
X181483243Y-87350900D01*
X181482942Y-87695312D01*
X175852805Y-82065175D01*
X175605595Y-81899994D01*
X175313990Y-81841990D01*
X147432010Y-81841990D01*
X147140405Y-81899994D01*
X146893194Y-82065175D01*
X145511185Y-83447185D01*
X145414048Y-83592560D01*
X145200000Y-83592560D01*
X144964683Y-83636838D01*
X144748559Y-83775910D01*
X144603569Y-83988110D01*
X144552560Y-84240000D01*
X144552560Y-85940000D01*
X144596838Y-86175317D01*
X144735910Y-86391441D01*
X144948110Y-86536431D01*
X145200000Y-86587440D01*
X146900000Y-86587440D01*
X147135317Y-86543162D01*
X147351441Y-86404090D01*
X147496431Y-86191890D01*
X147510086Y-86124459D01*
X147539946Y-86169147D01*
X148021715Y-86491054D01*
X148590000Y-86604093D01*
X149158285Y-86491054D01*
X149640054Y-86169147D01*
X149860000Y-85839974D01*
X150079946Y-86169147D01*
X150561715Y-86491054D01*
X151130000Y-86604093D01*
X151698285Y-86491054D01*
X152180054Y-86169147D01*
X152400000Y-85839974D01*
X152619946Y-86169147D01*
X153101715Y-86491054D01*
X153670000Y-86604093D01*
X154034049Y-86531679D01*
X155855010Y-88352641D01*
X155810913Y-88361412D01*
X155722777Y-88420303D01*
X155563703Y-88526592D01*
X155289566Y-88800730D01*
X154925517Y-88728316D01*
X154357232Y-88841355D01*
X153875463Y-89163262D01*
X153655517Y-89492435D01*
X153435571Y-89163262D01*
X152953802Y-88841355D01*
X152385517Y-88728316D01*
X151817232Y-88841355D01*
X151335463Y-89163262D01*
X151306114Y-89207186D01*
X151233844Y-89032711D01*
X151055216Y-88854082D01*
X150821827Y-88757409D01*
X150131267Y-88757409D01*
X149972517Y-88916159D01*
X149972517Y-90115409D01*
X149992517Y-90115409D01*
X149992517Y-90369409D01*
X149972517Y-90369409D01*
X149972517Y-91568659D01*
X150131267Y-91727409D01*
X150821827Y-91727409D01*
X151055216Y-91630736D01*
X151233844Y-91452107D01*
X151306114Y-91277632D01*
X151335463Y-91321556D01*
X151817232Y-91643463D01*
X152385517Y-91756502D01*
X152953802Y-91643463D01*
X153435571Y-91321556D01*
X153655517Y-90992383D01*
X153875463Y-91321556D01*
X154357232Y-91643463D01*
X154882375Y-91747921D01*
X142492296Y-104138000D01*
X121843721Y-104138000D01*
X121834831Y-104116485D01*
X121445564Y-103726539D01*
X120936702Y-103515241D01*
X120385715Y-103514760D01*
X119876485Y-103725169D01*
X119486539Y-104114436D01*
X119416503Y-104283102D01*
X118799605Y-104900000D01*
X118813748Y-104914143D01*
X118634143Y-105093748D01*
X118620000Y-105079605D01*
X118605858Y-105093748D01*
X118426253Y-104914143D01*
X118440395Y-104900000D01*
X117823801Y-104283406D01*
X117754831Y-104116485D01*
X117567157Y-103928483D01*
X117828088Y-103928483D01*
X118620000Y-104720395D01*
X119411912Y-103928483D01*
X119343923Y-103687540D01*
X118824829Y-103502799D01*
X118274552Y-103530770D01*
X117896077Y-103687540D01*
X117828088Y-103928483D01*
X117567157Y-103928483D01*
X117365564Y-103726539D01*
X116856702Y-103515241D01*
X116305715Y-103514760D01*
X115796485Y-103725169D01*
X115559929Y-103961313D01*
X115325564Y-103726539D01*
X114816702Y-103515241D01*
X114265715Y-103514760D01*
X113756485Y-103725169D01*
X113366539Y-104114436D01*
X113155241Y-104623298D01*
X113154760Y-105174285D01*
X108660000Y-105174285D01*
X108660000Y-90170000D01*
X113951399Y-90170000D01*
X114040087Y-90615863D01*
X113982500Y-90754890D01*
X113982500Y-91154250D01*
X114141250Y-91313000D01*
X114889812Y-91313000D01*
X115145199Y-91363800D01*
X115994801Y-91363800D01*
X116250188Y-91313000D01*
X116998750Y-91313000D01*
X117157500Y-91154250D01*
X117157500Y-90932000D01*
X120463634Y-90932000D01*
X120486838Y-91055317D01*
X120625910Y-91271441D01*
X120838110Y-91416431D01*
X120949523Y-91438993D01*
X120854683Y-91456838D01*
X120638559Y-91595910D01*
X120493569Y-91808110D01*
X120465241Y-91948000D01*
X117157500Y-91948000D01*
X117157500Y-91725750D01*
X116998750Y-91567000D01*
X116250188Y-91567000D01*
X115994801Y-91516200D01*
X115145199Y-91516200D01*
X114889812Y-91567000D01*
X114141250Y-91567000D01*
X113982500Y-91725750D01*
X113982500Y-92125110D01*
X114040087Y-92264137D01*
X113951399Y-92710000D01*
X114042272Y-93166847D01*
X114161310Y-93345000D01*
X114042272Y-93523153D01*
X113951399Y-93980000D01*
X114042272Y-94436847D01*
X114301055Y-94824144D01*
X114688352Y-95082927D01*
X115145199Y-95173800D01*
X115994801Y-95173800D01*
X116451648Y-95082927D01*
X116838945Y-94824144D01*
X116893832Y-94742000D01*
X117794370Y-94742000D01*
X118841184Y-95788815D01*
X119088395Y-95953996D01*
X119380000Y-96012000D01*
X120463634Y-96012000D01*
X120486838Y-96135317D01*
X120625910Y-96351441D01*
X120838110Y-96496431D01*
X121090000Y-96547440D01*
X122590000Y-96547440D01*
X122825317Y-96503162D01*
X123041441Y-96364090D01*
X123186431Y-96151890D01*
X123189081Y-96138803D01*
X123325910Y-96351441D01*
X123538110Y-96496431D01*
X123790000Y-96547440D01*
X125290000Y-96547440D01*
X125525317Y-96503162D01*
X125741441Y-96364090D01*
X125886431Y-96151890D01*
X125914759Y-96012000D01*
X132154534Y-96012000D01*
X132184673Y-96042192D01*
X132528201Y-96184838D01*
X132900167Y-96185162D01*
X133243943Y-96043117D01*
X133507192Y-95780327D01*
X133649838Y-95436799D01*
X133650162Y-95064833D01*
X133508117Y-94721057D01*
X133245327Y-94457808D01*
X132901799Y-94315162D01*
X132529833Y-94314838D01*
X132186057Y-94456883D01*
X132154886Y-94488000D01*
X125916366Y-94488000D01*
X125893162Y-94364683D01*
X125754090Y-94148559D01*
X125541890Y-94003569D01*
X125430477Y-93981007D01*
X125525317Y-93963162D01*
X125741441Y-93824090D01*
X125886431Y-93611890D01*
X125914759Y-93472000D01*
X132154534Y-93472000D01*
X132184673Y-93502192D01*
X132528201Y-93644838D01*
X132900167Y-93645162D01*
X133243943Y-93503117D01*
X133507192Y-93240327D01*
X133649838Y-92896799D01*
X133650162Y-92524833D01*
X133508117Y-92181057D01*
X133245327Y-91917808D01*
X132901799Y-91775162D01*
X132529833Y-91774838D01*
X132186057Y-91916883D01*
X132154886Y-91948000D01*
X125916366Y-91948000D01*
X125893162Y-91824683D01*
X125754090Y-91608559D01*
X125541890Y-91463569D01*
X125430477Y-91441007D01*
X125525317Y-91423162D01*
X125741441Y-91284090D01*
X125886431Y-91071890D01*
X125889041Y-91059000D01*
X132281534Y-91059000D01*
X132311673Y-91089192D01*
X132655201Y-91231838D01*
X133027167Y-91232162D01*
X133370943Y-91090117D01*
X133634192Y-90827327D01*
X133758418Y-90528159D01*
X148360517Y-90528159D01*
X148360517Y-91218718D01*
X148457190Y-91452107D01*
X148635818Y-91630736D01*
X148869207Y-91727409D01*
X149559767Y-91727409D01*
X149718517Y-91568659D01*
X149718517Y-90369409D01*
X148519267Y-90369409D01*
X148360517Y-90528159D01*
X133758418Y-90528159D01*
X133776838Y-90483799D01*
X133777162Y-90111833D01*
X133635117Y-89768057D01*
X133372327Y-89504808D01*
X133028799Y-89362162D01*
X132656833Y-89361838D01*
X132313057Y-89503883D01*
X132281886Y-89535000D01*
X125937440Y-89535000D01*
X125937440Y-89520000D01*
X125893162Y-89284683D01*
X125881205Y-89266100D01*
X148360517Y-89266100D01*
X148360517Y-89956659D01*
X148519267Y-90115409D01*
X149718517Y-90115409D01*
X149718517Y-88916159D01*
X149559767Y-88757409D01*
X148869207Y-88757409D01*
X148635818Y-88854082D01*
X148457190Y-89032711D01*
X148360517Y-89266100D01*
X125881205Y-89266100D01*
X125754090Y-89068559D01*
X125541890Y-88923569D01*
X125290000Y-88872560D01*
X123790000Y-88872560D01*
X123554683Y-88916838D01*
X123338559Y-89055910D01*
X123193569Y-89268110D01*
X123190919Y-89281197D01*
X123054090Y-89068559D01*
X122841890Y-88923569D01*
X122590000Y-88872560D01*
X121090000Y-88872560D01*
X120854683Y-88916838D01*
X120638559Y-89055910D01*
X120493569Y-89268110D01*
X120465241Y-89408000D01*
X116893832Y-89408000D01*
X116838945Y-89325856D01*
X116451648Y-89067073D01*
X115994801Y-88976200D01*
X115145199Y-88976200D01*
X114688352Y-89067073D01*
X114301055Y-89325856D01*
X114042272Y-89713153D01*
X113951399Y-90170000D01*
X108660000Y-90170000D01*
X108660000Y-78180000D01*
X199950000Y-78180000D01*
X199950000Y-114860000D01*
X199950000Y-114860000D01*
G37*
X199950000Y-114860000D02*
X108660000Y-114860000D01*
X108660000Y-114010213D01*
X182079392Y-114010213D01*
X182148857Y-114252397D01*
X182672302Y-114439144D01*
X183227368Y-114411362D01*
X183611143Y-114252397D01*
X183680608Y-114010213D01*
X182880000Y-113209605D01*
X182079392Y-114010213D01*
X108660000Y-114010213D01*
X108660000Y-112822302D01*
X181470856Y-112822302D01*
X181498638Y-113377368D01*
X181657603Y-113761143D01*
X181899787Y-113830608D01*
X182700395Y-113030000D01*
X183059605Y-113030000D01*
X183860213Y-113830608D01*
X184102397Y-113761143D01*
X184289144Y-113237698D01*
X184261362Y-112682632D01*
X184102397Y-112298857D01*
X183860213Y-112229392D01*
X183059605Y-113030000D01*
X182700395Y-113030000D01*
X181899787Y-112229392D01*
X181657603Y-112298857D01*
X181470856Y-112822302D01*
X108660000Y-112822302D01*
X108660000Y-109662619D01*
X109524613Y-109662619D01*
X109864155Y-110484372D01*
X110492321Y-111113636D01*
X111313481Y-111454611D01*
X112202619Y-111455387D01*
X113024372Y-111115845D01*
X113653636Y-110487679D01*
X113994611Y-109666519D01*
X113995387Y-108777381D01*
X113655845Y-107955628D01*
X113027679Y-107326364D01*
X112206519Y-106985389D01*
X111317381Y-106984613D01*
X110495628Y-107324155D01*
X109866364Y-107952321D01*
X109525389Y-108773481D01*
X109524613Y-109662619D01*
X108660000Y-109662619D01*
X108660000Y-105174285D01*
X113154760Y-105174285D01*
X113365169Y-105683515D01*
X113754436Y-106073461D01*
X114230174Y-106271005D01*
X114175241Y-106403298D01*
X114174760Y-106954285D01*
X114385169Y-107463515D01*
X114774436Y-107853461D01*
X115283298Y-108064759D01*
X115834285Y-108065240D01*
X116343515Y-107854831D01*
X116547183Y-107651517D01*
X116808088Y-107651517D01*
X116876077Y-107892460D01*
X117395171Y-108077201D01*
X117945448Y-108049230D01*
X118323923Y-107892460D01*
X118391912Y-107651517D01*
X117600000Y-106859605D01*
X116808088Y-107651517D01*
X116547183Y-107651517D01*
X116733461Y-107465564D01*
X116803497Y-107296898D01*
X117420395Y-106680000D01*
X117406253Y-106665858D01*
X117585858Y-106486253D01*
X117600000Y-106500395D01*
X117614143Y-106486253D01*
X117793748Y-106665858D01*
X117779605Y-106680000D01*
X118396199Y-107296594D01*
X118465169Y-107463515D01*
X118854436Y-107853461D01*
X119363298Y-108064759D01*
X119914285Y-108065240D01*
X119937866Y-108055497D01*
X120178185Y-108295816D01*
X120425396Y-108460997D01*
X120717001Y-108519001D01*
X122331058Y-108519001D01*
X122225389Y-108773481D01*
X122224613Y-109662619D01*
X122564155Y-110484372D01*
X123192321Y-111113636D01*
X124013481Y-111454611D01*
X124902619Y-111455387D01*
X125724372Y-111115845D01*
X126353636Y-110487679D01*
X126694611Y-109666519D01*
X126695387Y-108777381D01*
X126355845Y-107955628D01*
X126296331Y-107896010D01*
X181483047Y-107896010D01*
X181482758Y-108226661D01*
X181694990Y-108740303D01*
X182087630Y-109133629D01*
X182295512Y-109219949D01*
X182089697Y-109304990D01*
X181696371Y-109697630D01*
X181483243Y-110210900D01*
X181482758Y-110766661D01*
X181694990Y-111280303D01*
X182087630Y-111673629D01*
X182279727Y-111753395D01*
X182148857Y-111807603D01*
X182079392Y-112049787D01*
X182880000Y-112850395D01*
X183680608Y-112049787D01*
X183611143Y-111807603D01*
X183470682Y-111757491D01*
X183670303Y-111675010D01*
X184063629Y-111282370D01*
X184276757Y-110769100D01*
X184277242Y-110213339D01*
X184065010Y-109699697D01*
X183672370Y-109306371D01*
X183464488Y-109220051D01*
X183670303Y-109135010D01*
X184063629Y-108742370D01*
X184276757Y-108229100D01*
X184277048Y-107896010D01*
X186362990Y-107896010D01*
X186654595Y-107838006D01*
X186901805Y-107672825D01*
X189949815Y-104624816D01*
X190048833Y-104476624D01*
X190114995Y-104377606D01*
X190126161Y-104321469D01*
X196723057Y-97724573D01*
X196722758Y-98066661D01*
X196934990Y-98580303D01*
X197327630Y-98973629D01*
X197535512Y-99059949D01*
X197329697Y-99144990D01*
X196936371Y-99537630D01*
X196723243Y-100050900D01*
X196722758Y-100606661D01*
X196934990Y-101120303D01*
X197327630Y-101513629D01*
X197535512Y-101599949D01*
X197329697Y-101684990D01*
X196936371Y-102077630D01*
X196723243Y-102590900D01*
X196722758Y-103146661D01*
X196934990Y-103660303D01*
X197327630Y-104053629D01*
X197535512Y-104139949D01*
X197329697Y-104224990D01*
X196936371Y-104617630D01*
X196723243Y-105130900D01*
X196722758Y-105686661D01*
X196934990Y-106200303D01*
X197327630Y-106593629D01*
X197535512Y-106679949D01*
X197329697Y-106764990D01*
X196936371Y-107157630D01*
X196723243Y-107670900D01*
X196722758Y-108226661D01*
X196934990Y-108740303D01*
X197327630Y-109133629D01*
X197535512Y-109219949D01*
X197329697Y-109304990D01*
X196936371Y-109697630D01*
X196723243Y-110210900D01*
X196722758Y-110766661D01*
X196934990Y-111280303D01*
X197327630Y-111673629D01*
X197535512Y-111759949D01*
X197329697Y-111844990D01*
X196936371Y-112237630D01*
X196723243Y-112750900D01*
X196722758Y-113306661D01*
X196934990Y-113820303D01*
X197327630Y-114213629D01*
X197840900Y-114426757D01*
X198396661Y-114427242D01*
X198910303Y-114215010D01*
X199303629Y-113822370D01*
X199516757Y-113309100D01*
X199517242Y-112753339D01*
X199305010Y-112239697D01*
X198912370Y-111846371D01*
X198704488Y-111760051D01*
X198910303Y-111675010D01*
X199303629Y-111282370D01*
X199516757Y-110769100D01*
X199517242Y-110213339D01*
X199305010Y-109699697D01*
X198912370Y-109306371D01*
X198704488Y-109220051D01*
X198910303Y-109135010D01*
X199303629Y-108742370D01*
X199516757Y-108229100D01*
X199517242Y-107673339D01*
X199305010Y-107159697D01*
X198912370Y-106766371D01*
X198704488Y-106680051D01*
X198910303Y-106595010D01*
X199303629Y-106202370D01*
X199516757Y-105689100D01*
X199517242Y-105133339D01*
X199305010Y-104619697D01*
X198912370Y-104226371D01*
X198704488Y-104140051D01*
X198910303Y-104055010D01*
X199303629Y-103662370D01*
X199516757Y-103149100D01*
X199517242Y-102593339D01*
X199305010Y-102079697D01*
X198912370Y-101686371D01*
X198704488Y-101600051D01*
X198910303Y-101515010D01*
X199303629Y-101122370D01*
X199516757Y-100609100D01*
X199517242Y-100053339D01*
X199305010Y-99539697D01*
X198912370Y-99146371D01*
X198704488Y-99060051D01*
X198910303Y-98975010D01*
X199303629Y-98582370D01*
X199516757Y-98069100D01*
X199517242Y-97513339D01*
X199305010Y-96999697D01*
X198912370Y-96606371D01*
X198704488Y-96520051D01*
X198910303Y-96435010D01*
X199303629Y-96042370D01*
X199516757Y-95529100D01*
X199517242Y-94973339D01*
X199305010Y-94459697D01*
X198912370Y-94066371D01*
X198704488Y-93980051D01*
X198910303Y-93895010D01*
X199303629Y-93502370D01*
X199516757Y-92989100D01*
X199517242Y-92433339D01*
X199305010Y-91919697D01*
X198912370Y-91526371D01*
X198704488Y-91440051D01*
X198910303Y-91355010D01*
X199303629Y-90962370D01*
X199516757Y-90449100D01*
X199517242Y-89893339D01*
X199305010Y-89379697D01*
X198912370Y-88986371D01*
X198704488Y-88900051D01*
X198910303Y-88815010D01*
X199303629Y-88422370D01*
X199516757Y-87909100D01*
X199517242Y-87353339D01*
X199305010Y-86839697D01*
X198912370Y-86446371D01*
X198704488Y-86360051D01*
X198910303Y-86275010D01*
X199303629Y-85882370D01*
X199516757Y-85369100D01*
X199517242Y-84813339D01*
X199305010Y-84299697D01*
X198912370Y-83906371D01*
X198704488Y-83820051D01*
X198910303Y-83735010D01*
X199303629Y-83342370D01*
X199516757Y-82829100D01*
X199517242Y-82273339D01*
X199305010Y-81759697D01*
X198912370Y-81366371D01*
X198704488Y-81280051D01*
X198910303Y-81195010D01*
X199303629Y-80802370D01*
X199516757Y-80289100D01*
X199517242Y-79733339D01*
X199305010Y-79219697D01*
X198912370Y-78826371D01*
X198399100Y-78613243D01*
X197843339Y-78612758D01*
X197329697Y-78824990D01*
X196936371Y-79217630D01*
X196850051Y-79425512D01*
X196765010Y-79219697D01*
X196372370Y-78826371D01*
X195859100Y-78613243D01*
X195303339Y-78612758D01*
X194789697Y-78824990D01*
X194396371Y-79217630D01*
X194310051Y-79425512D01*
X194225010Y-79219697D01*
X193832370Y-78826371D01*
X193319100Y-78613243D01*
X192763339Y-78612758D01*
X192249697Y-78824990D01*
X191856371Y-79217630D01*
X191770051Y-79425512D01*
X191685010Y-79219697D01*
X191292370Y-78826371D01*
X190779100Y-78613243D01*
X190223339Y-78612758D01*
X189709697Y-78824990D01*
X189316371Y-79217630D01*
X189230051Y-79425512D01*
X189145010Y-79219697D01*
X188752370Y-78826371D01*
X188239100Y-78613243D01*
X187683339Y-78612758D01*
X187169697Y-78824990D01*
X186776371Y-79217630D01*
X186690051Y-79425512D01*
X186605010Y-79219697D01*
X186212370Y-78826371D01*
X185699100Y-78613243D01*
X185143339Y-78612758D01*
X184629697Y-78824990D01*
X184236371Y-79217630D01*
X184150051Y-79425512D01*
X184065010Y-79219697D01*
X183672370Y-78826371D01*
X183159100Y-78613243D01*
X182603339Y-78612758D01*
X182089697Y-78824990D01*
X181696371Y-79217630D01*
X181483243Y-79730900D01*
X181482758Y-80286661D01*
X181694990Y-80800303D01*
X182087630Y-81193629D01*
X182295512Y-81279949D01*
X182089697Y-81364990D01*
X181696371Y-81757630D01*
X181483243Y-82270900D01*
X181482758Y-82826661D01*
X181694990Y-83340303D01*
X182087630Y-83733629D01*
X182295512Y-83819949D01*
X182089697Y-83904990D01*
X181696371Y-84297630D01*
X181483243Y-84810900D01*
X181482758Y-85366661D01*
X181694990Y-85880303D01*
X182087630Y-86273629D01*
X182295512Y-86359949D01*
X182089697Y-86444990D01*
X181696371Y-86837630D01*
X181483243Y-87350900D01*
X181482942Y-87695312D01*
X175852805Y-82065175D01*
X175605595Y-81899994D01*
X175313990Y-81841990D01*
X147432010Y-81841990D01*
X147140405Y-81899994D01*
X146893194Y-82065175D01*
X145511185Y-83447185D01*
X145414048Y-83592560D01*
X145200000Y-83592560D01*
X144964683Y-83636838D01*
X144748559Y-83775910D01*
X144603569Y-83988110D01*
X144552560Y-84240000D01*
X144552560Y-85940000D01*
X144596838Y-86175317D01*
X144735910Y-86391441D01*
X144948110Y-86536431D01*
X145200000Y-86587440D01*
X146900000Y-86587440D01*
X147135317Y-86543162D01*
X147351441Y-86404090D01*
X147496431Y-86191890D01*
X147510086Y-86124459D01*
X147539946Y-86169147D01*
X148021715Y-86491054D01*
X148590000Y-86604093D01*
X149158285Y-86491054D01*
X149640054Y-86169147D01*
X149860000Y-85839974D01*
X150079946Y-86169147D01*
X150561715Y-86491054D01*
X151130000Y-86604093D01*
X151698285Y-86491054D01*
X152180054Y-86169147D01*
X152400000Y-85839974D01*
X152619946Y-86169147D01*
X153101715Y-86491054D01*
X153670000Y-86604093D01*
X154034049Y-86531679D01*
X155855010Y-88352641D01*
X155810913Y-88361412D01*
X155722777Y-88420303D01*
X155563703Y-88526592D01*
X155289566Y-88800730D01*
X154925517Y-88728316D01*
X154357232Y-88841355D01*
X153875463Y-89163262D01*
X153655517Y-89492435D01*
X153435571Y-89163262D01*
X152953802Y-88841355D01*
X152385517Y-88728316D01*
X151817232Y-88841355D01*
X151335463Y-89163262D01*
X151306114Y-89207186D01*
X151233844Y-89032711D01*
X151055216Y-88854082D01*
X150821827Y-88757409D01*
X150131267Y-88757409D01*
X149972517Y-88916159D01*
X149972517Y-90115409D01*
X149992517Y-90115409D01*
X149992517Y-90369409D01*
X149972517Y-90369409D01*
X149972517Y-91568659D01*
X150131267Y-91727409D01*
X150821827Y-91727409D01*
X151055216Y-91630736D01*
X151233844Y-91452107D01*
X151306114Y-91277632D01*
X151335463Y-91321556D01*
X151817232Y-91643463D01*
X152385517Y-91756502D01*
X152953802Y-91643463D01*
X153435571Y-91321556D01*
X153655517Y-90992383D01*
X153875463Y-91321556D01*
X154357232Y-91643463D01*
X154882375Y-91747921D01*
X142492296Y-104138000D01*
X121843721Y-104138000D01*
X121834831Y-104116485D01*
X121445564Y-103726539D01*
X120936702Y-103515241D01*
X120385715Y-103514760D01*
X119876485Y-103725169D01*
X119486539Y-104114436D01*
X119416503Y-104283102D01*
X118799605Y-104900000D01*
X118813748Y-104914143D01*
X118634143Y-105093748D01*
X118620000Y-105079605D01*
X118605858Y-105093748D01*
X118426253Y-104914143D01*
X118440395Y-104900000D01*
X117823801Y-104283406D01*
X117754831Y-104116485D01*
X117567157Y-103928483D01*
X117828088Y-103928483D01*
X118620000Y-104720395D01*
X119411912Y-103928483D01*
X119343923Y-103687540D01*
X118824829Y-103502799D01*
X118274552Y-103530770D01*
X117896077Y-103687540D01*
X117828088Y-103928483D01*
X117567157Y-103928483D01*
X117365564Y-103726539D01*
X116856702Y-103515241D01*
X116305715Y-103514760D01*
X115796485Y-103725169D01*
X115559929Y-103961313D01*
X115325564Y-103726539D01*
X114816702Y-103515241D01*
X114265715Y-103514760D01*
X113756485Y-103725169D01*
X113366539Y-104114436D01*
X113155241Y-104623298D01*
X113154760Y-105174285D01*
X108660000Y-105174285D01*
X108660000Y-90170000D01*
X113951399Y-90170000D01*
X114040087Y-90615863D01*
X113982500Y-90754890D01*
X113982500Y-91154250D01*
X114141250Y-91313000D01*
X114889812Y-91313000D01*
X115145199Y-91363800D01*
X115994801Y-91363800D01*
X116250188Y-91313000D01*
X116998750Y-91313000D01*
X117157500Y-91154250D01*
X117157500Y-90932000D01*
X120463634Y-90932000D01*
X120486838Y-91055317D01*
X120625910Y-91271441D01*
X120838110Y-91416431D01*
X120949523Y-91438993D01*
X120854683Y-91456838D01*
X120638559Y-91595910D01*
X120493569Y-91808110D01*
X120465241Y-91948000D01*
X117157500Y-91948000D01*
X117157500Y-91725750D01*
X116998750Y-91567000D01*
X116250188Y-91567000D01*
X115994801Y-91516200D01*
X115145199Y-91516200D01*
X114889812Y-91567000D01*
X114141250Y-91567000D01*
X113982500Y-91725750D01*
X113982500Y-92125110D01*
X114040087Y-92264137D01*
X113951399Y-92710000D01*
X114042272Y-93166847D01*
X114161310Y-93345000D01*
X114042272Y-93523153D01*
X113951399Y-93980000D01*
X114042272Y-94436847D01*
X114301055Y-94824144D01*
X114688352Y-95082927D01*
X115145199Y-95173800D01*
X115994801Y-95173800D01*
X116451648Y-95082927D01*
X116838945Y-94824144D01*
X116893832Y-94742000D01*
X117794370Y-94742000D01*
X118841184Y-95788815D01*
X119088395Y-95953996D01*
X119380000Y-96012000D01*
X120463634Y-96012000D01*
X120486838Y-96135317D01*
X120625910Y-96351441D01*
X120838110Y-96496431D01*
X121090000Y-96547440D01*
X122590000Y-96547440D01*
X122825317Y-96503162D01*
X123041441Y-96364090D01*
X123186431Y-96151890D01*
X123189081Y-96138803D01*
X123325910Y-96351441D01*
X123538110Y-96496431D01*
X123790000Y-96547440D01*
X125290000Y-96547440D01*
X125525317Y-96503162D01*
X125741441Y-96364090D01*
X125886431Y-96151890D01*
X125914759Y-96012000D01*
X132154534Y-96012000D01*
X132184673Y-96042192D01*
X132528201Y-96184838D01*
X132900167Y-96185162D01*
X133243943Y-96043117D01*
X133507192Y-95780327D01*
X133649838Y-95436799D01*
X133650162Y-95064833D01*
X133508117Y-94721057D01*
X133245327Y-94457808D01*
X132901799Y-94315162D01*
X132529833Y-94314838D01*
X132186057Y-94456883D01*
X132154886Y-94488000D01*
X125916366Y-94488000D01*
X125893162Y-94364683D01*
X125754090Y-94148559D01*
X125541890Y-94003569D01*
X125430477Y-93981007D01*
X125525317Y-93963162D01*
X125741441Y-93824090D01*
X125886431Y-93611890D01*
X125914759Y-93472000D01*
X132154534Y-93472000D01*
X132184673Y-93502192D01*
X132528201Y-93644838D01*
X132900167Y-93645162D01*
X133243943Y-93503117D01*
X133507192Y-93240327D01*
X133649838Y-92896799D01*
X133650162Y-92524833D01*
X133508117Y-92181057D01*
X133245327Y-91917808D01*
X132901799Y-91775162D01*
X132529833Y-91774838D01*
X132186057Y-91916883D01*
X132154886Y-91948000D01*
X125916366Y-91948000D01*
X125893162Y-91824683D01*
X125754090Y-91608559D01*
X125541890Y-91463569D01*
X125430477Y-91441007D01*
X125525317Y-91423162D01*
X125741441Y-91284090D01*
X125886431Y-91071890D01*
X125889041Y-91059000D01*
X132281534Y-91059000D01*
X132311673Y-91089192D01*
X132655201Y-91231838D01*
X133027167Y-91232162D01*
X133370943Y-91090117D01*
X133634192Y-90827327D01*
X133758418Y-90528159D01*
X148360517Y-90528159D01*
X148360517Y-91218718D01*
X148457190Y-91452107D01*
X148635818Y-91630736D01*
X148869207Y-91727409D01*
X149559767Y-91727409D01*
X149718517Y-91568659D01*
X149718517Y-90369409D01*
X148519267Y-90369409D01*
X148360517Y-90528159D01*
X133758418Y-90528159D01*
X133776838Y-90483799D01*
X133777162Y-90111833D01*
X133635117Y-89768057D01*
X133372327Y-89504808D01*
X133028799Y-89362162D01*
X132656833Y-89361838D01*
X132313057Y-89503883D01*
X132281886Y-89535000D01*
X125937440Y-89535000D01*
X125937440Y-89520000D01*
X125893162Y-89284683D01*
X125881205Y-89266100D01*
X148360517Y-89266100D01*
X148360517Y-89956659D01*
X148519267Y-90115409D01*
X149718517Y-90115409D01*
X149718517Y-88916159D01*
X149559767Y-88757409D01*
X148869207Y-88757409D01*
X148635818Y-88854082D01*
X148457190Y-89032711D01*
X148360517Y-89266100D01*
X125881205Y-89266100D01*
X125754090Y-89068559D01*
X125541890Y-88923569D01*
X125290000Y-88872560D01*
X123790000Y-88872560D01*
X123554683Y-88916838D01*
X123338559Y-89055910D01*
X123193569Y-89268110D01*
X123190919Y-89281197D01*
X123054090Y-89068559D01*
X122841890Y-88923569D01*
X122590000Y-88872560D01*
X121090000Y-88872560D01*
X120854683Y-88916838D01*
X120638559Y-89055910D01*
X120493569Y-89268110D01*
X120465241Y-89408000D01*
X116893832Y-89408000D01*
X116838945Y-89325856D01*
X116451648Y-89067073D01*
X115994801Y-88976200D01*
X115145199Y-88976200D01*
X114688352Y-89067073D01*
X114301055Y-89325856D01*
X114042272Y-89713153D01*
X113951399Y-90170000D01*
X108660000Y-90170000D01*
X108660000Y-78180000D01*
X199950000Y-78180000D01*
X199950000Y-114860000D01*
M02*
