G04 #@! TF.FileFunction,Legend,Top*
%FSLAX46Y46*%
G04 Gerber Fmt 4.6, Leading zero omitted, Abs format (unit mm)*
G04 Created by KiCad (PCBNEW 4.0.7) date Thursday, May 03, 2018 'PMt' 09:58:57 PM*
%MOMM*%
%LPD*%
G01*
G04 APERTURE LIST*
%ADD10C,0.100000*%
%ADD11C,0.300000*%
%ADD12C,0.150000*%
%ADD13C,0.120000*%
G04 APERTURE END LIST*
D10*
D11*
X191893000Y-107516000D02*
X191893000Y-106801714D01*
X192321571Y-107658857D02*
X190821571Y-107158857D01*
X192321571Y-106658857D01*
X192321571Y-105516000D02*
X190821571Y-105516000D01*
X192250143Y-105516000D02*
X192321571Y-105658857D01*
X192321571Y-105944571D01*
X192250143Y-106087429D01*
X192178714Y-106158857D01*
X192035857Y-106230286D01*
X191607286Y-106230286D01*
X191464429Y-106158857D01*
X191393000Y-106087429D01*
X191321571Y-105944571D01*
X191321571Y-105658857D01*
X191393000Y-105516000D01*
X192321571Y-104158857D02*
X191535857Y-104158857D01*
X191393000Y-104230286D01*
X191321571Y-104373143D01*
X191321571Y-104658857D01*
X191393000Y-104801714D01*
X192250143Y-104158857D02*
X192321571Y-104301714D01*
X192321571Y-104658857D01*
X192250143Y-104801714D01*
X192107286Y-104873143D01*
X191964429Y-104873143D01*
X191821571Y-104801714D01*
X191750143Y-104658857D01*
X191750143Y-104301714D01*
X191678714Y-104158857D01*
X191321571Y-103658857D02*
X191321571Y-103087428D01*
X192321571Y-103444571D02*
X191035857Y-103444571D01*
X190893000Y-103373143D01*
X190821571Y-103230285D01*
X190821571Y-103087428D01*
X192321571Y-102587428D02*
X191321571Y-102587428D01*
X191607286Y-102587428D02*
X191464429Y-102516000D01*
X191393000Y-102444571D01*
X191321571Y-102301714D01*
X191321571Y-102158857D01*
X191321571Y-101016000D02*
X192321571Y-101016000D01*
X191321571Y-101658857D02*
X192107286Y-101658857D01*
X192250143Y-101587429D01*
X192321571Y-101444571D01*
X192321571Y-101230286D01*
X192250143Y-101087429D01*
X192178714Y-101016000D01*
X192321571Y-100301714D02*
X191321571Y-100301714D01*
X190821571Y-100301714D02*
X190893000Y-100373143D01*
X190964429Y-100301714D01*
X190893000Y-100230286D01*
X190821571Y-100301714D01*
X190964429Y-100301714D01*
X191321571Y-99801714D02*
X191321571Y-99230285D01*
X190821571Y-99587428D02*
X192107286Y-99587428D01*
X192250143Y-99516000D01*
X192321571Y-99373142D01*
X192321571Y-99230285D01*
X192321571Y-97587428D02*
X190821571Y-97587428D01*
X191321571Y-97087428D02*
X191321571Y-96515999D01*
X190821571Y-96873142D02*
X192107286Y-96873142D01*
X192250143Y-96801714D01*
X192321571Y-96658856D01*
X192321571Y-96515999D01*
X192250143Y-96087428D02*
X192321571Y-95944571D01*
X192321571Y-95658856D01*
X192250143Y-95515999D01*
X192107286Y-95444571D01*
X192035857Y-95444571D01*
X191893000Y-95515999D01*
X191821571Y-95658856D01*
X191821571Y-95873142D01*
X191750143Y-96015999D01*
X191607286Y-96087428D01*
X191535857Y-96087428D01*
X191393000Y-96015999D01*
X191321571Y-95873142D01*
X191321571Y-95658856D01*
X191393000Y-95515999D01*
X191321571Y-94944570D02*
X192321571Y-94587427D01*
X191321571Y-94230285D02*
X192321571Y-94587427D01*
X192678714Y-94730285D01*
X192750143Y-94801713D01*
X192821571Y-94944570D01*
X191535857Y-93158856D02*
X191607286Y-92944570D01*
X191678714Y-92873142D01*
X191821571Y-92801713D01*
X192035857Y-92801713D01*
X192178714Y-92873142D01*
X192250143Y-92944570D01*
X192321571Y-93087428D01*
X192321571Y-93658856D01*
X190821571Y-93658856D01*
X190821571Y-93158856D01*
X190893000Y-93015999D01*
X190964429Y-92944570D01*
X191107286Y-92873142D01*
X191250143Y-92873142D01*
X191393000Y-92944570D01*
X191464429Y-93015999D01*
X191535857Y-93158856D01*
X191535857Y-93658856D01*
X192321571Y-92158856D02*
X191321571Y-92158856D01*
X190821571Y-92158856D02*
X190893000Y-92230285D01*
X190964429Y-92158856D01*
X190893000Y-92087428D01*
X190821571Y-92158856D01*
X190964429Y-92158856D01*
X191321571Y-91658856D02*
X191321571Y-91087427D01*
X190821571Y-91444570D02*
X192107286Y-91444570D01*
X192250143Y-91373142D01*
X192321571Y-91230284D01*
X192321571Y-91087427D01*
X192250143Y-90658856D02*
X192321571Y-90515999D01*
X192321571Y-90230284D01*
X192250143Y-90087427D01*
X192107286Y-90015999D01*
X192035857Y-90015999D01*
X191893000Y-90087427D01*
X191821571Y-90230284D01*
X191821571Y-90444570D01*
X191750143Y-90587427D01*
X191607286Y-90658856D01*
X191535857Y-90658856D01*
X191393000Y-90587427D01*
X191321571Y-90444570D01*
X191321571Y-90230284D01*
X191393000Y-90087427D01*
X191321571Y-89515998D02*
X192321571Y-89158855D01*
X191321571Y-88801713D02*
X192321571Y-89158855D01*
X192678714Y-89301713D01*
X192750143Y-89373141D01*
X192821571Y-89515998D01*
X190821571Y-86373141D02*
X190821571Y-87087427D01*
X191535857Y-87158856D01*
X191464429Y-87087427D01*
X191393000Y-86944570D01*
X191393000Y-86587427D01*
X191464429Y-86444570D01*
X191535857Y-86373141D01*
X191678714Y-86301713D01*
X192035857Y-86301713D01*
X192178714Y-86373141D01*
X192250143Y-86444570D01*
X192321571Y-86587427D01*
X192321571Y-86944570D01*
X192250143Y-87087427D01*
X192178714Y-87158856D01*
X190821571Y-85873142D02*
X192321571Y-85373142D01*
X190821571Y-84873142D01*
X110395857Y-78934571D02*
X111253000Y-78934571D01*
X110824429Y-80434571D02*
X110824429Y-78934571D01*
X111753000Y-80434571D02*
X111753000Y-78934571D01*
X112395857Y-80434571D02*
X112395857Y-79648857D01*
X112324428Y-79506000D01*
X112181571Y-79434571D01*
X111967286Y-79434571D01*
X111824428Y-79506000D01*
X111753000Y-79577429D01*
X113681571Y-80363143D02*
X113538714Y-80434571D01*
X113253000Y-80434571D01*
X113110143Y-80363143D01*
X113038714Y-80220286D01*
X113038714Y-79648857D01*
X113110143Y-79506000D01*
X113253000Y-79434571D01*
X113538714Y-79434571D01*
X113681571Y-79506000D01*
X113753000Y-79648857D01*
X113753000Y-79791714D01*
X113038714Y-79934571D01*
X114324428Y-80363143D02*
X114467285Y-80434571D01*
X114753000Y-80434571D01*
X114895857Y-80363143D01*
X114967285Y-80220286D01*
X114967285Y-80148857D01*
X114895857Y-80006000D01*
X114753000Y-79934571D01*
X114538714Y-79934571D01*
X114395857Y-79863143D01*
X114324428Y-79720286D01*
X114324428Y-79648857D01*
X114395857Y-79506000D01*
X114538714Y-79434571D01*
X114753000Y-79434571D01*
X114895857Y-79506000D01*
X116181571Y-80363143D02*
X116038714Y-80434571D01*
X115753000Y-80434571D01*
X115610143Y-80363143D01*
X115538714Y-80220286D01*
X115538714Y-79648857D01*
X115610143Y-79506000D01*
X115753000Y-79434571D01*
X116038714Y-79434571D01*
X116181571Y-79506000D01*
X116253000Y-79648857D01*
X116253000Y-79791714D01*
X115538714Y-79934571D01*
X117538714Y-79434571D02*
X117538714Y-80434571D01*
X116895857Y-79434571D02*
X116895857Y-80220286D01*
X116967285Y-80363143D01*
X117110143Y-80434571D01*
X117324428Y-80434571D01*
X117467285Y-80363143D01*
X117538714Y-80291714D01*
X118181571Y-80363143D02*
X118324428Y-80434571D01*
X118610143Y-80434571D01*
X118753000Y-80363143D01*
X118824428Y-80220286D01*
X118824428Y-80148857D01*
X118753000Y-80006000D01*
X118610143Y-79934571D01*
X118395857Y-79934571D01*
X118253000Y-79863143D01*
X118181571Y-79720286D01*
X118181571Y-79648857D01*
X118253000Y-79506000D01*
X118395857Y-79434571D01*
X118610143Y-79434571D01*
X118753000Y-79506000D01*
X120610143Y-80434571D02*
X120610143Y-78934571D01*
X121467286Y-80434571D02*
X120824429Y-79577429D01*
X121467286Y-78934571D02*
X120610143Y-79791714D01*
X122681571Y-80363143D02*
X122538714Y-80434571D01*
X122253000Y-80434571D01*
X122110143Y-80363143D01*
X122038714Y-80220286D01*
X122038714Y-79648857D01*
X122110143Y-79506000D01*
X122253000Y-79434571D01*
X122538714Y-79434571D01*
X122681571Y-79506000D01*
X122753000Y-79648857D01*
X122753000Y-79791714D01*
X122038714Y-79934571D01*
X123253000Y-79434571D02*
X123610143Y-80434571D01*
X123967285Y-79434571D02*
X123610143Y-80434571D01*
X123467285Y-80791714D01*
X123395857Y-80863143D01*
X123253000Y-80934571D01*
X124538714Y-79434571D02*
X124538714Y-80934571D01*
X124538714Y-79506000D02*
X124681571Y-79434571D01*
X124967285Y-79434571D01*
X125110142Y-79506000D01*
X125181571Y-79577429D01*
X125253000Y-79720286D01*
X125253000Y-80148857D01*
X125181571Y-80291714D01*
X125110142Y-80363143D01*
X124967285Y-80434571D01*
X124681571Y-80434571D01*
X124538714Y-80363143D01*
X126538714Y-80434571D02*
X126538714Y-79648857D01*
X126467285Y-79506000D01*
X126324428Y-79434571D01*
X126038714Y-79434571D01*
X125895857Y-79506000D01*
X126538714Y-80363143D02*
X126395857Y-80434571D01*
X126038714Y-80434571D01*
X125895857Y-80363143D01*
X125824428Y-80220286D01*
X125824428Y-80077429D01*
X125895857Y-79934571D01*
X126038714Y-79863143D01*
X126395857Y-79863143D01*
X126538714Y-79791714D01*
X127895857Y-80434571D02*
X127895857Y-78934571D01*
X127895857Y-80363143D02*
X127753000Y-80434571D01*
X127467286Y-80434571D01*
X127324428Y-80363143D01*
X127253000Y-80291714D01*
X127181571Y-80148857D01*
X127181571Y-79720286D01*
X127253000Y-79577429D01*
X127324428Y-79506000D01*
X127467286Y-79434571D01*
X127753000Y-79434571D01*
X127895857Y-79506000D01*
D12*
X128270000Y-114300000D02*
X128270000Y-87630000D01*
X179070000Y-114300000D02*
X128270000Y-114300000D01*
X179070000Y-87630000D02*
X179070000Y-114300000D01*
X128270000Y-87630000D02*
X179070000Y-87630000D01*
D13*
X158795517Y-91572409D02*
X158795517Y-88912409D01*
X151115517Y-91572409D02*
X158795517Y-91572409D01*
X151115517Y-88912409D02*
X158795517Y-88912409D01*
X151115517Y-91572409D02*
X151115517Y-88912409D01*
X149845517Y-91572409D02*
X148515517Y-91572409D01*
X148515517Y-91572409D02*
X148515517Y-90242409D01*
D12*
X114470000Y-89575000D02*
X114020000Y-89575000D01*
X118520000Y-92075000D02*
G75*
G03X118520000Y-92075000I-2950000J0D01*
G01*
X116670000Y-89575000D02*
X117120000Y-89575000D01*
X110490000Y-99314000D02*
X125984000Y-99314000D01*
X125984000Y-99314000D02*
X125984000Y-114300000D01*
X125984000Y-114300000D02*
X110236000Y-114300000D01*
X110236000Y-114300000D02*
X110236000Y-99314000D01*
X110236000Y-99314000D02*
X110490000Y-99314000D01*
D13*
X162620000Y-86420000D02*
X162620000Y-83760000D01*
X147320000Y-86420000D02*
X162620000Y-86420000D01*
X147320000Y-83760000D02*
X162620000Y-83760000D01*
X147320000Y-86420000D02*
X147320000Y-83760000D01*
X146050000Y-86420000D02*
X144720000Y-86420000D01*
X144720000Y-86420000D02*
X144720000Y-85090000D01*
D12*
X123790000Y-91045000D02*
X122590000Y-91045000D01*
X122590000Y-89295000D02*
X123790000Y-89295000D01*
X123790000Y-93585000D02*
X122590000Y-93585000D01*
X122590000Y-91835000D02*
X123790000Y-91835000D01*
X123790000Y-96125000D02*
X122590000Y-96125000D01*
X122590000Y-94375000D02*
X123790000Y-94375000D01*
X193040000Y-110490000D02*
X193040000Y-114300000D01*
X187960000Y-110490000D02*
X193040000Y-110490000D01*
X187960000Y-114300000D02*
X187960000Y-110490000D01*
X199390000Y-114300000D02*
X181610000Y-114300000D01*
X199390000Y-78740000D02*
X199390000Y-114300000D01*
X181610000Y-78740000D02*
X199390000Y-78740000D01*
X181610000Y-114300000D02*
X181610000Y-78740000D01*
X146967898Y-90575742D02*
X147682184Y-90575742D01*
X147825041Y-90623362D01*
X147920279Y-90718600D01*
X147967898Y-90861457D01*
X147967898Y-90956695D01*
X147063136Y-90147171D02*
X147015517Y-90099552D01*
X146967898Y-90004314D01*
X146967898Y-89766218D01*
X147015517Y-89670980D01*
X147063136Y-89623361D01*
X147158374Y-89575742D01*
X147253612Y-89575742D01*
X147396469Y-89623361D01*
X147967898Y-90194790D01*
X147967898Y-89575742D01*
X148527142Y-102322381D02*
X149193809Y-102322381D01*
X148765237Y-103322381D01*
X150289047Y-103274762D02*
X150431904Y-103322381D01*
X150670000Y-103322381D01*
X150765238Y-103274762D01*
X150812857Y-103227143D01*
X150860476Y-103131905D01*
X150860476Y-103036667D01*
X150812857Y-102941429D01*
X150765238Y-102893810D01*
X150670000Y-102846190D01*
X150479523Y-102798571D01*
X150384285Y-102750952D01*
X150336666Y-102703333D01*
X150289047Y-102608095D01*
X150289047Y-102512857D01*
X150336666Y-102417619D01*
X150384285Y-102370000D01*
X150479523Y-102322381D01*
X150717619Y-102322381D01*
X150860476Y-102370000D01*
X151670000Y-103274762D02*
X151574762Y-103322381D01*
X151384285Y-103322381D01*
X151289047Y-103274762D01*
X151241428Y-103179524D01*
X151241428Y-102798571D01*
X151289047Y-102703333D01*
X151384285Y-102655714D01*
X151574762Y-102655714D01*
X151670000Y-102703333D01*
X151717619Y-102798571D01*
X151717619Y-102893810D01*
X151241428Y-102989048D01*
X152574762Y-102655714D02*
X152574762Y-103465238D01*
X152527143Y-103560476D01*
X152479524Y-103608095D01*
X152384285Y-103655714D01*
X152241428Y-103655714D01*
X152146190Y-103608095D01*
X152574762Y-103274762D02*
X152479524Y-103322381D01*
X152289047Y-103322381D01*
X152193809Y-103274762D01*
X152146190Y-103227143D01*
X152098571Y-103131905D01*
X152098571Y-102846190D01*
X152146190Y-102750952D01*
X152193809Y-102703333D01*
X152289047Y-102655714D01*
X152479524Y-102655714D01*
X152574762Y-102703333D01*
X153812857Y-103322381D02*
X153812857Y-102322381D01*
X154050952Y-102322381D01*
X154193810Y-102370000D01*
X154289048Y-102465238D01*
X154336667Y-102560476D01*
X154384286Y-102750952D01*
X154384286Y-102893810D01*
X154336667Y-103084286D01*
X154289048Y-103179524D01*
X154193810Y-103274762D01*
X154050952Y-103322381D01*
X153812857Y-103322381D01*
X154812857Y-103322381D02*
X154812857Y-102655714D01*
X154812857Y-102322381D02*
X154765238Y-102370000D01*
X154812857Y-102417619D01*
X154860476Y-102370000D01*
X154812857Y-102322381D01*
X154812857Y-102417619D01*
X155241428Y-103274762D02*
X155336666Y-103322381D01*
X155527142Y-103322381D01*
X155622381Y-103274762D01*
X155670000Y-103179524D01*
X155670000Y-103131905D01*
X155622381Y-103036667D01*
X155527142Y-102989048D01*
X155384285Y-102989048D01*
X155289047Y-102941429D01*
X155241428Y-102846190D01*
X155241428Y-102798571D01*
X155289047Y-102703333D01*
X155384285Y-102655714D01*
X155527142Y-102655714D01*
X155622381Y-102703333D01*
X156098571Y-102655714D02*
X156098571Y-103655714D01*
X156098571Y-102703333D02*
X156193809Y-102655714D01*
X156384286Y-102655714D01*
X156479524Y-102703333D01*
X156527143Y-102750952D01*
X156574762Y-102846190D01*
X156574762Y-103131905D01*
X156527143Y-103227143D01*
X156479524Y-103274762D01*
X156384286Y-103322381D01*
X156193809Y-103322381D01*
X156098571Y-103274762D01*
X157146190Y-103322381D02*
X157050952Y-103274762D01*
X157003333Y-103179524D01*
X157003333Y-102322381D01*
X157955715Y-103322381D02*
X157955715Y-102798571D01*
X157908096Y-102703333D01*
X157812858Y-102655714D01*
X157622381Y-102655714D01*
X157527143Y-102703333D01*
X157955715Y-103274762D02*
X157860477Y-103322381D01*
X157622381Y-103322381D01*
X157527143Y-103274762D01*
X157479524Y-103179524D01*
X157479524Y-103084286D01*
X157527143Y-102989048D01*
X157622381Y-102941429D01*
X157860477Y-102941429D01*
X157955715Y-102893810D01*
X158336667Y-102655714D02*
X158574762Y-103322381D01*
X158812858Y-102655714D02*
X158574762Y-103322381D01*
X158479524Y-103560476D01*
X158431905Y-103608095D01*
X158336667Y-103655714D01*
X114831905Y-88372381D02*
X114831905Y-87372381D01*
X115070000Y-87372381D01*
X115212858Y-87420000D01*
X115308096Y-87515238D01*
X115355715Y-87610476D01*
X115403334Y-87800952D01*
X115403334Y-87943810D01*
X115355715Y-88134286D01*
X115308096Y-88229524D01*
X115212858Y-88324762D01*
X115070000Y-88372381D01*
X114831905Y-88372381D01*
X116355715Y-88372381D02*
X115784286Y-88372381D01*
X116070000Y-88372381D02*
X116070000Y-87372381D01*
X115974762Y-87515238D01*
X115879524Y-87610476D01*
X115784286Y-87658095D01*
X117602000Y-96955429D02*
X117602000Y-98044000D01*
X117529428Y-98261714D01*
X117384285Y-98406857D01*
X117166571Y-98479429D01*
X117021428Y-98479429D01*
X119126000Y-98479429D02*
X118255143Y-98479429D01*
X118690571Y-98479429D02*
X118690571Y-96955429D01*
X118545428Y-97173143D01*
X118400286Y-97318286D01*
X118255143Y-97390857D01*
X116549714Y-109909429D02*
X116041714Y-109183714D01*
X115678857Y-109909429D02*
X115678857Y-108385429D01*
X116259429Y-108385429D01*
X116404571Y-108458000D01*
X116477143Y-108530571D01*
X116549714Y-108675714D01*
X116549714Y-108893429D01*
X116477143Y-109038571D01*
X116404571Y-109111143D01*
X116259429Y-109183714D01*
X115678857Y-109183714D01*
X117638286Y-108385429D02*
X117638286Y-109474000D01*
X117565714Y-109691714D01*
X117420571Y-109836857D01*
X117202857Y-109909429D01*
X117057714Y-109909429D01*
X119017143Y-108893429D02*
X119017143Y-109909429D01*
X118654286Y-108312857D02*
X118291429Y-109401429D01*
X119234857Y-109401429D01*
X120541143Y-108385429D02*
X119815429Y-108385429D01*
X119742858Y-109111143D01*
X119815429Y-109038571D01*
X119960572Y-108966000D01*
X120323429Y-108966000D01*
X120468572Y-109038571D01*
X120541143Y-109111143D01*
X120613715Y-109256286D01*
X120613715Y-109619143D01*
X120541143Y-109764286D01*
X120468572Y-109836857D01*
X120323429Y-109909429D01*
X119960572Y-109909429D01*
X119815429Y-109836857D01*
X119742858Y-109764286D01*
X143172381Y-85423333D02*
X143886667Y-85423333D01*
X144029524Y-85470953D01*
X144124762Y-85566191D01*
X144172381Y-85709048D01*
X144172381Y-85804286D01*
X143172381Y-85042381D02*
X143172381Y-84423333D01*
X143553333Y-84756667D01*
X143553333Y-84613809D01*
X143600952Y-84518571D01*
X143648571Y-84470952D01*
X143743810Y-84423333D01*
X143981905Y-84423333D01*
X144077143Y-84470952D01*
X144124762Y-84518571D01*
X144172381Y-84613809D01*
X144172381Y-84899524D01*
X144124762Y-84994762D01*
X144077143Y-85042381D01*
X126579334Y-90622381D02*
X126246000Y-90146190D01*
X126007905Y-90622381D02*
X126007905Y-89622381D01*
X126388858Y-89622381D01*
X126484096Y-89670000D01*
X126531715Y-89717619D01*
X126579334Y-89812857D01*
X126579334Y-89955714D01*
X126531715Y-90050952D01*
X126484096Y-90098571D01*
X126388858Y-90146190D01*
X126007905Y-90146190D01*
X127531715Y-90622381D02*
X126960286Y-90622381D01*
X127246000Y-90622381D02*
X127246000Y-89622381D01*
X127150762Y-89765238D01*
X127055524Y-89860476D01*
X126960286Y-89908095D01*
X126579334Y-93162381D02*
X126246000Y-92686190D01*
X126007905Y-93162381D02*
X126007905Y-92162381D01*
X126388858Y-92162381D01*
X126484096Y-92210000D01*
X126531715Y-92257619D01*
X126579334Y-92352857D01*
X126579334Y-92495714D01*
X126531715Y-92590952D01*
X126484096Y-92638571D01*
X126388858Y-92686190D01*
X126007905Y-92686190D01*
X126960286Y-92257619D02*
X127007905Y-92210000D01*
X127103143Y-92162381D01*
X127341239Y-92162381D01*
X127436477Y-92210000D01*
X127484096Y-92257619D01*
X127531715Y-92352857D01*
X127531715Y-92448095D01*
X127484096Y-92590952D01*
X126912667Y-93162381D01*
X127531715Y-93162381D01*
X126579334Y-95702381D02*
X126246000Y-95226190D01*
X126007905Y-95702381D02*
X126007905Y-94702381D01*
X126388858Y-94702381D01*
X126484096Y-94750000D01*
X126531715Y-94797619D01*
X126579334Y-94892857D01*
X126579334Y-95035714D01*
X126531715Y-95130952D01*
X126484096Y-95178571D01*
X126388858Y-95226190D01*
X126007905Y-95226190D01*
X126912667Y-94702381D02*
X127531715Y-94702381D01*
X127198381Y-95083333D01*
X127341239Y-95083333D01*
X127436477Y-95130952D01*
X127484096Y-95178571D01*
X127531715Y-95273810D01*
X127531715Y-95511905D01*
X127484096Y-95607143D01*
X127436477Y-95654762D01*
X127341239Y-95702381D01*
X127055524Y-95702381D01*
X126960286Y-95654762D01*
X126912667Y-95607143D01*
X180173381Y-114045905D02*
X180982905Y-114045905D01*
X181078143Y-113998286D01*
X181125762Y-113950667D01*
X181173381Y-113855429D01*
X181173381Y-113664952D01*
X181125762Y-113569714D01*
X181078143Y-113522095D01*
X180982905Y-113474476D01*
X180173381Y-113474476D01*
X181173381Y-112474476D02*
X181173381Y-113045905D01*
X181173381Y-112760191D02*
X180173381Y-112760191D01*
X180316238Y-112855429D01*
X180411476Y-112950667D01*
X180459095Y-113045905D01*
M02*
