G04 #@! TF.FileFunction,Legend,Top*
%FSLAX46Y46*%
G04 Gerber Fmt 4.6, Leading zero omitted, Abs format (unit mm)*
G04 Created by KiCad (PCBNEW 4.0.7) date Thursday, May 03, 2018 'PMt' 09:52:22 PM*
%MOMM*%
%LPD*%
G01*
G04 APERTURE LIST*
%ADD10C,0.100000*%
%ADD11C,0.200000*%
%ADD12C,0.300000*%
%ADD13C,0.150000*%
%ADD14C,0.120000*%
%ADD15C,0.203200*%
%ADD16C,0.066040*%
%ADD17C,0.152400*%
%ADD18C,0.076200*%
%ADD19C,0.101600*%
G04 APERTURE END LIST*
D10*
D11*
X207010000Y-85344000D02*
X207518000Y-85852000D01*
X207010000Y-85344000D02*
X206502000Y-85852000D01*
X203581000Y-96901000D02*
X202438000Y-98044000D01*
X206629000Y-96901000D02*
X203581000Y-96901000D01*
X207772000Y-95758000D02*
X206629000Y-96901000D01*
X207772000Y-88773000D02*
X207772000Y-95758000D01*
X207010000Y-88011000D02*
X207772000Y-88773000D01*
X207010000Y-85344000D02*
X207010000Y-88011000D01*
D12*
X206672571Y-89360428D02*
X206672571Y-90217571D01*
X206672571Y-89788999D02*
X205172571Y-89788999D01*
X205386857Y-89931856D01*
X205529714Y-90074714D01*
X205601143Y-90217571D01*
X203116571Y-89360428D02*
X203116571Y-90217571D01*
X203116571Y-89788999D02*
X201616571Y-89788999D01*
X201830857Y-89931856D01*
X201973714Y-90074714D01*
X202045143Y-90217571D01*
X199560571Y-89360428D02*
X199560571Y-90217571D01*
X199560571Y-89788999D02*
X198060571Y-89788999D01*
X198274857Y-89931856D01*
X198417714Y-90074714D01*
X198489143Y-90217571D01*
X205172571Y-95448428D02*
X205172571Y-95305571D01*
X205244000Y-95162714D01*
X205315429Y-95091285D01*
X205458286Y-95019856D01*
X205744000Y-94948428D01*
X206101143Y-94948428D01*
X206386857Y-95019856D01*
X206529714Y-95091285D01*
X206601143Y-95162714D01*
X206672571Y-95305571D01*
X206672571Y-95448428D01*
X206601143Y-95591285D01*
X206529714Y-95662714D01*
X206386857Y-95734142D01*
X206101143Y-95805571D01*
X205744000Y-95805571D01*
X205458286Y-95734142D01*
X205315429Y-95662714D01*
X205244000Y-95591285D01*
X205172571Y-95448428D01*
X201616571Y-95448428D02*
X201616571Y-95305571D01*
X201688000Y-95162714D01*
X201759429Y-95091285D01*
X201902286Y-95019856D01*
X202188000Y-94948428D01*
X202545143Y-94948428D01*
X202830857Y-95019856D01*
X202973714Y-95091285D01*
X203045143Y-95162714D01*
X203116571Y-95305571D01*
X203116571Y-95448428D01*
X203045143Y-95591285D01*
X202973714Y-95662714D01*
X202830857Y-95734142D01*
X202545143Y-95805571D01*
X202188000Y-95805571D01*
X201902286Y-95734142D01*
X201759429Y-95662714D01*
X201688000Y-95591285D01*
X201616571Y-95448428D01*
X198060571Y-95448428D02*
X198060571Y-95305571D01*
X198132000Y-95162714D01*
X198203429Y-95091285D01*
X198346286Y-95019856D01*
X198632000Y-94948428D01*
X198989143Y-94948428D01*
X199274857Y-95019856D01*
X199417714Y-95091285D01*
X199489143Y-95162714D01*
X199560571Y-95305571D01*
X199560571Y-95448428D01*
X199489143Y-95591285D01*
X199417714Y-95662714D01*
X199274857Y-95734142D01*
X198989143Y-95805571D01*
X198632000Y-95805571D01*
X198346286Y-95734142D01*
X198203429Y-95662714D01*
X198132000Y-95591285D01*
X198060571Y-95448428D01*
D11*
X184277000Y-89408000D02*
X183896000Y-89154000D01*
X183896000Y-89662000D02*
X184277000Y-89408000D01*
X183896000Y-89154000D02*
X183896000Y-89662000D01*
X181102000Y-89408000D02*
X180721000Y-89154000D01*
X180721000Y-89662000D02*
X181102000Y-89408000D01*
X180721000Y-89154000D02*
X180721000Y-89662000D01*
D13*
X180436781Y-96487810D02*
X179436781Y-96487810D01*
X179436781Y-96106857D01*
X179484400Y-96011619D01*
X179532019Y-95964000D01*
X179627257Y-95916381D01*
X179770114Y-95916381D01*
X179865352Y-95964000D01*
X179912971Y-96011619D01*
X179960590Y-96106857D01*
X179960590Y-96487810D01*
X180341543Y-94916381D02*
X180389162Y-94964000D01*
X180436781Y-95106857D01*
X180436781Y-95202095D01*
X180389162Y-95344953D01*
X180293924Y-95440191D01*
X180198686Y-95487810D01*
X180008210Y-95535429D01*
X179865352Y-95535429D01*
X179674876Y-95487810D01*
X179579638Y-95440191D01*
X179484400Y-95344953D01*
X179436781Y-95202095D01*
X179436781Y-95106857D01*
X179484400Y-94964000D01*
X179532019Y-94916381D01*
X179912971Y-94154476D02*
X179912971Y-94487810D01*
X180436781Y-94487810D02*
X179436781Y-94487810D01*
X179436781Y-94011619D01*
X179865352Y-93487810D02*
X179817733Y-93583048D01*
X179770114Y-93630667D01*
X179674876Y-93678286D01*
X179627257Y-93678286D01*
X179532019Y-93630667D01*
X179484400Y-93583048D01*
X179436781Y-93487810D01*
X179436781Y-93297333D01*
X179484400Y-93202095D01*
X179532019Y-93154476D01*
X179627257Y-93106857D01*
X179674876Y-93106857D01*
X179770114Y-93154476D01*
X179817733Y-93202095D01*
X179865352Y-93297333D01*
X179865352Y-93487810D01*
X179912971Y-93583048D01*
X179960590Y-93630667D01*
X180055829Y-93678286D01*
X180246305Y-93678286D01*
X180341543Y-93630667D01*
X180389162Y-93583048D01*
X180436781Y-93487810D01*
X180436781Y-93297333D01*
X180389162Y-93202095D01*
X180341543Y-93154476D01*
X180246305Y-93106857D01*
X180055829Y-93106857D01*
X179960590Y-93154476D01*
X179912971Y-93202095D01*
X179865352Y-93297333D01*
X179436781Y-92202095D02*
X179436781Y-92678286D01*
X179912971Y-92725905D01*
X179865352Y-92678286D01*
X179817733Y-92583048D01*
X179817733Y-92344952D01*
X179865352Y-92249714D01*
X179912971Y-92202095D01*
X180008210Y-92154476D01*
X180246305Y-92154476D01*
X180341543Y-92202095D01*
X180389162Y-92249714D01*
X180436781Y-92344952D01*
X180436781Y-92583048D01*
X180389162Y-92678286D01*
X180341543Y-92725905D01*
X179436781Y-91821143D02*
X179436781Y-91154476D01*
X180436781Y-91583048D01*
X179770114Y-90344952D02*
X180436781Y-90344952D01*
X179389162Y-90583048D02*
X180103448Y-90821143D01*
X180103448Y-90202095D01*
X180151067Y-89868762D02*
X180151067Y-89392571D01*
X180436781Y-89964000D02*
X179436781Y-89630667D01*
X180436781Y-89297333D01*
X192800267Y-95048057D02*
X192800267Y-94571866D01*
X193085981Y-95143295D02*
X192085981Y-94809962D01*
X193085981Y-94476628D01*
X193085981Y-94143295D02*
X192085981Y-94143295D01*
X192085981Y-93905200D01*
X192133600Y-93762342D01*
X192228838Y-93667104D01*
X192324076Y-93619485D01*
X192514552Y-93571866D01*
X192657410Y-93571866D01*
X192847886Y-93619485D01*
X192943124Y-93667104D01*
X193038362Y-93762342D01*
X193085981Y-93905200D01*
X193085981Y-94143295D01*
X192085981Y-93238533D02*
X192085981Y-92571866D01*
X193085981Y-93000438D01*
X193085981Y-92143295D02*
X193085981Y-91952819D01*
X193038362Y-91857580D01*
X192990743Y-91809961D01*
X192847886Y-91714723D01*
X192657410Y-91667104D01*
X192276457Y-91667104D01*
X192181219Y-91714723D01*
X192133600Y-91762342D01*
X192085981Y-91857580D01*
X192085981Y-92048057D01*
X192133600Y-92143295D01*
X192181219Y-92190914D01*
X192276457Y-92238533D01*
X192514552Y-92238533D01*
X192609790Y-92190914D01*
X192657410Y-92143295D01*
X192705029Y-92048057D01*
X192705029Y-91857580D01*
X192657410Y-91762342D01*
X192609790Y-91714723D01*
X192514552Y-91667104D01*
X193085981Y-91190914D02*
X193085981Y-91000438D01*
X193038362Y-90905199D01*
X192990743Y-90857580D01*
X192847886Y-90762342D01*
X192657410Y-90714723D01*
X192276457Y-90714723D01*
X192181219Y-90762342D01*
X192133600Y-90809961D01*
X192085981Y-90905199D01*
X192085981Y-91095676D01*
X192133600Y-91190914D01*
X192181219Y-91238533D01*
X192276457Y-91286152D01*
X192514552Y-91286152D01*
X192609790Y-91238533D01*
X192657410Y-91190914D01*
X192705029Y-91095676D01*
X192705029Y-90905199D01*
X192657410Y-90809961D01*
X192609790Y-90762342D01*
X192514552Y-90714723D01*
X192085981Y-90381390D02*
X192085981Y-89714723D01*
X193085981Y-90143295D01*
D12*
X180813971Y-82265828D02*
X180813971Y-82122971D01*
X180885400Y-81980114D01*
X180956829Y-81908685D01*
X181099686Y-81837256D01*
X181385400Y-81765828D01*
X181742543Y-81765828D01*
X182028257Y-81837256D01*
X182171114Y-81908685D01*
X182242543Y-81980114D01*
X182313971Y-82122971D01*
X182313971Y-82265828D01*
X182242543Y-82408685D01*
X182171114Y-82480114D01*
X182028257Y-82551542D01*
X181742543Y-82622971D01*
X181385400Y-82622971D01*
X181099686Y-82551542D01*
X180956829Y-82480114D01*
X180885400Y-82408685D01*
X180813971Y-82265828D01*
X184828571Y-81740428D02*
X184828571Y-82597571D01*
X184828571Y-82168999D02*
X183328571Y-82168999D01*
X183542857Y-82311856D01*
X183685714Y-82454714D01*
X183757143Y-82597571D01*
X186011429Y-82597571D02*
X185940000Y-82526142D01*
X185868571Y-82383285D01*
X185868571Y-82026142D01*
X185940000Y-81883285D01*
X186011429Y-81811856D01*
X186154286Y-81740428D01*
X186297143Y-81740428D01*
X186511429Y-81811856D01*
X187368571Y-82668999D01*
X187368571Y-81740428D01*
X188383171Y-82668999D02*
X188383171Y-81740428D01*
X188954600Y-82240428D01*
X188954600Y-82026142D01*
X189026029Y-81883285D01*
X189097457Y-81811856D01*
X189240314Y-81740428D01*
X189597457Y-81740428D01*
X189740314Y-81811856D01*
X189811743Y-81883285D01*
X189883171Y-82026142D01*
X189883171Y-82454714D01*
X189811743Y-82597571D01*
X189740314Y-82668999D01*
X191473971Y-81908685D02*
X192473971Y-81908685D01*
X190902543Y-82265828D02*
X191973971Y-82622971D01*
X191973971Y-81694399D01*
X193539371Y-81811856D02*
X193539371Y-82526142D01*
X194253657Y-82597571D01*
X194182229Y-82526142D01*
X194110800Y-82383285D01*
X194110800Y-82026142D01*
X194182229Y-81883285D01*
X194253657Y-81811856D01*
X194396514Y-81740428D01*
X194753657Y-81740428D01*
X194896514Y-81811856D01*
X194967943Y-81883285D01*
X195039371Y-82026142D01*
X195039371Y-82383285D01*
X194967943Y-82526142D01*
X194896514Y-82597571D01*
X196053971Y-81883285D02*
X196053971Y-82168999D01*
X196125400Y-82311856D01*
X196196829Y-82383285D01*
X196411114Y-82526142D01*
X196696829Y-82597571D01*
X197268257Y-82597571D01*
X197411114Y-82526142D01*
X197482543Y-82454714D01*
X197553971Y-82311856D01*
X197553971Y-82026142D01*
X197482543Y-81883285D01*
X197411114Y-81811856D01*
X197268257Y-81740428D01*
X196911114Y-81740428D01*
X196768257Y-81811856D01*
X196696829Y-81883285D01*
X196625400Y-82026142D01*
X196625400Y-82311856D01*
X196696829Y-82454714D01*
X196768257Y-82526142D01*
X196911114Y-82597571D01*
X198619371Y-82668999D02*
X198619371Y-81668999D01*
X200119371Y-82311856D01*
X206188571Y-84827857D02*
X207688571Y-84327857D01*
X206188571Y-83827857D01*
X207688571Y-83327857D02*
X206188571Y-83327857D01*
X207688571Y-82613571D02*
X206188571Y-82613571D01*
X207688571Y-81756428D01*
X206188571Y-81756428D01*
X203648571Y-83216713D02*
X203648571Y-83930999D01*
X204362857Y-84002428D01*
X204291429Y-83930999D01*
X204220000Y-83788142D01*
X204220000Y-83430999D01*
X204291429Y-83288142D01*
X204362857Y-83216713D01*
X204505714Y-83145285D01*
X204862857Y-83145285D01*
X205005714Y-83216713D01*
X205077143Y-83288142D01*
X205148571Y-83430999D01*
X205148571Y-83788142D01*
X205077143Y-83930999D01*
X205005714Y-84002428D01*
X203648571Y-82716714D02*
X205148571Y-82216714D01*
X203648571Y-81716714D01*
X201180000Y-84835857D02*
X201108571Y-84978714D01*
X201108571Y-85193000D01*
X201180000Y-85407285D01*
X201322857Y-85550143D01*
X201465714Y-85621571D01*
X201751429Y-85693000D01*
X201965714Y-85693000D01*
X202251429Y-85621571D01*
X202394286Y-85550143D01*
X202537143Y-85407285D01*
X202608571Y-85193000D01*
X202608571Y-85050143D01*
X202537143Y-84835857D01*
X202465714Y-84764428D01*
X201965714Y-84764428D01*
X201965714Y-85050143D01*
X202608571Y-84121571D02*
X201108571Y-84121571D01*
X202608571Y-83264428D01*
X201108571Y-83264428D01*
X202608571Y-82550142D02*
X201108571Y-82550142D01*
X201108571Y-82192999D01*
X201180000Y-81978714D01*
X201322857Y-81835856D01*
X201465714Y-81764428D01*
X201751429Y-81692999D01*
X201965714Y-81692999D01*
X202251429Y-81764428D01*
X202394286Y-81835856D01*
X202537143Y-81978714D01*
X202608571Y-82192999D01*
X202608571Y-82550142D01*
D14*
X182880000Y-81340000D02*
X208340000Y-81340000D01*
X208340000Y-81340000D02*
X208340000Y-78680000D01*
X208340000Y-78680000D02*
X182880000Y-78680000D01*
X182880000Y-78680000D02*
X182880000Y-81340000D01*
X181610000Y-81340000D02*
X180280000Y-81340000D01*
X180280000Y-81340000D02*
X180280000Y-80010000D01*
X182880000Y-78800000D02*
X208340000Y-78800000D01*
X208340000Y-78800000D02*
X208340000Y-76140000D01*
X208340000Y-76140000D02*
X182880000Y-76140000D01*
X182880000Y-76140000D02*
X182880000Y-78800000D01*
X181610000Y-78800000D02*
X180280000Y-78800000D01*
X180280000Y-78800000D02*
X180280000Y-77470000D01*
X182880000Y-76260000D02*
X208340000Y-76260000D01*
X208340000Y-76260000D02*
X208340000Y-73600000D01*
X208340000Y-73600000D02*
X182880000Y-73600000D01*
X182880000Y-73600000D02*
X182880000Y-76260000D01*
X181610000Y-76260000D02*
X180280000Y-76260000D01*
X180280000Y-76260000D02*
X180280000Y-74930000D01*
D15*
X205539340Y-99458780D02*
X203438760Y-99458780D01*
X196542660Y-110157260D02*
X196542660Y-113057940D01*
X205539340Y-113057940D02*
X205539340Y-110157260D01*
X205539340Y-113057940D02*
X196542660Y-113057940D01*
X205539340Y-110157260D02*
X205539340Y-104858820D01*
X205539340Y-99458780D02*
X205539340Y-100157280D01*
X196542660Y-110157260D02*
X196542660Y-99458780D01*
X196542660Y-99441000D02*
X198643240Y-99441000D01*
X196542660Y-110157260D02*
X205539340Y-110157260D01*
D13*
X180340000Y-98044000D02*
X195834000Y-98044000D01*
X195834000Y-98044000D02*
X195834000Y-113030000D01*
X195834000Y-113030000D02*
X180086000Y-113030000D01*
X180086000Y-113030000D02*
X180086000Y-98044000D01*
X180086000Y-98044000D02*
X180340000Y-98044000D01*
D16*
X184840880Y-89303860D02*
X184840880Y-89507060D01*
X184840880Y-89507060D02*
X185679080Y-89507060D01*
X185679080Y-89303860D02*
X185679080Y-89507060D01*
X184840880Y-89303860D02*
X185679080Y-89303860D01*
X184840880Y-89954100D02*
X184840880Y-90157300D01*
X184840880Y-90157300D02*
X185679080Y-90157300D01*
X185679080Y-89954100D02*
X185679080Y-90157300D01*
X184840880Y-89954100D02*
X185679080Y-89954100D01*
X184840880Y-90604340D02*
X184840880Y-90807540D01*
X184840880Y-90807540D02*
X185679080Y-90807540D01*
X185679080Y-90604340D02*
X185679080Y-90807540D01*
X184840880Y-90604340D02*
X185679080Y-90604340D01*
X184840880Y-91254580D02*
X184840880Y-91457780D01*
X184840880Y-91457780D02*
X185679080Y-91457780D01*
X185679080Y-91254580D02*
X185679080Y-91457780D01*
X184840880Y-91254580D02*
X185679080Y-91254580D01*
X184840880Y-91904820D02*
X184840880Y-92108020D01*
X184840880Y-92108020D02*
X185679080Y-92108020D01*
X185679080Y-91904820D02*
X185679080Y-92108020D01*
X184840880Y-91904820D02*
X185679080Y-91904820D01*
X184840880Y-92549980D02*
X184840880Y-92753180D01*
X184840880Y-92753180D02*
X185679080Y-92753180D01*
X185679080Y-92549980D02*
X185679080Y-92753180D01*
X184840880Y-92549980D02*
X185679080Y-92549980D01*
X184840880Y-93200220D02*
X184840880Y-93403420D01*
X184840880Y-93403420D02*
X185679080Y-93403420D01*
X185679080Y-93200220D02*
X185679080Y-93403420D01*
X184840880Y-93200220D02*
X185679080Y-93200220D01*
X184840880Y-93850460D02*
X184840880Y-94053660D01*
X184840880Y-94053660D02*
X185679080Y-94053660D01*
X185679080Y-93850460D02*
X185679080Y-94053660D01*
X184840880Y-93850460D02*
X185679080Y-93850460D01*
X190240920Y-93850460D02*
X190240920Y-94053660D01*
X190240920Y-94053660D02*
X191079120Y-94053660D01*
X191079120Y-93850460D02*
X191079120Y-94053660D01*
X190240920Y-93850460D02*
X191079120Y-93850460D01*
X190240920Y-93200220D02*
X190240920Y-93403420D01*
X190240920Y-93403420D02*
X191079120Y-93403420D01*
X191079120Y-93200220D02*
X191079120Y-93403420D01*
X190240920Y-93200220D02*
X191079120Y-93200220D01*
X190240920Y-92549980D02*
X190240920Y-92753180D01*
X190240920Y-92753180D02*
X191079120Y-92753180D01*
X191079120Y-92549980D02*
X191079120Y-92753180D01*
X190240920Y-92549980D02*
X191079120Y-92549980D01*
X190240920Y-91904820D02*
X190240920Y-92108020D01*
X190240920Y-92108020D02*
X191079120Y-92108020D01*
X191079120Y-91904820D02*
X191079120Y-92108020D01*
X190240920Y-91904820D02*
X191079120Y-91904820D01*
X190240920Y-91254580D02*
X190240920Y-91457780D01*
X190240920Y-91457780D02*
X191079120Y-91457780D01*
X191079120Y-91254580D02*
X191079120Y-91457780D01*
X190240920Y-91254580D02*
X191079120Y-91254580D01*
X190240920Y-90604340D02*
X190240920Y-90807540D01*
X190240920Y-90807540D02*
X191079120Y-90807540D01*
X191079120Y-90604340D02*
X191079120Y-90807540D01*
X190240920Y-90604340D02*
X191079120Y-90604340D01*
X190240920Y-89954100D02*
X190240920Y-90157300D01*
X190240920Y-90157300D02*
X191079120Y-90157300D01*
X191079120Y-89954100D02*
X191079120Y-90157300D01*
X190240920Y-89954100D02*
X191079120Y-89954100D01*
X190240920Y-89303860D02*
X190240920Y-89507060D01*
X190240920Y-89507060D02*
X191079120Y-89507060D01*
X191079120Y-89303860D02*
X191079120Y-89507060D01*
X190240920Y-89303860D02*
X191079120Y-89303860D01*
X184840880Y-94500700D02*
X184840880Y-94703900D01*
X184840880Y-94703900D02*
X185679080Y-94703900D01*
X185679080Y-94500700D02*
X185679080Y-94703900D01*
X184840880Y-94500700D02*
X185679080Y-94500700D01*
X184840880Y-95150940D02*
X184840880Y-95354140D01*
X184840880Y-95354140D02*
X185679080Y-95354140D01*
X185679080Y-95150940D02*
X185679080Y-95354140D01*
X184840880Y-95150940D02*
X185679080Y-95150940D01*
X190240920Y-94500700D02*
X190240920Y-94703900D01*
X190240920Y-94703900D02*
X191079120Y-94703900D01*
X191079120Y-94500700D02*
X191079120Y-94703900D01*
X190240920Y-94500700D02*
X191079120Y-94500700D01*
X190240920Y-95150940D02*
X190240920Y-95354140D01*
X190240920Y-95354140D02*
X191079120Y-95354140D01*
X191079120Y-95150940D02*
X191079120Y-95354140D01*
X190240920Y-95150940D02*
X191079120Y-95150940D01*
D17*
X185679080Y-89166700D02*
X185679080Y-95491300D01*
X190240920Y-95491300D02*
X185679080Y-95491300D01*
X190240920Y-95491300D02*
X190240920Y-89166700D01*
X185679080Y-89166700D02*
X190240920Y-89166700D01*
D18*
X187064089Y-90055700D02*
G75*
G03X187064089Y-90055700I-323289J0D01*
G01*
D16*
X181665880Y-89303860D02*
X181665880Y-89507060D01*
X181665880Y-89507060D02*
X182504080Y-89507060D01*
X182504080Y-89303860D02*
X182504080Y-89507060D01*
X181665880Y-89303860D02*
X182504080Y-89303860D01*
X181665880Y-89954100D02*
X181665880Y-90157300D01*
X181665880Y-90157300D02*
X182504080Y-90157300D01*
X182504080Y-89954100D02*
X182504080Y-90157300D01*
X181665880Y-89954100D02*
X182504080Y-89954100D01*
X181665880Y-90604340D02*
X181665880Y-90807540D01*
X181665880Y-90807540D02*
X182504080Y-90807540D01*
X182504080Y-90604340D02*
X182504080Y-90807540D01*
X181665880Y-90604340D02*
X182504080Y-90604340D01*
X181665880Y-91254580D02*
X181665880Y-91457780D01*
X181665880Y-91457780D02*
X182504080Y-91457780D01*
X182504080Y-91254580D02*
X182504080Y-91457780D01*
X181665880Y-91254580D02*
X182504080Y-91254580D01*
X181665880Y-91904820D02*
X181665880Y-92108020D01*
X181665880Y-92108020D02*
X182504080Y-92108020D01*
X182504080Y-91904820D02*
X182504080Y-92108020D01*
X181665880Y-91904820D02*
X182504080Y-91904820D01*
X181665880Y-92549980D02*
X181665880Y-92753180D01*
X181665880Y-92753180D02*
X182504080Y-92753180D01*
X182504080Y-92549980D02*
X182504080Y-92753180D01*
X181665880Y-92549980D02*
X182504080Y-92549980D01*
X181665880Y-93200220D02*
X181665880Y-93403420D01*
X181665880Y-93403420D02*
X182504080Y-93403420D01*
X182504080Y-93200220D02*
X182504080Y-93403420D01*
X181665880Y-93200220D02*
X182504080Y-93200220D01*
X181665880Y-93850460D02*
X181665880Y-94053660D01*
X181665880Y-94053660D02*
X182504080Y-94053660D01*
X182504080Y-93850460D02*
X182504080Y-94053660D01*
X181665880Y-93850460D02*
X182504080Y-93850460D01*
X187065920Y-93850460D02*
X187065920Y-94053660D01*
X187065920Y-94053660D02*
X187904120Y-94053660D01*
X187904120Y-93850460D02*
X187904120Y-94053660D01*
X187065920Y-93850460D02*
X187904120Y-93850460D01*
X187065920Y-93200220D02*
X187065920Y-93403420D01*
X187065920Y-93403420D02*
X187904120Y-93403420D01*
X187904120Y-93200220D02*
X187904120Y-93403420D01*
X187065920Y-93200220D02*
X187904120Y-93200220D01*
X187065920Y-92549980D02*
X187065920Y-92753180D01*
X187065920Y-92753180D02*
X187904120Y-92753180D01*
X187904120Y-92549980D02*
X187904120Y-92753180D01*
X187065920Y-92549980D02*
X187904120Y-92549980D01*
X187065920Y-91904820D02*
X187065920Y-92108020D01*
X187065920Y-92108020D02*
X187904120Y-92108020D01*
X187904120Y-91904820D02*
X187904120Y-92108020D01*
X187065920Y-91904820D02*
X187904120Y-91904820D01*
X187065920Y-91254580D02*
X187065920Y-91457780D01*
X187065920Y-91457780D02*
X187904120Y-91457780D01*
X187904120Y-91254580D02*
X187904120Y-91457780D01*
X187065920Y-91254580D02*
X187904120Y-91254580D01*
X187065920Y-90604340D02*
X187065920Y-90807540D01*
X187065920Y-90807540D02*
X187904120Y-90807540D01*
X187904120Y-90604340D02*
X187904120Y-90807540D01*
X187065920Y-90604340D02*
X187904120Y-90604340D01*
X187065920Y-89954100D02*
X187065920Y-90157300D01*
X187065920Y-90157300D02*
X187904120Y-90157300D01*
X187904120Y-89954100D02*
X187904120Y-90157300D01*
X187065920Y-89954100D02*
X187904120Y-89954100D01*
X187065920Y-89303860D02*
X187065920Y-89507060D01*
X187065920Y-89507060D02*
X187904120Y-89507060D01*
X187904120Y-89303860D02*
X187904120Y-89507060D01*
X187065920Y-89303860D02*
X187904120Y-89303860D01*
X181665880Y-94500700D02*
X181665880Y-94703900D01*
X181665880Y-94703900D02*
X182504080Y-94703900D01*
X182504080Y-94500700D02*
X182504080Y-94703900D01*
X181665880Y-94500700D02*
X182504080Y-94500700D01*
X181665880Y-95150940D02*
X181665880Y-95354140D01*
X181665880Y-95354140D02*
X182504080Y-95354140D01*
X182504080Y-95150940D02*
X182504080Y-95354140D01*
X181665880Y-95150940D02*
X182504080Y-95150940D01*
X187065920Y-94500700D02*
X187065920Y-94703900D01*
X187065920Y-94703900D02*
X187904120Y-94703900D01*
X187904120Y-94500700D02*
X187904120Y-94703900D01*
X187065920Y-94500700D02*
X187904120Y-94500700D01*
X187065920Y-95150940D02*
X187065920Y-95354140D01*
X187065920Y-95354140D02*
X187904120Y-95354140D01*
X187904120Y-95150940D02*
X187904120Y-95354140D01*
X187065920Y-95150940D02*
X187904120Y-95150940D01*
D17*
X182504080Y-89166700D02*
X182504080Y-95491300D01*
X187065920Y-95491300D02*
X182504080Y-95491300D01*
X187065920Y-95491300D02*
X187065920Y-89166700D01*
X182504080Y-89166700D02*
X187065920Y-89166700D01*
D18*
X183889089Y-90055700D02*
G75*
G03X183889089Y-90055700I-323289J0D01*
G01*
D14*
X197992000Y-90673000D02*
X197992000Y-94493000D01*
X197992000Y-94493000D02*
X199772000Y-94493000D01*
X199772000Y-94493000D02*
X199772000Y-90673000D01*
X197992000Y-90673000D02*
X199772000Y-90673000D01*
X201548000Y-90673000D02*
X201548000Y-94493000D01*
X201548000Y-94493000D02*
X203328000Y-94493000D01*
X203328000Y-94493000D02*
X203328000Y-90673000D01*
X201548000Y-90673000D02*
X203328000Y-90673000D01*
X205104000Y-90673000D02*
X205104000Y-94493000D01*
X205104000Y-94493000D02*
X206884000Y-94493000D01*
X206884000Y-94493000D02*
X206884000Y-90673000D01*
X205104000Y-90673000D02*
X206884000Y-90673000D01*
X182490000Y-84697000D02*
X182490000Y-85897000D01*
X180730000Y-85897000D02*
X180730000Y-84697000D01*
X185030000Y-84697000D02*
X185030000Y-85897000D01*
X183270000Y-85897000D02*
X183270000Y-84697000D01*
X187570000Y-84697000D02*
X187570000Y-85897000D01*
X185810000Y-85897000D02*
X185810000Y-84697000D01*
X190110000Y-84697000D02*
X190110000Y-85897000D01*
X188350000Y-85897000D02*
X188350000Y-84697000D01*
X192650000Y-84697000D02*
X192650000Y-85897000D01*
X190890000Y-85897000D02*
X190890000Y-84697000D01*
X195190000Y-84697000D02*
X195190000Y-85897000D01*
X193430000Y-85897000D02*
X193430000Y-84697000D01*
X197730000Y-84697000D02*
X197730000Y-85897000D01*
X195970000Y-85897000D02*
X195970000Y-84697000D01*
X200270000Y-84697000D02*
X200270000Y-85897000D01*
X198510000Y-85897000D02*
X198510000Y-84697000D01*
X186809000Y-95924000D02*
X185809000Y-95924000D01*
X185809000Y-97624000D02*
X186809000Y-97624000D01*
D13*
X186399714Y-109020429D02*
X185891714Y-108294714D01*
X185528857Y-109020429D02*
X185528857Y-107496429D01*
X186109429Y-107496429D01*
X186254571Y-107569000D01*
X186327143Y-107641571D01*
X186399714Y-107786714D01*
X186399714Y-108004429D01*
X186327143Y-108149571D01*
X186254571Y-108222143D01*
X186109429Y-108294714D01*
X185528857Y-108294714D01*
X187488286Y-107496429D02*
X187488286Y-108585000D01*
X187415714Y-108802714D01*
X187270571Y-108947857D01*
X187052857Y-109020429D01*
X186907714Y-109020429D01*
X188867143Y-108004429D02*
X188867143Y-109020429D01*
X188504286Y-107423857D02*
X188141429Y-108512429D01*
X189084857Y-108512429D01*
X190391143Y-107496429D02*
X189665429Y-107496429D01*
X189592858Y-108222143D01*
X189665429Y-108149571D01*
X189810572Y-108077000D01*
X190173429Y-108077000D01*
X190318572Y-108149571D01*
X190391143Y-108222143D01*
X190463715Y-108367286D01*
X190463715Y-108730143D01*
X190391143Y-108875286D01*
X190318572Y-108947857D01*
X190173429Y-109020429D01*
X189810572Y-109020429D01*
X189665429Y-108947857D01*
X189592858Y-108875286D01*
D19*
X185026905Y-87962619D02*
X185026905Y-88785095D01*
X185075286Y-88881857D01*
X185123667Y-88930238D01*
X185220429Y-88978619D01*
X185413952Y-88978619D01*
X185510714Y-88930238D01*
X185559095Y-88881857D01*
X185607476Y-88785095D01*
X185607476Y-87962619D01*
X186042905Y-88059381D02*
X186091286Y-88011000D01*
X186188048Y-87962619D01*
X186429952Y-87962619D01*
X186526714Y-88011000D01*
X186575095Y-88059381D01*
X186623476Y-88156143D01*
X186623476Y-88252905D01*
X186575095Y-88398048D01*
X185994524Y-88978619D01*
X186623476Y-88978619D01*
X180200905Y-87835619D02*
X180200905Y-88658095D01*
X180249286Y-88754857D01*
X180297667Y-88803238D01*
X180394429Y-88851619D01*
X180587952Y-88851619D01*
X180684714Y-88803238D01*
X180733095Y-88754857D01*
X180781476Y-88658095D01*
X180781476Y-87835619D01*
X181797476Y-88851619D02*
X181216905Y-88851619D01*
X181507191Y-88851619D02*
X181507191Y-87835619D01*
X181410429Y-87980762D01*
X181313667Y-88077524D01*
X181216905Y-88125905D01*
D13*
X197348667Y-93297286D02*
X197348667Y-92821095D01*
X197634381Y-93392524D02*
X196634381Y-93059191D01*
X197634381Y-92725857D01*
X196634381Y-92202048D02*
X196634381Y-92106809D01*
X196682000Y-92011571D01*
X196729619Y-91963952D01*
X196824857Y-91916333D01*
X197015333Y-91868714D01*
X197253429Y-91868714D01*
X197443905Y-91916333D01*
X197539143Y-91963952D01*
X197586762Y-92011571D01*
X197634381Y-92106809D01*
X197634381Y-92202048D01*
X197586762Y-92297286D01*
X197539143Y-92344905D01*
X197443905Y-92392524D01*
X197253429Y-92440143D01*
X197015333Y-92440143D01*
X196824857Y-92392524D01*
X196729619Y-92344905D01*
X196682000Y-92297286D01*
X196634381Y-92202048D01*
X200904667Y-93297286D02*
X200904667Y-92821095D01*
X201190381Y-93392524D02*
X200190381Y-93059191D01*
X201190381Y-92725857D01*
X201190381Y-91868714D02*
X201190381Y-92440143D01*
X201190381Y-92154429D02*
X200190381Y-92154429D01*
X200333238Y-92249667D01*
X200428476Y-92344905D01*
X200476095Y-92440143D01*
X204460667Y-93297286D02*
X204460667Y-92821095D01*
X204746381Y-93392524D02*
X203746381Y-93059191D01*
X204746381Y-92725857D01*
X203841619Y-92440143D02*
X203794000Y-92392524D01*
X203746381Y-92297286D01*
X203746381Y-92059190D01*
X203794000Y-91963952D01*
X203841619Y-91916333D01*
X203936857Y-91868714D01*
X204032095Y-91868714D01*
X204174952Y-91916333D01*
X204746381Y-92487762D01*
X204746381Y-91868714D01*
X180362381Y-86907666D02*
X179886190Y-87241000D01*
X180362381Y-87479095D02*
X179362381Y-87479095D01*
X179362381Y-87098142D01*
X179410000Y-87002904D01*
X179457619Y-86955285D01*
X179552857Y-86907666D01*
X179695714Y-86907666D01*
X179790952Y-86955285D01*
X179838571Y-87002904D01*
X179886190Y-87098142D01*
X179886190Y-87479095D01*
X180362381Y-85955285D02*
X180362381Y-86526714D01*
X180362381Y-86241000D02*
X179362381Y-86241000D01*
X179505238Y-86336238D01*
X179600476Y-86431476D01*
X179648095Y-86526714D01*
X183348334Y-88844381D02*
X183015000Y-88368190D01*
X182776905Y-88844381D02*
X182776905Y-87844381D01*
X183157858Y-87844381D01*
X183253096Y-87892000D01*
X183300715Y-87939619D01*
X183348334Y-88034857D01*
X183348334Y-88177714D01*
X183300715Y-88272952D01*
X183253096Y-88320571D01*
X183157858Y-88368190D01*
X182776905Y-88368190D01*
X183729286Y-87939619D02*
X183776905Y-87892000D01*
X183872143Y-87844381D01*
X184110239Y-87844381D01*
X184205477Y-87892000D01*
X184253096Y-87939619D01*
X184300715Y-88034857D01*
X184300715Y-88130095D01*
X184253096Y-88272952D01*
X183681667Y-88844381D01*
X184300715Y-88844381D01*
X187666334Y-88844381D02*
X187333000Y-88368190D01*
X187094905Y-88844381D02*
X187094905Y-87844381D01*
X187475858Y-87844381D01*
X187571096Y-87892000D01*
X187618715Y-87939619D01*
X187666334Y-88034857D01*
X187666334Y-88177714D01*
X187618715Y-88272952D01*
X187571096Y-88320571D01*
X187475858Y-88368190D01*
X187094905Y-88368190D01*
X187999667Y-87844381D02*
X188618715Y-87844381D01*
X188285381Y-88225333D01*
X188428239Y-88225333D01*
X188523477Y-88272952D01*
X188571096Y-88320571D01*
X188618715Y-88415810D01*
X188618715Y-88653905D01*
X188571096Y-88749143D01*
X188523477Y-88796762D01*
X188428239Y-88844381D01*
X188142524Y-88844381D01*
X188047286Y-88796762D01*
X187999667Y-88749143D01*
X189571334Y-88844381D02*
X189238000Y-88368190D01*
X188999905Y-88844381D02*
X188999905Y-87844381D01*
X189380858Y-87844381D01*
X189476096Y-87892000D01*
X189523715Y-87939619D01*
X189571334Y-88034857D01*
X189571334Y-88177714D01*
X189523715Y-88272952D01*
X189476096Y-88320571D01*
X189380858Y-88368190D01*
X188999905Y-88368190D01*
X190428477Y-88177714D02*
X190428477Y-88844381D01*
X190190381Y-87796762D02*
X189952286Y-88511048D01*
X190571334Y-88511048D01*
X191603334Y-88844381D02*
X191270000Y-88368190D01*
X191031905Y-88844381D02*
X191031905Y-87844381D01*
X191412858Y-87844381D01*
X191508096Y-87892000D01*
X191555715Y-87939619D01*
X191603334Y-88034857D01*
X191603334Y-88177714D01*
X191555715Y-88272952D01*
X191508096Y-88320571D01*
X191412858Y-88368190D01*
X191031905Y-88368190D01*
X192508096Y-87844381D02*
X192031905Y-87844381D01*
X191984286Y-88320571D01*
X192031905Y-88272952D01*
X192127143Y-88225333D01*
X192365239Y-88225333D01*
X192460477Y-88272952D01*
X192508096Y-88320571D01*
X192555715Y-88415810D01*
X192555715Y-88653905D01*
X192508096Y-88749143D01*
X192460477Y-88796762D01*
X192365239Y-88844381D01*
X192127143Y-88844381D01*
X192031905Y-88796762D01*
X191984286Y-88749143D01*
X194143334Y-88844381D02*
X193810000Y-88368190D01*
X193571905Y-88844381D02*
X193571905Y-87844381D01*
X193952858Y-87844381D01*
X194048096Y-87892000D01*
X194095715Y-87939619D01*
X194143334Y-88034857D01*
X194143334Y-88177714D01*
X194095715Y-88272952D01*
X194048096Y-88320571D01*
X193952858Y-88368190D01*
X193571905Y-88368190D01*
X195000477Y-87844381D02*
X194810000Y-87844381D01*
X194714762Y-87892000D01*
X194667143Y-87939619D01*
X194571905Y-88082476D01*
X194524286Y-88272952D01*
X194524286Y-88653905D01*
X194571905Y-88749143D01*
X194619524Y-88796762D01*
X194714762Y-88844381D01*
X194905239Y-88844381D01*
X195000477Y-88796762D01*
X195048096Y-88749143D01*
X195095715Y-88653905D01*
X195095715Y-88415810D01*
X195048096Y-88320571D01*
X195000477Y-88272952D01*
X194905239Y-88225333D01*
X194714762Y-88225333D01*
X194619524Y-88272952D01*
X194571905Y-88320571D01*
X194524286Y-88415810D01*
X196683334Y-88844381D02*
X196350000Y-88368190D01*
X196111905Y-88844381D02*
X196111905Y-87844381D01*
X196492858Y-87844381D01*
X196588096Y-87892000D01*
X196635715Y-87939619D01*
X196683334Y-88034857D01*
X196683334Y-88177714D01*
X196635715Y-88272952D01*
X196588096Y-88320571D01*
X196492858Y-88368190D01*
X196111905Y-88368190D01*
X197016667Y-87844381D02*
X197683334Y-87844381D01*
X197254762Y-88844381D01*
X199223334Y-88844381D02*
X198890000Y-88368190D01*
X198651905Y-88844381D02*
X198651905Y-87844381D01*
X199032858Y-87844381D01*
X199128096Y-87892000D01*
X199175715Y-87939619D01*
X199223334Y-88034857D01*
X199223334Y-88177714D01*
X199175715Y-88272952D01*
X199128096Y-88320571D01*
X199032858Y-88368190D01*
X198651905Y-88368190D01*
X199794762Y-88272952D02*
X199699524Y-88225333D01*
X199651905Y-88177714D01*
X199604286Y-88082476D01*
X199604286Y-88034857D01*
X199651905Y-87939619D01*
X199699524Y-87892000D01*
X199794762Y-87844381D01*
X199985239Y-87844381D01*
X200080477Y-87892000D01*
X200128096Y-87939619D01*
X200175715Y-88034857D01*
X200175715Y-88082476D01*
X200128096Y-88177714D01*
X200080477Y-88225333D01*
X199985239Y-88272952D01*
X199794762Y-88272952D01*
X199699524Y-88320571D01*
X199651905Y-88368190D01*
X199604286Y-88463429D01*
X199604286Y-88653905D01*
X199651905Y-88749143D01*
X199699524Y-88796762D01*
X199794762Y-88844381D01*
X199985239Y-88844381D01*
X200080477Y-88796762D01*
X200128096Y-88749143D01*
X200175715Y-88653905D01*
X200175715Y-88463429D01*
X200128096Y-88368190D01*
X200080477Y-88320571D01*
X199985239Y-88272952D01*
X182840334Y-97258143D02*
X182792715Y-97305762D01*
X182649858Y-97353381D01*
X182554620Y-97353381D01*
X182411762Y-97305762D01*
X182316524Y-97210524D01*
X182268905Y-97115286D01*
X182221286Y-96924810D01*
X182221286Y-96781952D01*
X182268905Y-96591476D01*
X182316524Y-96496238D01*
X182411762Y-96401000D01*
X182554620Y-96353381D01*
X182649858Y-96353381D01*
X182792715Y-96401000D01*
X182840334Y-96448619D01*
X183792715Y-97353381D02*
X183221286Y-97353381D01*
X183507000Y-97353381D02*
X183507000Y-96353381D01*
X183411762Y-96496238D01*
X183316524Y-96591476D01*
X183221286Y-96639095D01*
M02*
