M48
INCH,TZ
T1C0.016
T2C0.035
T3C0.051
T4C0.118
T5C0.126
%
G90
G05
T1
X71150Y-36810
X71150Y-37240
X71180Y-36490
X71830Y-34740
X72053Y-35954
X72103Y-35412
X72244Y-36746
X72360Y-37770
X72490Y-36230
X72499Y-37473
X72670Y-34678
X73000Y-39157
X73084Y-34523
X73354Y-37460
X73360Y-37130
X73477Y-35504
X73477Y-36153
X73604Y-35206
X73840Y-39300
X74020Y-34533
X74350Y-36230
X74352Y-35915
X74399Y-36737
X74430Y-37100
X74742Y-37503
X75010Y-34533
X75500Y-34620
X75528Y-36895
X75530Y-35710
X75630Y-35200
X75790Y-35480
X75860Y-37620
X76020Y-34670
X76090Y-35720
X76510Y-34740
X76511Y-37521
X76820Y-36960
X77260Y-36470
X77500Y-34740
X77750Y-36980
X77990Y-34693
X78300Y-34930
X78890Y-37400
X79190Y-37000
X80410Y-37520
X80580Y-36980
T2
X72594Y-40799
X72996Y-41500
X73398Y-40799
X73799Y-41500
X74201Y-40799
X74602Y-41500
X75004Y-40799
X75406Y-41500
T3
X71500Y-29500
X71500Y-30500
X71500Y-31500
X72500Y-29500
X72500Y-30500
X72500Y-31500
X73500Y-29500
X73500Y-30500
X73500Y-31500
X74500Y-29500
X74500Y-30500
X74500Y-31500
X75500Y-29500
X75500Y-30500
X75500Y-31500
X76500Y-29500
X76500Y-30500
X76500Y-31500
X77500Y-29500
X77500Y-30500
X77500Y-31500
X78500Y-29500
X78500Y-30500
X78500Y-31500
X79500Y-29500
X79500Y-30500
X79500Y-31500
X80500Y-29500
X80500Y-30500
X80500Y-31500
X81500Y-29500
X81500Y-30500
X81500Y-31500
T4
X79150Y-39157
X79150Y-41519
X81000Y-40338
T5
X71500Y-42500
X76500Y-42500
T0
M30
