G04 #@! TF.FileFunction,Copper,L2,Bot,Signal*
%FSLAX46Y46*%
G04 Gerber Fmt 4.6, Leading zero omitted, Abs format (unit mm)*
G04 Created by KiCad (PCBNEW 4.0.7) date Thursday, May 03, 2018 'PMt' 09:52:22 PM*
%MOMM*%
%LPD*%
G01*
G04 APERTURE LIST*
%ADD10C,0.100000*%
%ADD11R,1.900000X1.900000*%
%ADD12O,1.900000X1.900000*%
%ADD13C,4.318000*%
%ADD14R,1.500000X1.500000*%
%ADD15C,1.500000*%
%ADD16C,0.600000*%
%ADD17C,0.254000*%
G04 APERTURE END LIST*
D10*
D11*
X181610000Y-80010000D03*
D12*
X184150000Y-80010000D03*
X186690000Y-80010000D03*
X189230000Y-80010000D03*
X191770000Y-80010000D03*
X194310000Y-80010000D03*
X196850000Y-80010000D03*
X199390000Y-80010000D03*
X201930000Y-80010000D03*
X204470000Y-80010000D03*
X207010000Y-80010000D03*
D11*
X181610000Y-77470000D03*
D12*
X184150000Y-77470000D03*
X186690000Y-77470000D03*
X189230000Y-77470000D03*
X191770000Y-77470000D03*
X194310000Y-77470000D03*
X196850000Y-77470000D03*
X199390000Y-77470000D03*
X201930000Y-77470000D03*
X204470000Y-77470000D03*
X207010000Y-77470000D03*
D11*
X181610000Y-74930000D03*
D12*
X184150000Y-74930000D03*
X186690000Y-74930000D03*
X189230000Y-74930000D03*
X191770000Y-74930000D03*
X194310000Y-74930000D03*
X196850000Y-74930000D03*
X199390000Y-74930000D03*
X201930000Y-74930000D03*
X204470000Y-74930000D03*
X207010000Y-74930000D03*
D13*
X201041000Y-105458260D03*
X205740000Y-102458520D03*
X201041000Y-99458780D03*
D14*
X191530000Y-105410000D03*
D15*
X190510000Y-103630000D03*
X189490000Y-105410000D03*
X188470000Y-103630000D03*
X187450000Y-105410000D03*
X186430000Y-103630000D03*
X185410000Y-105410000D03*
X184390000Y-103630000D03*
D16*
X183499902Y-93334698D03*
X183794400Y-95935800D03*
X182448200Y-88239600D03*
X184581800Y-88082800D03*
X198882000Y-88722200D03*
X196850000Y-88239600D03*
X191770000Y-87934800D03*
X194335400Y-88239600D03*
X185420000Y-99458410D03*
X184124600Y-92024200D03*
X193268600Y-90728800D03*
X196240400Y-92633800D03*
X180797200Y-92684600D03*
X187553600Y-99822000D03*
X204673200Y-93929200D03*
X201142600Y-93980000D03*
X197485000Y-93929200D03*
X192100200Y-89408000D03*
X200380600Y-94996000D03*
X180721000Y-93497400D03*
X204241400Y-95300800D03*
X180721000Y-94589600D03*
X194338933Y-95304333D03*
X183014476Y-91323572D03*
X191846200Y-90703400D03*
X192506600Y-90119200D03*
X195122800Y-93878400D03*
X183140758Y-89945595D03*
X189052200Y-94234000D03*
X185634037Y-87688883D03*
X186334400Y-94310200D03*
X191841269Y-93712571D03*
X188010800Y-87714190D03*
X188973769Y-93311689D03*
X186631210Y-91827526D03*
X188849000Y-92024200D03*
X190525400Y-87714190D03*
X186319740Y-95149134D03*
X188854302Y-91224206D03*
X193090800Y-88061800D03*
X184148388Y-95180831D03*
X186631210Y-90181278D03*
X192684400Y-95554800D03*
X186953435Y-89422221D03*
X198094600Y-88120590D03*
X189844524Y-95256367D03*
D17*
X183499902Y-92910434D02*
X183499902Y-93334698D01*
X184124600Y-92024200D02*
X183499902Y-92648898D01*
X183494401Y-95635801D02*
X183494401Y-93340199D01*
X183499902Y-92648898D02*
X183499902Y-92910434D01*
X183794400Y-95935800D02*
X183494401Y-95635801D01*
X183494401Y-93340199D02*
X183499902Y-93334698D01*
X187450000Y-105410000D02*
X188470000Y-103630000D01*
X184581800Y-88082800D02*
X182605000Y-88082800D01*
X182605000Y-88082800D02*
X182448200Y-88239600D01*
X198432336Y-88747600D02*
X197358000Y-88747600D01*
X197358000Y-88747600D02*
X196850000Y-88239600D01*
X198882000Y-88722200D02*
X198457736Y-88722200D01*
X198457736Y-88722200D02*
X198432336Y-88747600D01*
X196850000Y-88239600D02*
X194335400Y-88239600D01*
X193725800Y-88823800D02*
X192659000Y-88823800D01*
X192659000Y-88823800D02*
X191770000Y-87934800D01*
X194010001Y-88539599D02*
X193725800Y-88823800D01*
X194335400Y-88239600D02*
X194035401Y-88539599D01*
X194035401Y-88539599D02*
X194010001Y-88539599D01*
X185420000Y-99882674D02*
X185420000Y-99458410D01*
X188470000Y-103630000D02*
X185420000Y-100580000D01*
X185420000Y-100580000D02*
X185420000Y-99882674D01*
X183392078Y-97720178D02*
X192809816Y-97720178D01*
X181964878Y-96292978D02*
X183392078Y-97720178D01*
X192809816Y-97720178D02*
X196240400Y-94289594D01*
X181964878Y-93852278D02*
X181964878Y-96292978D01*
X196240400Y-93058064D02*
X196240400Y-92633800D01*
X196240400Y-94289594D02*
X196240400Y-93058064D01*
X180797200Y-92684600D02*
X181964878Y-93852278D01*
X193268600Y-90728800D02*
X195173600Y-92633800D01*
X195173600Y-92633800D02*
X196240400Y-92633800D01*
X194640200Y-89408000D02*
X197485000Y-92252800D01*
X197485000Y-92252800D02*
X197485000Y-93929200D01*
X192100200Y-89408000D02*
X194640200Y-89408000D01*
X183204021Y-98174189D02*
X197202411Y-98174189D01*
X197202411Y-98174189D02*
X200080601Y-95295999D01*
X181348001Y-96318169D02*
X183204021Y-98174189D01*
X180721000Y-93497400D02*
X181348001Y-94124401D01*
X181348001Y-94124401D02*
X181348001Y-96318169D01*
X200080601Y-95295999D02*
X200380600Y-94996000D01*
X182803800Y-98831400D02*
X197989098Y-98831400D01*
X197989098Y-98831400D02*
X201519698Y-95300800D01*
X201519698Y-95300800D02*
X204241400Y-95300800D01*
X180746400Y-96774000D02*
X182803800Y-98831400D01*
X180746400Y-95039264D02*
X180746400Y-96774000D01*
X180721000Y-94589600D02*
X180721000Y-95013864D01*
X180721000Y-95013864D02*
X180746400Y-95039264D01*
X194038934Y-95604332D02*
X194338933Y-95304333D01*
X192377099Y-97266167D02*
X194038934Y-95604332D01*
X183580135Y-97266167D02*
X192377099Y-97266167D01*
X182418889Y-91919159D02*
X182418889Y-96104921D01*
X183014476Y-91323572D02*
X182418889Y-91919159D01*
X182418889Y-96104921D02*
X183580135Y-97266167D01*
X194038934Y-95004334D02*
X194338933Y-95304333D01*
X191846200Y-92811600D02*
X194038934Y-95004334D01*
X191846200Y-90703400D02*
X191846200Y-92811600D01*
X195122800Y-93878400D02*
X192506600Y-91262200D01*
X192506600Y-91262200D02*
X192506600Y-90119200D01*
X183870600Y-91350236D02*
X183870600Y-90675437D01*
X183870600Y-90675437D02*
X183440757Y-90245594D01*
X183497598Y-92009134D02*
X183497598Y-91723238D01*
X182872900Y-95916864D02*
X182872900Y-92633832D01*
X186697998Y-96588202D02*
X183544238Y-96588202D01*
X189052200Y-94234000D02*
X186697998Y-96588202D01*
X183440757Y-90245594D02*
X183140758Y-89945595D01*
X182872900Y-92633832D02*
X183497598Y-92009134D01*
X183497598Y-91723238D02*
X183870600Y-91350236D01*
X183544238Y-96588202D02*
X182872900Y-95916864D01*
X185334038Y-87988882D02*
X185634037Y-87688883D01*
X185334038Y-93309838D02*
X185334038Y-87988882D01*
X186334400Y-94310200D02*
X185334038Y-93309838D01*
X191541270Y-93412572D02*
X191841269Y-93712571D01*
X188973769Y-93311689D02*
X191440387Y-93311689D01*
X191440387Y-93311689D02*
X191541270Y-93412572D01*
X188010800Y-92348720D02*
X188010800Y-88138454D01*
X188010800Y-88138454D02*
X188010800Y-87714190D01*
X188973769Y-93311689D02*
X188010800Y-92348720D01*
X186744004Y-95149134D02*
X186961401Y-94931737D01*
X186961401Y-94931737D02*
X186961401Y-92157717D01*
X186961401Y-92157717D02*
X186931209Y-92127525D01*
X186931209Y-92127525D02*
X186631210Y-91827526D01*
X186319740Y-95149134D02*
X186744004Y-95149134D01*
X189273264Y-92024200D02*
X188849000Y-92024200D01*
X190525400Y-90772064D02*
X189273264Y-92024200D01*
X190525400Y-87714190D02*
X190525400Y-90772064D01*
X190224439Y-87087189D02*
X188854302Y-88457326D01*
X188854302Y-88457326D02*
X188854302Y-90799942D01*
X188854302Y-90799942D02*
X188854302Y-91224206D01*
X193090800Y-88061800D02*
X192116189Y-87087189D01*
X192116189Y-87087189D02*
X190224439Y-87087189D01*
X184448387Y-95480830D02*
X184148388Y-95180831D01*
X186631210Y-90181278D02*
X187556790Y-91106858D01*
X187556790Y-91106858D02*
X187556790Y-94978415D01*
X187556790Y-94978415D02*
X186759070Y-95776135D01*
X186759070Y-95776135D02*
X184743692Y-95776135D01*
X184743692Y-95776135D02*
X184448387Y-95480830D01*
X189844524Y-95256367D02*
X192385967Y-95256367D01*
X192385967Y-95256367D02*
X192684400Y-95554800D01*
X186953435Y-88997957D02*
X186953435Y-89422221D01*
X186953435Y-87868993D02*
X186953435Y-88997957D01*
X198094600Y-88120590D02*
X196607188Y-86633178D01*
X196607188Y-86633178D02*
X188189250Y-86633178D01*
X188189250Y-86633178D02*
X186953435Y-87868993D01*
G36*
X180163569Y-73828110D02*
X180112560Y-74080000D01*
X180112560Y-75780000D01*
X180156838Y-76015317D01*
X180277015Y-76202077D01*
X180163569Y-76368110D01*
X180112560Y-76620000D01*
X180112560Y-78320000D01*
X180156838Y-78555317D01*
X180277015Y-78742077D01*
X180163569Y-78908110D01*
X180112560Y-79160000D01*
X180112560Y-80860000D01*
X180156838Y-81095317D01*
X180295910Y-81311441D01*
X180508110Y-81456431D01*
X180760000Y-81507440D01*
X182460000Y-81507440D01*
X182695317Y-81463162D01*
X182911441Y-81324090D01*
X183056431Y-81111890D01*
X183070086Y-81044459D01*
X183099946Y-81089147D01*
X183581715Y-81411054D01*
X184150000Y-81524093D01*
X184718285Y-81411054D01*
X185200054Y-81089147D01*
X185420000Y-80759974D01*
X185639946Y-81089147D01*
X186121715Y-81411054D01*
X186690000Y-81524093D01*
X187258285Y-81411054D01*
X187740054Y-81089147D01*
X187960000Y-80759974D01*
X188179946Y-81089147D01*
X188661715Y-81411054D01*
X189230000Y-81524093D01*
X189798285Y-81411054D01*
X190280054Y-81089147D01*
X190500000Y-80759974D01*
X190719946Y-81089147D01*
X191201715Y-81411054D01*
X191770000Y-81524093D01*
X192338285Y-81411054D01*
X192820054Y-81089147D01*
X193040000Y-80759974D01*
X193259946Y-81089147D01*
X193741715Y-81411054D01*
X194310000Y-81524093D01*
X194878285Y-81411054D01*
X195360054Y-81089147D01*
X195580000Y-80759974D01*
X195799946Y-81089147D01*
X196281715Y-81411054D01*
X196850000Y-81524093D01*
X197418285Y-81411054D01*
X197900054Y-81089147D01*
X198120000Y-80759974D01*
X198339946Y-81089147D01*
X198821715Y-81411054D01*
X199390000Y-81524093D01*
X199958285Y-81411054D01*
X200440054Y-81089147D01*
X200667702Y-80748447D01*
X200734817Y-80891358D01*
X201163076Y-81281645D01*
X201573110Y-81451476D01*
X201803000Y-81330155D01*
X201803000Y-80137000D01*
X201783000Y-80137000D01*
X201783000Y-79883000D01*
X201803000Y-79883000D01*
X201803000Y-79863000D01*
X202057000Y-79863000D01*
X202057000Y-79883000D01*
X202077000Y-79883000D01*
X202077000Y-80137000D01*
X202057000Y-80137000D01*
X202057000Y-81330155D01*
X202286890Y-81451476D01*
X202696924Y-81281645D01*
X203125183Y-80891358D01*
X203192298Y-80748447D01*
X203419946Y-81089147D01*
X203901715Y-81411054D01*
X204470000Y-81524093D01*
X205038285Y-81411054D01*
X205520054Y-81089147D01*
X205740000Y-80759974D01*
X205959946Y-81089147D01*
X206441715Y-81411054D01*
X207010000Y-81524093D01*
X207578285Y-81411054D01*
X208060054Y-81089147D01*
X208381961Y-80607378D01*
X208495000Y-80039093D01*
X208495000Y-79980907D01*
X208381961Y-79412622D01*
X208060054Y-78930853D01*
X207774422Y-78740000D01*
X208060054Y-78549147D01*
X208381961Y-78067378D01*
X208495000Y-77499093D01*
X208495000Y-77440907D01*
X208381961Y-76872622D01*
X208060054Y-76390853D01*
X207774422Y-76200000D01*
X208060054Y-76009147D01*
X208381961Y-75527378D01*
X208495000Y-74959093D01*
X208495000Y-74900907D01*
X208381961Y-74332622D01*
X208060054Y-73850853D01*
X207886667Y-73735000D01*
X208840000Y-73735000D01*
X208840000Y-112320000D01*
X179780000Y-112320000D01*
X179780000Y-109280332D01*
X180342321Y-109843636D01*
X181163481Y-110184611D01*
X182052619Y-110185387D01*
X182874372Y-109845845D01*
X183503636Y-109217679D01*
X183844611Y-108396519D01*
X183845387Y-107507381D01*
X183505845Y-106685628D01*
X183202265Y-106381517D01*
X184618088Y-106381517D01*
X184686077Y-106622460D01*
X185205171Y-106807201D01*
X185755448Y-106779230D01*
X186133923Y-106622460D01*
X186201912Y-106381517D01*
X185410000Y-105589605D01*
X184618088Y-106381517D01*
X183202265Y-106381517D01*
X182877679Y-106056364D01*
X182056519Y-105715389D01*
X181167381Y-105714613D01*
X180345628Y-106054155D01*
X179780000Y-106618796D01*
X179780000Y-103425171D01*
X182992799Y-103425171D01*
X183020770Y-103975448D01*
X183177540Y-104353923D01*
X183418483Y-104421912D01*
X184210395Y-103630000D01*
X183418483Y-102838088D01*
X183177540Y-102906077D01*
X182992799Y-103425171D01*
X179780000Y-103425171D01*
X179780000Y-102658483D01*
X183598088Y-102658483D01*
X184390000Y-103450395D01*
X185181912Y-102658483D01*
X185113923Y-102417540D01*
X184594829Y-102232799D01*
X184044552Y-102260770D01*
X183666077Y-102417540D01*
X183598088Y-102658483D01*
X179780000Y-102658483D01*
X179780000Y-93682567D01*
X179785838Y-93682567D01*
X179927883Y-94026343D01*
X179944810Y-94043299D01*
X179928808Y-94059273D01*
X179786162Y-94402801D01*
X179785838Y-94774767D01*
X179927883Y-95118543D01*
X179984400Y-95175159D01*
X179984400Y-96774000D01*
X180042404Y-97065605D01*
X180176416Y-97266167D01*
X180207585Y-97312815D01*
X182264985Y-99370215D01*
X182512195Y-99535396D01*
X182803800Y-99593400D01*
X184484882Y-99593400D01*
X184484838Y-99643577D01*
X184626883Y-99987353D01*
X184658000Y-100018524D01*
X184658000Y-100580000D01*
X184716004Y-100871605D01*
X184881185Y-101118815D01*
X186050573Y-102288204D01*
X185646485Y-102455169D01*
X185256539Y-102844436D01*
X185186503Y-103013102D01*
X184569605Y-103630000D01*
X184583748Y-103644143D01*
X184404143Y-103823748D01*
X184390000Y-103809605D01*
X183598088Y-104601517D01*
X183666077Y-104842460D01*
X184088395Y-104992759D01*
X184012799Y-105205171D01*
X184040770Y-105755448D01*
X184197540Y-106133923D01*
X184438483Y-106201912D01*
X185230395Y-105410000D01*
X185216253Y-105395858D01*
X185395858Y-105216253D01*
X185410000Y-105230395D01*
X185424143Y-105216253D01*
X185603748Y-105395858D01*
X185589605Y-105410000D01*
X186206199Y-106026594D01*
X186275169Y-106193515D01*
X186664436Y-106583461D01*
X187173298Y-106794759D01*
X187724285Y-106795240D01*
X188233515Y-106584831D01*
X188470071Y-106348687D01*
X188704436Y-106583461D01*
X189213298Y-106794759D01*
X189764285Y-106795240D01*
X190273515Y-106584831D01*
X190288903Y-106569470D01*
X190315910Y-106611441D01*
X190528110Y-106756431D01*
X190780000Y-106807440D01*
X192280000Y-106807440D01*
X192371564Y-106790211D01*
X192075389Y-107503481D01*
X192074613Y-108392619D01*
X192414155Y-109214372D01*
X193042321Y-109843636D01*
X193863481Y-110184611D01*
X194752619Y-110185387D01*
X195574372Y-109845845D01*
X196203636Y-109217679D01*
X196544611Y-108396519D01*
X196545387Y-107507381D01*
X196520872Y-107448050D01*
X199230815Y-107448050D01*
X199470963Y-107835295D01*
X200500127Y-108255181D01*
X201611634Y-108249261D01*
X202611037Y-107835295D01*
X202851185Y-107448050D01*
X201041000Y-105637865D01*
X199230815Y-107448050D01*
X196520872Y-107448050D01*
X196205845Y-106685628D01*
X195577679Y-106056364D01*
X194756519Y-105715389D01*
X193867381Y-105714613D01*
X193045628Y-106054155D01*
X192924360Y-106175212D01*
X192927440Y-106160000D01*
X192927440Y-104917387D01*
X198244079Y-104917387D01*
X198249999Y-106028894D01*
X198663965Y-107028297D01*
X199051210Y-107268445D01*
X200861395Y-105458260D01*
X199051210Y-103648075D01*
X198663965Y-103888223D01*
X198244079Y-104917387D01*
X192927440Y-104917387D01*
X192927440Y-104660000D01*
X192883162Y-104424683D01*
X192744090Y-104208559D01*
X192531890Y-104063569D01*
X192280000Y-104012560D01*
X191850803Y-104012560D01*
X191894759Y-103906702D01*
X191895141Y-103468470D01*
X199230815Y-103468470D01*
X201041000Y-105278655D01*
X202851185Y-103468470D01*
X202611037Y-103081225D01*
X201581873Y-102661339D01*
X200470366Y-102667259D01*
X199470963Y-103081225D01*
X199230815Y-103468470D01*
X191895141Y-103468470D01*
X191895240Y-103355715D01*
X191684831Y-102846485D01*
X191295564Y-102456539D01*
X190786702Y-102245241D01*
X190235715Y-102244760D01*
X189726485Y-102455169D01*
X189489929Y-102691313D01*
X189255564Y-102456539D01*
X188746702Y-102245241D01*
X188195715Y-102244760D01*
X188172134Y-102254503D01*
X186182000Y-100264370D01*
X186182000Y-100018876D01*
X186212192Y-99988737D01*
X186354838Y-99645209D01*
X186354883Y-99593400D01*
X197989098Y-99593400D01*
X198246926Y-99542115D01*
X198246516Y-100012103D01*
X198670981Y-101039386D01*
X199456260Y-101826037D01*
X200482801Y-102252294D01*
X201594323Y-102253264D01*
X202621606Y-101828799D01*
X203227218Y-101224243D01*
X202946486Y-101900321D01*
X202945516Y-103011843D01*
X203269592Y-103796167D01*
X203030790Y-103648075D01*
X201220605Y-105458260D01*
X203030790Y-107268445D01*
X203418035Y-107028297D01*
X203837921Y-105999133D01*
X203832001Y-104887626D01*
X203558952Y-104228427D01*
X204155260Y-104825777D01*
X205181801Y-105252034D01*
X206293323Y-105253004D01*
X207320606Y-104828539D01*
X208107257Y-104043260D01*
X208533514Y-103016719D01*
X208534484Y-101905197D01*
X208110019Y-100877914D01*
X207324740Y-100091263D01*
X206298199Y-99665006D01*
X205186677Y-99664036D01*
X204159394Y-100088501D01*
X203553782Y-100693057D01*
X203834514Y-100016979D01*
X203835484Y-98905457D01*
X203411019Y-97878174D01*
X202625740Y-97091523D01*
X201599199Y-96665266D01*
X201233182Y-96664947D01*
X201835329Y-96062800D01*
X203680934Y-96062800D01*
X203711073Y-96092992D01*
X204054601Y-96235638D01*
X204426567Y-96235962D01*
X204770343Y-96093917D01*
X205033592Y-95831127D01*
X205176238Y-95487599D01*
X205176562Y-95115633D01*
X205034517Y-94771857D01*
X204771727Y-94508608D01*
X204428199Y-94365962D01*
X204056233Y-94365638D01*
X203712457Y-94507683D01*
X203681286Y-94538800D01*
X201519698Y-94538800D01*
X201228093Y-94596804D01*
X201227493Y-94597205D01*
X201173717Y-94467057D01*
X200910927Y-94203808D01*
X200567399Y-94061162D01*
X200195433Y-94060838D01*
X199851657Y-94202883D01*
X199588408Y-94465673D01*
X199445762Y-94809201D01*
X199445724Y-94853245D01*
X196886781Y-97412189D01*
X194195435Y-97412189D01*
X196779215Y-94828410D01*
X196944396Y-94581199D01*
X196952127Y-94542333D01*
X197002400Y-94289594D01*
X197002400Y-93194266D01*
X197032592Y-93164127D01*
X197175238Y-92820599D01*
X197175562Y-92448633D01*
X197033517Y-92104857D01*
X196770727Y-91841608D01*
X196427199Y-91698962D01*
X196055233Y-91698638D01*
X195711457Y-91840683D01*
X195680286Y-91871800D01*
X195489230Y-91871800D01*
X194203725Y-90586295D01*
X194203762Y-90543633D01*
X194061717Y-90199857D01*
X193798927Y-89936608D01*
X193455399Y-89793962D01*
X193383860Y-89793900D01*
X193299717Y-89590257D01*
X193295268Y-89585800D01*
X193725800Y-89585800D01*
X194017405Y-89527796D01*
X194264615Y-89362615D01*
X194452527Y-89174703D01*
X194520567Y-89174762D01*
X194864343Y-89032717D01*
X194895514Y-89001600D01*
X196289534Y-89001600D01*
X196319673Y-89031792D01*
X196663201Y-89174438D01*
X196707246Y-89174476D01*
X196819184Y-89286415D01*
X197012026Y-89415268D01*
X197066395Y-89451596D01*
X197358000Y-89509600D01*
X198346889Y-89509600D01*
X198351673Y-89514392D01*
X198695201Y-89657038D01*
X199067167Y-89657362D01*
X199410943Y-89515317D01*
X199674192Y-89252527D01*
X199816838Y-88908999D01*
X199817162Y-88537033D01*
X199675117Y-88193257D01*
X199412327Y-87930008D01*
X199068799Y-87787362D01*
X198968549Y-87787275D01*
X198887717Y-87591647D01*
X198624927Y-87328398D01*
X198281399Y-87185752D01*
X198237354Y-87185714D01*
X197146003Y-86094363D01*
X196898793Y-85929182D01*
X196607188Y-85871178D01*
X188189250Y-85871178D01*
X187897645Y-85929182D01*
X187650434Y-86094363D01*
X186473264Y-87271534D01*
X186427154Y-87159940D01*
X186164364Y-86896691D01*
X185820836Y-86754045D01*
X185448870Y-86753721D01*
X185105094Y-86895766D01*
X184841845Y-87158556D01*
X184834825Y-87175462D01*
X184768599Y-87147962D01*
X184396633Y-87147638D01*
X184052857Y-87289683D01*
X184021686Y-87320800D01*
X182673623Y-87320800D01*
X182634999Y-87304762D01*
X182263033Y-87304438D01*
X181919257Y-87446483D01*
X181656008Y-87709273D01*
X181513362Y-88052801D01*
X181513038Y-88424767D01*
X181655083Y-88768543D01*
X181917873Y-89031792D01*
X182261401Y-89174438D01*
X182589530Y-89174724D01*
X182348566Y-89415268D01*
X182205920Y-89758796D01*
X182205596Y-90130762D01*
X182347641Y-90474538D01*
X182444425Y-90571491D01*
X182222284Y-90793245D01*
X182079638Y-91136773D01*
X182079600Y-91180818D01*
X181895174Y-91365244D01*
X181729993Y-91612454D01*
X181671989Y-91904059D01*
X181671989Y-92353319D01*
X181590317Y-92155657D01*
X181327527Y-91892408D01*
X180983999Y-91749762D01*
X180612033Y-91749438D01*
X180268257Y-91891483D01*
X180005008Y-92154273D01*
X179862362Y-92497801D01*
X179862038Y-92869767D01*
X179915493Y-92999139D01*
X179786162Y-93310601D01*
X179785838Y-93682567D01*
X179780000Y-93682567D01*
X179780000Y-73735000D01*
X180227188Y-73735000D01*
X180163569Y-73828110D01*
X180163569Y-73828110D01*
G37*
X180163569Y-73828110D02*
X180112560Y-74080000D01*
X180112560Y-75780000D01*
X180156838Y-76015317D01*
X180277015Y-76202077D01*
X180163569Y-76368110D01*
X180112560Y-76620000D01*
X180112560Y-78320000D01*
X180156838Y-78555317D01*
X180277015Y-78742077D01*
X180163569Y-78908110D01*
X180112560Y-79160000D01*
X180112560Y-80860000D01*
X180156838Y-81095317D01*
X180295910Y-81311441D01*
X180508110Y-81456431D01*
X180760000Y-81507440D01*
X182460000Y-81507440D01*
X182695317Y-81463162D01*
X182911441Y-81324090D01*
X183056431Y-81111890D01*
X183070086Y-81044459D01*
X183099946Y-81089147D01*
X183581715Y-81411054D01*
X184150000Y-81524093D01*
X184718285Y-81411054D01*
X185200054Y-81089147D01*
X185420000Y-80759974D01*
X185639946Y-81089147D01*
X186121715Y-81411054D01*
X186690000Y-81524093D01*
X187258285Y-81411054D01*
X187740054Y-81089147D01*
X187960000Y-80759974D01*
X188179946Y-81089147D01*
X188661715Y-81411054D01*
X189230000Y-81524093D01*
X189798285Y-81411054D01*
X190280054Y-81089147D01*
X190500000Y-80759974D01*
X190719946Y-81089147D01*
X191201715Y-81411054D01*
X191770000Y-81524093D01*
X192338285Y-81411054D01*
X192820054Y-81089147D01*
X193040000Y-80759974D01*
X193259946Y-81089147D01*
X193741715Y-81411054D01*
X194310000Y-81524093D01*
X194878285Y-81411054D01*
X195360054Y-81089147D01*
X195580000Y-80759974D01*
X195799946Y-81089147D01*
X196281715Y-81411054D01*
X196850000Y-81524093D01*
X197418285Y-81411054D01*
X197900054Y-81089147D01*
X198120000Y-80759974D01*
X198339946Y-81089147D01*
X198821715Y-81411054D01*
X199390000Y-81524093D01*
X199958285Y-81411054D01*
X200440054Y-81089147D01*
X200667702Y-80748447D01*
X200734817Y-80891358D01*
X201163076Y-81281645D01*
X201573110Y-81451476D01*
X201803000Y-81330155D01*
X201803000Y-80137000D01*
X201783000Y-80137000D01*
X201783000Y-79883000D01*
X201803000Y-79883000D01*
X201803000Y-79863000D01*
X202057000Y-79863000D01*
X202057000Y-79883000D01*
X202077000Y-79883000D01*
X202077000Y-80137000D01*
X202057000Y-80137000D01*
X202057000Y-81330155D01*
X202286890Y-81451476D01*
X202696924Y-81281645D01*
X203125183Y-80891358D01*
X203192298Y-80748447D01*
X203419946Y-81089147D01*
X203901715Y-81411054D01*
X204470000Y-81524093D01*
X205038285Y-81411054D01*
X205520054Y-81089147D01*
X205740000Y-80759974D01*
X205959946Y-81089147D01*
X206441715Y-81411054D01*
X207010000Y-81524093D01*
X207578285Y-81411054D01*
X208060054Y-81089147D01*
X208381961Y-80607378D01*
X208495000Y-80039093D01*
X208495000Y-79980907D01*
X208381961Y-79412622D01*
X208060054Y-78930853D01*
X207774422Y-78740000D01*
X208060054Y-78549147D01*
X208381961Y-78067378D01*
X208495000Y-77499093D01*
X208495000Y-77440907D01*
X208381961Y-76872622D01*
X208060054Y-76390853D01*
X207774422Y-76200000D01*
X208060054Y-76009147D01*
X208381961Y-75527378D01*
X208495000Y-74959093D01*
X208495000Y-74900907D01*
X208381961Y-74332622D01*
X208060054Y-73850853D01*
X207886667Y-73735000D01*
X208840000Y-73735000D01*
X208840000Y-112320000D01*
X179780000Y-112320000D01*
X179780000Y-109280332D01*
X180342321Y-109843636D01*
X181163481Y-110184611D01*
X182052619Y-110185387D01*
X182874372Y-109845845D01*
X183503636Y-109217679D01*
X183844611Y-108396519D01*
X183845387Y-107507381D01*
X183505845Y-106685628D01*
X183202265Y-106381517D01*
X184618088Y-106381517D01*
X184686077Y-106622460D01*
X185205171Y-106807201D01*
X185755448Y-106779230D01*
X186133923Y-106622460D01*
X186201912Y-106381517D01*
X185410000Y-105589605D01*
X184618088Y-106381517D01*
X183202265Y-106381517D01*
X182877679Y-106056364D01*
X182056519Y-105715389D01*
X181167381Y-105714613D01*
X180345628Y-106054155D01*
X179780000Y-106618796D01*
X179780000Y-103425171D01*
X182992799Y-103425171D01*
X183020770Y-103975448D01*
X183177540Y-104353923D01*
X183418483Y-104421912D01*
X184210395Y-103630000D01*
X183418483Y-102838088D01*
X183177540Y-102906077D01*
X182992799Y-103425171D01*
X179780000Y-103425171D01*
X179780000Y-102658483D01*
X183598088Y-102658483D01*
X184390000Y-103450395D01*
X185181912Y-102658483D01*
X185113923Y-102417540D01*
X184594829Y-102232799D01*
X184044552Y-102260770D01*
X183666077Y-102417540D01*
X183598088Y-102658483D01*
X179780000Y-102658483D01*
X179780000Y-93682567D01*
X179785838Y-93682567D01*
X179927883Y-94026343D01*
X179944810Y-94043299D01*
X179928808Y-94059273D01*
X179786162Y-94402801D01*
X179785838Y-94774767D01*
X179927883Y-95118543D01*
X179984400Y-95175159D01*
X179984400Y-96774000D01*
X180042404Y-97065605D01*
X180176416Y-97266167D01*
X180207585Y-97312815D01*
X182264985Y-99370215D01*
X182512195Y-99535396D01*
X182803800Y-99593400D01*
X184484882Y-99593400D01*
X184484838Y-99643577D01*
X184626883Y-99987353D01*
X184658000Y-100018524D01*
X184658000Y-100580000D01*
X184716004Y-100871605D01*
X184881185Y-101118815D01*
X186050573Y-102288204D01*
X185646485Y-102455169D01*
X185256539Y-102844436D01*
X185186503Y-103013102D01*
X184569605Y-103630000D01*
X184583748Y-103644143D01*
X184404143Y-103823748D01*
X184390000Y-103809605D01*
X183598088Y-104601517D01*
X183666077Y-104842460D01*
X184088395Y-104992759D01*
X184012799Y-105205171D01*
X184040770Y-105755448D01*
X184197540Y-106133923D01*
X184438483Y-106201912D01*
X185230395Y-105410000D01*
X185216253Y-105395858D01*
X185395858Y-105216253D01*
X185410000Y-105230395D01*
X185424143Y-105216253D01*
X185603748Y-105395858D01*
X185589605Y-105410000D01*
X186206199Y-106026594D01*
X186275169Y-106193515D01*
X186664436Y-106583461D01*
X187173298Y-106794759D01*
X187724285Y-106795240D01*
X188233515Y-106584831D01*
X188470071Y-106348687D01*
X188704436Y-106583461D01*
X189213298Y-106794759D01*
X189764285Y-106795240D01*
X190273515Y-106584831D01*
X190288903Y-106569470D01*
X190315910Y-106611441D01*
X190528110Y-106756431D01*
X190780000Y-106807440D01*
X192280000Y-106807440D01*
X192371564Y-106790211D01*
X192075389Y-107503481D01*
X192074613Y-108392619D01*
X192414155Y-109214372D01*
X193042321Y-109843636D01*
X193863481Y-110184611D01*
X194752619Y-110185387D01*
X195574372Y-109845845D01*
X196203636Y-109217679D01*
X196544611Y-108396519D01*
X196545387Y-107507381D01*
X196520872Y-107448050D01*
X199230815Y-107448050D01*
X199470963Y-107835295D01*
X200500127Y-108255181D01*
X201611634Y-108249261D01*
X202611037Y-107835295D01*
X202851185Y-107448050D01*
X201041000Y-105637865D01*
X199230815Y-107448050D01*
X196520872Y-107448050D01*
X196205845Y-106685628D01*
X195577679Y-106056364D01*
X194756519Y-105715389D01*
X193867381Y-105714613D01*
X193045628Y-106054155D01*
X192924360Y-106175212D01*
X192927440Y-106160000D01*
X192927440Y-104917387D01*
X198244079Y-104917387D01*
X198249999Y-106028894D01*
X198663965Y-107028297D01*
X199051210Y-107268445D01*
X200861395Y-105458260D01*
X199051210Y-103648075D01*
X198663965Y-103888223D01*
X198244079Y-104917387D01*
X192927440Y-104917387D01*
X192927440Y-104660000D01*
X192883162Y-104424683D01*
X192744090Y-104208559D01*
X192531890Y-104063569D01*
X192280000Y-104012560D01*
X191850803Y-104012560D01*
X191894759Y-103906702D01*
X191895141Y-103468470D01*
X199230815Y-103468470D01*
X201041000Y-105278655D01*
X202851185Y-103468470D01*
X202611037Y-103081225D01*
X201581873Y-102661339D01*
X200470366Y-102667259D01*
X199470963Y-103081225D01*
X199230815Y-103468470D01*
X191895141Y-103468470D01*
X191895240Y-103355715D01*
X191684831Y-102846485D01*
X191295564Y-102456539D01*
X190786702Y-102245241D01*
X190235715Y-102244760D01*
X189726485Y-102455169D01*
X189489929Y-102691313D01*
X189255564Y-102456539D01*
X188746702Y-102245241D01*
X188195715Y-102244760D01*
X188172134Y-102254503D01*
X186182000Y-100264370D01*
X186182000Y-100018876D01*
X186212192Y-99988737D01*
X186354838Y-99645209D01*
X186354883Y-99593400D01*
X197989098Y-99593400D01*
X198246926Y-99542115D01*
X198246516Y-100012103D01*
X198670981Y-101039386D01*
X199456260Y-101826037D01*
X200482801Y-102252294D01*
X201594323Y-102253264D01*
X202621606Y-101828799D01*
X203227218Y-101224243D01*
X202946486Y-101900321D01*
X202945516Y-103011843D01*
X203269592Y-103796167D01*
X203030790Y-103648075D01*
X201220605Y-105458260D01*
X203030790Y-107268445D01*
X203418035Y-107028297D01*
X203837921Y-105999133D01*
X203832001Y-104887626D01*
X203558952Y-104228427D01*
X204155260Y-104825777D01*
X205181801Y-105252034D01*
X206293323Y-105253004D01*
X207320606Y-104828539D01*
X208107257Y-104043260D01*
X208533514Y-103016719D01*
X208534484Y-101905197D01*
X208110019Y-100877914D01*
X207324740Y-100091263D01*
X206298199Y-99665006D01*
X205186677Y-99664036D01*
X204159394Y-100088501D01*
X203553782Y-100693057D01*
X203834514Y-100016979D01*
X203835484Y-98905457D01*
X203411019Y-97878174D01*
X202625740Y-97091523D01*
X201599199Y-96665266D01*
X201233182Y-96664947D01*
X201835329Y-96062800D01*
X203680934Y-96062800D01*
X203711073Y-96092992D01*
X204054601Y-96235638D01*
X204426567Y-96235962D01*
X204770343Y-96093917D01*
X205033592Y-95831127D01*
X205176238Y-95487599D01*
X205176562Y-95115633D01*
X205034517Y-94771857D01*
X204771727Y-94508608D01*
X204428199Y-94365962D01*
X204056233Y-94365638D01*
X203712457Y-94507683D01*
X203681286Y-94538800D01*
X201519698Y-94538800D01*
X201228093Y-94596804D01*
X201227493Y-94597205D01*
X201173717Y-94467057D01*
X200910927Y-94203808D01*
X200567399Y-94061162D01*
X200195433Y-94060838D01*
X199851657Y-94202883D01*
X199588408Y-94465673D01*
X199445762Y-94809201D01*
X199445724Y-94853245D01*
X196886781Y-97412189D01*
X194195435Y-97412189D01*
X196779215Y-94828410D01*
X196944396Y-94581199D01*
X196952127Y-94542333D01*
X197002400Y-94289594D01*
X197002400Y-93194266D01*
X197032592Y-93164127D01*
X197175238Y-92820599D01*
X197175562Y-92448633D01*
X197033517Y-92104857D01*
X196770727Y-91841608D01*
X196427199Y-91698962D01*
X196055233Y-91698638D01*
X195711457Y-91840683D01*
X195680286Y-91871800D01*
X195489230Y-91871800D01*
X194203725Y-90586295D01*
X194203762Y-90543633D01*
X194061717Y-90199857D01*
X193798927Y-89936608D01*
X193455399Y-89793962D01*
X193383860Y-89793900D01*
X193299717Y-89590257D01*
X193295268Y-89585800D01*
X193725800Y-89585800D01*
X194017405Y-89527796D01*
X194264615Y-89362615D01*
X194452527Y-89174703D01*
X194520567Y-89174762D01*
X194864343Y-89032717D01*
X194895514Y-89001600D01*
X196289534Y-89001600D01*
X196319673Y-89031792D01*
X196663201Y-89174438D01*
X196707246Y-89174476D01*
X196819184Y-89286415D01*
X197012026Y-89415268D01*
X197066395Y-89451596D01*
X197358000Y-89509600D01*
X198346889Y-89509600D01*
X198351673Y-89514392D01*
X198695201Y-89657038D01*
X199067167Y-89657362D01*
X199410943Y-89515317D01*
X199674192Y-89252527D01*
X199816838Y-88908999D01*
X199817162Y-88537033D01*
X199675117Y-88193257D01*
X199412327Y-87930008D01*
X199068799Y-87787362D01*
X198968549Y-87787275D01*
X198887717Y-87591647D01*
X198624927Y-87328398D01*
X198281399Y-87185752D01*
X198237354Y-87185714D01*
X197146003Y-86094363D01*
X196898793Y-85929182D01*
X196607188Y-85871178D01*
X188189250Y-85871178D01*
X187897645Y-85929182D01*
X187650434Y-86094363D01*
X186473264Y-87271534D01*
X186427154Y-87159940D01*
X186164364Y-86896691D01*
X185820836Y-86754045D01*
X185448870Y-86753721D01*
X185105094Y-86895766D01*
X184841845Y-87158556D01*
X184834825Y-87175462D01*
X184768599Y-87147962D01*
X184396633Y-87147638D01*
X184052857Y-87289683D01*
X184021686Y-87320800D01*
X182673623Y-87320800D01*
X182634999Y-87304762D01*
X182263033Y-87304438D01*
X181919257Y-87446483D01*
X181656008Y-87709273D01*
X181513362Y-88052801D01*
X181513038Y-88424767D01*
X181655083Y-88768543D01*
X181917873Y-89031792D01*
X182261401Y-89174438D01*
X182589530Y-89174724D01*
X182348566Y-89415268D01*
X182205920Y-89758796D01*
X182205596Y-90130762D01*
X182347641Y-90474538D01*
X182444425Y-90571491D01*
X182222284Y-90793245D01*
X182079638Y-91136773D01*
X182079600Y-91180818D01*
X181895174Y-91365244D01*
X181729993Y-91612454D01*
X181671989Y-91904059D01*
X181671989Y-92353319D01*
X181590317Y-92155657D01*
X181327527Y-91892408D01*
X180983999Y-91749762D01*
X180612033Y-91749438D01*
X180268257Y-91891483D01*
X180005008Y-92154273D01*
X179862362Y-92497801D01*
X179862038Y-92869767D01*
X179915493Y-92999139D01*
X179786162Y-93310601D01*
X179785838Y-93682567D01*
X179780000Y-93682567D01*
X179780000Y-73735000D01*
X180227188Y-73735000D01*
X180163569Y-73828110D01*
M02*
