G04 #@! TF.FileFunction,Copper,L1,Top,Signal*
%FSLAX46Y46*%
G04 Gerber Fmt 4.6, Leading zero omitted, Abs format (unit mm)*
G04 Created by KiCad (PCBNEW 4.0.7) date Thursday, May 03, 2018 'PMt' 09:52:22 PM*
%MOMM*%
%LPD*%
G01*
G04 APERTURE LIST*
%ADD10C,0.100000*%
%ADD11R,1.900000X1.900000*%
%ADD12O,1.900000X1.900000*%
%ADD13C,4.318000*%
%ADD14R,1.500000X1.500000*%
%ADD15C,1.500000*%
%ADD16R,0.990600X0.304800*%
%ADD17R,1.270000X0.970000*%
%ADD18R,1.300000X1.500000*%
%ADD19R,1.500000X1.250000*%
%ADD20C,0.600000*%
%ADD21C,0.254000*%
%ADD22C,0.508000*%
G04 APERTURE END LIST*
D10*
D11*
X181610000Y-80010000D03*
D12*
X184150000Y-80010000D03*
X186690000Y-80010000D03*
X189230000Y-80010000D03*
X191770000Y-80010000D03*
X194310000Y-80010000D03*
X196850000Y-80010000D03*
X199390000Y-80010000D03*
X201930000Y-80010000D03*
X204470000Y-80010000D03*
X207010000Y-80010000D03*
D11*
X181610000Y-77470000D03*
D12*
X184150000Y-77470000D03*
X186690000Y-77470000D03*
X189230000Y-77470000D03*
X191770000Y-77470000D03*
X194310000Y-77470000D03*
X196850000Y-77470000D03*
X199390000Y-77470000D03*
X201930000Y-77470000D03*
X204470000Y-77470000D03*
X207010000Y-77470000D03*
D11*
X181610000Y-74930000D03*
D12*
X184150000Y-74930000D03*
X186690000Y-74930000D03*
X189230000Y-74930000D03*
X191770000Y-74930000D03*
X194310000Y-74930000D03*
X196850000Y-74930000D03*
X199390000Y-74930000D03*
X201930000Y-74930000D03*
X204470000Y-74930000D03*
X207010000Y-74930000D03*
D13*
X201041000Y-105458260D03*
X205740000Y-102458520D03*
X201041000Y-99458780D03*
D14*
X191530000Y-105410000D03*
D15*
X190510000Y-103630000D03*
X189490000Y-105410000D03*
X188470000Y-103630000D03*
X187450000Y-105410000D03*
X186430000Y-103630000D03*
X185410000Y-105410000D03*
X184390000Y-103630000D03*
D16*
X185044080Y-89405460D03*
X185044080Y-90055700D03*
X185044080Y-90705940D03*
X185044080Y-91356180D03*
X185044080Y-92006420D03*
X185044080Y-92651580D03*
X185044080Y-93301820D03*
X185044080Y-93952060D03*
X185044080Y-94602300D03*
X185044080Y-95252540D03*
X190875920Y-95252540D03*
X190875920Y-94602300D03*
X190875920Y-93952060D03*
X190875920Y-93301820D03*
X190875920Y-92651580D03*
X190875920Y-92006420D03*
X190875920Y-91356180D03*
X190875920Y-90705940D03*
X190875920Y-90055700D03*
X190875920Y-89405460D03*
X181869080Y-89405460D03*
X181869080Y-90055700D03*
X181869080Y-90705940D03*
X181869080Y-91356180D03*
X181869080Y-92006420D03*
X181869080Y-92651580D03*
X181869080Y-93301820D03*
X181869080Y-93952060D03*
X181869080Y-94602300D03*
X181869080Y-95252540D03*
X187700920Y-95252540D03*
X187700920Y-94602300D03*
X187700920Y-93952060D03*
X187700920Y-93301820D03*
X187700920Y-92651580D03*
X187700920Y-92006420D03*
X187700920Y-91356180D03*
X187700920Y-90705940D03*
X187700920Y-90055700D03*
X187700920Y-89405460D03*
D17*
X198882000Y-91313000D03*
X198882000Y-92583000D03*
X198882000Y-93853000D03*
X202438000Y-91313000D03*
X202438000Y-92583000D03*
X202438000Y-93853000D03*
X205994000Y-91313000D03*
X205994000Y-92583000D03*
X205994000Y-93853000D03*
D18*
X181610000Y-86647000D03*
X181610000Y-83947000D03*
X184150000Y-86647000D03*
X184150000Y-83947000D03*
X186690000Y-86647000D03*
X186690000Y-83947000D03*
X189230000Y-86647000D03*
X189230000Y-83947000D03*
X191770000Y-86647000D03*
X191770000Y-83947000D03*
X194310000Y-86647000D03*
X194310000Y-83947000D03*
X196850000Y-86647000D03*
X196850000Y-83947000D03*
X199390000Y-86647000D03*
X199390000Y-83947000D03*
D19*
X185059000Y-96774000D03*
X187559000Y-96774000D03*
D20*
X183499902Y-93334698D03*
X183794400Y-95935800D03*
X182448200Y-88239600D03*
X184581800Y-88082800D03*
X198882000Y-88722200D03*
X196850000Y-88239600D03*
X191770000Y-87934800D03*
X194335400Y-88239600D03*
X185420000Y-99458410D03*
X184124600Y-92024200D03*
X193268600Y-90728800D03*
X196240400Y-92633800D03*
X180797200Y-92684600D03*
X187553600Y-99822000D03*
X204673200Y-93929200D03*
X201142600Y-93980000D03*
X197485000Y-93929200D03*
X192100200Y-89408000D03*
X200380600Y-94996000D03*
X180721000Y-93497400D03*
X204241400Y-95300800D03*
X180721000Y-94589600D03*
X194338933Y-95304333D03*
X183014476Y-91323572D03*
X191846200Y-90703400D03*
X192506600Y-90119200D03*
X195122800Y-93878400D03*
X183140758Y-89945595D03*
X189052200Y-94234000D03*
X185634037Y-87688883D03*
X186334400Y-94310200D03*
X191841269Y-93712571D03*
X188010800Y-87714190D03*
X188973769Y-93311689D03*
X186631210Y-91827526D03*
X188849000Y-92024200D03*
X190525400Y-87714190D03*
X186319740Y-95149134D03*
X188854302Y-91224206D03*
X193090800Y-88061800D03*
X184148388Y-95180831D03*
X186631210Y-90181278D03*
X192684400Y-95554800D03*
X186953435Y-89422221D03*
X198094600Y-88120590D03*
X189844524Y-95256367D03*
D21*
X183199903Y-92669533D02*
X183199903Y-93034699D01*
X184150000Y-92456000D02*
X184150000Y-92049600D01*
X185044080Y-92651580D02*
X184345580Y-92651580D01*
X183199903Y-93034699D02*
X183499902Y-93334698D01*
X182536790Y-92006420D02*
X183199903Y-92669533D01*
X181869080Y-92006420D02*
X182536790Y-92006420D01*
X184345580Y-92651580D02*
X184150000Y-92456000D01*
X184150000Y-92049600D02*
X184124600Y-92024200D01*
X183794400Y-96360064D02*
X183794400Y-95935800D01*
X184055000Y-96774000D02*
X183794400Y-96513400D01*
X185059000Y-96774000D02*
X184055000Y-96774000D01*
X183794400Y-96513400D02*
X183794400Y-96360064D01*
X199390000Y-86647000D02*
X200294000Y-86647000D01*
X204470000Y-81212081D02*
X204470000Y-80010000D01*
X200294000Y-86647000D02*
X204470000Y-82471000D01*
X204470000Y-82471000D02*
X204470000Y-81212081D01*
X184221779Y-90128701D02*
X184221779Y-89352779D01*
X184221779Y-89352779D02*
X183108600Y-88239600D01*
X183108600Y-88239600D02*
X182448200Y-88239600D01*
X181610000Y-86647000D02*
X181610000Y-87401400D01*
X181610000Y-87401400D02*
X182448200Y-88239600D01*
X184581800Y-88082800D02*
X184840200Y-88341200D01*
X184150000Y-87651000D02*
X184581800Y-88082800D01*
X198882000Y-88722200D02*
X198882000Y-87155000D01*
X198882000Y-91313000D02*
X198882000Y-88722200D01*
X202438000Y-91313000D02*
X205994000Y-91313000D01*
X198882000Y-91313000D02*
X202438000Y-91313000D01*
X198882000Y-87155000D02*
X199390000Y-86647000D01*
X196850000Y-86647000D02*
X196850000Y-88239600D01*
X194310000Y-86647000D02*
X194310000Y-88214200D01*
X194310000Y-88214200D02*
X194335400Y-88239600D01*
X184840200Y-88341200D02*
X186690000Y-88341200D01*
X186690000Y-88341200D02*
X189230000Y-88341200D01*
X186690000Y-86647000D02*
X186690000Y-87651000D01*
X186690000Y-87651000D02*
X186690000Y-88341200D01*
X189230000Y-87651000D02*
X189230000Y-88341200D01*
X189230000Y-88341200D02*
X191363600Y-88341200D01*
X189230000Y-86647000D02*
X189230000Y-87651000D01*
X191363600Y-88341200D02*
X191770000Y-87934800D01*
X191770000Y-87934800D02*
X191770000Y-86647000D01*
X184150000Y-86647000D02*
X184150000Y-87651000D01*
X185120001Y-99158411D02*
X185420000Y-99458410D01*
X185059000Y-99097410D02*
X185120001Y-99158411D01*
X185059000Y-96774000D02*
X185059000Y-99097410D01*
X181610000Y-86747000D02*
X181610000Y-86647000D01*
X184221779Y-91927021D02*
X184124600Y-92024200D01*
X185044080Y-90055700D02*
X184294780Y-90055700D01*
X184294780Y-90055700D02*
X184221779Y-90128701D01*
X184221779Y-90128701D02*
X184221779Y-91927021D01*
X184124600Y-92024200D02*
X184142380Y-92006420D01*
X184142380Y-92006420D02*
X185044080Y-92006420D01*
X191345820Y-92651580D02*
X193268600Y-90728800D01*
X190875920Y-92651580D02*
X191345820Y-92651580D01*
X196240400Y-92633800D02*
X198831200Y-92633800D01*
X198831200Y-92633800D02*
X198882000Y-92583000D01*
X181869080Y-92651580D02*
X180830220Y-92651580D01*
X180830220Y-92651580D02*
X180797200Y-92684600D01*
X187559000Y-96774000D02*
X187559000Y-99816600D01*
X187559000Y-99816600D02*
X187553600Y-99822000D01*
X186004200Y-89616280D02*
X186004200Y-90805000D01*
X185044080Y-89405460D02*
X185793380Y-89405460D01*
X185793380Y-89405460D02*
X186004200Y-89616280D01*
X186004200Y-92125800D02*
X186004200Y-91363800D01*
X186004200Y-91363800D02*
X186004200Y-90805000D01*
X185044080Y-91356180D02*
X185793380Y-91356180D01*
X185793380Y-91356180D02*
X185801000Y-91363800D01*
X185801000Y-91363800D02*
X186004200Y-91363800D01*
X187700920Y-92651580D02*
X186529980Y-92651580D01*
X186529980Y-92651580D02*
X186004200Y-92125800D01*
X186004200Y-90805000D02*
X185905140Y-90705940D01*
X185905140Y-90705940D02*
X185044080Y-90705940D01*
X189288420Y-92651580D02*
X189599608Y-92340392D01*
X189599608Y-92340392D02*
X189599608Y-89932472D01*
X189599608Y-89932472D02*
X190126620Y-89405460D01*
X190126620Y-89405460D02*
X190875920Y-89405460D01*
X188450220Y-92651580D02*
X189288420Y-92651580D01*
X187700920Y-92651580D02*
X188450220Y-92651580D01*
X188450220Y-92651580D02*
X188457840Y-92659200D01*
X205994000Y-93853000D02*
X204749400Y-93853000D01*
X204749400Y-93853000D02*
X204673200Y-93929200D01*
X202438000Y-93853000D02*
X201269600Y-93853000D01*
X201269600Y-93853000D02*
X201142600Y-93980000D01*
X198882000Y-93853000D02*
X197561200Y-93853000D01*
X197561200Y-93853000D02*
X197485000Y-93929200D01*
X190875920Y-89405460D02*
X192097660Y-89405460D01*
X192097660Y-89405460D02*
X192100200Y-89408000D01*
X200380600Y-94996000D02*
X200380600Y-93624400D01*
X200380600Y-93624400D02*
X201422000Y-92583000D01*
X201422000Y-92583000D02*
X201549000Y-92583000D01*
X201549000Y-92583000D02*
X202438000Y-92583000D01*
X181869080Y-93301820D02*
X180916580Y-93301820D01*
X180916580Y-93301820D02*
X180721000Y-93497400D01*
X203936600Y-92913200D02*
X204266800Y-92583000D01*
X204266800Y-92583000D02*
X205994000Y-92583000D01*
X203936600Y-94571736D02*
X203936600Y-92913200D01*
X204241400Y-95300800D02*
X204241400Y-94876536D01*
X204241400Y-94876536D02*
X203936600Y-94571736D01*
X180733700Y-94602300D02*
X180721000Y-94589600D01*
X181869080Y-94602300D02*
X180733700Y-94602300D01*
X194638932Y-101297068D02*
X194638932Y-95604332D01*
X194638932Y-95604332D02*
X194338933Y-95304333D01*
X191530000Y-105410000D02*
X191530000Y-104406000D01*
X191530000Y-104406000D02*
X194638932Y-101297068D01*
X182981868Y-91356180D02*
X183014476Y-91323572D01*
X181869080Y-91356180D02*
X182981868Y-91356180D01*
X191846200Y-90703400D02*
X190878460Y-90703400D01*
X190878460Y-90703400D02*
X190875920Y-90705940D01*
X194536905Y-94178399D02*
X194822801Y-94178399D01*
X190726764Y-98491200D02*
X193711932Y-95506032D01*
X190510000Y-98491200D02*
X190726764Y-98491200D01*
X194822801Y-94178399D02*
X195122800Y-93878400D01*
X193711932Y-95003372D02*
X194536905Y-94178399D01*
X193711932Y-95506032D02*
X193711932Y-95003372D01*
X185482628Y-100449002D02*
X188552198Y-100449002D01*
X180082811Y-95049185D02*
X185482628Y-100449002D01*
X181119780Y-90055700D02*
X180082811Y-91092669D01*
X188552198Y-100449002D02*
X190510000Y-98491200D01*
X181869080Y-90055700D02*
X181119780Y-90055700D01*
X180082811Y-91092669D02*
X180082811Y-95049185D01*
X192506600Y-90119200D02*
X192443100Y-90055700D01*
X192443100Y-90055700D02*
X190875920Y-90055700D01*
X190510000Y-103630000D02*
X190510000Y-98491200D01*
X181869080Y-89405460D02*
X181119780Y-89405460D01*
X181119780Y-89405460D02*
X179628800Y-90896440D01*
X179628800Y-90896440D02*
X179628800Y-95550032D01*
X182473600Y-104067562D02*
X184893039Y-106487001D01*
X179628800Y-95550032D02*
X182473600Y-98394832D01*
X182473600Y-98394832D02*
X182473600Y-104067562D01*
X184893039Y-106487001D02*
X188412999Y-106487001D01*
X188412999Y-106487001D02*
X188740001Y-106159999D01*
X188740001Y-106159999D02*
X189490000Y-105410000D01*
X181869080Y-89405460D02*
X182618380Y-89405460D01*
X183140758Y-89927838D02*
X183140758Y-89945595D01*
X182618380Y-89405460D02*
X183140758Y-89927838D01*
X190053619Y-91429181D02*
X190053619Y-92895991D01*
X190053619Y-92895991D02*
X189599608Y-93350002D01*
X190126620Y-91356180D02*
X190053619Y-91429181D01*
X190875920Y-91356180D02*
X190126620Y-91356180D01*
X189599608Y-93350002D02*
X189599608Y-93686592D01*
X189599608Y-93686592D02*
X189052200Y-94234000D01*
X183021107Y-88926059D02*
X183767768Y-89672720D01*
X184353752Y-93301820D02*
X185044080Y-93301820D01*
X183767768Y-91453070D02*
X183497599Y-91723239D01*
X181610000Y-84047000D02*
X180632999Y-85024001D01*
X183497599Y-91723239D02*
X183497599Y-92325161D01*
X183695989Y-92523551D02*
X183695989Y-92644057D01*
X183695989Y-92644057D02*
X184353752Y-93301820D01*
X180632999Y-87658601D02*
X181900457Y-88926059D01*
X181610000Y-83947000D02*
X181610000Y-84047000D01*
X181900457Y-88926059D02*
X183021107Y-88926059D01*
X180632999Y-85024001D02*
X180632999Y-87658601D01*
X183497599Y-92325161D02*
X183695989Y-92523551D01*
X183767768Y-89672720D02*
X183767768Y-91453070D01*
X181869080Y-95252540D02*
X182618380Y-95252540D01*
X182618380Y-95252540D02*
X184569100Y-93301820D01*
X184569100Y-93301820D02*
X185044080Y-93301820D01*
X181610000Y-83947000D02*
X181610000Y-82943000D01*
X181610000Y-82943000D02*
X181610000Y-80010000D01*
X192401161Y-88780999D02*
X193895602Y-90275440D01*
X184309609Y-88795211D02*
X191831057Y-88795211D01*
X184150000Y-83947000D02*
X184150000Y-84047000D01*
X191324056Y-93301820D02*
X190875920Y-93301820D01*
X184150000Y-84047000D02*
X183172999Y-85024001D01*
X183172999Y-85024001D02*
X183172999Y-87658601D01*
X191540307Y-93085569D02*
X191324056Y-93301820D01*
X193895602Y-90275440D02*
X193895602Y-91029762D01*
X183172999Y-87658601D02*
X184309609Y-88795211D01*
X193895602Y-91029762D02*
X191839795Y-93085569D01*
X191831057Y-88795211D02*
X191845269Y-88780999D01*
X191839795Y-93085569D02*
X191540307Y-93085569D01*
X191845269Y-88780999D02*
X192401161Y-88780999D01*
X190289858Y-93301820D02*
X190053619Y-93538059D01*
X188450220Y-95252540D02*
X187700920Y-95252540D01*
X190053619Y-94160545D02*
X188961624Y-95252540D01*
X188961624Y-95252540D02*
X188450220Y-95252540D01*
X190053619Y-93538059D02*
X190053619Y-94160545D01*
X190875920Y-93301820D02*
X190289858Y-93301820D01*
X184150000Y-83947000D02*
X184150000Y-80010000D01*
X185634037Y-87264619D02*
X185634037Y-87688883D01*
X185634037Y-85102963D02*
X185634037Y-87264619D01*
X186690000Y-83947000D02*
X186690000Y-84047000D01*
X186690000Y-84047000D02*
X185634037Y-85102963D01*
X187700920Y-94602300D02*
X186626500Y-94602300D01*
X186626500Y-94602300D02*
X186334400Y-94310200D01*
X186334400Y-94310200D02*
X185976260Y-93952060D01*
X185976260Y-93952060D02*
X185044080Y-93952060D01*
X186690000Y-83947000D02*
X186690000Y-82943000D01*
X186690000Y-82943000D02*
X186690000Y-80010000D01*
X191841269Y-93736011D02*
X191841269Y-93712571D01*
X191625220Y-93952060D02*
X191841269Y-93736011D01*
X190875920Y-93952060D02*
X191625220Y-93952060D01*
X188010800Y-85266200D02*
X188010800Y-87289926D01*
X189230000Y-83947000D02*
X189230000Y-84047000D01*
X188010800Y-87289926D02*
X188010800Y-87714190D01*
X189230000Y-84047000D02*
X188010800Y-85266200D01*
X188963900Y-93301820D02*
X188973769Y-93311689D01*
X187700920Y-93301820D02*
X188963900Y-93301820D01*
X189230000Y-83947000D02*
X189230000Y-82943000D01*
X189230000Y-82943000D02*
X189230000Y-80010000D01*
X186810104Y-92006420D02*
X186631210Y-91827526D01*
X187700920Y-92006420D02*
X186810104Y-92006420D01*
X187700920Y-92006420D02*
X188831220Y-92006420D01*
X188831220Y-92006420D02*
X188849000Y-92024200D01*
X190525400Y-87289926D02*
X190525400Y-87714190D01*
X190525400Y-85291600D02*
X190525400Y-87289926D01*
X191770000Y-84047000D02*
X190525400Y-85291600D01*
X191770000Y-83947000D02*
X191770000Y-84047000D01*
X185044080Y-94602300D02*
X185707399Y-94602300D01*
X185707399Y-94602300D02*
X186254233Y-95149134D01*
X186254233Y-95149134D02*
X186319740Y-95149134D01*
X191770000Y-83947000D02*
X191770000Y-80010000D01*
X190875920Y-94602300D02*
X191838268Y-94602300D01*
X194349613Y-89320613D02*
X193390799Y-88361799D01*
X191838268Y-94602300D02*
X194349613Y-92090955D01*
X194349613Y-92090955D02*
X194349613Y-89320613D01*
X193390799Y-88361799D02*
X193090800Y-88061800D01*
X188722328Y-91356180D02*
X188854302Y-91224206D01*
X187700920Y-91356180D02*
X188722328Y-91356180D01*
X194310000Y-83947000D02*
X194310000Y-84047000D01*
X194310000Y-84047000D02*
X193090800Y-85266200D01*
X193090800Y-85266200D02*
X193090800Y-85877598D01*
X193090800Y-85877598D02*
X193090800Y-88061800D01*
X194310000Y-83947000D02*
X194310000Y-82943000D01*
X194310000Y-82943000D02*
X194310000Y-80010000D01*
X195287004Y-85609996D02*
X195287004Y-91922632D01*
X185386980Y-95252540D02*
X185044080Y-95252540D01*
X189543562Y-95883369D02*
X189436328Y-95776135D01*
X196850000Y-84047000D02*
X195287004Y-85609996D01*
X192057398Y-95440430D02*
X191614459Y-95883369D01*
X185910575Y-95776135D02*
X185386980Y-95252540D01*
X196850000Y-83947000D02*
X196850000Y-84047000D01*
X195287004Y-91922632D02*
X192057398Y-95152238D01*
X192057398Y-95152238D02*
X192057398Y-95440430D01*
X191614459Y-95883369D02*
X189543562Y-95883369D01*
X189436328Y-95776135D02*
X185910575Y-95776135D01*
X185044080Y-95252540D02*
X184220097Y-95252540D01*
X184220097Y-95252540D02*
X184148388Y-95180831D01*
X187700920Y-90055700D02*
X187007500Y-90055700D01*
X187007500Y-90055700D02*
X187001023Y-90049223D01*
X187001023Y-90049223D02*
X186988577Y-90049223D01*
X186988577Y-90049223D02*
X186856522Y-90181278D01*
X186856522Y-90181278D02*
X186631210Y-90181278D01*
X196850000Y-83947000D02*
X196850000Y-82943000D01*
X196850000Y-82943000D02*
X196850000Y-80010000D01*
X192984399Y-94961839D02*
X192984399Y-95254801D01*
X192984399Y-95254801D02*
X192684400Y-95554800D01*
X198094600Y-89851638D02*
X192984399Y-94961839D01*
X198094600Y-88120590D02*
X198094600Y-89851638D01*
X187700920Y-89405460D02*
X187684159Y-89422221D01*
X187684159Y-89422221D02*
X187377699Y-89422221D01*
X187377699Y-89422221D02*
X186953435Y-89422221D01*
X199390000Y-84047000D02*
X198094600Y-85342400D01*
X199390000Y-83947000D02*
X199390000Y-84047000D01*
X198094600Y-87696326D02*
X198094600Y-88120590D01*
X198094600Y-85342400D02*
X198094600Y-87696326D01*
X189848351Y-95252540D02*
X189844524Y-95256367D01*
X190875920Y-95252540D02*
X189848351Y-95252540D01*
X199390000Y-83947000D02*
X199390000Y-82943000D01*
X199390000Y-82943000D02*
X199390000Y-80010000D01*
D22*
X201041000Y-99458780D02*
X203199999Y-97299781D01*
X203199999Y-97299781D02*
X204484421Y-97299781D01*
X207859999Y-80859999D02*
X207010000Y-80010000D01*
X204484421Y-97299781D02*
X207859999Y-93924203D01*
X207859999Y-93924203D02*
X207859999Y-80859999D01*
M02*
