G04 #@! TF.FileFunction,Soldermask,Top*
%FSLAX46Y46*%
G04 Gerber Fmt 4.6, Leading zero omitted, Abs format (unit mm)*
G04 Created by KiCad (PCBNEW 4.0.7) date Thursday, May 03, 2018 'PMt' 09:52:22 PM*
%MOMM*%
%LPD*%
G01*
G04 APERTURE LIST*
%ADD10C,0.100000*%
%ADD11R,2.300000X2.300000*%
%ADD12O,2.300000X2.300000*%
%ADD13C,4.718000*%
%ADD14C,3.600000*%
%ADD15R,1.900000X1.900000*%
%ADD16C,1.900000*%
%ADD17R,1.390600X0.704800*%
%ADD18R,1.670000X1.370000*%
%ADD19R,1.700000X1.900000*%
%ADD20R,1.900000X1.650000*%
G04 APERTURE END LIST*
D10*
D11*
X181610000Y-80010000D03*
D12*
X184150000Y-80010000D03*
X186690000Y-80010000D03*
X189230000Y-80010000D03*
X191770000Y-80010000D03*
X194310000Y-80010000D03*
X196850000Y-80010000D03*
X199390000Y-80010000D03*
X201930000Y-80010000D03*
X204470000Y-80010000D03*
X207010000Y-80010000D03*
D11*
X181610000Y-77470000D03*
D12*
X184150000Y-77470000D03*
X186690000Y-77470000D03*
X189230000Y-77470000D03*
X191770000Y-77470000D03*
X194310000Y-77470000D03*
X196850000Y-77470000D03*
X199390000Y-77470000D03*
X201930000Y-77470000D03*
X204470000Y-77470000D03*
X207010000Y-77470000D03*
D11*
X181610000Y-74930000D03*
D12*
X184150000Y-74930000D03*
X186690000Y-74930000D03*
X189230000Y-74930000D03*
X191770000Y-74930000D03*
X194310000Y-74930000D03*
X196850000Y-74930000D03*
X199390000Y-74930000D03*
X201930000Y-74930000D03*
X204470000Y-74930000D03*
X207010000Y-74930000D03*
D13*
X201041000Y-105458260D03*
X205740000Y-102458520D03*
X201041000Y-99458780D03*
D14*
X181610000Y-107950000D03*
D15*
X191530000Y-105410000D03*
D16*
X190510000Y-103630000D03*
X189490000Y-105410000D03*
X188470000Y-103630000D03*
X187450000Y-105410000D03*
X186430000Y-103630000D03*
X185410000Y-105410000D03*
X184390000Y-103630000D03*
D14*
X194310000Y-107950000D03*
D17*
X185044080Y-89405460D03*
X185044080Y-90055700D03*
X185044080Y-90705940D03*
X185044080Y-91356180D03*
X185044080Y-92006420D03*
X185044080Y-92651580D03*
X185044080Y-93301820D03*
X185044080Y-93952060D03*
X185044080Y-94602300D03*
X185044080Y-95252540D03*
X190875920Y-95252540D03*
X190875920Y-94602300D03*
X190875920Y-93952060D03*
X190875920Y-93301820D03*
X190875920Y-92651580D03*
X190875920Y-92006420D03*
X190875920Y-91356180D03*
X190875920Y-90705940D03*
X190875920Y-90055700D03*
X190875920Y-89405460D03*
X181869080Y-89405460D03*
X181869080Y-90055700D03*
X181869080Y-90705940D03*
X181869080Y-91356180D03*
X181869080Y-92006420D03*
X181869080Y-92651580D03*
X181869080Y-93301820D03*
X181869080Y-93952060D03*
X181869080Y-94602300D03*
X181869080Y-95252540D03*
X187700920Y-95252540D03*
X187700920Y-94602300D03*
X187700920Y-93952060D03*
X187700920Y-93301820D03*
X187700920Y-92651580D03*
X187700920Y-92006420D03*
X187700920Y-91356180D03*
X187700920Y-90705940D03*
X187700920Y-90055700D03*
X187700920Y-89405460D03*
D18*
X198882000Y-91313000D03*
X198882000Y-92583000D03*
X198882000Y-93853000D03*
X202438000Y-91313000D03*
X202438000Y-92583000D03*
X202438000Y-93853000D03*
X205994000Y-91313000D03*
X205994000Y-92583000D03*
X205994000Y-93853000D03*
D19*
X181610000Y-86647000D03*
X181610000Y-83947000D03*
X184150000Y-86647000D03*
X184150000Y-83947000D03*
X186690000Y-86647000D03*
X186690000Y-83947000D03*
X189230000Y-86647000D03*
X189230000Y-83947000D03*
X191770000Y-86647000D03*
X191770000Y-83947000D03*
X194310000Y-86647000D03*
X194310000Y-83947000D03*
X196850000Y-86647000D03*
X196850000Y-83947000D03*
X199390000Y-86647000D03*
X199390000Y-83947000D03*
D20*
X185059000Y-96774000D03*
X187559000Y-96774000D03*
M02*
