G04 #@! TF.FileFunction,Soldermask,Bot*
%FSLAX46Y46*%
G04 Gerber Fmt 4.6, Leading zero omitted, Abs format (unit mm)*
G04 Created by KiCad (PCBNEW 4.0.7) date Thursday, May 03, 2018 'PMt' 09:52:22 PM*
%MOMM*%
%LPD*%
G01*
G04 APERTURE LIST*
%ADD10C,0.100000*%
%ADD11R,2.300000X2.300000*%
%ADD12O,2.300000X2.300000*%
%ADD13C,4.718000*%
%ADD14C,3.600000*%
%ADD15R,1.900000X1.900000*%
%ADD16C,1.900000*%
G04 APERTURE END LIST*
D10*
D11*
X181610000Y-80010000D03*
D12*
X184150000Y-80010000D03*
X186690000Y-80010000D03*
X189230000Y-80010000D03*
X191770000Y-80010000D03*
X194310000Y-80010000D03*
X196850000Y-80010000D03*
X199390000Y-80010000D03*
X201930000Y-80010000D03*
X204470000Y-80010000D03*
X207010000Y-80010000D03*
D11*
X181610000Y-77470000D03*
D12*
X184150000Y-77470000D03*
X186690000Y-77470000D03*
X189230000Y-77470000D03*
X191770000Y-77470000D03*
X194310000Y-77470000D03*
X196850000Y-77470000D03*
X199390000Y-77470000D03*
X201930000Y-77470000D03*
X204470000Y-77470000D03*
X207010000Y-77470000D03*
D11*
X181610000Y-74930000D03*
D12*
X184150000Y-74930000D03*
X186690000Y-74930000D03*
X189230000Y-74930000D03*
X191770000Y-74930000D03*
X194310000Y-74930000D03*
X196850000Y-74930000D03*
X199390000Y-74930000D03*
X201930000Y-74930000D03*
X204470000Y-74930000D03*
X207010000Y-74930000D03*
D13*
X201041000Y-105458260D03*
X205740000Y-102458520D03*
X201041000Y-99458780D03*
D14*
X181610000Y-107950000D03*
D15*
X191530000Y-105410000D03*
D16*
X190510000Y-103630000D03*
X189490000Y-105410000D03*
X188470000Y-103630000D03*
X187450000Y-105410000D03*
X186430000Y-103630000D03*
X185410000Y-105410000D03*
X184390000Y-103630000D03*
D14*
X194310000Y-107950000D03*
M02*
