G04 #@! TF.FileFunction,Legend,Bot*
%FSLAX46Y46*%
G04 Gerber Fmt 4.6, Leading zero omitted, Abs format (unit mm)*
G04 Created by KiCad (PCBNEW 4.0.7) date Thursday, May 03, 2018 'PMt' 09:09:37 PM*
%MOMM*%
%LPD*%
G01*
G04 APERTURE LIST*
%ADD10C,0.100000*%
%ADD11C,0.300000*%
G04 APERTURE END LIST*
D10*
D11*
X150763286Y-126257857D02*
X150549000Y-126329286D01*
X150477572Y-126400714D01*
X150406143Y-126543571D01*
X150406143Y-126757857D01*
X150477572Y-126900714D01*
X150549000Y-126972143D01*
X150691858Y-127043571D01*
X151263286Y-127043571D01*
X151263286Y-125543571D01*
X150763286Y-125543571D01*
X150620429Y-125615000D01*
X150549000Y-125686429D01*
X150477572Y-125829286D01*
X150477572Y-125972143D01*
X150549000Y-126115000D01*
X150620429Y-126186429D01*
X150763286Y-126257857D01*
X151263286Y-126257857D01*
X149549000Y-127043571D02*
X149691858Y-126972143D01*
X149763286Y-126900714D01*
X149834715Y-126757857D01*
X149834715Y-126329286D01*
X149763286Y-126186429D01*
X149691858Y-126115000D01*
X149549000Y-126043571D01*
X149334715Y-126043571D01*
X149191858Y-126115000D01*
X149120429Y-126186429D01*
X149049000Y-126329286D01*
X149049000Y-126757857D01*
X149120429Y-126900714D01*
X149191858Y-126972143D01*
X149334715Y-127043571D01*
X149549000Y-127043571D01*
X147763286Y-127043571D02*
X147763286Y-126257857D01*
X147834715Y-126115000D01*
X147977572Y-126043571D01*
X148263286Y-126043571D01*
X148406143Y-126115000D01*
X147763286Y-126972143D02*
X147906143Y-127043571D01*
X148263286Y-127043571D01*
X148406143Y-126972143D01*
X148477572Y-126829286D01*
X148477572Y-126686429D01*
X148406143Y-126543571D01*
X148263286Y-126472143D01*
X147906143Y-126472143D01*
X147763286Y-126400714D01*
X147049000Y-127043571D02*
X147049000Y-126043571D01*
X147049000Y-126329286D02*
X146977572Y-126186429D01*
X146906143Y-126115000D01*
X146763286Y-126043571D01*
X146620429Y-126043571D01*
X145477572Y-127043571D02*
X145477572Y-125543571D01*
X145477572Y-126972143D02*
X145620429Y-127043571D01*
X145906143Y-127043571D01*
X146049001Y-126972143D01*
X146120429Y-126900714D01*
X146191858Y-126757857D01*
X146191858Y-126329286D01*
X146120429Y-126186429D01*
X146049001Y-126115000D01*
X145906143Y-126043571D01*
X145620429Y-126043571D01*
X145477572Y-126115000D01*
X143620429Y-127043571D02*
X143620429Y-125543571D01*
X143620429Y-126115000D02*
X143477572Y-126043571D01*
X143191858Y-126043571D01*
X143049001Y-126115000D01*
X142977572Y-126186429D01*
X142906143Y-126329286D01*
X142906143Y-126757857D01*
X142977572Y-126900714D01*
X143049001Y-126972143D01*
X143191858Y-127043571D01*
X143477572Y-127043571D01*
X143620429Y-126972143D01*
X142406143Y-126043571D02*
X142049000Y-127043571D01*
X141691858Y-126043571D02*
X142049000Y-127043571D01*
X142191858Y-127400714D01*
X142263286Y-127472143D01*
X142406143Y-127543571D01*
X139334715Y-126972143D02*
X139477572Y-127043571D01*
X139763286Y-127043571D01*
X139906144Y-126972143D01*
X139977572Y-126900714D01*
X140049001Y-126757857D01*
X140049001Y-126329286D01*
X139977572Y-126186429D01*
X139906144Y-126115000D01*
X139763286Y-126043571D01*
X139477572Y-126043571D01*
X139334715Y-126115000D01*
X138477572Y-127043571D02*
X138620430Y-126972143D01*
X138691858Y-126900714D01*
X138763287Y-126757857D01*
X138763287Y-126329286D01*
X138691858Y-126186429D01*
X138620430Y-126115000D01*
X138477572Y-126043571D01*
X138263287Y-126043571D01*
X138120430Y-126115000D01*
X138049001Y-126186429D01*
X137977572Y-126329286D01*
X137977572Y-126757857D01*
X138049001Y-126900714D01*
X138120430Y-126972143D01*
X138263287Y-127043571D01*
X138477572Y-127043571D01*
X137334715Y-127043571D02*
X137334715Y-126043571D01*
X137334715Y-126186429D02*
X137263287Y-126115000D01*
X137120429Y-126043571D01*
X136906144Y-126043571D01*
X136763287Y-126115000D01*
X136691858Y-126257857D01*
X136691858Y-127043571D01*
X136691858Y-126257857D02*
X136620429Y-126115000D01*
X136477572Y-126043571D01*
X136263287Y-126043571D01*
X136120429Y-126115000D01*
X136049001Y-126257857D01*
X136049001Y-127043571D01*
X135334715Y-126043571D02*
X135334715Y-127543571D01*
X135334715Y-126115000D02*
X135191858Y-126043571D01*
X134906144Y-126043571D01*
X134763287Y-126115000D01*
X134691858Y-126186429D01*
X134620429Y-126329286D01*
X134620429Y-126757857D01*
X134691858Y-126900714D01*
X134763287Y-126972143D01*
X134906144Y-127043571D01*
X135191858Y-127043571D01*
X135334715Y-126972143D01*
X133334715Y-126043571D02*
X133334715Y-127043571D01*
X133977572Y-126043571D02*
X133977572Y-126829286D01*
X133906144Y-126972143D01*
X133763286Y-127043571D01*
X133549001Y-127043571D01*
X133406144Y-126972143D01*
X133334715Y-126900714D01*
X132620429Y-127043571D02*
X132620429Y-125543571D01*
X132477572Y-126472143D02*
X132049001Y-127043571D01*
X132049001Y-126043571D02*
X132620429Y-126615000D01*
X131406143Y-127043571D02*
X131406143Y-126043571D01*
X131406143Y-125543571D02*
X131477572Y-125615000D01*
X131406143Y-125686429D01*
X131334715Y-125615000D01*
X131406143Y-125543571D01*
X131406143Y-125686429D01*
X130049000Y-127043571D02*
X130049000Y-125543571D01*
X130049000Y-126972143D02*
X130191857Y-127043571D01*
X130477571Y-127043571D01*
X130620429Y-126972143D01*
X130691857Y-126900714D01*
X130763286Y-126757857D01*
X130763286Y-126329286D01*
X130691857Y-126186429D01*
X130620429Y-126115000D01*
X130477571Y-126043571D01*
X130191857Y-126043571D01*
X130049000Y-126115000D01*
X129334714Y-127043571D02*
X129334714Y-126043571D01*
X129334714Y-126186429D02*
X129263286Y-126115000D01*
X129120428Y-126043571D01*
X128906143Y-126043571D01*
X128763286Y-126115000D01*
X128691857Y-126257857D01*
X128691857Y-127043571D01*
X128691857Y-126257857D02*
X128620428Y-126115000D01*
X128477571Y-126043571D01*
X128263286Y-126043571D01*
X128120428Y-126115000D01*
X128049000Y-126257857D01*
X128049000Y-127043571D01*
X127334714Y-127043571D02*
X127334714Y-126043571D01*
X127334714Y-125543571D02*
X127406143Y-125615000D01*
X127334714Y-125686429D01*
X127263286Y-125615000D01*
X127334714Y-125543571D01*
X127334714Y-125686429D01*
X126620428Y-127043571D02*
X126620428Y-125543571D01*
X126477571Y-126472143D02*
X126049000Y-127043571D01*
X126049000Y-126043571D02*
X126620428Y-126615000D01*
X124834714Y-126972143D02*
X124977571Y-127043571D01*
X125263285Y-127043571D01*
X125406142Y-126972143D01*
X125477571Y-126829286D01*
X125477571Y-126257857D01*
X125406142Y-126115000D01*
X125263285Y-126043571D01*
X124977571Y-126043571D01*
X124834714Y-126115000D01*
X124763285Y-126257857D01*
X124763285Y-126400714D01*
X125477571Y-126543571D01*
M02*
