G04 #@! TF.FileFunction,Copper,L1,Top,Signal*
%FSLAX46Y46*%
G04 Gerber Fmt 4.6, Leading zero omitted, Abs format (unit mm)*
G04 Created by KiCad (PCBNEW 4.0.7) date Thursday, May 03, 2018 'PMt' 09:09:37 PM*
%MOMM*%
%LPD*%
G01*
G04 APERTURE LIST*
%ADD10C,0.100000*%
%ADD11R,2.032000X0.660400*%
%ADD12C,4.318000*%
%ADD13R,1.700000X1.700000*%
%ADD14O,1.700000X1.700000*%
%ADD15C,6.200000*%
%ADD16R,1.727200X1.727200*%
%ADD17O,1.727200X1.727200*%
%ADD18R,1.500000X1.250000*%
%ADD19R,1.500000X1.300000*%
%ADD20R,1.500000X1.500000*%
%ADD21C,1.500000*%
%ADD22C,0.600000*%
%ADD23C,0.254000*%
G04 APERTURE END LIST*
D10*
D11*
X128346200Y-83693000D03*
X128346200Y-84963000D03*
X128346200Y-86233000D03*
X128346200Y-87503000D03*
X134493000Y-87503000D03*
X134493000Y-86233000D03*
X134493000Y-84963000D03*
X134493000Y-83693000D03*
D12*
X158877000Y-120650000D03*
X163576000Y-117650260D03*
X158877000Y-114650520D03*
D13*
X170942000Y-104521000D03*
D14*
X170942000Y-101981000D03*
X170942000Y-99441000D03*
X170942000Y-96901000D03*
X170942000Y-94361000D03*
X170942000Y-91821000D03*
X170942000Y-89281000D03*
X170942000Y-86741000D03*
D15*
X112815000Y-124460000D03*
X170815000Y-124460000D03*
X170815000Y-75460000D03*
D16*
X117685000Y-76730000D03*
D17*
X117685000Y-74190000D03*
X120225000Y-76730000D03*
X120225000Y-74190000D03*
X122765000Y-76730000D03*
X122765000Y-74190000D03*
X125305000Y-76730000D03*
X125305000Y-74190000D03*
X127845000Y-76730000D03*
X127845000Y-74190000D03*
X130385000Y-76730000D03*
X130385000Y-74190000D03*
X132925000Y-76730000D03*
X132925000Y-74190000D03*
X135465000Y-76730000D03*
X135465000Y-74190000D03*
X138005000Y-76730000D03*
X138005000Y-74190000D03*
X140545000Y-76730000D03*
X140545000Y-74190000D03*
X143085000Y-76730000D03*
X143085000Y-74190000D03*
X145625000Y-76730000D03*
X145625000Y-74190000D03*
X148165000Y-76730000D03*
X148165000Y-74190000D03*
X150705000Y-76730000D03*
X150705000Y-74190000D03*
X153245000Y-76730000D03*
X153245000Y-74190000D03*
X155785000Y-76730000D03*
X155785000Y-74190000D03*
X158325000Y-76730000D03*
X158325000Y-74190000D03*
X160865000Y-76730000D03*
X160865000Y-74190000D03*
X163405000Y-76730000D03*
X163405000Y-74190000D03*
X165945000Y-76730000D03*
X165945000Y-74190000D03*
D15*
X112815000Y-75460000D03*
D18*
X132715000Y-81026000D03*
X130215000Y-81026000D03*
D19*
X138463000Y-81026000D03*
X135763000Y-81026000D03*
X126873000Y-81026000D03*
X124173000Y-81026000D03*
X141224000Y-85598000D03*
X138524000Y-85598000D03*
X141224000Y-87884000D03*
X138524000Y-87884000D03*
D20*
X162040000Y-64135000D03*
D21*
X163060000Y-65915000D03*
X164080000Y-64135000D03*
X165100000Y-65915000D03*
X166120000Y-64135000D03*
X167140000Y-65915000D03*
X168160000Y-64135000D03*
X169180000Y-65915000D03*
D20*
X145395000Y-64135000D03*
D21*
X146415000Y-65915000D03*
X147435000Y-64135000D03*
X148455000Y-65915000D03*
X149475000Y-64135000D03*
X150495000Y-65915000D03*
X151515000Y-64135000D03*
X152535000Y-65915000D03*
D20*
X128758000Y-64133000D03*
D21*
X129778000Y-65913000D03*
X130798000Y-64133000D03*
X131818000Y-65913000D03*
X132838000Y-64133000D03*
X133858000Y-65913000D03*
X134878000Y-64133000D03*
X135898000Y-65913000D03*
D20*
X112129000Y-64133000D03*
D21*
X113149000Y-65913000D03*
X114169000Y-64133000D03*
X115189000Y-65913000D03*
X116209000Y-64133000D03*
X117229000Y-65913000D03*
X118249000Y-64133000D03*
X119269000Y-65913000D03*
D20*
X114298000Y-91071000D03*
D21*
X116078000Y-90051000D03*
X114298000Y-89031000D03*
X116078000Y-88011000D03*
X114298000Y-86991000D03*
X116078000Y-85971000D03*
X114298000Y-84951000D03*
X116078000Y-83931000D03*
D20*
X114298000Y-107843000D03*
D21*
X116078000Y-106823000D03*
X114298000Y-105803000D03*
X116078000Y-104783000D03*
X114298000Y-103763000D03*
X116078000Y-102743000D03*
X114298000Y-101723000D03*
X116078000Y-100703000D03*
D20*
X129933000Y-120652000D03*
D21*
X128913000Y-118872000D03*
X127893000Y-120652000D03*
X126873000Y-118872000D03*
X125853000Y-120652000D03*
X124833000Y-118872000D03*
X123813000Y-120652000D03*
X122793000Y-118872000D03*
D20*
X147334000Y-120652000D03*
D21*
X146314000Y-118872000D03*
X145294000Y-120652000D03*
X144274000Y-118872000D03*
X143254000Y-120652000D03*
X142234000Y-118872000D03*
X141214000Y-120652000D03*
X140194000Y-118872000D03*
D22*
X128905000Y-82550000D03*
X132207000Y-88653990D03*
X161544000Y-67818000D03*
X144780000Y-67818000D03*
X127635000Y-67945000D03*
X117983000Y-91440000D03*
X118999000Y-107823000D03*
X131318000Y-117094000D03*
X132588000Y-86860932D03*
X130855001Y-66990001D03*
X160401000Y-68834000D03*
X143764000Y-68834000D03*
X126619000Y-68834000D03*
X119888000Y-91821000D03*
X120396000Y-107950000D03*
X132461000Y-116459000D03*
X143129000Y-87884000D03*
X143129000Y-85598000D03*
X140081000Y-81026000D03*
X125737990Y-79502000D03*
X126492000Y-85648800D03*
X128397000Y-88646000D03*
D23*
X134493000Y-84963000D02*
X136017000Y-84963000D01*
X136017000Y-84963000D02*
X136398000Y-84582000D01*
X136398000Y-84582000D02*
X136398000Y-84074000D01*
X136398000Y-84074000D02*
X136017000Y-83693000D01*
X136017000Y-83693000D02*
X134493000Y-83693000D01*
X132715000Y-81026000D02*
X134493000Y-81026000D01*
X134493000Y-81026000D02*
X135763000Y-81026000D01*
X134493000Y-83693000D02*
X134493000Y-83108800D01*
X134493000Y-83108800D02*
X134493000Y-81026000D01*
X130215000Y-81026000D02*
X130215000Y-81240000D01*
X130215000Y-81240000D02*
X128905000Y-82550000D01*
X128346200Y-83693000D02*
X128346200Y-83108800D01*
X128346200Y-83108800D02*
X128905000Y-82550000D01*
X117983000Y-91440000D02*
X118282999Y-91140001D01*
X133807200Y-87503000D02*
X132656210Y-88653990D01*
X129720989Y-91140001D02*
X131907001Y-88953989D01*
X118282999Y-91140001D02*
X129720989Y-91140001D01*
X131907001Y-88953989D02*
X132207000Y-88653990D01*
X132631264Y-88653990D02*
X132207000Y-88653990D01*
X134493000Y-87503000D02*
X133807200Y-87503000D01*
X132656210Y-88653990D02*
X132631264Y-88653990D01*
X144780000Y-67818000D02*
X161544000Y-67818000D01*
X127635000Y-67945000D02*
X144653000Y-67945000D01*
X144653000Y-67945000D02*
X144780000Y-67818000D01*
X112129000Y-64133000D02*
X112129000Y-65137000D01*
X112129000Y-65137000D02*
X112071999Y-65194001D01*
X112071999Y-65194001D02*
X112071999Y-66429961D01*
X112071999Y-66429961D02*
X113587038Y-67945000D01*
X113587038Y-67945000D02*
X127635000Y-67945000D01*
X118999000Y-107823000D02*
X118999000Y-92456000D01*
X118999000Y-92456000D02*
X117983000Y-91440000D01*
X131318000Y-117094000D02*
X128270000Y-117094000D01*
X128270000Y-117094000D02*
X118999000Y-107823000D01*
X147334000Y-120652000D02*
X147334000Y-119648000D01*
X147334000Y-119648000D02*
X147391001Y-119590999D01*
X147391001Y-119590999D02*
X147391001Y-118355039D01*
X147391001Y-118355039D02*
X146129962Y-117094000D01*
X146129962Y-117094000D02*
X131318000Y-117094000D01*
X136652000Y-87503000D02*
X137033000Y-87884000D01*
X137033000Y-87884000D02*
X138524000Y-87884000D01*
X134493000Y-87503000D02*
X136652000Y-87503000D01*
X146415000Y-65915000D02*
X147492001Y-66992001D01*
X147492001Y-66992001D02*
X161982999Y-66992001D01*
X161982999Y-66992001D02*
X162310001Y-66664999D01*
X162310001Y-66664999D02*
X163060000Y-65915000D01*
X129778000Y-65913000D02*
X130855001Y-66990001D01*
X145339999Y-66990001D02*
X145665001Y-66664999D01*
X130855001Y-66990001D02*
X145339999Y-66990001D01*
X145665001Y-66664999D02*
X146415000Y-65915000D01*
X113149000Y-65913000D02*
X114226001Y-66990001D01*
X114226001Y-66990001D02*
X128700999Y-66990001D01*
X128700999Y-66990001D02*
X129028001Y-66662999D01*
X129028001Y-66662999D02*
X129778000Y-65913000D01*
X133223000Y-86233000D02*
X134493000Y-86233000D01*
X133215932Y-86233000D02*
X133223000Y-86233000D01*
X129397932Y-90051000D02*
X133215932Y-86233000D01*
X116078000Y-90051000D02*
X129397932Y-90051000D01*
X116078000Y-106823000D02*
X117155001Y-105745999D01*
X117155001Y-105745999D02*
X117155001Y-91128001D01*
X116827999Y-90800999D02*
X116078000Y-90051000D01*
X117155001Y-91128001D02*
X116827999Y-90800999D01*
X128913000Y-118872000D02*
X116864000Y-106823000D01*
X116864000Y-106823000D02*
X116078000Y-106823000D01*
X146314000Y-118872000D02*
X145236999Y-117794999D01*
X145236999Y-117794999D02*
X129990001Y-117794999D01*
X129990001Y-117794999D02*
X129662999Y-118122001D01*
X129662999Y-118122001D02*
X128913000Y-118872000D01*
X136398000Y-86233000D02*
X137033000Y-85598000D01*
X137033000Y-85598000D02*
X138524000Y-85598000D01*
X134493000Y-86233000D02*
X136398000Y-86233000D01*
X143764000Y-68834000D02*
X160401000Y-68834000D01*
X126619000Y-68834000D02*
X143764000Y-68834000D01*
X111051999Y-67236999D02*
X112649000Y-68834000D01*
X112649000Y-68834000D02*
X126619000Y-68834000D01*
X114169000Y-64133000D02*
X113091999Y-63055999D01*
X113091999Y-63055999D02*
X111117399Y-63055999D01*
X111051999Y-63121399D02*
X111051999Y-67236999D01*
X111117399Y-63055999D02*
X111051999Y-63121399D01*
X120396000Y-107950000D02*
X120396000Y-92329000D01*
X120396000Y-92329000D02*
X119888000Y-91821000D01*
X132461000Y-116459000D02*
X128905000Y-116459000D01*
X128905000Y-116459000D02*
X120396000Y-107950000D01*
X148411001Y-118058001D02*
X146812000Y-116459000D01*
X146812000Y-116459000D02*
X132461000Y-116459000D01*
X145294000Y-120652000D02*
X146371001Y-121729001D01*
X146371001Y-121729001D02*
X148345601Y-121729001D01*
X148345601Y-121729001D02*
X148411001Y-121663601D01*
X148411001Y-121663601D02*
X148411001Y-118058001D01*
X125305000Y-78276000D02*
X124173000Y-79408000D01*
X124173000Y-79408000D02*
X124173000Y-81026000D01*
X125305000Y-76730000D02*
X125305000Y-78276000D01*
X166120000Y-64135000D02*
X165100000Y-65915000D01*
X149475000Y-64135000D02*
X148455000Y-65915000D01*
X132838000Y-64133000D02*
X131818000Y-65913000D01*
X116209000Y-64133000D02*
X115189000Y-65913000D01*
X116078000Y-88011000D02*
X114298000Y-86991000D01*
X125853000Y-120652000D02*
X126873000Y-118872000D01*
X114298000Y-103763000D02*
X116078000Y-104783000D01*
X143254000Y-120652000D02*
X144274000Y-118872000D01*
X141224000Y-87884000D02*
X143129000Y-87884000D01*
X141224000Y-85598000D02*
X143129000Y-85598000D01*
X138463000Y-81026000D02*
X140081000Y-81026000D01*
X126873000Y-81026000D02*
X126873000Y-79502000D01*
X126873000Y-79502000D02*
X125737990Y-79502000D01*
X126162254Y-79502000D02*
X125737990Y-79502000D01*
X138005000Y-76730000D02*
X135233000Y-79502000D01*
X135233000Y-79502000D02*
X126162254Y-79502000D01*
X170942000Y-99441000D02*
X170092001Y-98591001D01*
X170092001Y-98591001D02*
X159866001Y-98591001D01*
X159866001Y-98591001D02*
X138868599Y-77593599D01*
X138868599Y-77593599D02*
X138005000Y-76730000D01*
X128346200Y-84963000D02*
X127660400Y-84963000D01*
X127660400Y-84963000D02*
X126873000Y-84175600D01*
X126873000Y-84175600D02*
X126873000Y-81930000D01*
X126873000Y-81930000D02*
X126873000Y-81026000D01*
X127076200Y-86233000D02*
X126492000Y-85648800D01*
X122765000Y-76730000D02*
X122765000Y-81921800D01*
X122765000Y-81921800D02*
X127076200Y-86233000D01*
X127076200Y-86233000D02*
X128346200Y-86233000D01*
X127076200Y-87503000D02*
X128346200Y-87503000D01*
X120225000Y-80651800D02*
X127076200Y-87503000D01*
X120225000Y-76730000D02*
X120225000Y-80651800D01*
X128397000Y-88646000D02*
X128397000Y-87553800D01*
X128397000Y-87553800D02*
X128346200Y-87503000D01*
X170942000Y-96901000D02*
X172119001Y-95723999D01*
X172119001Y-95723999D02*
X172119001Y-86176039D01*
X172119001Y-86176039D02*
X163863563Y-77920601D01*
X163863563Y-77920601D02*
X159515601Y-77920601D01*
X159515601Y-77920601D02*
X159188599Y-77593599D01*
X159188599Y-77593599D02*
X158325000Y-76730000D01*
X170942000Y-94361000D02*
X157134399Y-80553399D01*
X157134399Y-80553399D02*
X157134399Y-75539399D01*
X157134399Y-75539399D02*
X156648599Y-75053599D01*
X156648599Y-75053599D02*
X155785000Y-74190000D01*
G36*
X173915000Y-60473794D02*
X173855845Y-60330628D01*
X173227679Y-59701364D01*
X172406519Y-59360389D01*
X171517381Y-59359613D01*
X170695628Y-59699155D01*
X170066364Y-60327321D01*
X169725389Y-61148481D01*
X169724613Y-62037619D01*
X170064155Y-62859372D01*
X170692321Y-63488636D01*
X171513481Y-63829611D01*
X172402619Y-63830387D01*
X173224372Y-63490845D01*
X173853636Y-62862679D01*
X173915000Y-62714898D01*
X173915000Y-73278712D01*
X172933470Y-72295467D01*
X171561197Y-71725650D01*
X170075322Y-71724353D01*
X168702056Y-72291775D01*
X167650467Y-73341530D01*
X167400440Y-73943662D01*
X167329526Y-73587152D01*
X167004670Y-73100971D01*
X166518489Y-72776115D01*
X165945000Y-72662041D01*
X165371511Y-72776115D01*
X164885330Y-73100971D01*
X164675000Y-73415752D01*
X164464670Y-73100971D01*
X163978489Y-72776115D01*
X163405000Y-72662041D01*
X162831511Y-72776115D01*
X162345330Y-73100971D01*
X162135000Y-73415752D01*
X161924670Y-73100971D01*
X161438489Y-72776115D01*
X160865000Y-72662041D01*
X160291511Y-72776115D01*
X159805330Y-73100971D01*
X159595000Y-73415752D01*
X159384670Y-73100971D01*
X158898489Y-72776115D01*
X158325000Y-72662041D01*
X157751511Y-72776115D01*
X157265330Y-73100971D01*
X157055000Y-73415752D01*
X156844670Y-73100971D01*
X156358489Y-72776115D01*
X155785000Y-72662041D01*
X155211511Y-72776115D01*
X154725330Y-73100971D01*
X154515000Y-73415752D01*
X154304670Y-73100971D01*
X153818489Y-72776115D01*
X153245000Y-72662041D01*
X152671511Y-72776115D01*
X152185330Y-73100971D01*
X151975000Y-73415752D01*
X151764670Y-73100971D01*
X151278489Y-72776115D01*
X150705000Y-72662041D01*
X150131511Y-72776115D01*
X149645330Y-73100971D01*
X149435000Y-73415752D01*
X149224670Y-73100971D01*
X148738489Y-72776115D01*
X148165000Y-72662041D01*
X147591511Y-72776115D01*
X147105330Y-73100971D01*
X146895000Y-73415752D01*
X146684670Y-73100971D01*
X146198489Y-72776115D01*
X145625000Y-72662041D01*
X145051511Y-72776115D01*
X144565330Y-73100971D01*
X144355000Y-73415752D01*
X144144670Y-73100971D01*
X143658489Y-72776115D01*
X143085000Y-72662041D01*
X142511511Y-72776115D01*
X142025330Y-73100971D01*
X141815000Y-73415752D01*
X141604670Y-73100971D01*
X141118489Y-72776115D01*
X140545000Y-72662041D01*
X139971511Y-72776115D01*
X139485330Y-73100971D01*
X139275000Y-73415752D01*
X139064670Y-73100971D01*
X138578489Y-72776115D01*
X138005000Y-72662041D01*
X137431511Y-72776115D01*
X136945330Y-73100971D01*
X136735000Y-73415752D01*
X136524670Y-73100971D01*
X136038489Y-72776115D01*
X135465000Y-72662041D01*
X134891511Y-72776115D01*
X134405330Y-73100971D01*
X134195000Y-73415752D01*
X133984670Y-73100971D01*
X133498489Y-72776115D01*
X132925000Y-72662041D01*
X132351511Y-72776115D01*
X131865330Y-73100971D01*
X131655000Y-73415752D01*
X131444670Y-73100971D01*
X130958489Y-72776115D01*
X130385000Y-72662041D01*
X129811511Y-72776115D01*
X129325330Y-73100971D01*
X129115000Y-73415752D01*
X128904670Y-73100971D01*
X128418489Y-72776115D01*
X127845000Y-72662041D01*
X127271511Y-72776115D01*
X126785330Y-73100971D01*
X126575000Y-73415752D01*
X126364670Y-73100971D01*
X125878489Y-72776115D01*
X125305000Y-72662041D01*
X124731511Y-72776115D01*
X124245330Y-73100971D01*
X124035000Y-73415752D01*
X123824670Y-73100971D01*
X123338489Y-72776115D01*
X122765000Y-72662041D01*
X122191511Y-72776115D01*
X121705330Y-73100971D01*
X121489336Y-73424228D01*
X121431821Y-73301510D01*
X120999947Y-72907312D01*
X120584026Y-72735042D01*
X120352000Y-72856183D01*
X120352000Y-74063000D01*
X120372000Y-74063000D01*
X120372000Y-74317000D01*
X120352000Y-74317000D01*
X120352000Y-74337000D01*
X120098000Y-74337000D01*
X120098000Y-74317000D01*
X117812000Y-74317000D01*
X117812000Y-74337000D01*
X117558000Y-74337000D01*
X117558000Y-74317000D01*
X117538000Y-74317000D01*
X117538000Y-74063000D01*
X117558000Y-74063000D01*
X117558000Y-72856183D01*
X117812000Y-72856183D01*
X117812000Y-74063000D01*
X120098000Y-74063000D01*
X120098000Y-72856183D01*
X119865974Y-72735042D01*
X119450053Y-72907312D01*
X119018179Y-73301510D01*
X118955000Y-73436313D01*
X118891821Y-73301510D01*
X118459947Y-72907312D01*
X118044026Y-72735042D01*
X117812000Y-72856183D01*
X117558000Y-72856183D01*
X117325974Y-72735042D01*
X116910053Y-72907312D01*
X116478179Y-73301510D01*
X116230032Y-73830973D01*
X116350530Y-74062998D01*
X116279046Y-74062998D01*
X115983225Y-73347056D01*
X114933470Y-72295467D01*
X113561197Y-71725650D01*
X112075322Y-71724353D01*
X110702056Y-72291775D01*
X109650467Y-73341530D01*
X109080650Y-74713803D01*
X109079353Y-76199678D01*
X109646775Y-77572944D01*
X110696530Y-78624533D01*
X111397702Y-78915685D01*
X111315381Y-78915613D01*
X110493628Y-79255155D01*
X109864364Y-79883321D01*
X109523389Y-80704481D01*
X109522613Y-81593619D01*
X109862155Y-82415372D01*
X110490321Y-83044636D01*
X111311481Y-83385611D01*
X112200619Y-83386387D01*
X113022372Y-83046845D01*
X113651636Y-82418679D01*
X113992611Y-81597519D01*
X113993387Y-80708381D01*
X113653845Y-79886628D01*
X113025679Y-79257364D01*
X112875620Y-79195054D01*
X113554678Y-79195647D01*
X114927944Y-78628225D01*
X115979533Y-77578470D01*
X116173960Y-77110237D01*
X116173960Y-77593600D01*
X116218238Y-77828917D01*
X116357310Y-78045041D01*
X116569510Y-78190031D01*
X116821400Y-78241040D01*
X118548600Y-78241040D01*
X118783917Y-78196762D01*
X119000041Y-78057690D01*
X119145031Y-77845490D01*
X119153864Y-77801869D01*
X119165330Y-77819029D01*
X119463000Y-78017926D01*
X119463000Y-80651800D01*
X119521004Y-80943405D01*
X119661051Y-81153000D01*
X119686185Y-81190615D01*
X126537385Y-88041815D01*
X126784595Y-88206996D01*
X126820778Y-88214193D01*
X126866110Y-88284641D01*
X127078310Y-88429631D01*
X127330200Y-88480640D01*
X127462143Y-88480640D01*
X127461838Y-88831167D01*
X127603883Y-89174943D01*
X127717741Y-89289000D01*
X117261721Y-89289000D01*
X117252831Y-89267485D01*
X116863564Y-88877539D01*
X116694898Y-88807503D01*
X116078000Y-88190605D01*
X116063858Y-88204748D01*
X115884253Y-88025143D01*
X115898395Y-88011000D01*
X116257605Y-88011000D01*
X117049517Y-88802912D01*
X117290460Y-88734923D01*
X117475201Y-88215829D01*
X117447230Y-87665552D01*
X117290460Y-87287077D01*
X117049517Y-87219088D01*
X116257605Y-88011000D01*
X115898395Y-88011000D01*
X115884253Y-87996858D01*
X116063858Y-87817253D01*
X116078000Y-87831395D01*
X116694594Y-87214801D01*
X116861515Y-87145831D01*
X117251461Y-86756564D01*
X117462759Y-86247702D01*
X117463240Y-85696715D01*
X117252831Y-85187485D01*
X117016687Y-84950929D01*
X117251461Y-84716564D01*
X117462759Y-84207702D01*
X117463240Y-83656715D01*
X117252831Y-83147485D01*
X116863564Y-82757539D01*
X116354702Y-82546241D01*
X115803715Y-82545760D01*
X115294485Y-82756169D01*
X114904539Y-83145436D01*
X114706995Y-83621174D01*
X114574702Y-83566241D01*
X114023715Y-83565760D01*
X113514485Y-83776169D01*
X113124539Y-84165436D01*
X112913241Y-84674298D01*
X112912760Y-85225285D01*
X113123169Y-85734515D01*
X113512436Y-86124461D01*
X113681102Y-86194497D01*
X114298000Y-86811395D01*
X114312143Y-86797253D01*
X114491748Y-86976858D01*
X114477605Y-86991000D01*
X114491748Y-87005143D01*
X114312143Y-87184748D01*
X114298000Y-87170605D01*
X113681406Y-87787199D01*
X113514485Y-87856169D01*
X113124539Y-88245436D01*
X112913241Y-88754298D01*
X112912760Y-89305285D01*
X113123169Y-89814515D01*
X113138530Y-89829903D01*
X113096559Y-89856910D01*
X112951569Y-90069110D01*
X112900560Y-90321000D01*
X112900560Y-91821000D01*
X112917789Y-91912564D01*
X112204519Y-91616389D01*
X111315381Y-91615613D01*
X110493628Y-91955155D01*
X109864364Y-92583321D01*
X109523389Y-93404481D01*
X109522613Y-94293619D01*
X109862155Y-95115372D01*
X110490321Y-95744636D01*
X110833001Y-95886929D01*
X110493628Y-96027155D01*
X109864364Y-96655321D01*
X109523389Y-97476481D01*
X109522613Y-98365619D01*
X109862155Y-99187372D01*
X110490321Y-99816636D01*
X111311481Y-100157611D01*
X112200619Y-100158387D01*
X113022372Y-99818845D01*
X113651636Y-99190679D01*
X113992611Y-98369519D01*
X113993387Y-97480381D01*
X113653845Y-96658628D01*
X113025679Y-96029364D01*
X112682999Y-95887071D01*
X113022372Y-95746845D01*
X113651636Y-95118679D01*
X113992611Y-94297519D01*
X113993387Y-93408381D01*
X113653845Y-92586628D01*
X113532788Y-92465360D01*
X113548000Y-92468440D01*
X115048000Y-92468440D01*
X115283317Y-92424162D01*
X115499441Y-92285090D01*
X115644431Y-92072890D01*
X115695440Y-91821000D01*
X115695440Y-91391803D01*
X115801298Y-91435759D01*
X116352285Y-91436240D01*
X116375866Y-91426496D01*
X116393001Y-91443631D01*
X116393001Y-99334144D01*
X116354702Y-99318241D01*
X115803715Y-99317760D01*
X115294485Y-99528169D01*
X114904539Y-99917436D01*
X114706995Y-100393174D01*
X114574702Y-100338241D01*
X114023715Y-100337760D01*
X113514485Y-100548169D01*
X113124539Y-100937436D01*
X112913241Y-101446298D01*
X112912760Y-101997285D01*
X113123169Y-102506515D01*
X113512436Y-102896461D01*
X113681102Y-102966497D01*
X114298000Y-103583395D01*
X114312143Y-103569253D01*
X114491748Y-103748858D01*
X114477605Y-103763000D01*
X114491748Y-103777143D01*
X114312143Y-103956748D01*
X114298000Y-103942605D01*
X113681406Y-104559199D01*
X113514485Y-104628169D01*
X113124539Y-105017436D01*
X112913241Y-105526298D01*
X112912760Y-106077285D01*
X113123169Y-106586515D01*
X113138530Y-106601903D01*
X113096559Y-106628910D01*
X112951569Y-106841110D01*
X112900560Y-107093000D01*
X112900560Y-108593000D01*
X112917789Y-108684564D01*
X112204519Y-108388389D01*
X111315381Y-108387613D01*
X110493628Y-108727155D01*
X109864364Y-109355321D01*
X109523389Y-110176481D01*
X109522613Y-111065619D01*
X109862155Y-111887372D01*
X110490321Y-112516636D01*
X111311481Y-112857611D01*
X112200619Y-112858387D01*
X113022372Y-112518845D01*
X113651636Y-111890679D01*
X113992611Y-111069519D01*
X113993387Y-110180381D01*
X113653845Y-109358628D01*
X113532788Y-109237360D01*
X113548000Y-109240440D01*
X115048000Y-109240440D01*
X115283317Y-109196162D01*
X115499441Y-109057090D01*
X115644431Y-108844890D01*
X115695440Y-108593000D01*
X115695440Y-108163803D01*
X115801298Y-108207759D01*
X116352285Y-108208240D01*
X116861515Y-107997831D01*
X116911401Y-107948031D01*
X126484127Y-117520757D01*
X126149077Y-117659540D01*
X126081088Y-117900483D01*
X126873000Y-118692395D01*
X126887143Y-118678253D01*
X127066748Y-118857858D01*
X127052605Y-118872000D01*
X127066748Y-118886143D01*
X126887143Y-119065748D01*
X126873000Y-119051605D01*
X126858858Y-119065748D01*
X126679253Y-118886143D01*
X126693395Y-118872000D01*
X126076801Y-118255406D01*
X126007831Y-118088485D01*
X125618564Y-117698539D01*
X125109702Y-117487241D01*
X124558715Y-117486760D01*
X124049485Y-117697169D01*
X123812929Y-117933313D01*
X123578564Y-117698539D01*
X123069702Y-117487241D01*
X122518715Y-117486760D01*
X122009485Y-117697169D01*
X121619539Y-118086436D01*
X121408241Y-118595298D01*
X121407760Y-119146285D01*
X121618169Y-119655515D01*
X122007436Y-120045461D01*
X122483174Y-120243005D01*
X122428241Y-120375298D01*
X122427760Y-120926285D01*
X122638169Y-121435515D01*
X123027436Y-121825461D01*
X123536298Y-122036759D01*
X124087285Y-122037240D01*
X124596515Y-121826831D01*
X124800183Y-121623517D01*
X125061088Y-121623517D01*
X125129077Y-121864460D01*
X125648171Y-122049201D01*
X126198448Y-122021230D01*
X126576923Y-121864460D01*
X126644912Y-121623517D01*
X125853000Y-120831605D01*
X125061088Y-121623517D01*
X124800183Y-121623517D01*
X124986461Y-121437564D01*
X125056497Y-121268898D01*
X125673395Y-120652000D01*
X125659253Y-120637858D01*
X125838858Y-120458253D01*
X125853000Y-120472395D01*
X125867143Y-120458253D01*
X126046748Y-120637858D01*
X126032605Y-120652000D01*
X126649199Y-121268594D01*
X126718169Y-121435515D01*
X127107436Y-121825461D01*
X127616298Y-122036759D01*
X128167285Y-122037240D01*
X128676515Y-121826831D01*
X128691903Y-121811470D01*
X128718910Y-121853441D01*
X128931110Y-121998431D01*
X129183000Y-122049440D01*
X130683000Y-122049440D01*
X130774564Y-122032211D01*
X130478389Y-122745481D01*
X130477613Y-123634619D01*
X130817155Y-124456372D01*
X131445321Y-125085636D01*
X132266481Y-125426611D01*
X133155619Y-125427387D01*
X133977372Y-125087845D01*
X134606636Y-124459679D01*
X134947611Y-123638519D01*
X134947614Y-123634619D01*
X135178613Y-123634619D01*
X135518155Y-124456372D01*
X136146321Y-125085636D01*
X136967481Y-125426611D01*
X137856619Y-125427387D01*
X138678372Y-125087845D01*
X139307636Y-124459679D01*
X139648611Y-123638519D01*
X139649387Y-122749381D01*
X139309845Y-121927628D01*
X138681679Y-121298364D01*
X137860519Y-120957389D01*
X136971381Y-120956613D01*
X136149628Y-121296155D01*
X135520364Y-121924321D01*
X135179389Y-122745481D01*
X135178613Y-123634619D01*
X134947614Y-123634619D01*
X134948387Y-122749381D01*
X134608845Y-121927628D01*
X133980679Y-121298364D01*
X133159519Y-120957389D01*
X132270381Y-120956613D01*
X131448628Y-121296155D01*
X131327360Y-121417212D01*
X131330440Y-121402000D01*
X131330440Y-119902000D01*
X131286162Y-119666683D01*
X131147090Y-119450559D01*
X130934890Y-119305569D01*
X130683000Y-119254560D01*
X130253803Y-119254560D01*
X130297759Y-119148702D01*
X130298240Y-118597715D01*
X130288496Y-118574134D01*
X130305631Y-118556999D01*
X138825144Y-118556999D01*
X138809241Y-118595298D01*
X138808760Y-119146285D01*
X139019169Y-119655515D01*
X139408436Y-120045461D01*
X139884174Y-120243005D01*
X139829241Y-120375298D01*
X139828760Y-120926285D01*
X140039169Y-121435515D01*
X140428436Y-121825461D01*
X140937298Y-122036759D01*
X141488285Y-122037240D01*
X141997515Y-121826831D01*
X142201183Y-121623517D01*
X142462088Y-121623517D01*
X142530077Y-121864460D01*
X143049171Y-122049201D01*
X143599448Y-122021230D01*
X143977923Y-121864460D01*
X144045912Y-121623517D01*
X143254000Y-120831605D01*
X142462088Y-121623517D01*
X142201183Y-121623517D01*
X142387461Y-121437564D01*
X142457497Y-121268898D01*
X143074395Y-120652000D01*
X143060253Y-120637858D01*
X143239858Y-120458253D01*
X143254000Y-120472395D01*
X143268143Y-120458253D01*
X143447748Y-120637858D01*
X143433605Y-120652000D01*
X144050199Y-121268594D01*
X144119169Y-121435515D01*
X144508436Y-121825461D01*
X145017298Y-122036759D01*
X145568285Y-122037240D01*
X145591866Y-122027497D01*
X145832185Y-122267816D01*
X145981518Y-122367597D01*
X146079396Y-122432997D01*
X146371001Y-122491001D01*
X147985058Y-122491001D01*
X147879389Y-122745481D01*
X147878613Y-123634619D01*
X148218155Y-124456372D01*
X148846321Y-125085636D01*
X149667481Y-125426611D01*
X150556619Y-125427387D01*
X151378372Y-125087845D01*
X152007636Y-124459679D01*
X152348611Y-123638519D01*
X152349387Y-122749381D01*
X152009845Y-121927628D01*
X151381679Y-121298364D01*
X151152795Y-121203323D01*
X156082516Y-121203323D01*
X156506981Y-122230606D01*
X157292260Y-123017257D01*
X158318801Y-123443514D01*
X159430323Y-123444484D01*
X160457606Y-123020019D01*
X161244257Y-122234740D01*
X161670514Y-121208199D01*
X161671484Y-120096677D01*
X161389839Y-119415046D01*
X161991260Y-120017517D01*
X163017801Y-120443774D01*
X164129323Y-120444744D01*
X165156606Y-120020279D01*
X165943257Y-119235000D01*
X166369514Y-118208459D01*
X166370484Y-117096937D01*
X165946019Y-116069654D01*
X165160740Y-115283003D01*
X164134199Y-114856746D01*
X163022677Y-114855776D01*
X161995394Y-115280241D01*
X161391872Y-115882710D01*
X161673921Y-115191393D01*
X161668001Y-114079886D01*
X161254035Y-113080483D01*
X160866790Y-112840335D01*
X159056605Y-114650520D01*
X160866790Y-116460705D01*
X161106331Y-116312155D01*
X160782486Y-117092061D01*
X160781516Y-118203583D01*
X161063161Y-118885214D01*
X160461740Y-118282743D01*
X159435199Y-117856486D01*
X158323677Y-117855516D01*
X157296394Y-118279981D01*
X156509743Y-119065260D01*
X156083486Y-120091801D01*
X156082516Y-121203323D01*
X151152795Y-121203323D01*
X150560519Y-120957389D01*
X149671381Y-120956613D01*
X149173001Y-121162540D01*
X149173001Y-118058001D01*
X149114997Y-117766396D01*
X148949816Y-117519186D01*
X148070940Y-116640310D01*
X157066815Y-116640310D01*
X157306963Y-117027555D01*
X158336127Y-117447441D01*
X159447634Y-117441521D01*
X160447037Y-117027555D01*
X160687185Y-116640310D01*
X158877000Y-114830125D01*
X157066815Y-116640310D01*
X148070940Y-116640310D01*
X147350814Y-115920184D01*
X147103605Y-115755004D01*
X146812000Y-115697000D01*
X133021466Y-115697000D01*
X132991327Y-115666808D01*
X132647799Y-115524162D01*
X132275833Y-115523838D01*
X131932057Y-115665883D01*
X131900886Y-115697000D01*
X129220631Y-115697000D01*
X127633278Y-114109647D01*
X156080079Y-114109647D01*
X156085999Y-115221154D01*
X156499965Y-116220557D01*
X156887210Y-116460705D01*
X158697395Y-114650520D01*
X156887210Y-112840335D01*
X156499965Y-113080483D01*
X156080079Y-114109647D01*
X127633278Y-114109647D01*
X126184361Y-112660730D01*
X157066815Y-112660730D01*
X158877000Y-114470915D01*
X160687185Y-112660730D01*
X160447037Y-112273485D01*
X159417873Y-111853599D01*
X158306366Y-111859519D01*
X157306963Y-112273485D01*
X157066815Y-112660730D01*
X126184361Y-112660730D01*
X121331125Y-107807495D01*
X121331162Y-107764833D01*
X121189117Y-107421057D01*
X121158000Y-107389886D01*
X121158000Y-92329000D01*
X121099996Y-92037395D01*
X121060854Y-91978815D01*
X121009529Y-91902001D01*
X129720989Y-91902001D01*
X130012594Y-91843997D01*
X130259804Y-91678816D01*
X132349505Y-89589115D01*
X132392167Y-89589152D01*
X132735943Y-89447107D01*
X132794712Y-89388440D01*
X132947815Y-89357986D01*
X133195025Y-89192805D01*
X133907191Y-88480640D01*
X135509000Y-88480640D01*
X135744317Y-88436362D01*
X135960441Y-88297290D01*
X135982504Y-88265000D01*
X136336369Y-88265000D01*
X136494184Y-88422815D01*
X136741395Y-88587996D01*
X137033000Y-88646000D01*
X137147634Y-88646000D01*
X137170838Y-88769317D01*
X137309910Y-88985441D01*
X137522110Y-89130431D01*
X137774000Y-89181440D01*
X139274000Y-89181440D01*
X139509317Y-89137162D01*
X139725441Y-88998090D01*
X139870431Y-88785890D01*
X139877191Y-88752510D01*
X139935673Y-88893699D01*
X140114302Y-89072327D01*
X140347691Y-89169000D01*
X140938250Y-89169000D01*
X141097000Y-89010250D01*
X141097000Y-88011000D01*
X141351000Y-88011000D01*
X141351000Y-89010250D01*
X141509750Y-89169000D01*
X142100309Y-89169000D01*
X142333698Y-89072327D01*
X142512327Y-88893699D01*
X142609000Y-88660310D01*
X142609000Y-88169750D01*
X142450250Y-88011000D01*
X141351000Y-88011000D01*
X141097000Y-88011000D01*
X141077000Y-88011000D01*
X141077000Y-87757000D01*
X141097000Y-87757000D01*
X141097000Y-86757750D01*
X141080250Y-86741000D01*
X141097000Y-86724250D01*
X141097000Y-85725000D01*
X141351000Y-85725000D01*
X141351000Y-86724250D01*
X141367750Y-86741000D01*
X141351000Y-86757750D01*
X141351000Y-87757000D01*
X142450250Y-87757000D01*
X142609000Y-87598250D01*
X142609000Y-87107690D01*
X142512327Y-86874301D01*
X142379025Y-86741000D01*
X142512327Y-86607699D01*
X142609000Y-86374310D01*
X142609000Y-85883750D01*
X142450250Y-85725000D01*
X141351000Y-85725000D01*
X141097000Y-85725000D01*
X141077000Y-85725000D01*
X141077000Y-85471000D01*
X141097000Y-85471000D01*
X141097000Y-84471750D01*
X141351000Y-84471750D01*
X141351000Y-85471000D01*
X142450250Y-85471000D01*
X142609000Y-85312250D01*
X142609000Y-84821690D01*
X142512327Y-84588301D01*
X142333698Y-84409673D01*
X142100309Y-84313000D01*
X141509750Y-84313000D01*
X141351000Y-84471750D01*
X141097000Y-84471750D01*
X140938250Y-84313000D01*
X140347691Y-84313000D01*
X140114302Y-84409673D01*
X139935673Y-84588301D01*
X139879346Y-84724287D01*
X139877162Y-84712683D01*
X139738090Y-84496559D01*
X139525890Y-84351569D01*
X139274000Y-84300560D01*
X137774000Y-84300560D01*
X137538683Y-84344838D01*
X137322559Y-84483910D01*
X137177569Y-84696110D01*
X137149241Y-84836000D01*
X137109476Y-84836000D01*
X137109476Y-84835999D01*
X137160000Y-84582000D01*
X137160000Y-84074000D01*
X137101996Y-83782395D01*
X137011939Y-83647615D01*
X136936815Y-83535184D01*
X136555815Y-83154185D01*
X136515853Y-83127483D01*
X136308605Y-82989004D01*
X136017000Y-82931000D01*
X135985729Y-82931000D01*
X135973090Y-82911359D01*
X135760890Y-82766369D01*
X135509000Y-82715360D01*
X135255000Y-82715360D01*
X135255000Y-82323440D01*
X136513000Y-82323440D01*
X136748317Y-82279162D01*
X136964441Y-82140090D01*
X137109431Y-81927890D01*
X137116191Y-81894510D01*
X137174673Y-82035699D01*
X137353302Y-82214327D01*
X137586691Y-82311000D01*
X138177250Y-82311000D01*
X138336000Y-82152250D01*
X138336000Y-81153000D01*
X138590000Y-81153000D01*
X138590000Y-82152250D01*
X138748750Y-82311000D01*
X139339309Y-82311000D01*
X139572698Y-82214327D01*
X139751327Y-82035699D01*
X139848000Y-81802310D01*
X139848000Y-81311750D01*
X139689250Y-81153000D01*
X138590000Y-81153000D01*
X138336000Y-81153000D01*
X138316000Y-81153000D01*
X138316000Y-80899000D01*
X138336000Y-80899000D01*
X138336000Y-79899750D01*
X138590000Y-79899750D01*
X138590000Y-80899000D01*
X139689250Y-80899000D01*
X139848000Y-80740250D01*
X139848000Y-80249690D01*
X139751327Y-80016301D01*
X139572698Y-79837673D01*
X139339309Y-79741000D01*
X138748750Y-79741000D01*
X138590000Y-79899750D01*
X138336000Y-79899750D01*
X138177250Y-79741000D01*
X137586691Y-79741000D01*
X137353302Y-79837673D01*
X137174673Y-80016301D01*
X137118346Y-80152287D01*
X137116162Y-80140683D01*
X136977090Y-79924559D01*
X136764890Y-79779569D01*
X136513000Y-79728560D01*
X136084070Y-79728560D01*
X137629385Y-78183245D01*
X138005000Y-78257959D01*
X138380615Y-78183245D01*
X159327186Y-99129817D01*
X159475378Y-99228835D01*
X159574396Y-99294997D01*
X159866001Y-99353001D01*
X169445411Y-99353001D01*
X169427907Y-99441000D01*
X169540946Y-100009285D01*
X169862853Y-100491054D01*
X170192026Y-100711000D01*
X169862853Y-100930946D01*
X169540946Y-101412715D01*
X169427907Y-101981000D01*
X169540946Y-102549285D01*
X169862853Y-103031054D01*
X169904452Y-103058850D01*
X169856683Y-103067838D01*
X169640559Y-103206910D01*
X169495569Y-103419110D01*
X169444560Y-103671000D01*
X169444560Y-105371000D01*
X169488838Y-105606317D01*
X169627910Y-105822441D01*
X169840110Y-105967431D01*
X170092000Y-106018440D01*
X171792000Y-106018440D01*
X172027317Y-105974162D01*
X172243441Y-105835090D01*
X172388431Y-105622890D01*
X172439440Y-105371000D01*
X172439440Y-103671000D01*
X172395162Y-103435683D01*
X172256090Y-103219559D01*
X172043890Y-103074569D01*
X171976459Y-103060914D01*
X172021147Y-103031054D01*
X172343054Y-102549285D01*
X172456093Y-101981000D01*
X172343054Y-101412715D01*
X172021147Y-100930946D01*
X171691974Y-100711000D01*
X172021147Y-100491054D01*
X172343054Y-100009285D01*
X172456093Y-99441000D01*
X172343054Y-98872715D01*
X172021147Y-98390946D01*
X171691974Y-98171000D01*
X172021147Y-97951054D01*
X172343054Y-97469285D01*
X172456093Y-96901000D01*
X172383679Y-96536952D01*
X172657817Y-96262814D01*
X172775701Y-96086387D01*
X172822997Y-96015604D01*
X172881001Y-95723999D01*
X172881001Y-86176039D01*
X172822997Y-85884434D01*
X172822540Y-85883750D01*
X172657816Y-85637223D01*
X164614854Y-77594262D01*
X164675000Y-77504248D01*
X164885330Y-77819029D01*
X165371511Y-78143885D01*
X165945000Y-78257959D01*
X166518489Y-78143885D01*
X167004670Y-77819029D01*
X167329526Y-77332848D01*
X167400382Y-76976628D01*
X167646775Y-77572944D01*
X168696530Y-78624533D01*
X170068803Y-79194350D01*
X171554678Y-79195647D01*
X172927944Y-78628225D01*
X173915000Y-77642890D01*
X173915000Y-122278712D01*
X172933470Y-121295467D01*
X171561197Y-120725650D01*
X170075322Y-120724353D01*
X168702056Y-121291775D01*
X167650467Y-122341530D01*
X167080650Y-123713803D01*
X167079353Y-125199678D01*
X167646775Y-126572944D01*
X168632110Y-127560000D01*
X114996288Y-127560000D01*
X115979533Y-126578470D01*
X116549350Y-125206197D01*
X116550647Y-123720322D01*
X116515236Y-123634619D01*
X117777613Y-123634619D01*
X118117155Y-124456372D01*
X118745321Y-125085636D01*
X119566481Y-125426611D01*
X120455619Y-125427387D01*
X121277372Y-125087845D01*
X121906636Y-124459679D01*
X122247611Y-123638519D01*
X122248387Y-122749381D01*
X121908845Y-121927628D01*
X121280679Y-121298364D01*
X120459519Y-120957389D01*
X119570381Y-120956613D01*
X118748628Y-121296155D01*
X118119364Y-121924321D01*
X117778389Y-122745481D01*
X117777613Y-123634619D01*
X116515236Y-123634619D01*
X115983225Y-122347056D01*
X114933470Y-121295467D01*
X113561197Y-120725650D01*
X112075322Y-120724353D01*
X110702056Y-121291775D01*
X109650467Y-122341530D01*
X109080650Y-123713803D01*
X109079353Y-125199678D01*
X109646775Y-126572944D01*
X110632110Y-127560000D01*
X107390000Y-127560000D01*
X107390000Y-103558171D01*
X112900799Y-103558171D01*
X112928770Y-104108448D01*
X113085540Y-104486923D01*
X113326483Y-104554912D01*
X114118395Y-103763000D01*
X113326483Y-102971088D01*
X113085540Y-103039077D01*
X112900799Y-103558171D01*
X107390000Y-103558171D01*
X107390000Y-86786171D01*
X112900799Y-86786171D01*
X112928770Y-87336448D01*
X113085540Y-87714923D01*
X113326483Y-87782912D01*
X114118395Y-86991000D01*
X113326483Y-86199088D01*
X113085540Y-86267077D01*
X112900799Y-86786171D01*
X107390000Y-86786171D01*
X107390000Y-62704525D01*
X107453155Y-62857372D01*
X108081321Y-63486636D01*
X108902481Y-63827611D01*
X109791619Y-63828387D01*
X110289999Y-63622460D01*
X110289999Y-67236999D01*
X110348003Y-67528604D01*
X110459852Y-67695997D01*
X110513184Y-67775814D01*
X112110184Y-69372815D01*
X112357395Y-69537996D01*
X112649000Y-69596000D01*
X126058534Y-69596000D01*
X126088673Y-69626192D01*
X126432201Y-69768838D01*
X126804167Y-69769162D01*
X127147943Y-69627117D01*
X127179114Y-69596000D01*
X143203534Y-69596000D01*
X143233673Y-69626192D01*
X143577201Y-69768838D01*
X143949167Y-69769162D01*
X144292943Y-69627117D01*
X144324114Y-69596000D01*
X159840534Y-69596000D01*
X159870673Y-69626192D01*
X160214201Y-69768838D01*
X160586167Y-69769162D01*
X160929943Y-69627117D01*
X161193192Y-69364327D01*
X161335838Y-69020799D01*
X161336079Y-68744067D01*
X161357201Y-68752838D01*
X161729167Y-68753162D01*
X162072943Y-68611117D01*
X162336192Y-68348327D01*
X162478838Y-68004799D01*
X162479162Y-67632833D01*
X162455357Y-67575221D01*
X162521814Y-67530816D01*
X162761799Y-67290832D01*
X162783298Y-67299759D01*
X163334285Y-67300240D01*
X163843515Y-67089831D01*
X164047183Y-66886517D01*
X164308088Y-66886517D01*
X164376077Y-67127460D01*
X164895171Y-67312201D01*
X165445448Y-67284230D01*
X165823923Y-67127460D01*
X165891912Y-66886517D01*
X165100000Y-66094605D01*
X164308088Y-66886517D01*
X164047183Y-66886517D01*
X164233461Y-66700564D01*
X164303497Y-66531898D01*
X164920395Y-65915000D01*
X164906253Y-65900858D01*
X165085858Y-65721253D01*
X165100000Y-65735395D01*
X165114143Y-65721253D01*
X165293748Y-65900858D01*
X165279605Y-65915000D01*
X165896199Y-66531594D01*
X165965169Y-66698515D01*
X166354436Y-67088461D01*
X166863298Y-67299759D01*
X167414285Y-67300240D01*
X167923515Y-67089831D01*
X168160071Y-66853687D01*
X168394436Y-67088461D01*
X168903298Y-67299759D01*
X169454285Y-67300240D01*
X169963515Y-67089831D01*
X170353461Y-66700564D01*
X170564759Y-66191702D01*
X170565240Y-65640715D01*
X170354831Y-65131485D01*
X169965564Y-64741539D01*
X169489826Y-64543995D01*
X169544759Y-64411702D01*
X169545240Y-63860715D01*
X169334831Y-63351485D01*
X168945564Y-62961539D01*
X168436702Y-62750241D01*
X167885715Y-62749760D01*
X167376485Y-62960169D01*
X166986539Y-63349436D01*
X166916503Y-63518102D01*
X166299605Y-64135000D01*
X166313748Y-64149143D01*
X166134143Y-64328748D01*
X166120000Y-64314605D01*
X166105858Y-64328748D01*
X165926253Y-64149143D01*
X165940395Y-64135000D01*
X165323801Y-63518406D01*
X165254831Y-63351485D01*
X165067157Y-63163483D01*
X165328088Y-63163483D01*
X166120000Y-63955395D01*
X166911912Y-63163483D01*
X166843923Y-62922540D01*
X166324829Y-62737799D01*
X165774552Y-62765770D01*
X165396077Y-62922540D01*
X165328088Y-63163483D01*
X165067157Y-63163483D01*
X164865564Y-62961539D01*
X164356702Y-62750241D01*
X163805715Y-62749760D01*
X163296485Y-62960169D01*
X163281097Y-62975530D01*
X163254090Y-62933559D01*
X163041890Y-62788569D01*
X162790000Y-62737560D01*
X161290000Y-62737560D01*
X161198436Y-62754789D01*
X161494611Y-62041519D01*
X161495387Y-61152381D01*
X161155845Y-60330628D01*
X160527679Y-59701364D01*
X159706519Y-59360389D01*
X158817381Y-59359613D01*
X157995628Y-59699155D01*
X157366364Y-60327321D01*
X157287728Y-60516698D01*
X157210845Y-60330628D01*
X156582679Y-59701364D01*
X155761519Y-59360389D01*
X154872381Y-59359613D01*
X154050628Y-59699155D01*
X153421364Y-60327321D01*
X153080389Y-61148481D01*
X153079613Y-62037619D01*
X153419155Y-62859372D01*
X154047321Y-63488636D01*
X154868481Y-63829611D01*
X155757619Y-63830387D01*
X156579372Y-63490845D01*
X157208636Y-62862679D01*
X157287272Y-62673302D01*
X157364155Y-62859372D01*
X157992321Y-63488636D01*
X158813481Y-63829611D01*
X159702619Y-63830387D01*
X160524372Y-63490845D01*
X160645640Y-63369788D01*
X160642560Y-63385000D01*
X160642560Y-64885000D01*
X160686838Y-65120317D01*
X160825910Y-65336441D01*
X161038110Y-65481431D01*
X161290000Y-65532440D01*
X161719197Y-65532440D01*
X161675241Y-65638298D01*
X161674760Y-66189285D01*
X161684503Y-66212866D01*
X161667368Y-66230001D01*
X153903856Y-66230001D01*
X153919759Y-66191702D01*
X153920240Y-65640715D01*
X153709831Y-65131485D01*
X153320564Y-64741539D01*
X152844826Y-64543995D01*
X152899759Y-64411702D01*
X152900240Y-63860715D01*
X152689831Y-63351485D01*
X152300564Y-62961539D01*
X151791702Y-62750241D01*
X151240715Y-62749760D01*
X150731485Y-62960169D01*
X150341539Y-63349436D01*
X150271503Y-63518102D01*
X149654605Y-64135000D01*
X149668748Y-64149143D01*
X149489143Y-64328748D01*
X149475000Y-64314605D01*
X149460858Y-64328748D01*
X149281253Y-64149143D01*
X149295395Y-64135000D01*
X148678801Y-63518406D01*
X148609831Y-63351485D01*
X148422157Y-63163483D01*
X148683088Y-63163483D01*
X149475000Y-63955395D01*
X150266912Y-63163483D01*
X150198923Y-62922540D01*
X149679829Y-62737799D01*
X149129552Y-62765770D01*
X148751077Y-62922540D01*
X148683088Y-63163483D01*
X148422157Y-63163483D01*
X148220564Y-62961539D01*
X147711702Y-62750241D01*
X147160715Y-62749760D01*
X146651485Y-62960169D01*
X146636097Y-62975530D01*
X146609090Y-62933559D01*
X146396890Y-62788569D01*
X146145000Y-62737560D01*
X144645000Y-62737560D01*
X144553436Y-62754789D01*
X144849611Y-62041519D01*
X144850387Y-61152381D01*
X144510845Y-60330628D01*
X143882679Y-59701364D01*
X143061519Y-59360389D01*
X142172381Y-59359613D01*
X141350628Y-59699155D01*
X140721364Y-60327321D01*
X140647152Y-60506044D01*
X140573845Y-60328628D01*
X139945679Y-59699364D01*
X139124519Y-59358389D01*
X138235381Y-59357613D01*
X137413628Y-59697155D01*
X136784364Y-60325321D01*
X136443389Y-61146481D01*
X136442613Y-62035619D01*
X136782155Y-62857372D01*
X137410321Y-63486636D01*
X138231481Y-63827611D01*
X139120619Y-63828387D01*
X139942372Y-63488845D01*
X140571636Y-62860679D01*
X140645848Y-62681956D01*
X140719155Y-62859372D01*
X141347321Y-63488636D01*
X142168481Y-63829611D01*
X143057619Y-63830387D01*
X143879372Y-63490845D01*
X144000640Y-63369788D01*
X143997560Y-63385000D01*
X143997560Y-64885000D01*
X144041838Y-65120317D01*
X144180910Y-65336441D01*
X144393110Y-65481431D01*
X144645000Y-65532440D01*
X145074197Y-65532440D01*
X145030241Y-65638298D01*
X145029760Y-66189285D01*
X145039503Y-66212866D01*
X145024368Y-66228001D01*
X137266856Y-66228001D01*
X137282759Y-66189702D01*
X137283240Y-65638715D01*
X137072831Y-65129485D01*
X136683564Y-64739539D01*
X136207826Y-64541995D01*
X136262759Y-64409702D01*
X136263240Y-63858715D01*
X136052831Y-63349485D01*
X135663564Y-62959539D01*
X135154702Y-62748241D01*
X134603715Y-62747760D01*
X134094485Y-62958169D01*
X133704539Y-63347436D01*
X133634503Y-63516102D01*
X133017605Y-64133000D01*
X133031748Y-64147143D01*
X132852143Y-64326748D01*
X132838000Y-64312605D01*
X132823858Y-64326748D01*
X132644253Y-64147143D01*
X132658395Y-64133000D01*
X132041801Y-63516406D01*
X131972831Y-63349485D01*
X131785157Y-63161483D01*
X132046088Y-63161483D01*
X132838000Y-63953395D01*
X133629912Y-63161483D01*
X133561923Y-62920540D01*
X133042829Y-62735799D01*
X132492552Y-62763770D01*
X132114077Y-62920540D01*
X132046088Y-63161483D01*
X131785157Y-63161483D01*
X131583564Y-62959539D01*
X131074702Y-62748241D01*
X130523715Y-62747760D01*
X130014485Y-62958169D01*
X129999097Y-62973530D01*
X129972090Y-62931559D01*
X129759890Y-62786569D01*
X129508000Y-62735560D01*
X128008000Y-62735560D01*
X127916436Y-62752789D01*
X128212611Y-62039519D01*
X128213387Y-61150381D01*
X127873845Y-60328628D01*
X127245679Y-59699364D01*
X126424519Y-59358389D01*
X125535381Y-59357613D01*
X124713628Y-59697155D01*
X124084364Y-60325321D01*
X124013748Y-60495385D01*
X123944845Y-60328628D01*
X123316679Y-59699364D01*
X122495519Y-59358389D01*
X121606381Y-59357613D01*
X120784628Y-59697155D01*
X120155364Y-60325321D01*
X119814389Y-61146481D01*
X119813613Y-62035619D01*
X120153155Y-62857372D01*
X120781321Y-63486636D01*
X121602481Y-63827611D01*
X122491619Y-63828387D01*
X123313372Y-63488845D01*
X123942636Y-62860679D01*
X124013252Y-62690615D01*
X124082155Y-62857372D01*
X124710321Y-63486636D01*
X125531481Y-63827611D01*
X126420619Y-63828387D01*
X127242372Y-63488845D01*
X127363640Y-63367788D01*
X127360560Y-63383000D01*
X127360560Y-64883000D01*
X127404838Y-65118317D01*
X127543910Y-65334441D01*
X127756110Y-65479431D01*
X128008000Y-65530440D01*
X128437197Y-65530440D01*
X128393241Y-65636298D01*
X128392760Y-66187285D01*
X128402503Y-66210866D01*
X128385368Y-66228001D01*
X120637856Y-66228001D01*
X120653759Y-66189702D01*
X120654240Y-65638715D01*
X120443831Y-65129485D01*
X120054564Y-64739539D01*
X119578826Y-64541995D01*
X119633759Y-64409702D01*
X119634240Y-63858715D01*
X119423831Y-63349485D01*
X119034564Y-62959539D01*
X118525702Y-62748241D01*
X117974715Y-62747760D01*
X117465485Y-62958169D01*
X117075539Y-63347436D01*
X117005503Y-63516102D01*
X116388605Y-64133000D01*
X116402748Y-64147143D01*
X116223143Y-64326748D01*
X116209000Y-64312605D01*
X116194858Y-64326748D01*
X116015253Y-64147143D01*
X116029395Y-64133000D01*
X115412801Y-63516406D01*
X115343831Y-63349485D01*
X115156157Y-63161483D01*
X115417088Y-63161483D01*
X116209000Y-63953395D01*
X117000912Y-63161483D01*
X116932923Y-62920540D01*
X116413829Y-62735799D01*
X115863552Y-62763770D01*
X115485077Y-62920540D01*
X115417088Y-63161483D01*
X115156157Y-63161483D01*
X114954564Y-62959539D01*
X114445702Y-62748241D01*
X113894715Y-62747760D01*
X113871134Y-62757504D01*
X113630813Y-62517183D01*
X113383604Y-62352003D01*
X113091999Y-62293999D01*
X111477942Y-62293999D01*
X111583611Y-62039519D01*
X111584387Y-61150381D01*
X111244845Y-60328628D01*
X110616679Y-59699364D01*
X109795519Y-59358389D01*
X108906381Y-59357613D01*
X108084628Y-59697155D01*
X107455364Y-60325321D01*
X107390000Y-60482735D01*
X107390000Y-57225000D01*
X173915000Y-57225000D01*
X173915000Y-60473794D01*
X173915000Y-60473794D01*
G37*
X173915000Y-60473794D02*
X173855845Y-60330628D01*
X173227679Y-59701364D01*
X172406519Y-59360389D01*
X171517381Y-59359613D01*
X170695628Y-59699155D01*
X170066364Y-60327321D01*
X169725389Y-61148481D01*
X169724613Y-62037619D01*
X170064155Y-62859372D01*
X170692321Y-63488636D01*
X171513481Y-63829611D01*
X172402619Y-63830387D01*
X173224372Y-63490845D01*
X173853636Y-62862679D01*
X173915000Y-62714898D01*
X173915000Y-73278712D01*
X172933470Y-72295467D01*
X171561197Y-71725650D01*
X170075322Y-71724353D01*
X168702056Y-72291775D01*
X167650467Y-73341530D01*
X167400440Y-73943662D01*
X167329526Y-73587152D01*
X167004670Y-73100971D01*
X166518489Y-72776115D01*
X165945000Y-72662041D01*
X165371511Y-72776115D01*
X164885330Y-73100971D01*
X164675000Y-73415752D01*
X164464670Y-73100971D01*
X163978489Y-72776115D01*
X163405000Y-72662041D01*
X162831511Y-72776115D01*
X162345330Y-73100971D01*
X162135000Y-73415752D01*
X161924670Y-73100971D01*
X161438489Y-72776115D01*
X160865000Y-72662041D01*
X160291511Y-72776115D01*
X159805330Y-73100971D01*
X159595000Y-73415752D01*
X159384670Y-73100971D01*
X158898489Y-72776115D01*
X158325000Y-72662041D01*
X157751511Y-72776115D01*
X157265330Y-73100971D01*
X157055000Y-73415752D01*
X156844670Y-73100971D01*
X156358489Y-72776115D01*
X155785000Y-72662041D01*
X155211511Y-72776115D01*
X154725330Y-73100971D01*
X154515000Y-73415752D01*
X154304670Y-73100971D01*
X153818489Y-72776115D01*
X153245000Y-72662041D01*
X152671511Y-72776115D01*
X152185330Y-73100971D01*
X151975000Y-73415752D01*
X151764670Y-73100971D01*
X151278489Y-72776115D01*
X150705000Y-72662041D01*
X150131511Y-72776115D01*
X149645330Y-73100971D01*
X149435000Y-73415752D01*
X149224670Y-73100971D01*
X148738489Y-72776115D01*
X148165000Y-72662041D01*
X147591511Y-72776115D01*
X147105330Y-73100971D01*
X146895000Y-73415752D01*
X146684670Y-73100971D01*
X146198489Y-72776115D01*
X145625000Y-72662041D01*
X145051511Y-72776115D01*
X144565330Y-73100971D01*
X144355000Y-73415752D01*
X144144670Y-73100971D01*
X143658489Y-72776115D01*
X143085000Y-72662041D01*
X142511511Y-72776115D01*
X142025330Y-73100971D01*
X141815000Y-73415752D01*
X141604670Y-73100971D01*
X141118489Y-72776115D01*
X140545000Y-72662041D01*
X139971511Y-72776115D01*
X139485330Y-73100971D01*
X139275000Y-73415752D01*
X139064670Y-73100971D01*
X138578489Y-72776115D01*
X138005000Y-72662041D01*
X137431511Y-72776115D01*
X136945330Y-73100971D01*
X136735000Y-73415752D01*
X136524670Y-73100971D01*
X136038489Y-72776115D01*
X135465000Y-72662041D01*
X134891511Y-72776115D01*
X134405330Y-73100971D01*
X134195000Y-73415752D01*
X133984670Y-73100971D01*
X133498489Y-72776115D01*
X132925000Y-72662041D01*
X132351511Y-72776115D01*
X131865330Y-73100971D01*
X131655000Y-73415752D01*
X131444670Y-73100971D01*
X130958489Y-72776115D01*
X130385000Y-72662041D01*
X129811511Y-72776115D01*
X129325330Y-73100971D01*
X129115000Y-73415752D01*
X128904670Y-73100971D01*
X128418489Y-72776115D01*
X127845000Y-72662041D01*
X127271511Y-72776115D01*
X126785330Y-73100971D01*
X126575000Y-73415752D01*
X126364670Y-73100971D01*
X125878489Y-72776115D01*
X125305000Y-72662041D01*
X124731511Y-72776115D01*
X124245330Y-73100971D01*
X124035000Y-73415752D01*
X123824670Y-73100971D01*
X123338489Y-72776115D01*
X122765000Y-72662041D01*
X122191511Y-72776115D01*
X121705330Y-73100971D01*
X121489336Y-73424228D01*
X121431821Y-73301510D01*
X120999947Y-72907312D01*
X120584026Y-72735042D01*
X120352000Y-72856183D01*
X120352000Y-74063000D01*
X120372000Y-74063000D01*
X120372000Y-74317000D01*
X120352000Y-74317000D01*
X120352000Y-74337000D01*
X120098000Y-74337000D01*
X120098000Y-74317000D01*
X117812000Y-74317000D01*
X117812000Y-74337000D01*
X117558000Y-74337000D01*
X117558000Y-74317000D01*
X117538000Y-74317000D01*
X117538000Y-74063000D01*
X117558000Y-74063000D01*
X117558000Y-72856183D01*
X117812000Y-72856183D01*
X117812000Y-74063000D01*
X120098000Y-74063000D01*
X120098000Y-72856183D01*
X119865974Y-72735042D01*
X119450053Y-72907312D01*
X119018179Y-73301510D01*
X118955000Y-73436313D01*
X118891821Y-73301510D01*
X118459947Y-72907312D01*
X118044026Y-72735042D01*
X117812000Y-72856183D01*
X117558000Y-72856183D01*
X117325974Y-72735042D01*
X116910053Y-72907312D01*
X116478179Y-73301510D01*
X116230032Y-73830973D01*
X116350530Y-74062998D01*
X116279046Y-74062998D01*
X115983225Y-73347056D01*
X114933470Y-72295467D01*
X113561197Y-71725650D01*
X112075322Y-71724353D01*
X110702056Y-72291775D01*
X109650467Y-73341530D01*
X109080650Y-74713803D01*
X109079353Y-76199678D01*
X109646775Y-77572944D01*
X110696530Y-78624533D01*
X111397702Y-78915685D01*
X111315381Y-78915613D01*
X110493628Y-79255155D01*
X109864364Y-79883321D01*
X109523389Y-80704481D01*
X109522613Y-81593619D01*
X109862155Y-82415372D01*
X110490321Y-83044636D01*
X111311481Y-83385611D01*
X112200619Y-83386387D01*
X113022372Y-83046845D01*
X113651636Y-82418679D01*
X113992611Y-81597519D01*
X113993387Y-80708381D01*
X113653845Y-79886628D01*
X113025679Y-79257364D01*
X112875620Y-79195054D01*
X113554678Y-79195647D01*
X114927944Y-78628225D01*
X115979533Y-77578470D01*
X116173960Y-77110237D01*
X116173960Y-77593600D01*
X116218238Y-77828917D01*
X116357310Y-78045041D01*
X116569510Y-78190031D01*
X116821400Y-78241040D01*
X118548600Y-78241040D01*
X118783917Y-78196762D01*
X119000041Y-78057690D01*
X119145031Y-77845490D01*
X119153864Y-77801869D01*
X119165330Y-77819029D01*
X119463000Y-78017926D01*
X119463000Y-80651800D01*
X119521004Y-80943405D01*
X119661051Y-81153000D01*
X119686185Y-81190615D01*
X126537385Y-88041815D01*
X126784595Y-88206996D01*
X126820778Y-88214193D01*
X126866110Y-88284641D01*
X127078310Y-88429631D01*
X127330200Y-88480640D01*
X127462143Y-88480640D01*
X127461838Y-88831167D01*
X127603883Y-89174943D01*
X127717741Y-89289000D01*
X117261721Y-89289000D01*
X117252831Y-89267485D01*
X116863564Y-88877539D01*
X116694898Y-88807503D01*
X116078000Y-88190605D01*
X116063858Y-88204748D01*
X115884253Y-88025143D01*
X115898395Y-88011000D01*
X116257605Y-88011000D01*
X117049517Y-88802912D01*
X117290460Y-88734923D01*
X117475201Y-88215829D01*
X117447230Y-87665552D01*
X117290460Y-87287077D01*
X117049517Y-87219088D01*
X116257605Y-88011000D01*
X115898395Y-88011000D01*
X115884253Y-87996858D01*
X116063858Y-87817253D01*
X116078000Y-87831395D01*
X116694594Y-87214801D01*
X116861515Y-87145831D01*
X117251461Y-86756564D01*
X117462759Y-86247702D01*
X117463240Y-85696715D01*
X117252831Y-85187485D01*
X117016687Y-84950929D01*
X117251461Y-84716564D01*
X117462759Y-84207702D01*
X117463240Y-83656715D01*
X117252831Y-83147485D01*
X116863564Y-82757539D01*
X116354702Y-82546241D01*
X115803715Y-82545760D01*
X115294485Y-82756169D01*
X114904539Y-83145436D01*
X114706995Y-83621174D01*
X114574702Y-83566241D01*
X114023715Y-83565760D01*
X113514485Y-83776169D01*
X113124539Y-84165436D01*
X112913241Y-84674298D01*
X112912760Y-85225285D01*
X113123169Y-85734515D01*
X113512436Y-86124461D01*
X113681102Y-86194497D01*
X114298000Y-86811395D01*
X114312143Y-86797253D01*
X114491748Y-86976858D01*
X114477605Y-86991000D01*
X114491748Y-87005143D01*
X114312143Y-87184748D01*
X114298000Y-87170605D01*
X113681406Y-87787199D01*
X113514485Y-87856169D01*
X113124539Y-88245436D01*
X112913241Y-88754298D01*
X112912760Y-89305285D01*
X113123169Y-89814515D01*
X113138530Y-89829903D01*
X113096559Y-89856910D01*
X112951569Y-90069110D01*
X112900560Y-90321000D01*
X112900560Y-91821000D01*
X112917789Y-91912564D01*
X112204519Y-91616389D01*
X111315381Y-91615613D01*
X110493628Y-91955155D01*
X109864364Y-92583321D01*
X109523389Y-93404481D01*
X109522613Y-94293619D01*
X109862155Y-95115372D01*
X110490321Y-95744636D01*
X110833001Y-95886929D01*
X110493628Y-96027155D01*
X109864364Y-96655321D01*
X109523389Y-97476481D01*
X109522613Y-98365619D01*
X109862155Y-99187372D01*
X110490321Y-99816636D01*
X111311481Y-100157611D01*
X112200619Y-100158387D01*
X113022372Y-99818845D01*
X113651636Y-99190679D01*
X113992611Y-98369519D01*
X113993387Y-97480381D01*
X113653845Y-96658628D01*
X113025679Y-96029364D01*
X112682999Y-95887071D01*
X113022372Y-95746845D01*
X113651636Y-95118679D01*
X113992611Y-94297519D01*
X113993387Y-93408381D01*
X113653845Y-92586628D01*
X113532788Y-92465360D01*
X113548000Y-92468440D01*
X115048000Y-92468440D01*
X115283317Y-92424162D01*
X115499441Y-92285090D01*
X115644431Y-92072890D01*
X115695440Y-91821000D01*
X115695440Y-91391803D01*
X115801298Y-91435759D01*
X116352285Y-91436240D01*
X116375866Y-91426496D01*
X116393001Y-91443631D01*
X116393001Y-99334144D01*
X116354702Y-99318241D01*
X115803715Y-99317760D01*
X115294485Y-99528169D01*
X114904539Y-99917436D01*
X114706995Y-100393174D01*
X114574702Y-100338241D01*
X114023715Y-100337760D01*
X113514485Y-100548169D01*
X113124539Y-100937436D01*
X112913241Y-101446298D01*
X112912760Y-101997285D01*
X113123169Y-102506515D01*
X113512436Y-102896461D01*
X113681102Y-102966497D01*
X114298000Y-103583395D01*
X114312143Y-103569253D01*
X114491748Y-103748858D01*
X114477605Y-103763000D01*
X114491748Y-103777143D01*
X114312143Y-103956748D01*
X114298000Y-103942605D01*
X113681406Y-104559199D01*
X113514485Y-104628169D01*
X113124539Y-105017436D01*
X112913241Y-105526298D01*
X112912760Y-106077285D01*
X113123169Y-106586515D01*
X113138530Y-106601903D01*
X113096559Y-106628910D01*
X112951569Y-106841110D01*
X112900560Y-107093000D01*
X112900560Y-108593000D01*
X112917789Y-108684564D01*
X112204519Y-108388389D01*
X111315381Y-108387613D01*
X110493628Y-108727155D01*
X109864364Y-109355321D01*
X109523389Y-110176481D01*
X109522613Y-111065619D01*
X109862155Y-111887372D01*
X110490321Y-112516636D01*
X111311481Y-112857611D01*
X112200619Y-112858387D01*
X113022372Y-112518845D01*
X113651636Y-111890679D01*
X113992611Y-111069519D01*
X113993387Y-110180381D01*
X113653845Y-109358628D01*
X113532788Y-109237360D01*
X113548000Y-109240440D01*
X115048000Y-109240440D01*
X115283317Y-109196162D01*
X115499441Y-109057090D01*
X115644431Y-108844890D01*
X115695440Y-108593000D01*
X115695440Y-108163803D01*
X115801298Y-108207759D01*
X116352285Y-108208240D01*
X116861515Y-107997831D01*
X116911401Y-107948031D01*
X126484127Y-117520757D01*
X126149077Y-117659540D01*
X126081088Y-117900483D01*
X126873000Y-118692395D01*
X126887143Y-118678253D01*
X127066748Y-118857858D01*
X127052605Y-118872000D01*
X127066748Y-118886143D01*
X126887143Y-119065748D01*
X126873000Y-119051605D01*
X126858858Y-119065748D01*
X126679253Y-118886143D01*
X126693395Y-118872000D01*
X126076801Y-118255406D01*
X126007831Y-118088485D01*
X125618564Y-117698539D01*
X125109702Y-117487241D01*
X124558715Y-117486760D01*
X124049485Y-117697169D01*
X123812929Y-117933313D01*
X123578564Y-117698539D01*
X123069702Y-117487241D01*
X122518715Y-117486760D01*
X122009485Y-117697169D01*
X121619539Y-118086436D01*
X121408241Y-118595298D01*
X121407760Y-119146285D01*
X121618169Y-119655515D01*
X122007436Y-120045461D01*
X122483174Y-120243005D01*
X122428241Y-120375298D01*
X122427760Y-120926285D01*
X122638169Y-121435515D01*
X123027436Y-121825461D01*
X123536298Y-122036759D01*
X124087285Y-122037240D01*
X124596515Y-121826831D01*
X124800183Y-121623517D01*
X125061088Y-121623517D01*
X125129077Y-121864460D01*
X125648171Y-122049201D01*
X126198448Y-122021230D01*
X126576923Y-121864460D01*
X126644912Y-121623517D01*
X125853000Y-120831605D01*
X125061088Y-121623517D01*
X124800183Y-121623517D01*
X124986461Y-121437564D01*
X125056497Y-121268898D01*
X125673395Y-120652000D01*
X125659253Y-120637858D01*
X125838858Y-120458253D01*
X125853000Y-120472395D01*
X125867143Y-120458253D01*
X126046748Y-120637858D01*
X126032605Y-120652000D01*
X126649199Y-121268594D01*
X126718169Y-121435515D01*
X127107436Y-121825461D01*
X127616298Y-122036759D01*
X128167285Y-122037240D01*
X128676515Y-121826831D01*
X128691903Y-121811470D01*
X128718910Y-121853441D01*
X128931110Y-121998431D01*
X129183000Y-122049440D01*
X130683000Y-122049440D01*
X130774564Y-122032211D01*
X130478389Y-122745481D01*
X130477613Y-123634619D01*
X130817155Y-124456372D01*
X131445321Y-125085636D01*
X132266481Y-125426611D01*
X133155619Y-125427387D01*
X133977372Y-125087845D01*
X134606636Y-124459679D01*
X134947611Y-123638519D01*
X134947614Y-123634619D01*
X135178613Y-123634619D01*
X135518155Y-124456372D01*
X136146321Y-125085636D01*
X136967481Y-125426611D01*
X137856619Y-125427387D01*
X138678372Y-125087845D01*
X139307636Y-124459679D01*
X139648611Y-123638519D01*
X139649387Y-122749381D01*
X139309845Y-121927628D01*
X138681679Y-121298364D01*
X137860519Y-120957389D01*
X136971381Y-120956613D01*
X136149628Y-121296155D01*
X135520364Y-121924321D01*
X135179389Y-122745481D01*
X135178613Y-123634619D01*
X134947614Y-123634619D01*
X134948387Y-122749381D01*
X134608845Y-121927628D01*
X133980679Y-121298364D01*
X133159519Y-120957389D01*
X132270381Y-120956613D01*
X131448628Y-121296155D01*
X131327360Y-121417212D01*
X131330440Y-121402000D01*
X131330440Y-119902000D01*
X131286162Y-119666683D01*
X131147090Y-119450559D01*
X130934890Y-119305569D01*
X130683000Y-119254560D01*
X130253803Y-119254560D01*
X130297759Y-119148702D01*
X130298240Y-118597715D01*
X130288496Y-118574134D01*
X130305631Y-118556999D01*
X138825144Y-118556999D01*
X138809241Y-118595298D01*
X138808760Y-119146285D01*
X139019169Y-119655515D01*
X139408436Y-120045461D01*
X139884174Y-120243005D01*
X139829241Y-120375298D01*
X139828760Y-120926285D01*
X140039169Y-121435515D01*
X140428436Y-121825461D01*
X140937298Y-122036759D01*
X141488285Y-122037240D01*
X141997515Y-121826831D01*
X142201183Y-121623517D01*
X142462088Y-121623517D01*
X142530077Y-121864460D01*
X143049171Y-122049201D01*
X143599448Y-122021230D01*
X143977923Y-121864460D01*
X144045912Y-121623517D01*
X143254000Y-120831605D01*
X142462088Y-121623517D01*
X142201183Y-121623517D01*
X142387461Y-121437564D01*
X142457497Y-121268898D01*
X143074395Y-120652000D01*
X143060253Y-120637858D01*
X143239858Y-120458253D01*
X143254000Y-120472395D01*
X143268143Y-120458253D01*
X143447748Y-120637858D01*
X143433605Y-120652000D01*
X144050199Y-121268594D01*
X144119169Y-121435515D01*
X144508436Y-121825461D01*
X145017298Y-122036759D01*
X145568285Y-122037240D01*
X145591866Y-122027497D01*
X145832185Y-122267816D01*
X145981518Y-122367597D01*
X146079396Y-122432997D01*
X146371001Y-122491001D01*
X147985058Y-122491001D01*
X147879389Y-122745481D01*
X147878613Y-123634619D01*
X148218155Y-124456372D01*
X148846321Y-125085636D01*
X149667481Y-125426611D01*
X150556619Y-125427387D01*
X151378372Y-125087845D01*
X152007636Y-124459679D01*
X152348611Y-123638519D01*
X152349387Y-122749381D01*
X152009845Y-121927628D01*
X151381679Y-121298364D01*
X151152795Y-121203323D01*
X156082516Y-121203323D01*
X156506981Y-122230606D01*
X157292260Y-123017257D01*
X158318801Y-123443514D01*
X159430323Y-123444484D01*
X160457606Y-123020019D01*
X161244257Y-122234740D01*
X161670514Y-121208199D01*
X161671484Y-120096677D01*
X161389839Y-119415046D01*
X161991260Y-120017517D01*
X163017801Y-120443774D01*
X164129323Y-120444744D01*
X165156606Y-120020279D01*
X165943257Y-119235000D01*
X166369514Y-118208459D01*
X166370484Y-117096937D01*
X165946019Y-116069654D01*
X165160740Y-115283003D01*
X164134199Y-114856746D01*
X163022677Y-114855776D01*
X161995394Y-115280241D01*
X161391872Y-115882710D01*
X161673921Y-115191393D01*
X161668001Y-114079886D01*
X161254035Y-113080483D01*
X160866790Y-112840335D01*
X159056605Y-114650520D01*
X160866790Y-116460705D01*
X161106331Y-116312155D01*
X160782486Y-117092061D01*
X160781516Y-118203583D01*
X161063161Y-118885214D01*
X160461740Y-118282743D01*
X159435199Y-117856486D01*
X158323677Y-117855516D01*
X157296394Y-118279981D01*
X156509743Y-119065260D01*
X156083486Y-120091801D01*
X156082516Y-121203323D01*
X151152795Y-121203323D01*
X150560519Y-120957389D01*
X149671381Y-120956613D01*
X149173001Y-121162540D01*
X149173001Y-118058001D01*
X149114997Y-117766396D01*
X148949816Y-117519186D01*
X148070940Y-116640310D01*
X157066815Y-116640310D01*
X157306963Y-117027555D01*
X158336127Y-117447441D01*
X159447634Y-117441521D01*
X160447037Y-117027555D01*
X160687185Y-116640310D01*
X158877000Y-114830125D01*
X157066815Y-116640310D01*
X148070940Y-116640310D01*
X147350814Y-115920184D01*
X147103605Y-115755004D01*
X146812000Y-115697000D01*
X133021466Y-115697000D01*
X132991327Y-115666808D01*
X132647799Y-115524162D01*
X132275833Y-115523838D01*
X131932057Y-115665883D01*
X131900886Y-115697000D01*
X129220631Y-115697000D01*
X127633278Y-114109647D01*
X156080079Y-114109647D01*
X156085999Y-115221154D01*
X156499965Y-116220557D01*
X156887210Y-116460705D01*
X158697395Y-114650520D01*
X156887210Y-112840335D01*
X156499965Y-113080483D01*
X156080079Y-114109647D01*
X127633278Y-114109647D01*
X126184361Y-112660730D01*
X157066815Y-112660730D01*
X158877000Y-114470915D01*
X160687185Y-112660730D01*
X160447037Y-112273485D01*
X159417873Y-111853599D01*
X158306366Y-111859519D01*
X157306963Y-112273485D01*
X157066815Y-112660730D01*
X126184361Y-112660730D01*
X121331125Y-107807495D01*
X121331162Y-107764833D01*
X121189117Y-107421057D01*
X121158000Y-107389886D01*
X121158000Y-92329000D01*
X121099996Y-92037395D01*
X121060854Y-91978815D01*
X121009529Y-91902001D01*
X129720989Y-91902001D01*
X130012594Y-91843997D01*
X130259804Y-91678816D01*
X132349505Y-89589115D01*
X132392167Y-89589152D01*
X132735943Y-89447107D01*
X132794712Y-89388440D01*
X132947815Y-89357986D01*
X133195025Y-89192805D01*
X133907191Y-88480640D01*
X135509000Y-88480640D01*
X135744317Y-88436362D01*
X135960441Y-88297290D01*
X135982504Y-88265000D01*
X136336369Y-88265000D01*
X136494184Y-88422815D01*
X136741395Y-88587996D01*
X137033000Y-88646000D01*
X137147634Y-88646000D01*
X137170838Y-88769317D01*
X137309910Y-88985441D01*
X137522110Y-89130431D01*
X137774000Y-89181440D01*
X139274000Y-89181440D01*
X139509317Y-89137162D01*
X139725441Y-88998090D01*
X139870431Y-88785890D01*
X139877191Y-88752510D01*
X139935673Y-88893699D01*
X140114302Y-89072327D01*
X140347691Y-89169000D01*
X140938250Y-89169000D01*
X141097000Y-89010250D01*
X141097000Y-88011000D01*
X141351000Y-88011000D01*
X141351000Y-89010250D01*
X141509750Y-89169000D01*
X142100309Y-89169000D01*
X142333698Y-89072327D01*
X142512327Y-88893699D01*
X142609000Y-88660310D01*
X142609000Y-88169750D01*
X142450250Y-88011000D01*
X141351000Y-88011000D01*
X141097000Y-88011000D01*
X141077000Y-88011000D01*
X141077000Y-87757000D01*
X141097000Y-87757000D01*
X141097000Y-86757750D01*
X141080250Y-86741000D01*
X141097000Y-86724250D01*
X141097000Y-85725000D01*
X141351000Y-85725000D01*
X141351000Y-86724250D01*
X141367750Y-86741000D01*
X141351000Y-86757750D01*
X141351000Y-87757000D01*
X142450250Y-87757000D01*
X142609000Y-87598250D01*
X142609000Y-87107690D01*
X142512327Y-86874301D01*
X142379025Y-86741000D01*
X142512327Y-86607699D01*
X142609000Y-86374310D01*
X142609000Y-85883750D01*
X142450250Y-85725000D01*
X141351000Y-85725000D01*
X141097000Y-85725000D01*
X141077000Y-85725000D01*
X141077000Y-85471000D01*
X141097000Y-85471000D01*
X141097000Y-84471750D01*
X141351000Y-84471750D01*
X141351000Y-85471000D01*
X142450250Y-85471000D01*
X142609000Y-85312250D01*
X142609000Y-84821690D01*
X142512327Y-84588301D01*
X142333698Y-84409673D01*
X142100309Y-84313000D01*
X141509750Y-84313000D01*
X141351000Y-84471750D01*
X141097000Y-84471750D01*
X140938250Y-84313000D01*
X140347691Y-84313000D01*
X140114302Y-84409673D01*
X139935673Y-84588301D01*
X139879346Y-84724287D01*
X139877162Y-84712683D01*
X139738090Y-84496559D01*
X139525890Y-84351569D01*
X139274000Y-84300560D01*
X137774000Y-84300560D01*
X137538683Y-84344838D01*
X137322559Y-84483910D01*
X137177569Y-84696110D01*
X137149241Y-84836000D01*
X137109476Y-84836000D01*
X137109476Y-84835999D01*
X137160000Y-84582000D01*
X137160000Y-84074000D01*
X137101996Y-83782395D01*
X137011939Y-83647615D01*
X136936815Y-83535184D01*
X136555815Y-83154185D01*
X136515853Y-83127483D01*
X136308605Y-82989004D01*
X136017000Y-82931000D01*
X135985729Y-82931000D01*
X135973090Y-82911359D01*
X135760890Y-82766369D01*
X135509000Y-82715360D01*
X135255000Y-82715360D01*
X135255000Y-82323440D01*
X136513000Y-82323440D01*
X136748317Y-82279162D01*
X136964441Y-82140090D01*
X137109431Y-81927890D01*
X137116191Y-81894510D01*
X137174673Y-82035699D01*
X137353302Y-82214327D01*
X137586691Y-82311000D01*
X138177250Y-82311000D01*
X138336000Y-82152250D01*
X138336000Y-81153000D01*
X138590000Y-81153000D01*
X138590000Y-82152250D01*
X138748750Y-82311000D01*
X139339309Y-82311000D01*
X139572698Y-82214327D01*
X139751327Y-82035699D01*
X139848000Y-81802310D01*
X139848000Y-81311750D01*
X139689250Y-81153000D01*
X138590000Y-81153000D01*
X138336000Y-81153000D01*
X138316000Y-81153000D01*
X138316000Y-80899000D01*
X138336000Y-80899000D01*
X138336000Y-79899750D01*
X138590000Y-79899750D01*
X138590000Y-80899000D01*
X139689250Y-80899000D01*
X139848000Y-80740250D01*
X139848000Y-80249690D01*
X139751327Y-80016301D01*
X139572698Y-79837673D01*
X139339309Y-79741000D01*
X138748750Y-79741000D01*
X138590000Y-79899750D01*
X138336000Y-79899750D01*
X138177250Y-79741000D01*
X137586691Y-79741000D01*
X137353302Y-79837673D01*
X137174673Y-80016301D01*
X137118346Y-80152287D01*
X137116162Y-80140683D01*
X136977090Y-79924559D01*
X136764890Y-79779569D01*
X136513000Y-79728560D01*
X136084070Y-79728560D01*
X137629385Y-78183245D01*
X138005000Y-78257959D01*
X138380615Y-78183245D01*
X159327186Y-99129817D01*
X159475378Y-99228835D01*
X159574396Y-99294997D01*
X159866001Y-99353001D01*
X169445411Y-99353001D01*
X169427907Y-99441000D01*
X169540946Y-100009285D01*
X169862853Y-100491054D01*
X170192026Y-100711000D01*
X169862853Y-100930946D01*
X169540946Y-101412715D01*
X169427907Y-101981000D01*
X169540946Y-102549285D01*
X169862853Y-103031054D01*
X169904452Y-103058850D01*
X169856683Y-103067838D01*
X169640559Y-103206910D01*
X169495569Y-103419110D01*
X169444560Y-103671000D01*
X169444560Y-105371000D01*
X169488838Y-105606317D01*
X169627910Y-105822441D01*
X169840110Y-105967431D01*
X170092000Y-106018440D01*
X171792000Y-106018440D01*
X172027317Y-105974162D01*
X172243441Y-105835090D01*
X172388431Y-105622890D01*
X172439440Y-105371000D01*
X172439440Y-103671000D01*
X172395162Y-103435683D01*
X172256090Y-103219559D01*
X172043890Y-103074569D01*
X171976459Y-103060914D01*
X172021147Y-103031054D01*
X172343054Y-102549285D01*
X172456093Y-101981000D01*
X172343054Y-101412715D01*
X172021147Y-100930946D01*
X171691974Y-100711000D01*
X172021147Y-100491054D01*
X172343054Y-100009285D01*
X172456093Y-99441000D01*
X172343054Y-98872715D01*
X172021147Y-98390946D01*
X171691974Y-98171000D01*
X172021147Y-97951054D01*
X172343054Y-97469285D01*
X172456093Y-96901000D01*
X172383679Y-96536952D01*
X172657817Y-96262814D01*
X172775701Y-96086387D01*
X172822997Y-96015604D01*
X172881001Y-95723999D01*
X172881001Y-86176039D01*
X172822997Y-85884434D01*
X172822540Y-85883750D01*
X172657816Y-85637223D01*
X164614854Y-77594262D01*
X164675000Y-77504248D01*
X164885330Y-77819029D01*
X165371511Y-78143885D01*
X165945000Y-78257959D01*
X166518489Y-78143885D01*
X167004670Y-77819029D01*
X167329526Y-77332848D01*
X167400382Y-76976628D01*
X167646775Y-77572944D01*
X168696530Y-78624533D01*
X170068803Y-79194350D01*
X171554678Y-79195647D01*
X172927944Y-78628225D01*
X173915000Y-77642890D01*
X173915000Y-122278712D01*
X172933470Y-121295467D01*
X171561197Y-120725650D01*
X170075322Y-120724353D01*
X168702056Y-121291775D01*
X167650467Y-122341530D01*
X167080650Y-123713803D01*
X167079353Y-125199678D01*
X167646775Y-126572944D01*
X168632110Y-127560000D01*
X114996288Y-127560000D01*
X115979533Y-126578470D01*
X116549350Y-125206197D01*
X116550647Y-123720322D01*
X116515236Y-123634619D01*
X117777613Y-123634619D01*
X118117155Y-124456372D01*
X118745321Y-125085636D01*
X119566481Y-125426611D01*
X120455619Y-125427387D01*
X121277372Y-125087845D01*
X121906636Y-124459679D01*
X122247611Y-123638519D01*
X122248387Y-122749381D01*
X121908845Y-121927628D01*
X121280679Y-121298364D01*
X120459519Y-120957389D01*
X119570381Y-120956613D01*
X118748628Y-121296155D01*
X118119364Y-121924321D01*
X117778389Y-122745481D01*
X117777613Y-123634619D01*
X116515236Y-123634619D01*
X115983225Y-122347056D01*
X114933470Y-121295467D01*
X113561197Y-120725650D01*
X112075322Y-120724353D01*
X110702056Y-121291775D01*
X109650467Y-122341530D01*
X109080650Y-123713803D01*
X109079353Y-125199678D01*
X109646775Y-126572944D01*
X110632110Y-127560000D01*
X107390000Y-127560000D01*
X107390000Y-103558171D01*
X112900799Y-103558171D01*
X112928770Y-104108448D01*
X113085540Y-104486923D01*
X113326483Y-104554912D01*
X114118395Y-103763000D01*
X113326483Y-102971088D01*
X113085540Y-103039077D01*
X112900799Y-103558171D01*
X107390000Y-103558171D01*
X107390000Y-86786171D01*
X112900799Y-86786171D01*
X112928770Y-87336448D01*
X113085540Y-87714923D01*
X113326483Y-87782912D01*
X114118395Y-86991000D01*
X113326483Y-86199088D01*
X113085540Y-86267077D01*
X112900799Y-86786171D01*
X107390000Y-86786171D01*
X107390000Y-62704525D01*
X107453155Y-62857372D01*
X108081321Y-63486636D01*
X108902481Y-63827611D01*
X109791619Y-63828387D01*
X110289999Y-63622460D01*
X110289999Y-67236999D01*
X110348003Y-67528604D01*
X110459852Y-67695997D01*
X110513184Y-67775814D01*
X112110184Y-69372815D01*
X112357395Y-69537996D01*
X112649000Y-69596000D01*
X126058534Y-69596000D01*
X126088673Y-69626192D01*
X126432201Y-69768838D01*
X126804167Y-69769162D01*
X127147943Y-69627117D01*
X127179114Y-69596000D01*
X143203534Y-69596000D01*
X143233673Y-69626192D01*
X143577201Y-69768838D01*
X143949167Y-69769162D01*
X144292943Y-69627117D01*
X144324114Y-69596000D01*
X159840534Y-69596000D01*
X159870673Y-69626192D01*
X160214201Y-69768838D01*
X160586167Y-69769162D01*
X160929943Y-69627117D01*
X161193192Y-69364327D01*
X161335838Y-69020799D01*
X161336079Y-68744067D01*
X161357201Y-68752838D01*
X161729167Y-68753162D01*
X162072943Y-68611117D01*
X162336192Y-68348327D01*
X162478838Y-68004799D01*
X162479162Y-67632833D01*
X162455357Y-67575221D01*
X162521814Y-67530816D01*
X162761799Y-67290832D01*
X162783298Y-67299759D01*
X163334285Y-67300240D01*
X163843515Y-67089831D01*
X164047183Y-66886517D01*
X164308088Y-66886517D01*
X164376077Y-67127460D01*
X164895171Y-67312201D01*
X165445448Y-67284230D01*
X165823923Y-67127460D01*
X165891912Y-66886517D01*
X165100000Y-66094605D01*
X164308088Y-66886517D01*
X164047183Y-66886517D01*
X164233461Y-66700564D01*
X164303497Y-66531898D01*
X164920395Y-65915000D01*
X164906253Y-65900858D01*
X165085858Y-65721253D01*
X165100000Y-65735395D01*
X165114143Y-65721253D01*
X165293748Y-65900858D01*
X165279605Y-65915000D01*
X165896199Y-66531594D01*
X165965169Y-66698515D01*
X166354436Y-67088461D01*
X166863298Y-67299759D01*
X167414285Y-67300240D01*
X167923515Y-67089831D01*
X168160071Y-66853687D01*
X168394436Y-67088461D01*
X168903298Y-67299759D01*
X169454285Y-67300240D01*
X169963515Y-67089831D01*
X170353461Y-66700564D01*
X170564759Y-66191702D01*
X170565240Y-65640715D01*
X170354831Y-65131485D01*
X169965564Y-64741539D01*
X169489826Y-64543995D01*
X169544759Y-64411702D01*
X169545240Y-63860715D01*
X169334831Y-63351485D01*
X168945564Y-62961539D01*
X168436702Y-62750241D01*
X167885715Y-62749760D01*
X167376485Y-62960169D01*
X166986539Y-63349436D01*
X166916503Y-63518102D01*
X166299605Y-64135000D01*
X166313748Y-64149143D01*
X166134143Y-64328748D01*
X166120000Y-64314605D01*
X166105858Y-64328748D01*
X165926253Y-64149143D01*
X165940395Y-64135000D01*
X165323801Y-63518406D01*
X165254831Y-63351485D01*
X165067157Y-63163483D01*
X165328088Y-63163483D01*
X166120000Y-63955395D01*
X166911912Y-63163483D01*
X166843923Y-62922540D01*
X166324829Y-62737799D01*
X165774552Y-62765770D01*
X165396077Y-62922540D01*
X165328088Y-63163483D01*
X165067157Y-63163483D01*
X164865564Y-62961539D01*
X164356702Y-62750241D01*
X163805715Y-62749760D01*
X163296485Y-62960169D01*
X163281097Y-62975530D01*
X163254090Y-62933559D01*
X163041890Y-62788569D01*
X162790000Y-62737560D01*
X161290000Y-62737560D01*
X161198436Y-62754789D01*
X161494611Y-62041519D01*
X161495387Y-61152381D01*
X161155845Y-60330628D01*
X160527679Y-59701364D01*
X159706519Y-59360389D01*
X158817381Y-59359613D01*
X157995628Y-59699155D01*
X157366364Y-60327321D01*
X157287728Y-60516698D01*
X157210845Y-60330628D01*
X156582679Y-59701364D01*
X155761519Y-59360389D01*
X154872381Y-59359613D01*
X154050628Y-59699155D01*
X153421364Y-60327321D01*
X153080389Y-61148481D01*
X153079613Y-62037619D01*
X153419155Y-62859372D01*
X154047321Y-63488636D01*
X154868481Y-63829611D01*
X155757619Y-63830387D01*
X156579372Y-63490845D01*
X157208636Y-62862679D01*
X157287272Y-62673302D01*
X157364155Y-62859372D01*
X157992321Y-63488636D01*
X158813481Y-63829611D01*
X159702619Y-63830387D01*
X160524372Y-63490845D01*
X160645640Y-63369788D01*
X160642560Y-63385000D01*
X160642560Y-64885000D01*
X160686838Y-65120317D01*
X160825910Y-65336441D01*
X161038110Y-65481431D01*
X161290000Y-65532440D01*
X161719197Y-65532440D01*
X161675241Y-65638298D01*
X161674760Y-66189285D01*
X161684503Y-66212866D01*
X161667368Y-66230001D01*
X153903856Y-66230001D01*
X153919759Y-66191702D01*
X153920240Y-65640715D01*
X153709831Y-65131485D01*
X153320564Y-64741539D01*
X152844826Y-64543995D01*
X152899759Y-64411702D01*
X152900240Y-63860715D01*
X152689831Y-63351485D01*
X152300564Y-62961539D01*
X151791702Y-62750241D01*
X151240715Y-62749760D01*
X150731485Y-62960169D01*
X150341539Y-63349436D01*
X150271503Y-63518102D01*
X149654605Y-64135000D01*
X149668748Y-64149143D01*
X149489143Y-64328748D01*
X149475000Y-64314605D01*
X149460858Y-64328748D01*
X149281253Y-64149143D01*
X149295395Y-64135000D01*
X148678801Y-63518406D01*
X148609831Y-63351485D01*
X148422157Y-63163483D01*
X148683088Y-63163483D01*
X149475000Y-63955395D01*
X150266912Y-63163483D01*
X150198923Y-62922540D01*
X149679829Y-62737799D01*
X149129552Y-62765770D01*
X148751077Y-62922540D01*
X148683088Y-63163483D01*
X148422157Y-63163483D01*
X148220564Y-62961539D01*
X147711702Y-62750241D01*
X147160715Y-62749760D01*
X146651485Y-62960169D01*
X146636097Y-62975530D01*
X146609090Y-62933559D01*
X146396890Y-62788569D01*
X146145000Y-62737560D01*
X144645000Y-62737560D01*
X144553436Y-62754789D01*
X144849611Y-62041519D01*
X144850387Y-61152381D01*
X144510845Y-60330628D01*
X143882679Y-59701364D01*
X143061519Y-59360389D01*
X142172381Y-59359613D01*
X141350628Y-59699155D01*
X140721364Y-60327321D01*
X140647152Y-60506044D01*
X140573845Y-60328628D01*
X139945679Y-59699364D01*
X139124519Y-59358389D01*
X138235381Y-59357613D01*
X137413628Y-59697155D01*
X136784364Y-60325321D01*
X136443389Y-61146481D01*
X136442613Y-62035619D01*
X136782155Y-62857372D01*
X137410321Y-63486636D01*
X138231481Y-63827611D01*
X139120619Y-63828387D01*
X139942372Y-63488845D01*
X140571636Y-62860679D01*
X140645848Y-62681956D01*
X140719155Y-62859372D01*
X141347321Y-63488636D01*
X142168481Y-63829611D01*
X143057619Y-63830387D01*
X143879372Y-63490845D01*
X144000640Y-63369788D01*
X143997560Y-63385000D01*
X143997560Y-64885000D01*
X144041838Y-65120317D01*
X144180910Y-65336441D01*
X144393110Y-65481431D01*
X144645000Y-65532440D01*
X145074197Y-65532440D01*
X145030241Y-65638298D01*
X145029760Y-66189285D01*
X145039503Y-66212866D01*
X145024368Y-66228001D01*
X137266856Y-66228001D01*
X137282759Y-66189702D01*
X137283240Y-65638715D01*
X137072831Y-65129485D01*
X136683564Y-64739539D01*
X136207826Y-64541995D01*
X136262759Y-64409702D01*
X136263240Y-63858715D01*
X136052831Y-63349485D01*
X135663564Y-62959539D01*
X135154702Y-62748241D01*
X134603715Y-62747760D01*
X134094485Y-62958169D01*
X133704539Y-63347436D01*
X133634503Y-63516102D01*
X133017605Y-64133000D01*
X133031748Y-64147143D01*
X132852143Y-64326748D01*
X132838000Y-64312605D01*
X132823858Y-64326748D01*
X132644253Y-64147143D01*
X132658395Y-64133000D01*
X132041801Y-63516406D01*
X131972831Y-63349485D01*
X131785157Y-63161483D01*
X132046088Y-63161483D01*
X132838000Y-63953395D01*
X133629912Y-63161483D01*
X133561923Y-62920540D01*
X133042829Y-62735799D01*
X132492552Y-62763770D01*
X132114077Y-62920540D01*
X132046088Y-63161483D01*
X131785157Y-63161483D01*
X131583564Y-62959539D01*
X131074702Y-62748241D01*
X130523715Y-62747760D01*
X130014485Y-62958169D01*
X129999097Y-62973530D01*
X129972090Y-62931559D01*
X129759890Y-62786569D01*
X129508000Y-62735560D01*
X128008000Y-62735560D01*
X127916436Y-62752789D01*
X128212611Y-62039519D01*
X128213387Y-61150381D01*
X127873845Y-60328628D01*
X127245679Y-59699364D01*
X126424519Y-59358389D01*
X125535381Y-59357613D01*
X124713628Y-59697155D01*
X124084364Y-60325321D01*
X124013748Y-60495385D01*
X123944845Y-60328628D01*
X123316679Y-59699364D01*
X122495519Y-59358389D01*
X121606381Y-59357613D01*
X120784628Y-59697155D01*
X120155364Y-60325321D01*
X119814389Y-61146481D01*
X119813613Y-62035619D01*
X120153155Y-62857372D01*
X120781321Y-63486636D01*
X121602481Y-63827611D01*
X122491619Y-63828387D01*
X123313372Y-63488845D01*
X123942636Y-62860679D01*
X124013252Y-62690615D01*
X124082155Y-62857372D01*
X124710321Y-63486636D01*
X125531481Y-63827611D01*
X126420619Y-63828387D01*
X127242372Y-63488845D01*
X127363640Y-63367788D01*
X127360560Y-63383000D01*
X127360560Y-64883000D01*
X127404838Y-65118317D01*
X127543910Y-65334441D01*
X127756110Y-65479431D01*
X128008000Y-65530440D01*
X128437197Y-65530440D01*
X128393241Y-65636298D01*
X128392760Y-66187285D01*
X128402503Y-66210866D01*
X128385368Y-66228001D01*
X120637856Y-66228001D01*
X120653759Y-66189702D01*
X120654240Y-65638715D01*
X120443831Y-65129485D01*
X120054564Y-64739539D01*
X119578826Y-64541995D01*
X119633759Y-64409702D01*
X119634240Y-63858715D01*
X119423831Y-63349485D01*
X119034564Y-62959539D01*
X118525702Y-62748241D01*
X117974715Y-62747760D01*
X117465485Y-62958169D01*
X117075539Y-63347436D01*
X117005503Y-63516102D01*
X116388605Y-64133000D01*
X116402748Y-64147143D01*
X116223143Y-64326748D01*
X116209000Y-64312605D01*
X116194858Y-64326748D01*
X116015253Y-64147143D01*
X116029395Y-64133000D01*
X115412801Y-63516406D01*
X115343831Y-63349485D01*
X115156157Y-63161483D01*
X115417088Y-63161483D01*
X116209000Y-63953395D01*
X117000912Y-63161483D01*
X116932923Y-62920540D01*
X116413829Y-62735799D01*
X115863552Y-62763770D01*
X115485077Y-62920540D01*
X115417088Y-63161483D01*
X115156157Y-63161483D01*
X114954564Y-62959539D01*
X114445702Y-62748241D01*
X113894715Y-62747760D01*
X113871134Y-62757504D01*
X113630813Y-62517183D01*
X113383604Y-62352003D01*
X113091999Y-62293999D01*
X111477942Y-62293999D01*
X111583611Y-62039519D01*
X111584387Y-61150381D01*
X111244845Y-60328628D01*
X110616679Y-59699364D01*
X109795519Y-59358389D01*
X108906381Y-59357613D01*
X108084628Y-59697155D01*
X107455364Y-60325321D01*
X107390000Y-60482735D01*
X107390000Y-57225000D01*
X173915000Y-57225000D01*
X173915000Y-60473794D01*
G36*
X144467748Y-118857858D02*
X144453605Y-118872000D01*
X144467748Y-118886143D01*
X144288143Y-119065748D01*
X144274000Y-119051605D01*
X144259858Y-119065748D01*
X144080253Y-118886143D01*
X144094395Y-118872000D01*
X144080253Y-118857858D01*
X144259858Y-118678253D01*
X144274000Y-118692395D01*
X144288143Y-118678253D01*
X144467748Y-118857858D01*
X144467748Y-118857858D01*
G37*
X144467748Y-118857858D02*
X144453605Y-118872000D01*
X144467748Y-118886143D01*
X144288143Y-119065748D01*
X144274000Y-119051605D01*
X144259858Y-119065748D01*
X144080253Y-118886143D01*
X144094395Y-118872000D01*
X144080253Y-118857858D01*
X144259858Y-118678253D01*
X144274000Y-118692395D01*
X144288143Y-118678253D01*
X144467748Y-118857858D01*
G36*
X116271748Y-104768858D02*
X116257605Y-104783000D01*
X116271748Y-104797143D01*
X116092143Y-104976748D01*
X116078000Y-104962605D01*
X116063858Y-104976748D01*
X115884253Y-104797143D01*
X115898395Y-104783000D01*
X115884253Y-104768858D01*
X116063858Y-104589253D01*
X116078000Y-104603395D01*
X116092143Y-104589253D01*
X116271748Y-104768858D01*
X116271748Y-104768858D01*
G37*
X116271748Y-104768858D02*
X116257605Y-104783000D01*
X116271748Y-104797143D01*
X116092143Y-104976748D01*
X116078000Y-104962605D01*
X116063858Y-104976748D01*
X115884253Y-104797143D01*
X115898395Y-104783000D01*
X115884253Y-104768858D01*
X116063858Y-104589253D01*
X116078000Y-104603395D01*
X116092143Y-104589253D01*
X116271748Y-104768858D01*
G36*
X148648748Y-65900858D02*
X148634605Y-65915000D01*
X148648748Y-65929143D01*
X148469143Y-66108748D01*
X148455000Y-66094605D01*
X148440858Y-66108748D01*
X148261253Y-65929143D01*
X148275395Y-65915000D01*
X148261253Y-65900858D01*
X148440858Y-65721253D01*
X148455000Y-65735395D01*
X148469143Y-65721253D01*
X148648748Y-65900858D01*
X148648748Y-65900858D01*
G37*
X148648748Y-65900858D02*
X148634605Y-65915000D01*
X148648748Y-65929143D01*
X148469143Y-66108748D01*
X148455000Y-66094605D01*
X148440858Y-66108748D01*
X148261253Y-65929143D01*
X148275395Y-65915000D01*
X148261253Y-65900858D01*
X148440858Y-65721253D01*
X148455000Y-65735395D01*
X148469143Y-65721253D01*
X148648748Y-65900858D01*
G36*
X132011748Y-65898858D02*
X131997605Y-65913000D01*
X132011748Y-65927143D01*
X131832143Y-66106748D01*
X131818000Y-66092605D01*
X131803858Y-66106748D01*
X131624253Y-65927143D01*
X131638395Y-65913000D01*
X131624253Y-65898858D01*
X131803858Y-65719253D01*
X131818000Y-65733395D01*
X131832143Y-65719253D01*
X132011748Y-65898858D01*
X132011748Y-65898858D01*
G37*
X132011748Y-65898858D02*
X131997605Y-65913000D01*
X132011748Y-65927143D01*
X131832143Y-66106748D01*
X131818000Y-66092605D01*
X131803858Y-66106748D01*
X131624253Y-65927143D01*
X131638395Y-65913000D01*
X131624253Y-65898858D01*
X131803858Y-65719253D01*
X131818000Y-65733395D01*
X131832143Y-65719253D01*
X132011748Y-65898858D01*
G36*
X115382748Y-65898858D02*
X115368605Y-65913000D01*
X115382748Y-65927143D01*
X115203143Y-66106748D01*
X115189000Y-66092605D01*
X115174858Y-66106748D01*
X114995253Y-65927143D01*
X115009395Y-65913000D01*
X114995253Y-65898858D01*
X115174858Y-65719253D01*
X115189000Y-65733395D01*
X115203143Y-65719253D01*
X115382748Y-65898858D01*
X115382748Y-65898858D01*
G37*
X115382748Y-65898858D02*
X115368605Y-65913000D01*
X115382748Y-65927143D01*
X115203143Y-66106748D01*
X115189000Y-66092605D01*
X115174858Y-66106748D01*
X114995253Y-65927143D01*
X115009395Y-65913000D01*
X114995253Y-65898858D01*
X115174858Y-65719253D01*
X115189000Y-65733395D01*
X115203143Y-65719253D01*
X115382748Y-65898858D01*
M02*
