M48
INCH,TZ
T1C0.016
T2C0.035
T3C0.039
T4C0.040
T5C0.118
T6C0.108
T7C0.126
%
G90
G05
T1
X46450Y-36000
X46850Y-42450
X47200Y-36150
X47400Y-42500
X49503Y-31300
X49800Y-33720
X49850Y-27100
X50250Y-26750
X50550Y-34900
X50750Y-32500
X51518Y-26374
X51700Y-46100
X52050Y-34903
X52150Y-45850
X52200Y-34197
X55150Y-31900
X56350Y-33700
X56350Y-34600
X56600Y-27100
X57000Y-26700
X63150Y-27100
X63600Y-26700
T2
X44145Y-25249
X44547Y-25950
X44948Y-25249
X44999Y-33445
X44999Y-34248
X44999Y-35052
X44999Y-35855
X44999Y-40048
X44999Y-40852
X44999Y-41655
X44999Y-42458
X45350Y-25950
X45700Y-33044
X45700Y-33847
X45700Y-34650
X45700Y-35453
X45700Y-39647
X45700Y-40450
X45700Y-41253
X45700Y-42056
X45752Y-25249
X46153Y-25950
X46555Y-25249
X46956Y-25950
X48344Y-46800
X48745Y-47501
X49147Y-46800
X49548Y-47501
X49950Y-46800
X50352Y-47501
X50692Y-25249
X50753Y-46800
X51094Y-25950
X51155Y-47501
X51495Y-25249
X51897Y-25950
X52298Y-25249
X52700Y-25950
X53102Y-25249
X53503Y-25950
X55194Y-46800
X55596Y-47501
X55998Y-46800
X56399Y-47501
X56801Y-46800
X57202Y-47501
X57242Y-25250
X57604Y-46800
X57644Y-25951
X58006Y-47501
X58045Y-25250
X58447Y-25951
X58848Y-25250
X59250Y-25951
X59652Y-25250
X60053Y-25951
X63795Y-25250
X64197Y-25951
X64598Y-25250
X65000Y-25951
X65402Y-25250
X65803Y-25951
X66205Y-25250
X66606Y-25951
T3
X67300Y-34150
X67300Y-35150
X67300Y-36150
X67300Y-37150
X67300Y-38150
X67300Y-39150
X67300Y-40150
X67300Y-41150
T4
X46333Y-29209
X46333Y-30209
X47333Y-29209
X47333Y-30209
X48333Y-29209
X48333Y-30209
X49333Y-29209
X49333Y-30209
X50333Y-29209
X50333Y-30209
X51333Y-29209
X51333Y-30209
X52333Y-29209
X52333Y-30209
X53333Y-29209
X53333Y-30209
X54333Y-29209
X54333Y-30209
X55333Y-29209
X55333Y-30209
X56333Y-29209
X56333Y-30209
X57333Y-29209
X57333Y-30209
X58333Y-29209
X58333Y-30209
X59333Y-29209
X59333Y-30209
X60333Y-29209
X60333Y-30209
X61333Y-29209
X61333Y-30209
X62333Y-29209
X62333Y-30209
X63333Y-29209
X63333Y-30209
X64333Y-29209
X64333Y-30209
X65333Y-29209
X65333Y-30209
T5
X62550Y-45138
X62550Y-47500
X64400Y-46319
T6
X44415Y-29709
X44415Y-49000
X67250Y-29709
X67250Y-49000
T7
X43051Y-24249
X43999Y-31949
X43999Y-36949
X43999Y-38552
X43999Y-43552
X47249Y-48501
X48051Y-24249
X49598Y-24249
X52249Y-48501
X54100Y-48501
X54598Y-24249
X56148Y-24250
X59100Y-48501
X61148Y-24250
X62701Y-24250
X67701Y-24250
T0
M30
