G04 #@! TF.FileFunction,Legend,Top*
%FSLAX46Y46*%
G04 Gerber Fmt 4.6, Leading zero omitted, Abs format (unit mm)*
G04 Created by KiCad (PCBNEW 4.0.7) date Thursday, May 03, 2018 'PMt' 09:09:37 PM*
%MOMM*%
%LPD*%
G01*
G04 APERTURE LIST*
%ADD10C,0.100000*%
%ADD11C,0.150000*%
%ADD12C,0.300000*%
%ADD13C,0.066040*%
%ADD14C,0.152400*%
%ADD15C,0.050800*%
%ADD16C,0.203200*%
%ADD17C,0.120000*%
%ADD18C,0.127000*%
%ADD19C,0.254000*%
G04 APERTURE END LIST*
D10*
D11*
X131357857Y-79859143D02*
X131405476Y-79906762D01*
X131357857Y-79954381D01*
X131310238Y-79906762D01*
X131357857Y-79859143D01*
X131357857Y-79954381D01*
X132357857Y-79954381D02*
X131786428Y-79954381D01*
X132072142Y-79954381D02*
X132072142Y-78954381D01*
X131976904Y-79097238D01*
X131881666Y-79192476D01*
X131786428Y-79240095D01*
X133215000Y-79287714D02*
X133215000Y-79954381D01*
X132786428Y-79287714D02*
X132786428Y-79811524D01*
X132834047Y-79906762D01*
X132929285Y-79954381D01*
X133072143Y-79954381D01*
X133167381Y-79906762D01*
X133215000Y-79859143D01*
X134024524Y-79430571D02*
X133691190Y-79430571D01*
X133691190Y-79954381D02*
X133691190Y-78954381D01*
X134167381Y-78954381D01*
X137199905Y-79049619D02*
X137247524Y-79002000D01*
X137342762Y-78954381D01*
X137580858Y-78954381D01*
X137676096Y-79002000D01*
X137723715Y-79049619D01*
X137771334Y-79144857D01*
X137771334Y-79240095D01*
X137723715Y-79382952D01*
X137152286Y-79954381D01*
X137771334Y-79954381D01*
X138390381Y-78954381D02*
X138485620Y-78954381D01*
X138580858Y-79002000D01*
X138628477Y-79049619D01*
X138676096Y-79144857D01*
X138723715Y-79335333D01*
X138723715Y-79573429D01*
X138676096Y-79763905D01*
X138628477Y-79859143D01*
X138580858Y-79906762D01*
X138485620Y-79954381D01*
X138390381Y-79954381D01*
X138295143Y-79906762D01*
X138247524Y-79859143D01*
X138199905Y-79763905D01*
X138152286Y-79573429D01*
X138152286Y-79335333D01*
X138199905Y-79144857D01*
X138247524Y-79049619D01*
X138295143Y-79002000D01*
X138390381Y-78954381D01*
X139342762Y-78954381D02*
X139438001Y-78954381D01*
X139533239Y-79002000D01*
X139580858Y-79049619D01*
X139628477Y-79144857D01*
X139676096Y-79335333D01*
X139676096Y-79573429D01*
X139628477Y-79763905D01*
X139580858Y-79859143D01*
X139533239Y-79906762D01*
X139438001Y-79954381D01*
X139342762Y-79954381D01*
X139247524Y-79906762D01*
X139199905Y-79859143D01*
X139152286Y-79763905D01*
X139104667Y-79573429D01*
X139104667Y-79335333D01*
X139152286Y-79144857D01*
X139199905Y-79049619D01*
X139247524Y-79002000D01*
X139342762Y-78954381D01*
X140104667Y-79954381D02*
X140104667Y-78954381D01*
X140676096Y-79954381D02*
X140247524Y-79382952D01*
X140676096Y-78954381D02*
X140104667Y-79525810D01*
X126785715Y-79954381D02*
X126214286Y-79954381D01*
X126500000Y-79954381D02*
X126500000Y-78954381D01*
X126404762Y-79097238D01*
X126309524Y-79192476D01*
X126214286Y-79240095D01*
X127214286Y-79954381D02*
X127214286Y-78954381D01*
X127785715Y-79954381D02*
X127357143Y-79382952D01*
X127785715Y-78954381D02*
X127214286Y-79525810D01*
X141009715Y-89987381D02*
X140438286Y-89987381D01*
X140724000Y-89987381D02*
X140724000Y-88987381D01*
X140628762Y-89130238D01*
X140533524Y-89225476D01*
X140438286Y-89273095D01*
X141438286Y-89987381D02*
X141438286Y-88987381D01*
X142009715Y-89987381D02*
X141581143Y-89415952D01*
X142009715Y-88987381D02*
X141438286Y-89558810D01*
X141136715Y-84526381D02*
X140565286Y-84526381D01*
X140851000Y-84526381D02*
X140851000Y-83526381D01*
X140755762Y-83669238D01*
X140660524Y-83764476D01*
X140565286Y-83812095D01*
X141565286Y-84526381D02*
X141565286Y-83526381D01*
X142136715Y-84526381D02*
X141708143Y-83954952D01*
X142136715Y-83526381D02*
X141565286Y-84097810D01*
D12*
X165437572Y-89888143D02*
X165651858Y-89959571D01*
X166009001Y-89959571D01*
X166151858Y-89888143D01*
X166223287Y-89816714D01*
X166294715Y-89673857D01*
X166294715Y-89531000D01*
X166223287Y-89388143D01*
X166151858Y-89316714D01*
X166009001Y-89245286D01*
X165723287Y-89173857D01*
X165580429Y-89102429D01*
X165509001Y-89031000D01*
X165437572Y-88888143D01*
X165437572Y-88745286D01*
X165509001Y-88602429D01*
X165580429Y-88531000D01*
X165723287Y-88459571D01*
X166080429Y-88459571D01*
X166294715Y-88531000D01*
X166937572Y-89959571D02*
X166937572Y-88459571D01*
X167294715Y-88459571D01*
X167509000Y-88531000D01*
X167651858Y-88673857D01*
X167723286Y-88816714D01*
X167794715Y-89102429D01*
X167794715Y-89316714D01*
X167723286Y-89602429D01*
X167651858Y-89745286D01*
X167509000Y-89888143D01*
X167294715Y-89959571D01*
X166937572Y-89959571D01*
X168366143Y-89531000D02*
X169080429Y-89531000D01*
X168223286Y-89959571D02*
X168723286Y-88459571D01*
X169223286Y-89959571D01*
X165473286Y-92428143D02*
X165687572Y-92499571D01*
X166044715Y-92499571D01*
X166187572Y-92428143D01*
X166259001Y-92356714D01*
X166330429Y-92213857D01*
X166330429Y-92071000D01*
X166259001Y-91928143D01*
X166187572Y-91856714D01*
X166044715Y-91785286D01*
X165759001Y-91713857D01*
X165616143Y-91642429D01*
X165544715Y-91571000D01*
X165473286Y-91428143D01*
X165473286Y-91285286D01*
X165544715Y-91142429D01*
X165616143Y-91071000D01*
X165759001Y-90999571D01*
X166116143Y-90999571D01*
X166330429Y-91071000D01*
X167830429Y-92356714D02*
X167759000Y-92428143D01*
X167544714Y-92499571D01*
X167401857Y-92499571D01*
X167187572Y-92428143D01*
X167044714Y-92285286D01*
X166973286Y-92142429D01*
X166901857Y-91856714D01*
X166901857Y-91642429D01*
X166973286Y-91356714D01*
X167044714Y-91213857D01*
X167187572Y-91071000D01*
X167401857Y-90999571D01*
X167544714Y-90999571D01*
X167759000Y-91071000D01*
X167830429Y-91142429D01*
X169187572Y-92499571D02*
X168473286Y-92499571D01*
X168473286Y-90999571D01*
X165187572Y-95166571D02*
X165187572Y-93666571D01*
X165901858Y-95166571D02*
X165901858Y-93666571D01*
X166759001Y-95166571D01*
X166759001Y-93666571D01*
X167259001Y-93666571D02*
X168116144Y-93666571D01*
X167687573Y-95166571D02*
X167687573Y-93666571D01*
X169401858Y-95166571D02*
X168544715Y-95166571D01*
X168973287Y-95166571D02*
X168973287Y-93666571D01*
X168830430Y-93880857D01*
X168687572Y-94023714D01*
X168544715Y-94095143D01*
X165187572Y-97579571D02*
X165187572Y-96079571D01*
X165901858Y-97579571D02*
X165901858Y-96079571D01*
X166759001Y-97579571D01*
X166759001Y-96079571D01*
X167259001Y-96079571D02*
X168116144Y-96079571D01*
X167687573Y-97579571D02*
X167687573Y-96079571D01*
X168544715Y-96222429D02*
X168616144Y-96151000D01*
X168759001Y-96079571D01*
X169116144Y-96079571D01*
X169259001Y-96151000D01*
X169330430Y-96222429D01*
X169401858Y-96365286D01*
X169401858Y-96508143D01*
X169330430Y-96722429D01*
X168473287Y-97579571D01*
X169401858Y-97579571D01*
X165401858Y-98619571D02*
X166330429Y-98619571D01*
X165830429Y-99191000D01*
X166044715Y-99191000D01*
X166187572Y-99262429D01*
X166259001Y-99333857D01*
X166330429Y-99476714D01*
X166330429Y-99833857D01*
X166259001Y-99976714D01*
X166187572Y-100048143D01*
X166044715Y-100119571D01*
X165616143Y-100119571D01*
X165473286Y-100048143D01*
X165401858Y-99976714D01*
X166759000Y-98619571D02*
X167259000Y-100119571D01*
X167759000Y-98619571D01*
X168116143Y-98619571D02*
X169044714Y-98619571D01*
X168544714Y-99191000D01*
X168759000Y-99191000D01*
X168901857Y-99262429D01*
X168973286Y-99333857D01*
X169044714Y-99476714D01*
X169044714Y-99833857D01*
X168973286Y-99976714D01*
X168901857Y-100048143D01*
X168759000Y-100119571D01*
X168330428Y-100119571D01*
X168187571Y-100048143D01*
X168116143Y-99976714D01*
X166116143Y-101612000D02*
X165973286Y-101540571D01*
X165759000Y-101540571D01*
X165544715Y-101612000D01*
X165401857Y-101754857D01*
X165330429Y-101897714D01*
X165259000Y-102183429D01*
X165259000Y-102397714D01*
X165330429Y-102683429D01*
X165401857Y-102826286D01*
X165544715Y-102969143D01*
X165759000Y-103040571D01*
X165901857Y-103040571D01*
X166116143Y-102969143D01*
X166187572Y-102897714D01*
X166187572Y-102397714D01*
X165901857Y-102397714D01*
X166830429Y-103040571D02*
X166830429Y-101540571D01*
X167687572Y-103040571D01*
X167687572Y-101540571D01*
X168401858Y-103040571D02*
X168401858Y-101540571D01*
X168759001Y-101540571D01*
X168973286Y-101612000D01*
X169116144Y-101754857D01*
X169187572Y-101897714D01*
X169259001Y-102183429D01*
X169259001Y-102397714D01*
X169187572Y-102683429D01*
X169116144Y-102826286D01*
X168973286Y-102969143D01*
X168759001Y-103040571D01*
X168401858Y-103040571D01*
X164941287Y-125670571D02*
X164227001Y-125670571D01*
X164155572Y-126384857D01*
X164227001Y-126313429D01*
X164369858Y-126242000D01*
X164727001Y-126242000D01*
X164869858Y-126313429D01*
X164941287Y-126384857D01*
X165012715Y-126527714D01*
X165012715Y-126884857D01*
X164941287Y-127027714D01*
X164869858Y-127099143D01*
X164727001Y-127170571D01*
X164369858Y-127170571D01*
X164227001Y-127099143D01*
X164155572Y-127027714D01*
X165441286Y-125670571D02*
X165941286Y-127170571D01*
X166441286Y-125670571D01*
X126175571Y-102637143D02*
X127889857Y-102637143D01*
X127032714Y-105637143D02*
X127032714Y-102637143D01*
X128889857Y-105637143D02*
X128889857Y-102637143D01*
X130175571Y-105637143D02*
X130175571Y-104065714D01*
X130032714Y-103780000D01*
X129747000Y-103637143D01*
X129318428Y-103637143D01*
X129032714Y-103780000D01*
X128889857Y-103922857D01*
X132747000Y-105494286D02*
X132461286Y-105637143D01*
X131889857Y-105637143D01*
X131604143Y-105494286D01*
X131461286Y-105208571D01*
X131461286Y-104065714D01*
X131604143Y-103780000D01*
X131889857Y-103637143D01*
X132461286Y-103637143D01*
X132747000Y-103780000D01*
X132889857Y-104065714D01*
X132889857Y-104351429D01*
X131461286Y-104637143D01*
X134032715Y-105494286D02*
X134318429Y-105637143D01*
X134889857Y-105637143D01*
X135175572Y-105494286D01*
X135318429Y-105208571D01*
X135318429Y-105065714D01*
X135175572Y-104780000D01*
X134889857Y-104637143D01*
X134461286Y-104637143D01*
X134175572Y-104494286D01*
X134032715Y-104208571D01*
X134032715Y-104065714D01*
X134175572Y-103780000D01*
X134461286Y-103637143D01*
X134889857Y-103637143D01*
X135175572Y-103780000D01*
X137747000Y-105494286D02*
X137461286Y-105637143D01*
X136889857Y-105637143D01*
X136604143Y-105494286D01*
X136461286Y-105208571D01*
X136461286Y-104065714D01*
X136604143Y-103780000D01*
X136889857Y-103637143D01*
X137461286Y-103637143D01*
X137747000Y-103780000D01*
X137889857Y-104065714D01*
X137889857Y-104351429D01*
X136461286Y-104637143D01*
X140461286Y-103637143D02*
X140461286Y-105637143D01*
X139175572Y-103637143D02*
X139175572Y-105208571D01*
X139318429Y-105494286D01*
X139604143Y-105637143D01*
X140032715Y-105637143D01*
X140318429Y-105494286D01*
X140461286Y-105351429D01*
X141747001Y-105494286D02*
X142032715Y-105637143D01*
X142604143Y-105637143D01*
X142889858Y-105494286D01*
X143032715Y-105208571D01*
X143032715Y-105065714D01*
X142889858Y-104780000D01*
X142604143Y-104637143D01*
X142175572Y-104637143D01*
X141889858Y-104494286D01*
X141747001Y-104208571D01*
X141747001Y-104065714D01*
X141889858Y-103780000D01*
X142175572Y-103637143D01*
X142604143Y-103637143D01*
X142889858Y-103780000D01*
X123961286Y-110437143D02*
X123961286Y-107437143D01*
X124961286Y-109580000D01*
X125961286Y-107437143D01*
X125961286Y-110437143D01*
X128675571Y-110437143D02*
X128675571Y-108865714D01*
X128532714Y-108580000D01*
X128247000Y-108437143D01*
X127675571Y-108437143D01*
X127389857Y-108580000D01*
X128675571Y-110294286D02*
X128389857Y-110437143D01*
X127675571Y-110437143D01*
X127389857Y-110294286D01*
X127247000Y-110008571D01*
X127247000Y-109722857D01*
X127389857Y-109437143D01*
X127675571Y-109294286D01*
X128389857Y-109294286D01*
X128675571Y-109151429D01*
X130104143Y-110437143D02*
X130104143Y-108437143D01*
X130104143Y-107437143D02*
X129961286Y-107580000D01*
X130104143Y-107722857D01*
X130247000Y-107580000D01*
X130104143Y-107437143D01*
X130104143Y-107722857D01*
X131532714Y-108437143D02*
X131532714Y-110437143D01*
X131532714Y-108722857D02*
X131675571Y-108580000D01*
X131961285Y-108437143D01*
X132389857Y-108437143D01*
X132675571Y-108580000D01*
X132818428Y-108865714D01*
X132818428Y-110437143D01*
X134247000Y-110437143D02*
X134247000Y-107437143D01*
X134247000Y-108580000D02*
X134532714Y-108437143D01*
X135104143Y-108437143D01*
X135389857Y-108580000D01*
X135532714Y-108722857D01*
X135675571Y-109008571D01*
X135675571Y-109865714D01*
X135532714Y-110151429D01*
X135389857Y-110294286D01*
X135104143Y-110437143D01*
X134532714Y-110437143D01*
X134247000Y-110294286D01*
X137389857Y-110437143D02*
X137104143Y-110294286D01*
X136961286Y-110151429D01*
X136818429Y-109865714D01*
X136818429Y-109008571D01*
X136961286Y-108722857D01*
X137104143Y-108580000D01*
X137389857Y-108437143D01*
X137818429Y-108437143D01*
X138104143Y-108580000D01*
X138247000Y-108722857D01*
X138389857Y-109008571D01*
X138389857Y-109865714D01*
X138247000Y-110151429D01*
X138104143Y-110294286D01*
X137818429Y-110437143D01*
X137389857Y-110437143D01*
X140961286Y-110437143D02*
X140961286Y-108865714D01*
X140818429Y-108580000D01*
X140532715Y-108437143D01*
X139961286Y-108437143D01*
X139675572Y-108580000D01*
X140961286Y-110294286D02*
X140675572Y-110437143D01*
X139961286Y-110437143D01*
X139675572Y-110294286D01*
X139532715Y-110008571D01*
X139532715Y-109722857D01*
X139675572Y-109437143D01*
X139961286Y-109294286D01*
X140675572Y-109294286D01*
X140961286Y-109151429D01*
X142389858Y-110437143D02*
X142389858Y-108437143D01*
X142389858Y-109008571D02*
X142532715Y-108722857D01*
X142675572Y-108580000D01*
X142961286Y-108437143D01*
X143247001Y-108437143D01*
X145532715Y-110437143D02*
X145532715Y-107437143D01*
X145532715Y-110294286D02*
X145247001Y-110437143D01*
X144675572Y-110437143D01*
X144389858Y-110294286D01*
X144247001Y-110151429D01*
X144104144Y-109865714D01*
X144104144Y-109008571D01*
X144247001Y-108722857D01*
X144389858Y-108580000D01*
X144675572Y-108437143D01*
X145247001Y-108437143D01*
X145532715Y-108580000D01*
X146883286Y-84331571D02*
X146383286Y-83617286D01*
X146026143Y-84331571D02*
X146026143Y-82831571D01*
X146597571Y-82831571D01*
X146740429Y-82903000D01*
X146811857Y-82974429D01*
X146883286Y-83117286D01*
X146883286Y-83331571D01*
X146811857Y-83474429D01*
X146740429Y-83545857D01*
X146597571Y-83617286D01*
X146026143Y-83617286D01*
X147954714Y-82831571D02*
X147954714Y-83903000D01*
X147883286Y-84117286D01*
X147740429Y-84260143D01*
X147526143Y-84331571D01*
X147383286Y-84331571D01*
X149311857Y-83331571D02*
X149311857Y-84331571D01*
X148954714Y-82760143D02*
X148597571Y-83831571D01*
X149526143Y-83831571D01*
X150811857Y-82831571D02*
X150097571Y-82831571D01*
X150026142Y-83545857D01*
X150097571Y-83474429D01*
X150240428Y-83403000D01*
X150597571Y-83403000D01*
X150740428Y-83474429D01*
X150811857Y-83545857D01*
X150883285Y-83688714D01*
X150883285Y-84045857D01*
X150811857Y-84188714D01*
X150740428Y-84260143D01*
X150597571Y-84331571D01*
X150240428Y-84331571D01*
X150097571Y-84260143D01*
X150026142Y-84188714D01*
X146811857Y-86881571D02*
X145954714Y-86881571D01*
X146383286Y-86881571D02*
X146383286Y-85381571D01*
X146240429Y-85595857D01*
X146097571Y-85738714D01*
X145954714Y-85810143D01*
X147454714Y-86310143D02*
X148597571Y-86310143D01*
X149240428Y-86810143D02*
X149454714Y-86881571D01*
X149811857Y-86881571D01*
X149954714Y-86810143D01*
X150026143Y-86738714D01*
X150097571Y-86595857D01*
X150097571Y-86453000D01*
X150026143Y-86310143D01*
X149954714Y-86238714D01*
X149811857Y-86167286D01*
X149526143Y-86095857D01*
X149383285Y-86024429D01*
X149311857Y-85953000D01*
X149240428Y-85810143D01*
X149240428Y-85667286D01*
X149311857Y-85524429D01*
X149383285Y-85453000D01*
X149526143Y-85381571D01*
X149883285Y-85381571D01*
X150097571Y-85453000D01*
X150740428Y-86881571D02*
X150740428Y-85381571D01*
X151097571Y-85381571D01*
X151311856Y-85453000D01*
X151454714Y-85595857D01*
X151526142Y-85738714D01*
X151597571Y-86024429D01*
X151597571Y-86238714D01*
X151526142Y-86524429D01*
X151454714Y-86667286D01*
X151311856Y-86810143D01*
X151097571Y-86881571D01*
X150740428Y-86881571D01*
X152168999Y-86453000D02*
X152883285Y-86453000D01*
X152026142Y-86881571D02*
X152526142Y-85381571D01*
X153026142Y-86881571D01*
X145954714Y-88074429D02*
X146026143Y-88003000D01*
X146169000Y-87931571D01*
X146526143Y-87931571D01*
X146669000Y-88003000D01*
X146740429Y-88074429D01*
X146811857Y-88217286D01*
X146811857Y-88360143D01*
X146740429Y-88574429D01*
X145883286Y-89431571D01*
X146811857Y-89431571D01*
X147454714Y-88860143D02*
X148597571Y-88860143D01*
X149240428Y-89360143D02*
X149454714Y-89431571D01*
X149811857Y-89431571D01*
X149954714Y-89360143D01*
X150026143Y-89288714D01*
X150097571Y-89145857D01*
X150097571Y-89003000D01*
X150026143Y-88860143D01*
X149954714Y-88788714D01*
X149811857Y-88717286D01*
X149526143Y-88645857D01*
X149383285Y-88574429D01*
X149311857Y-88503000D01*
X149240428Y-88360143D01*
X149240428Y-88217286D01*
X149311857Y-88074429D01*
X149383285Y-88003000D01*
X149526143Y-87931571D01*
X149883285Y-87931571D01*
X150097571Y-88003000D01*
X151597571Y-89288714D02*
X151526142Y-89360143D01*
X151311856Y-89431571D01*
X151168999Y-89431571D01*
X150954714Y-89360143D01*
X150811856Y-89217286D01*
X150740428Y-89074429D01*
X150668999Y-88788714D01*
X150668999Y-88574429D01*
X150740428Y-88288714D01*
X150811856Y-88145857D01*
X150954714Y-88003000D01*
X151168999Y-87931571D01*
X151311856Y-87931571D01*
X151526142Y-88003000D01*
X151597571Y-88074429D01*
X152954714Y-89431571D02*
X152240428Y-89431571D01*
X152240428Y-87931571D01*
X145883286Y-90481571D02*
X146811857Y-90481571D01*
X146311857Y-91053000D01*
X146526143Y-91053000D01*
X146669000Y-91124429D01*
X146740429Y-91195857D01*
X146811857Y-91338714D01*
X146811857Y-91695857D01*
X146740429Y-91838714D01*
X146669000Y-91910143D01*
X146526143Y-91981571D01*
X146097571Y-91981571D01*
X145954714Y-91910143D01*
X145883286Y-91838714D01*
X147454714Y-91410143D02*
X148597571Y-91410143D01*
X149311857Y-91981571D02*
X149311857Y-90481571D01*
X150026143Y-91981571D02*
X150026143Y-90481571D01*
X150883286Y-91981571D01*
X150883286Y-90481571D01*
X151383286Y-90481571D02*
X152240429Y-90481571D01*
X151811858Y-91981571D02*
X151811858Y-90481571D01*
X146669000Y-93531571D02*
X146669000Y-94531571D01*
X146311857Y-92960143D02*
X145954714Y-94031571D01*
X146883286Y-94031571D01*
X147454714Y-93960143D02*
X148597571Y-93960143D01*
X150026143Y-93031571D02*
X149311857Y-93031571D01*
X149240428Y-93745857D01*
X149311857Y-93674429D01*
X149454714Y-93603000D01*
X149811857Y-93603000D01*
X149954714Y-93674429D01*
X150026143Y-93745857D01*
X150097571Y-93888714D01*
X150097571Y-94245857D01*
X150026143Y-94388714D01*
X149954714Y-94460143D01*
X149811857Y-94531571D01*
X149454714Y-94531571D01*
X149311857Y-94460143D01*
X149240428Y-94388714D01*
X150526142Y-93031571D02*
X151026142Y-94531571D01*
X151526142Y-93031571D01*
X146740429Y-95581571D02*
X146026143Y-95581571D01*
X145954714Y-96295857D01*
X146026143Y-96224429D01*
X146169000Y-96153000D01*
X146526143Y-96153000D01*
X146669000Y-96224429D01*
X146740429Y-96295857D01*
X146811857Y-96438714D01*
X146811857Y-96795857D01*
X146740429Y-96938714D01*
X146669000Y-97010143D01*
X146526143Y-97081571D01*
X146169000Y-97081571D01*
X146026143Y-97010143D01*
X145954714Y-96938714D01*
X147454714Y-96510143D02*
X148597571Y-96510143D01*
X150026143Y-95581571D02*
X149311857Y-95581571D01*
X149240428Y-96295857D01*
X149311857Y-96224429D01*
X149454714Y-96153000D01*
X149811857Y-96153000D01*
X149954714Y-96224429D01*
X150026143Y-96295857D01*
X150097571Y-96438714D01*
X150097571Y-96795857D01*
X150026143Y-96938714D01*
X149954714Y-97010143D01*
X149811857Y-97081571D01*
X149454714Y-97081571D01*
X149311857Y-97010143D01*
X149240428Y-96938714D01*
X150526142Y-95581571D02*
X151026142Y-97081571D01*
X151526142Y-95581571D01*
X146669000Y-98131571D02*
X146383286Y-98131571D01*
X146240429Y-98203000D01*
X146169000Y-98274429D01*
X146026143Y-98488714D01*
X145954714Y-98774429D01*
X145954714Y-99345857D01*
X146026143Y-99488714D01*
X146097571Y-99560143D01*
X146240429Y-99631571D01*
X146526143Y-99631571D01*
X146669000Y-99560143D01*
X146740429Y-99488714D01*
X146811857Y-99345857D01*
X146811857Y-98988714D01*
X146740429Y-98845857D01*
X146669000Y-98774429D01*
X146526143Y-98703000D01*
X146240429Y-98703000D01*
X146097571Y-98774429D01*
X146026143Y-98845857D01*
X145954714Y-98988714D01*
X147454714Y-99060143D02*
X148597571Y-99060143D01*
X149311857Y-99631571D02*
X149311857Y-98131571D01*
X150169000Y-99631571D01*
X150169000Y-98131571D01*
X151740429Y-99488714D02*
X151669000Y-99560143D01*
X151454714Y-99631571D01*
X151311857Y-99631571D01*
X151097572Y-99560143D01*
X150954714Y-99417286D01*
X150883286Y-99274429D01*
X150811857Y-98988714D01*
X150811857Y-98774429D01*
X150883286Y-98488714D01*
X150954714Y-98345857D01*
X151097572Y-98203000D01*
X151311857Y-98131571D01*
X151454714Y-98131571D01*
X151669000Y-98203000D01*
X151740429Y-98274429D01*
X145883286Y-100681571D02*
X146883286Y-100681571D01*
X146240429Y-102181571D01*
X147454714Y-101610143D02*
X148597571Y-101610143D01*
X150097571Y-100753000D02*
X149954714Y-100681571D01*
X149740428Y-100681571D01*
X149526143Y-100753000D01*
X149383285Y-100895857D01*
X149311857Y-101038714D01*
X149240428Y-101324429D01*
X149240428Y-101538714D01*
X149311857Y-101824429D01*
X149383285Y-101967286D01*
X149526143Y-102110143D01*
X149740428Y-102181571D01*
X149883285Y-102181571D01*
X150097571Y-102110143D01*
X150169000Y-102038714D01*
X150169000Y-101538714D01*
X149883285Y-101538714D01*
X150811857Y-102181571D02*
X150811857Y-100681571D01*
X151669000Y-102181571D01*
X151669000Y-100681571D01*
X152383286Y-102181571D02*
X152383286Y-100681571D01*
X152740429Y-100681571D01*
X152954714Y-100753000D01*
X153097572Y-100895857D01*
X153169000Y-101038714D01*
X153240429Y-101324429D01*
X153240429Y-101538714D01*
X153169000Y-101824429D01*
X153097572Y-101967286D01*
X152954714Y-102110143D01*
X152740429Y-102181571D01*
X152383286Y-102181571D01*
X146240429Y-103874429D02*
X146097571Y-103803000D01*
X146026143Y-103731571D01*
X145954714Y-103588714D01*
X145954714Y-103517286D01*
X146026143Y-103374429D01*
X146097571Y-103303000D01*
X146240429Y-103231571D01*
X146526143Y-103231571D01*
X146669000Y-103303000D01*
X146740429Y-103374429D01*
X146811857Y-103517286D01*
X146811857Y-103588714D01*
X146740429Y-103731571D01*
X146669000Y-103803000D01*
X146526143Y-103874429D01*
X146240429Y-103874429D01*
X146097571Y-103945857D01*
X146026143Y-104017286D01*
X145954714Y-104160143D01*
X145954714Y-104445857D01*
X146026143Y-104588714D01*
X146097571Y-104660143D01*
X146240429Y-104731571D01*
X146526143Y-104731571D01*
X146669000Y-104660143D01*
X146740429Y-104588714D01*
X146811857Y-104445857D01*
X146811857Y-104160143D01*
X146740429Y-104017286D01*
X146669000Y-103945857D01*
X146526143Y-103874429D01*
X147454714Y-104160143D02*
X148597571Y-104160143D01*
X150097571Y-103303000D02*
X149954714Y-103231571D01*
X149740428Y-103231571D01*
X149526143Y-103303000D01*
X149383285Y-103445857D01*
X149311857Y-103588714D01*
X149240428Y-103874429D01*
X149240428Y-104088714D01*
X149311857Y-104374429D01*
X149383285Y-104517286D01*
X149526143Y-104660143D01*
X149740428Y-104731571D01*
X149883285Y-104731571D01*
X150097571Y-104660143D01*
X150169000Y-104588714D01*
X150169000Y-104088714D01*
X149883285Y-104088714D01*
X150811857Y-104731571D02*
X150811857Y-103231571D01*
X151669000Y-104731571D01*
X151669000Y-103231571D01*
X152383286Y-104731571D02*
X152383286Y-103231571D01*
X152740429Y-103231571D01*
X152954714Y-103303000D01*
X153097572Y-103445857D01*
X153169000Y-103588714D01*
X153240429Y-103874429D01*
X153240429Y-104088714D01*
X153169000Y-104374429D01*
X153097572Y-104517286D01*
X152954714Y-104660143D01*
X152740429Y-104731571D01*
X152383286Y-104731571D01*
X159809571Y-100615142D02*
X158309571Y-100615142D01*
X159381000Y-100115142D01*
X158309571Y-99615142D01*
X159809571Y-99615142D01*
X159809571Y-98900856D02*
X158309571Y-98900856D01*
X159381000Y-98400856D01*
X158309571Y-97900856D01*
X159809571Y-97900856D01*
X159381000Y-97257999D02*
X159381000Y-96543713D01*
X159809571Y-97400856D02*
X158309571Y-96900856D01*
X159809571Y-96400856D01*
X158952429Y-95686570D02*
X158881000Y-95829428D01*
X158809571Y-95900856D01*
X158666714Y-95972285D01*
X158595286Y-95972285D01*
X158452429Y-95900856D01*
X158381000Y-95829428D01*
X158309571Y-95686570D01*
X158309571Y-95400856D01*
X158381000Y-95257999D01*
X158452429Y-95186570D01*
X158595286Y-95115142D01*
X158666714Y-95115142D01*
X158809571Y-95186570D01*
X158881000Y-95257999D01*
X158952429Y-95400856D01*
X158952429Y-95686570D01*
X159023857Y-95829428D01*
X159095286Y-95900856D01*
X159238143Y-95972285D01*
X159523857Y-95972285D01*
X159666714Y-95900856D01*
X159738143Y-95829428D01*
X159809571Y-95686570D01*
X159809571Y-95400856D01*
X159738143Y-95257999D01*
X159666714Y-95186570D01*
X159523857Y-95115142D01*
X159238143Y-95115142D01*
X159095286Y-95186570D01*
X159023857Y-95257999D01*
X158952429Y-95400856D01*
X158809571Y-93829428D02*
X159809571Y-93829428D01*
X158238143Y-94186571D02*
X159309571Y-94543714D01*
X159309571Y-93615142D01*
X158309571Y-92329428D02*
X158309571Y-93043714D01*
X159023857Y-93115143D01*
X158952429Y-93043714D01*
X158881000Y-92900857D01*
X158881000Y-92543714D01*
X158952429Y-92400857D01*
X159023857Y-92329428D01*
X159166714Y-92258000D01*
X159523857Y-92258000D01*
X159666714Y-92329428D01*
X159738143Y-92400857D01*
X159809571Y-92543714D01*
X159809571Y-92900857D01*
X159738143Y-93043714D01*
X159666714Y-93115143D01*
X159809571Y-90829429D02*
X159809571Y-91686572D01*
X159809571Y-91258000D02*
X158309571Y-91258000D01*
X158523857Y-91400857D01*
X158666714Y-91543715D01*
X158738143Y-91686572D01*
D13*
X133375400Y-87249000D02*
X133375400Y-87757000D01*
X133375400Y-87757000D02*
X134518400Y-87757000D01*
X134518400Y-87249000D02*
X134518400Y-87757000D01*
X133375400Y-87249000D02*
X134518400Y-87249000D01*
X128320800Y-83439000D02*
X128320800Y-83947000D01*
X128320800Y-83947000D02*
X129463800Y-83947000D01*
X129463800Y-83439000D02*
X129463800Y-83947000D01*
X128320800Y-83439000D02*
X129463800Y-83439000D01*
X128320800Y-84709000D02*
X128320800Y-85217000D01*
X128320800Y-85217000D02*
X129463800Y-85217000D01*
X129463800Y-84709000D02*
X129463800Y-85217000D01*
X128320800Y-84709000D02*
X129463800Y-84709000D01*
X128346200Y-85979000D02*
X128346200Y-86487000D01*
X128346200Y-86487000D02*
X129489200Y-86487000D01*
X129489200Y-85979000D02*
X129489200Y-86487000D01*
X128346200Y-85979000D02*
X129489200Y-85979000D01*
X128320800Y-87249000D02*
X128320800Y-87757000D01*
X128320800Y-87757000D02*
X129463800Y-87757000D01*
X129463800Y-87249000D02*
X129463800Y-87757000D01*
X128320800Y-87249000D02*
X129463800Y-87249000D01*
X133375400Y-85979000D02*
X133375400Y-86487000D01*
X133375400Y-86487000D02*
X134518400Y-86487000D01*
X134518400Y-85979000D02*
X134518400Y-86487000D01*
X133375400Y-85979000D02*
X134518400Y-85979000D01*
X133375400Y-84709000D02*
X133375400Y-85217000D01*
X133375400Y-85217000D02*
X134518400Y-85217000D01*
X134518400Y-84709000D02*
X134518400Y-85217000D01*
X133375400Y-84709000D02*
X134518400Y-84709000D01*
X133375400Y-83439000D02*
X133375400Y-83947000D01*
X133375400Y-83947000D02*
X134518400Y-83947000D01*
X134518400Y-83439000D02*
X134518400Y-83947000D01*
X133375400Y-83439000D02*
X134518400Y-83439000D01*
D14*
X133375400Y-87757000D02*
X133375400Y-83439000D01*
X129463800Y-83439000D02*
X129463800Y-87757000D01*
X129844800Y-88138000D02*
X132994400Y-88138000D01*
X132994400Y-83058000D02*
X129844800Y-83058000D01*
D15*
X129819400Y-83058000D02*
X129819400Y-88138000D01*
D14*
X129463800Y-87757000D02*
G75*
G03X129844800Y-88138000I381000J0D01*
G01*
X133375400Y-83439000D02*
G75*
G03X132994400Y-83058000I-381000J0D01*
G01*
X132994400Y-88138000D02*
G75*
G03X133375400Y-87757000I0J381000D01*
G01*
X129844800Y-83058000D02*
G75*
G03X129463800Y-83439000I0J-381000D01*
G01*
X130911600Y-83058000D02*
G75*
G03X131927600Y-83058000I508000J0D01*
G01*
D16*
X163375340Y-114650520D02*
X161274760Y-114650520D01*
X154378660Y-125349000D02*
X154378660Y-128249680D01*
X163375340Y-128249680D02*
X163375340Y-125349000D01*
X163375340Y-128249680D02*
X154378660Y-128249680D01*
X163375340Y-125349000D02*
X163375340Y-120050560D01*
X163375340Y-114650520D02*
X163375340Y-115349020D01*
X154378660Y-125349000D02*
X154378660Y-114650520D01*
X154378660Y-114650520D02*
X156479240Y-114650520D01*
X154378660Y-125349000D02*
X163375340Y-125349000D01*
D11*
X173482000Y-85471000D02*
X173482000Y-105791000D01*
X155702000Y-85471000D02*
X173482000Y-85471000D01*
X155702000Y-105791000D02*
X155702000Y-85471000D01*
X173482000Y-105791000D02*
X155702000Y-105791000D01*
D17*
X172272000Y-85411000D02*
X169612000Y-85411000D01*
X172272000Y-103251000D02*
X172272000Y-85411000D01*
X169612000Y-103251000D02*
X169612000Y-85411000D01*
X172272000Y-103251000D02*
X169612000Y-103251000D01*
X172272000Y-104521000D02*
X172272000Y-105851000D01*
X172272000Y-105851000D02*
X170942000Y-105851000D01*
D11*
X167215000Y-72920000D02*
X116415000Y-72920000D01*
X118955000Y-78000000D02*
X167215000Y-78000000D01*
X167215000Y-72920000D02*
X167215000Y-78000000D01*
X116415000Y-72920000D02*
X116415000Y-75460000D01*
X116135000Y-76730000D02*
X116135000Y-78280000D01*
X116415000Y-75460000D02*
X118955000Y-75460000D01*
X118955000Y-75460000D02*
X118955000Y-78000000D01*
X116135000Y-78280000D02*
X117685000Y-78280000D01*
D17*
X130965000Y-81876000D02*
X131965000Y-81876000D01*
X131965000Y-80176000D02*
X130965000Y-80176000D01*
X136513000Y-80146000D02*
X137713000Y-80146000D01*
X137713000Y-81906000D02*
X136513000Y-81906000D01*
X124923000Y-80146000D02*
X126123000Y-80146000D01*
X126123000Y-81906000D02*
X124923000Y-81906000D01*
X139274000Y-84718000D02*
X140474000Y-84718000D01*
X140474000Y-86478000D02*
X139274000Y-86478000D01*
X139274000Y-87004000D02*
X140474000Y-87004000D01*
X140474000Y-88764000D02*
X139274000Y-88764000D01*
D11*
X173230000Y-71501000D02*
X157736000Y-71501000D01*
X157736000Y-71501000D02*
X157736000Y-56515000D01*
X157736000Y-56515000D02*
X173484000Y-56515000D01*
X173484000Y-56515000D02*
X173484000Y-71501000D01*
X173484000Y-71501000D02*
X173230000Y-71501000D01*
X156585000Y-71501000D02*
X141091000Y-71501000D01*
X141091000Y-71501000D02*
X141091000Y-56515000D01*
X141091000Y-56515000D02*
X156839000Y-56515000D01*
X156839000Y-56515000D02*
X156839000Y-71501000D01*
X156839000Y-71501000D02*
X156585000Y-71501000D01*
X139948000Y-71499000D02*
X124454000Y-71499000D01*
X124454000Y-71499000D02*
X124454000Y-56513000D01*
X124454000Y-56513000D02*
X140202000Y-56513000D01*
X140202000Y-56513000D02*
X140202000Y-71499000D01*
X140202000Y-71499000D02*
X139948000Y-71499000D01*
X123319000Y-71499000D02*
X107825000Y-71499000D01*
X107825000Y-71499000D02*
X107825000Y-56513000D01*
X107825000Y-56513000D02*
X123573000Y-56513000D01*
X123573000Y-56513000D02*
X123573000Y-71499000D01*
X123573000Y-71499000D02*
X123319000Y-71499000D01*
X121664000Y-79881000D02*
X121664000Y-95375000D01*
X121664000Y-95375000D02*
X106678000Y-95375000D01*
X106678000Y-95375000D02*
X106678000Y-79627000D01*
X106678000Y-79627000D02*
X121664000Y-79627000D01*
X121664000Y-79627000D02*
X121664000Y-79881000D01*
X121664000Y-96653000D02*
X121664000Y-112147000D01*
X121664000Y-112147000D02*
X106678000Y-112147000D01*
X106678000Y-112147000D02*
X106678000Y-96399000D01*
X106678000Y-96399000D02*
X121664000Y-96399000D01*
X121664000Y-96399000D02*
X121664000Y-96653000D01*
X118743000Y-113286000D02*
X134237000Y-113286000D01*
X134237000Y-113286000D02*
X134237000Y-128272000D01*
X134237000Y-128272000D02*
X118489000Y-128272000D01*
X118489000Y-128272000D02*
X118489000Y-113286000D01*
X118489000Y-113286000D02*
X118743000Y-113286000D01*
X136144000Y-113286000D02*
X151638000Y-113286000D01*
X151638000Y-113286000D02*
X151638000Y-128272000D01*
X151638000Y-128272000D02*
X135890000Y-128272000D01*
X135890000Y-128272000D02*
X135890000Y-113286000D01*
X135890000Y-113286000D02*
X136144000Y-113286000D01*
D18*
X124762381Y-82870524D02*
X124762381Y-83898619D01*
X124822857Y-84019571D01*
X124883333Y-84080048D01*
X125004286Y-84140524D01*
X125246190Y-84140524D01*
X125367143Y-84080048D01*
X125427619Y-84019571D01*
X125488095Y-83898619D01*
X125488095Y-82870524D01*
X126758095Y-84140524D02*
X126032381Y-84140524D01*
X126395238Y-84140524D02*
X126395238Y-82870524D01*
X126274286Y-83051952D01*
X126153333Y-83172905D01*
X126032381Y-83233381D01*
X127514048Y-90363524D02*
X127514048Y-89093524D01*
X127997857Y-89093524D01*
X128118810Y-89154000D01*
X128179286Y-89214476D01*
X128239762Y-89335429D01*
X128239762Y-89516857D01*
X128179286Y-89637810D01*
X128118810Y-89698286D01*
X127997857Y-89758762D01*
X127514048Y-89758762D01*
X129509762Y-90242571D02*
X129449286Y-90303048D01*
X129267857Y-90363524D01*
X129146905Y-90363524D01*
X128965477Y-90303048D01*
X128844524Y-90182095D01*
X128784048Y-90061143D01*
X128723572Y-89819238D01*
X128723572Y-89637810D01*
X128784048Y-89395905D01*
X128844524Y-89274952D01*
X128965477Y-89154000D01*
X129146905Y-89093524D01*
X129267857Y-89093524D01*
X129449286Y-89154000D01*
X129509762Y-89214476D01*
X129993572Y-90000667D02*
X130598334Y-90000667D01*
X129872619Y-90363524D02*
X130295953Y-89093524D01*
X130719286Y-90363524D01*
X131203095Y-90363524D02*
X131445000Y-90363524D01*
X131565952Y-90303048D01*
X131626428Y-90242571D01*
X131747381Y-90061143D01*
X131807857Y-89819238D01*
X131807857Y-89335429D01*
X131747381Y-89214476D01*
X131686905Y-89154000D01*
X131565952Y-89093524D01*
X131324048Y-89093524D01*
X131203095Y-89154000D01*
X131142619Y-89214476D01*
X131082143Y-89335429D01*
X131082143Y-89637810D01*
X131142619Y-89758762D01*
X131203095Y-89819238D01*
X131324048Y-89879714D01*
X131565952Y-89879714D01*
X131686905Y-89819238D01*
X131747381Y-89758762D01*
X131807857Y-89637810D01*
X132231191Y-89093524D02*
X133017381Y-89093524D01*
X132594048Y-89577333D01*
X132775476Y-89577333D01*
X132896429Y-89637810D01*
X132956905Y-89698286D01*
X133017381Y-89819238D01*
X133017381Y-90121619D01*
X132956905Y-90242571D01*
X132896429Y-90303048D01*
X132775476Y-90363524D01*
X132412619Y-90363524D01*
X132291667Y-90303048D01*
X132231191Y-90242571D01*
X133803572Y-89093524D02*
X133924524Y-89093524D01*
X134045476Y-89154000D01*
X134105953Y-89214476D01*
X134166429Y-89335429D01*
X134226905Y-89577333D01*
X134226905Y-89879714D01*
X134166429Y-90121619D01*
X134105953Y-90242571D01*
X134045476Y-90303048D01*
X133924524Y-90363524D01*
X133803572Y-90363524D01*
X133682619Y-90303048D01*
X133622143Y-90242571D01*
X133561667Y-90121619D01*
X133501191Y-89879714D01*
X133501191Y-89577333D01*
X133561667Y-89335429D01*
X133622143Y-89214476D01*
X133682619Y-89154000D01*
X133803572Y-89093524D01*
X135315477Y-89093524D02*
X135073572Y-89093524D01*
X134952620Y-89154000D01*
X134892143Y-89214476D01*
X134771191Y-89395905D01*
X134710715Y-89637810D01*
X134710715Y-90121619D01*
X134771191Y-90242571D01*
X134831667Y-90303048D01*
X134952620Y-90363524D01*
X135194524Y-90363524D01*
X135315477Y-90303048D01*
X135375953Y-90242571D01*
X135436429Y-90121619D01*
X135436429Y-89819238D01*
X135375953Y-89698286D01*
X135315477Y-89637810D01*
X135194524Y-89577333D01*
X134952620Y-89577333D01*
X134831667Y-89637810D01*
X134771191Y-89698286D01*
X134710715Y-89819238D01*
D11*
X170180095Y-106303381D02*
X170180095Y-107112905D01*
X170227714Y-107208143D01*
X170275333Y-107255762D01*
X170370571Y-107303381D01*
X170561048Y-107303381D01*
X170656286Y-107255762D01*
X170703905Y-107208143D01*
X170751524Y-107112905D01*
X170751524Y-106303381D01*
X171180095Y-106398619D02*
X171227714Y-106351000D01*
X171322952Y-106303381D01*
X171561048Y-106303381D01*
X171656286Y-106351000D01*
X171703905Y-106398619D01*
X171751524Y-106493857D01*
X171751524Y-106589095D01*
X171703905Y-106731952D01*
X171132476Y-107303381D01*
X171751524Y-107303381D01*
D19*
X163745333Y-100952904D02*
X163745333Y-99743381D01*
X164471048Y-101194809D02*
X161931048Y-100348143D01*
X164471048Y-99501476D01*
X164229143Y-97203381D02*
X164350095Y-97324333D01*
X164471048Y-97687190D01*
X164471048Y-97929095D01*
X164350095Y-98291952D01*
X164108190Y-98533857D01*
X163866286Y-98654809D01*
X163382476Y-98775761D01*
X163019619Y-98775761D01*
X162535810Y-98654809D01*
X162293905Y-98533857D01*
X162052000Y-98291952D01*
X161931048Y-97929095D01*
X161931048Y-97687190D01*
X162052000Y-97324333D01*
X162172952Y-97203381D01*
X164229143Y-94663381D02*
X164350095Y-94784333D01*
X164471048Y-95147190D01*
X164471048Y-95389095D01*
X164350095Y-95751952D01*
X164108190Y-95993857D01*
X163866286Y-96114809D01*
X163382476Y-96235761D01*
X163019619Y-96235761D01*
X162535810Y-96114809D01*
X162293905Y-95993857D01*
X162052000Y-95751952D01*
X161931048Y-95389095D01*
X161931048Y-95147190D01*
X162052000Y-94784333D01*
X162172952Y-94663381D01*
X163140571Y-93574809D02*
X163140571Y-92728142D01*
X164471048Y-92365285D02*
X164471048Y-93574809D01*
X161931048Y-93574809D01*
X161931048Y-92365285D01*
X164471048Y-90067190D02*
X164471048Y-91276714D01*
X161931048Y-91276714D01*
D11*
X114855667Y-78319381D02*
X114855667Y-79033667D01*
X114808047Y-79176524D01*
X114712809Y-79271762D01*
X114569952Y-79319381D01*
X114474714Y-79319381D01*
X115284238Y-78414619D02*
X115331857Y-78367000D01*
X115427095Y-78319381D01*
X115665191Y-78319381D01*
X115760429Y-78367000D01*
X115808048Y-78414619D01*
X115855667Y-78509857D01*
X115855667Y-78605095D01*
X115808048Y-78747952D01*
X115236619Y-79319381D01*
X115855667Y-79319381D01*
X129754334Y-79859143D02*
X129706715Y-79906762D01*
X129563858Y-79954381D01*
X129468620Y-79954381D01*
X129325762Y-79906762D01*
X129230524Y-79811524D01*
X129182905Y-79716286D01*
X129135286Y-79525810D01*
X129135286Y-79382952D01*
X129182905Y-79192476D01*
X129230524Y-79097238D01*
X129325762Y-79002000D01*
X129468620Y-78954381D01*
X129563858Y-78954381D01*
X129706715Y-79002000D01*
X129754334Y-79049619D01*
X130706715Y-79954381D02*
X130135286Y-79954381D01*
X130421000Y-79954381D02*
X130421000Y-78954381D01*
X130325762Y-79097238D01*
X130230524Y-79192476D01*
X130135286Y-79240095D01*
X135469334Y-79954381D02*
X135136000Y-79478190D01*
X134897905Y-79954381D02*
X134897905Y-78954381D01*
X135278858Y-78954381D01*
X135374096Y-79002000D01*
X135421715Y-79049619D01*
X135469334Y-79144857D01*
X135469334Y-79287714D01*
X135421715Y-79382952D01*
X135374096Y-79430571D01*
X135278858Y-79478190D01*
X134897905Y-79478190D01*
X136421715Y-79954381D02*
X135850286Y-79954381D01*
X136136000Y-79954381D02*
X136136000Y-78954381D01*
X136040762Y-79097238D01*
X135945524Y-79192476D01*
X135850286Y-79240095D01*
X124039334Y-79954381D02*
X123706000Y-79478190D01*
X123467905Y-79954381D02*
X123467905Y-78954381D01*
X123848858Y-78954381D01*
X123944096Y-79002000D01*
X123991715Y-79049619D01*
X124039334Y-79144857D01*
X124039334Y-79287714D01*
X123991715Y-79382952D01*
X123944096Y-79430571D01*
X123848858Y-79478190D01*
X123467905Y-79478190D01*
X124420286Y-79049619D02*
X124467905Y-79002000D01*
X124563143Y-78954381D01*
X124801239Y-78954381D01*
X124896477Y-79002000D01*
X124944096Y-79049619D01*
X124991715Y-79144857D01*
X124991715Y-79240095D01*
X124944096Y-79382952D01*
X124372667Y-79954381D01*
X124991715Y-79954381D01*
X138263334Y-84526381D02*
X137930000Y-84050190D01*
X137691905Y-84526381D02*
X137691905Y-83526381D01*
X138072858Y-83526381D01*
X138168096Y-83574000D01*
X138215715Y-83621619D01*
X138263334Y-83716857D01*
X138263334Y-83859714D01*
X138215715Y-83954952D01*
X138168096Y-84002571D01*
X138072858Y-84050190D01*
X137691905Y-84050190D01*
X138596667Y-83526381D02*
X139215715Y-83526381D01*
X138882381Y-83907333D01*
X139025239Y-83907333D01*
X139120477Y-83954952D01*
X139168096Y-84002571D01*
X139215715Y-84097810D01*
X139215715Y-84335905D01*
X139168096Y-84431143D01*
X139120477Y-84478762D01*
X139025239Y-84526381D01*
X138739524Y-84526381D01*
X138644286Y-84478762D01*
X138596667Y-84431143D01*
X138263334Y-89987381D02*
X137930000Y-89511190D01*
X137691905Y-89987381D02*
X137691905Y-88987381D01*
X138072858Y-88987381D01*
X138168096Y-89035000D01*
X138215715Y-89082619D01*
X138263334Y-89177857D01*
X138263334Y-89320714D01*
X138215715Y-89415952D01*
X138168096Y-89463571D01*
X138072858Y-89511190D01*
X137691905Y-89511190D01*
X139120477Y-89320714D02*
X139120477Y-89987381D01*
X138882381Y-88939762D02*
X138644286Y-89654048D01*
X139263334Y-89654048D01*
X164049714Y-62284429D02*
X163541714Y-61558714D01*
X163178857Y-62284429D02*
X163178857Y-60760429D01*
X163759429Y-60760429D01*
X163904571Y-60833000D01*
X163977143Y-60905571D01*
X164049714Y-61050714D01*
X164049714Y-61268429D01*
X163977143Y-61413571D01*
X163904571Y-61486143D01*
X163759429Y-61558714D01*
X163178857Y-61558714D01*
X165138286Y-60760429D02*
X165138286Y-61849000D01*
X165065714Y-62066714D01*
X164920571Y-62211857D01*
X164702857Y-62284429D01*
X164557714Y-62284429D01*
X166517143Y-61268429D02*
X166517143Y-62284429D01*
X166154286Y-60687857D02*
X165791429Y-61776429D01*
X166734857Y-61776429D01*
X168041143Y-60760429D02*
X167315429Y-60760429D01*
X167242858Y-61486143D01*
X167315429Y-61413571D01*
X167460572Y-61341000D01*
X167823429Y-61341000D01*
X167968572Y-61413571D01*
X168041143Y-61486143D01*
X168113715Y-61631286D01*
X168113715Y-61994143D01*
X168041143Y-62139286D01*
X167968572Y-62211857D01*
X167823429Y-62284429D01*
X167460572Y-62284429D01*
X167315429Y-62211857D01*
X167242858Y-62139286D01*
X147404714Y-62284429D02*
X146896714Y-61558714D01*
X146533857Y-62284429D02*
X146533857Y-60760429D01*
X147114429Y-60760429D01*
X147259571Y-60833000D01*
X147332143Y-60905571D01*
X147404714Y-61050714D01*
X147404714Y-61268429D01*
X147332143Y-61413571D01*
X147259571Y-61486143D01*
X147114429Y-61558714D01*
X146533857Y-61558714D01*
X148493286Y-60760429D02*
X148493286Y-61849000D01*
X148420714Y-62066714D01*
X148275571Y-62211857D01*
X148057857Y-62284429D01*
X147912714Y-62284429D01*
X149872143Y-61268429D02*
X149872143Y-62284429D01*
X149509286Y-60687857D02*
X149146429Y-61776429D01*
X150089857Y-61776429D01*
X151396143Y-60760429D02*
X150670429Y-60760429D01*
X150597858Y-61486143D01*
X150670429Y-61413571D01*
X150815572Y-61341000D01*
X151178429Y-61341000D01*
X151323572Y-61413571D01*
X151396143Y-61486143D01*
X151468715Y-61631286D01*
X151468715Y-61994143D01*
X151396143Y-62139286D01*
X151323572Y-62211857D01*
X151178429Y-62284429D01*
X150815572Y-62284429D01*
X150670429Y-62211857D01*
X150597858Y-62139286D01*
X130767714Y-62282429D02*
X130259714Y-61556714D01*
X129896857Y-62282429D02*
X129896857Y-60758429D01*
X130477429Y-60758429D01*
X130622571Y-60831000D01*
X130695143Y-60903571D01*
X130767714Y-61048714D01*
X130767714Y-61266429D01*
X130695143Y-61411571D01*
X130622571Y-61484143D01*
X130477429Y-61556714D01*
X129896857Y-61556714D01*
X131856286Y-60758429D02*
X131856286Y-61847000D01*
X131783714Y-62064714D01*
X131638571Y-62209857D01*
X131420857Y-62282429D01*
X131275714Y-62282429D01*
X133235143Y-61266429D02*
X133235143Y-62282429D01*
X132872286Y-60685857D02*
X132509429Y-61774429D01*
X133452857Y-61774429D01*
X134759143Y-60758429D02*
X134033429Y-60758429D01*
X133960858Y-61484143D01*
X134033429Y-61411571D01*
X134178572Y-61339000D01*
X134541429Y-61339000D01*
X134686572Y-61411571D01*
X134759143Y-61484143D01*
X134831715Y-61629286D01*
X134831715Y-61992143D01*
X134759143Y-62137286D01*
X134686572Y-62209857D01*
X134541429Y-62282429D01*
X134178572Y-62282429D01*
X134033429Y-62209857D01*
X133960858Y-62137286D01*
X114138714Y-62282429D02*
X113630714Y-61556714D01*
X113267857Y-62282429D02*
X113267857Y-60758429D01*
X113848429Y-60758429D01*
X113993571Y-60831000D01*
X114066143Y-60903571D01*
X114138714Y-61048714D01*
X114138714Y-61266429D01*
X114066143Y-61411571D01*
X113993571Y-61484143D01*
X113848429Y-61556714D01*
X113267857Y-61556714D01*
X115227286Y-60758429D02*
X115227286Y-61847000D01*
X115154714Y-62064714D01*
X115009571Y-62209857D01*
X114791857Y-62282429D01*
X114646714Y-62282429D01*
X116606143Y-61266429D02*
X116606143Y-62282429D01*
X116243286Y-60685857D02*
X115880429Y-61774429D01*
X116823857Y-61774429D01*
X118130143Y-60758429D02*
X117404429Y-60758429D01*
X117331858Y-61484143D01*
X117404429Y-61411571D01*
X117549572Y-61339000D01*
X117912429Y-61339000D01*
X118057572Y-61411571D01*
X118130143Y-61484143D01*
X118202715Y-61629286D01*
X118202715Y-61992143D01*
X118130143Y-62137286D01*
X118057572Y-62209857D01*
X117912429Y-62282429D01*
X117549572Y-62282429D01*
X117404429Y-62209857D01*
X117331858Y-62137286D01*
X112447429Y-89061286D02*
X111721714Y-89569286D01*
X112447429Y-89932143D02*
X110923429Y-89932143D01*
X110923429Y-89351571D01*
X110996000Y-89206429D01*
X111068571Y-89133857D01*
X111213714Y-89061286D01*
X111431429Y-89061286D01*
X111576571Y-89133857D01*
X111649143Y-89206429D01*
X111721714Y-89351571D01*
X111721714Y-89932143D01*
X110923429Y-87972714D02*
X112012000Y-87972714D01*
X112229714Y-88045286D01*
X112374857Y-88190429D01*
X112447429Y-88408143D01*
X112447429Y-88553286D01*
X111431429Y-86593857D02*
X112447429Y-86593857D01*
X110850857Y-86956714D02*
X111939429Y-87319571D01*
X111939429Y-86376143D01*
X110923429Y-85069857D02*
X110923429Y-85795571D01*
X111649143Y-85868142D01*
X111576571Y-85795571D01*
X111504000Y-85650428D01*
X111504000Y-85287571D01*
X111576571Y-85142428D01*
X111649143Y-85069857D01*
X111794286Y-84997285D01*
X112157143Y-84997285D01*
X112302286Y-85069857D01*
X112374857Y-85142428D01*
X112447429Y-85287571D01*
X112447429Y-85650428D01*
X112374857Y-85795571D01*
X112302286Y-85868142D01*
X112447429Y-105833286D02*
X111721714Y-106341286D01*
X112447429Y-106704143D02*
X110923429Y-106704143D01*
X110923429Y-106123571D01*
X110996000Y-105978429D01*
X111068571Y-105905857D01*
X111213714Y-105833286D01*
X111431429Y-105833286D01*
X111576571Y-105905857D01*
X111649143Y-105978429D01*
X111721714Y-106123571D01*
X111721714Y-106704143D01*
X110923429Y-104744714D02*
X112012000Y-104744714D01*
X112229714Y-104817286D01*
X112374857Y-104962429D01*
X112447429Y-105180143D01*
X112447429Y-105325286D01*
X111431429Y-103365857D02*
X112447429Y-103365857D01*
X110850857Y-103728714D02*
X111939429Y-104091571D01*
X111939429Y-103148143D01*
X110923429Y-101841857D02*
X110923429Y-102567571D01*
X111649143Y-102640142D01*
X111576571Y-102567571D01*
X111504000Y-102422428D01*
X111504000Y-102059571D01*
X111576571Y-101914428D01*
X111649143Y-101841857D01*
X111794286Y-101769285D01*
X112157143Y-101769285D01*
X112302286Y-101841857D01*
X112374857Y-101914428D01*
X112447429Y-102059571D01*
X112447429Y-102422428D01*
X112374857Y-102567571D01*
X112302286Y-102640142D01*
X124802714Y-123881429D02*
X124294714Y-123155714D01*
X123931857Y-123881429D02*
X123931857Y-122357429D01*
X124512429Y-122357429D01*
X124657571Y-122430000D01*
X124730143Y-122502571D01*
X124802714Y-122647714D01*
X124802714Y-122865429D01*
X124730143Y-123010571D01*
X124657571Y-123083143D01*
X124512429Y-123155714D01*
X123931857Y-123155714D01*
X125891286Y-122357429D02*
X125891286Y-123446000D01*
X125818714Y-123663714D01*
X125673571Y-123808857D01*
X125455857Y-123881429D01*
X125310714Y-123881429D01*
X127270143Y-122865429D02*
X127270143Y-123881429D01*
X126907286Y-122284857D02*
X126544429Y-123373429D01*
X127487857Y-123373429D01*
X128794143Y-122357429D02*
X128068429Y-122357429D01*
X127995858Y-123083143D01*
X128068429Y-123010571D01*
X128213572Y-122938000D01*
X128576429Y-122938000D01*
X128721572Y-123010571D01*
X128794143Y-123083143D01*
X128866715Y-123228286D01*
X128866715Y-123591143D01*
X128794143Y-123736286D01*
X128721572Y-123808857D01*
X128576429Y-123881429D01*
X128213572Y-123881429D01*
X128068429Y-123808857D01*
X127995858Y-123736286D01*
X142203714Y-123881429D02*
X141695714Y-123155714D01*
X141332857Y-123881429D02*
X141332857Y-122357429D01*
X141913429Y-122357429D01*
X142058571Y-122430000D01*
X142131143Y-122502571D01*
X142203714Y-122647714D01*
X142203714Y-122865429D01*
X142131143Y-123010571D01*
X142058571Y-123083143D01*
X141913429Y-123155714D01*
X141332857Y-123155714D01*
X143292286Y-122357429D02*
X143292286Y-123446000D01*
X143219714Y-123663714D01*
X143074571Y-123808857D01*
X142856857Y-123881429D01*
X142711714Y-123881429D01*
X144671143Y-122865429D02*
X144671143Y-123881429D01*
X144308286Y-122284857D02*
X143945429Y-123373429D01*
X144888857Y-123373429D01*
X146195143Y-122357429D02*
X145469429Y-122357429D01*
X145396858Y-123083143D01*
X145469429Y-123010571D01*
X145614572Y-122938000D01*
X145977429Y-122938000D01*
X146122572Y-123010571D01*
X146195143Y-123083143D01*
X146267715Y-123228286D01*
X146267715Y-123591143D01*
X146195143Y-123736286D01*
X146122572Y-123808857D01*
X145977429Y-123881429D01*
X145614572Y-123881429D01*
X145469429Y-123808857D01*
X145396858Y-123736286D01*
M02*
