G04 #@! TF.FileFunction,Copper,L2,Bot,Signal*
%FSLAX46Y46*%
G04 Gerber Fmt 4.6, Leading zero omitted, Abs format (unit mm)*
G04 Created by KiCad (PCBNEW 4.0.7) date Thursday, May 03, 2018 'PMt' 09:09:37 PM*
%MOMM*%
%LPD*%
G01*
G04 APERTURE LIST*
%ADD10C,0.100000*%
%ADD11C,4.318000*%
%ADD12R,1.700000X1.700000*%
%ADD13O,1.700000X1.700000*%
%ADD14C,6.200000*%
%ADD15R,1.727200X1.727200*%
%ADD16O,1.727200X1.727200*%
%ADD17R,1.500000X1.500000*%
%ADD18C,1.500000*%
%ADD19C,0.600000*%
%ADD20C,0.254000*%
G04 APERTURE END LIST*
D10*
D11*
X158877000Y-120650000D03*
X163576000Y-117650260D03*
X158877000Y-114650520D03*
D12*
X170942000Y-104521000D03*
D13*
X170942000Y-101981000D03*
X170942000Y-99441000D03*
X170942000Y-96901000D03*
X170942000Y-94361000D03*
X170942000Y-91821000D03*
X170942000Y-89281000D03*
X170942000Y-86741000D03*
D14*
X112815000Y-124460000D03*
X170815000Y-124460000D03*
X170815000Y-75460000D03*
D15*
X117685000Y-76730000D03*
D16*
X117685000Y-74190000D03*
X120225000Y-76730000D03*
X120225000Y-74190000D03*
X122765000Y-76730000D03*
X122765000Y-74190000D03*
X125305000Y-76730000D03*
X125305000Y-74190000D03*
X127845000Y-76730000D03*
X127845000Y-74190000D03*
X130385000Y-76730000D03*
X130385000Y-74190000D03*
X132925000Y-76730000D03*
X132925000Y-74190000D03*
X135465000Y-76730000D03*
X135465000Y-74190000D03*
X138005000Y-76730000D03*
X138005000Y-74190000D03*
X140545000Y-76730000D03*
X140545000Y-74190000D03*
X143085000Y-76730000D03*
X143085000Y-74190000D03*
X145625000Y-76730000D03*
X145625000Y-74190000D03*
X148165000Y-76730000D03*
X148165000Y-74190000D03*
X150705000Y-76730000D03*
X150705000Y-74190000D03*
X153245000Y-76730000D03*
X153245000Y-74190000D03*
X155785000Y-76730000D03*
X155785000Y-74190000D03*
X158325000Y-76730000D03*
X158325000Y-74190000D03*
X160865000Y-76730000D03*
X160865000Y-74190000D03*
X163405000Y-76730000D03*
X163405000Y-74190000D03*
X165945000Y-76730000D03*
X165945000Y-74190000D03*
D14*
X112815000Y-75460000D03*
D17*
X162040000Y-64135000D03*
D18*
X163060000Y-65915000D03*
X164080000Y-64135000D03*
X165100000Y-65915000D03*
X166120000Y-64135000D03*
X167140000Y-65915000D03*
X168160000Y-64135000D03*
X169180000Y-65915000D03*
D17*
X145395000Y-64135000D03*
D18*
X146415000Y-65915000D03*
X147435000Y-64135000D03*
X148455000Y-65915000D03*
X149475000Y-64135000D03*
X150495000Y-65915000D03*
X151515000Y-64135000D03*
X152535000Y-65915000D03*
D17*
X128758000Y-64133000D03*
D18*
X129778000Y-65913000D03*
X130798000Y-64133000D03*
X131818000Y-65913000D03*
X132838000Y-64133000D03*
X133858000Y-65913000D03*
X134878000Y-64133000D03*
X135898000Y-65913000D03*
D17*
X112129000Y-64133000D03*
D18*
X113149000Y-65913000D03*
X114169000Y-64133000D03*
X115189000Y-65913000D03*
X116209000Y-64133000D03*
X117229000Y-65913000D03*
X118249000Y-64133000D03*
X119269000Y-65913000D03*
D17*
X114298000Y-91071000D03*
D18*
X116078000Y-90051000D03*
X114298000Y-89031000D03*
X116078000Y-88011000D03*
X114298000Y-86991000D03*
X116078000Y-85971000D03*
X114298000Y-84951000D03*
X116078000Y-83931000D03*
D17*
X114298000Y-107843000D03*
D18*
X116078000Y-106823000D03*
X114298000Y-105803000D03*
X116078000Y-104783000D03*
X114298000Y-103763000D03*
X116078000Y-102743000D03*
X114298000Y-101723000D03*
X116078000Y-100703000D03*
D17*
X129933000Y-120652000D03*
D18*
X128913000Y-118872000D03*
X127893000Y-120652000D03*
X126873000Y-118872000D03*
X125853000Y-120652000D03*
X124833000Y-118872000D03*
X123813000Y-120652000D03*
X122793000Y-118872000D03*
D17*
X147334000Y-120652000D03*
D18*
X146314000Y-118872000D03*
X145294000Y-120652000D03*
X144274000Y-118872000D03*
X143254000Y-120652000D03*
X142234000Y-118872000D03*
X141214000Y-120652000D03*
X140194000Y-118872000D03*
D19*
X128905000Y-82550000D03*
X132207000Y-88653990D03*
X161544000Y-67818000D03*
X144780000Y-67818000D03*
X127635000Y-67945000D03*
X117983000Y-91440000D03*
X118999000Y-107823000D03*
X131318000Y-117094000D03*
X132588000Y-86860932D03*
X130855001Y-66990001D03*
X160401000Y-68834000D03*
X143764000Y-68834000D03*
X126619000Y-68834000D03*
X119888000Y-91821000D03*
X120396000Y-107950000D03*
X132461000Y-116459000D03*
X143129000Y-87884000D03*
X143129000Y-85598000D03*
X140081000Y-81026000D03*
X125737990Y-79502000D03*
X126492000Y-85648800D03*
X128397000Y-88646000D03*
D20*
X127635000Y-67945000D02*
X129035601Y-69345601D01*
X129035601Y-69345601D02*
X129035601Y-77346601D01*
X129035601Y-77346601D02*
X131121590Y-79432590D01*
X131121590Y-79432590D02*
X131121590Y-87568580D01*
X131121590Y-87568580D02*
X131907001Y-88353991D01*
X131907001Y-88353991D02*
X132207000Y-88653990D01*
X161544000Y-67818000D02*
X161843999Y-67518001D01*
X161843999Y-67518001D02*
X161843999Y-65335001D01*
X161843999Y-65335001D02*
X162040000Y-65139000D01*
X162040000Y-65139000D02*
X162040000Y-64135000D01*
X144780000Y-67818000D02*
X144780000Y-64750000D01*
X144780000Y-64750000D02*
X145395000Y-64135000D01*
X127635000Y-67945000D02*
X127934999Y-67645001D01*
X127934999Y-67645001D02*
X127934999Y-65960001D01*
X127934999Y-65960001D02*
X128758000Y-65137000D01*
X128758000Y-65137000D02*
X128758000Y-64133000D01*
X117983000Y-91440000D02*
X114667000Y-91440000D01*
X114667000Y-91440000D02*
X114298000Y-91071000D01*
X118999000Y-107823000D02*
X118574736Y-107823000D01*
X115302000Y-107843000D02*
X114298000Y-107843000D01*
X118574736Y-107823000D02*
X118497735Y-107900001D01*
X118497735Y-107900001D02*
X115359001Y-107900001D01*
X115359001Y-107900001D02*
X115302000Y-107843000D01*
X131318000Y-117094000D02*
X131018001Y-117393999D01*
X131018001Y-117393999D02*
X131018001Y-118562999D01*
X131018001Y-118562999D02*
X129933000Y-119648000D01*
X129933000Y-119648000D02*
X129933000Y-120652000D01*
X131575601Y-85848533D02*
X132588000Y-86860932D01*
X130855001Y-66990001D02*
X131575601Y-67710601D01*
X131575601Y-67710601D02*
X131575601Y-85848533D01*
X120187999Y-91521001D02*
X120187999Y-88346001D01*
X126365000Y-82169000D02*
X126365000Y-77790000D01*
X119888000Y-91821000D02*
X120187999Y-91521001D01*
X120187999Y-88346001D02*
X126365000Y-82169000D01*
X126365000Y-77790000D02*
X125305000Y-76730000D01*
X126619000Y-68834000D02*
X126619000Y-75416000D01*
X126619000Y-75416000D02*
X125305000Y-76730000D01*
X160401000Y-68834000D02*
X160401000Y-63685398D01*
X161028399Y-63057999D02*
X163002999Y-63057999D01*
X160401000Y-63685398D02*
X161028399Y-63057999D01*
X163002999Y-63057999D02*
X163330001Y-63385001D01*
X163330001Y-63385001D02*
X164080000Y-64135000D01*
X143764000Y-68834000D02*
X143764000Y-63677398D01*
X143764000Y-63677398D02*
X144383399Y-63057999D01*
X144383399Y-63057999D02*
X146357999Y-63057999D01*
X146357999Y-63057999D02*
X146685001Y-63385001D01*
X146685001Y-63385001D02*
X147435000Y-64135000D01*
X126619000Y-68834000D02*
X126619000Y-64183398D01*
X126619000Y-64183398D02*
X127746399Y-63055999D01*
X127746399Y-63055999D02*
X129720999Y-63055999D01*
X129720999Y-63055999D02*
X130048001Y-63383001D01*
X130048001Y-63383001D02*
X130798000Y-64133000D01*
X119888000Y-91821000D02*
X119560999Y-92148001D01*
X113548001Y-89780999D02*
X114298000Y-89031000D01*
X119560999Y-92148001D02*
X113286399Y-92148001D01*
X113286399Y-92148001D02*
X113220999Y-92082601D01*
X113220999Y-92082601D02*
X113220999Y-90108001D01*
X113220999Y-90108001D02*
X113548001Y-89780999D01*
X120396000Y-107950000D02*
X119425999Y-108920001D01*
X119425999Y-108920001D02*
X113286399Y-108920001D01*
X113286399Y-108920001D02*
X113220999Y-108854601D01*
X113220999Y-108854601D02*
X113220999Y-106880001D01*
X113220999Y-106880001D02*
X113548001Y-106552999D01*
X113548001Y-106552999D02*
X114298000Y-105803000D01*
X132461000Y-116459000D02*
X132161001Y-116758999D01*
X132161001Y-116758999D02*
X132161001Y-120512601D01*
X132161001Y-120512601D02*
X130944601Y-121729001D01*
X130944601Y-121729001D02*
X128970001Y-121729001D01*
X128970001Y-121729001D02*
X128642999Y-121401999D01*
X128642999Y-121401999D02*
X127893000Y-120652000D01*
X119339400Y-79502000D02*
X125313726Y-79502000D01*
X125313726Y-79502000D02*
X125737990Y-79502000D01*
X117685000Y-76730000D02*
X117685000Y-77847600D01*
X117685000Y-77847600D02*
X119339400Y-79502000D01*
X130302000Y-91821000D02*
X126492000Y-88011000D01*
X126492000Y-88011000D02*
X126492000Y-85648800D01*
X170942000Y-91821000D02*
X130302000Y-91821000D01*
X170942000Y-89281000D02*
X129032000Y-89281000D01*
X129032000Y-89281000D02*
X128397000Y-88646000D01*
G36*
X173915000Y-60473794D02*
X173855845Y-60330628D01*
X173227679Y-59701364D01*
X172406519Y-59360389D01*
X171517381Y-59359613D01*
X170695628Y-59699155D01*
X170066364Y-60327321D01*
X169725389Y-61148481D01*
X169724613Y-62037619D01*
X170064155Y-62859372D01*
X170692321Y-63488636D01*
X171513481Y-63829611D01*
X172402619Y-63830387D01*
X173224372Y-63490845D01*
X173853636Y-62862679D01*
X173915000Y-62714898D01*
X173915000Y-73278712D01*
X172933470Y-72295467D01*
X171561197Y-71725650D01*
X170075322Y-71724353D01*
X168702056Y-72291775D01*
X167650467Y-73341530D01*
X167400440Y-73943662D01*
X167329526Y-73587152D01*
X167004670Y-73100971D01*
X166518489Y-72776115D01*
X165945000Y-72662041D01*
X165371511Y-72776115D01*
X164885330Y-73100971D01*
X164675000Y-73415752D01*
X164464670Y-73100971D01*
X163978489Y-72776115D01*
X163405000Y-72662041D01*
X162831511Y-72776115D01*
X162345330Y-73100971D01*
X162135000Y-73415752D01*
X161924670Y-73100971D01*
X161438489Y-72776115D01*
X160865000Y-72662041D01*
X160291511Y-72776115D01*
X159805330Y-73100971D01*
X159589336Y-73424228D01*
X159531821Y-73301510D01*
X159099947Y-72907312D01*
X158684026Y-72735042D01*
X158452000Y-72856183D01*
X158452000Y-74063000D01*
X158472000Y-74063000D01*
X158472000Y-74317000D01*
X158452000Y-74317000D01*
X158452000Y-74337000D01*
X158198000Y-74337000D01*
X158198000Y-74317000D01*
X158178000Y-74317000D01*
X158178000Y-74063000D01*
X158198000Y-74063000D01*
X158198000Y-72856183D01*
X157965974Y-72735042D01*
X157550053Y-72907312D01*
X157118179Y-73301510D01*
X157060664Y-73424228D01*
X156844670Y-73100971D01*
X156358489Y-72776115D01*
X155785000Y-72662041D01*
X155211511Y-72776115D01*
X154725330Y-73100971D01*
X154509336Y-73424228D01*
X154451821Y-73301510D01*
X154019947Y-72907312D01*
X153604026Y-72735042D01*
X153372000Y-72856183D01*
X153372000Y-74063000D01*
X153392000Y-74063000D01*
X153392000Y-74317000D01*
X153372000Y-74317000D01*
X153372000Y-74337000D01*
X153118000Y-74337000D01*
X153118000Y-74317000D01*
X153098000Y-74317000D01*
X153098000Y-74063000D01*
X153118000Y-74063000D01*
X153118000Y-72856183D01*
X152885974Y-72735042D01*
X152470053Y-72907312D01*
X152038179Y-73301510D01*
X151980664Y-73424228D01*
X151764670Y-73100971D01*
X151278489Y-72776115D01*
X150705000Y-72662041D01*
X150131511Y-72776115D01*
X149645330Y-73100971D01*
X149435000Y-73415752D01*
X149224670Y-73100971D01*
X148738489Y-72776115D01*
X148165000Y-72662041D01*
X147591511Y-72776115D01*
X147105330Y-73100971D01*
X146895000Y-73415752D01*
X146684670Y-73100971D01*
X146198489Y-72776115D01*
X145625000Y-72662041D01*
X145051511Y-72776115D01*
X144565330Y-73100971D01*
X144355000Y-73415752D01*
X144144670Y-73100971D01*
X143658489Y-72776115D01*
X143085000Y-72662041D01*
X142511511Y-72776115D01*
X142025330Y-73100971D01*
X141809336Y-73424228D01*
X141751821Y-73301510D01*
X141319947Y-72907312D01*
X140904026Y-72735042D01*
X140672000Y-72856183D01*
X140672000Y-74063000D01*
X140692000Y-74063000D01*
X140692000Y-74317000D01*
X140672000Y-74317000D01*
X140672000Y-74337000D01*
X140418000Y-74337000D01*
X140418000Y-74317000D01*
X140398000Y-74317000D01*
X140398000Y-74063000D01*
X140418000Y-74063000D01*
X140418000Y-72856183D01*
X140185974Y-72735042D01*
X139770053Y-72907312D01*
X139338179Y-73301510D01*
X139280664Y-73424228D01*
X139064670Y-73100971D01*
X138578489Y-72776115D01*
X138005000Y-72662041D01*
X137431511Y-72776115D01*
X136945330Y-73100971D01*
X136735000Y-73415752D01*
X136524670Y-73100971D01*
X136038489Y-72776115D01*
X135465000Y-72662041D01*
X134891511Y-72776115D01*
X134405330Y-73100971D01*
X134189336Y-73424228D01*
X134131821Y-73301510D01*
X133699947Y-72907312D01*
X133284026Y-72735042D01*
X133052000Y-72856183D01*
X133052000Y-74063000D01*
X133072000Y-74063000D01*
X133072000Y-74317000D01*
X133052000Y-74317000D01*
X133052000Y-74337000D01*
X132798000Y-74337000D01*
X132798000Y-74317000D01*
X132778000Y-74317000D01*
X132778000Y-74063000D01*
X132798000Y-74063000D01*
X132798000Y-72856183D01*
X132565974Y-72735042D01*
X132337601Y-72829632D01*
X132337601Y-67710601D01*
X132279597Y-67418996D01*
X132271037Y-67406185D01*
X132175842Y-67263715D01*
X132601515Y-67087831D01*
X132838071Y-66851687D01*
X133072436Y-67086461D01*
X133581298Y-67297759D01*
X134132285Y-67298240D01*
X134641515Y-67087831D01*
X134845183Y-66884517D01*
X135106088Y-66884517D01*
X135174077Y-67125460D01*
X135693171Y-67310201D01*
X136243448Y-67282230D01*
X136621923Y-67125460D01*
X136689912Y-66884517D01*
X135898000Y-66092605D01*
X135106088Y-66884517D01*
X134845183Y-66884517D01*
X135031461Y-66698564D01*
X135101497Y-66529898D01*
X135718395Y-65913000D01*
X136077605Y-65913000D01*
X136869517Y-66704912D01*
X137110460Y-66636923D01*
X137295201Y-66117829D01*
X137267230Y-65567552D01*
X137110460Y-65189077D01*
X136869517Y-65121088D01*
X136077605Y-65913000D01*
X135718395Y-65913000D01*
X135704253Y-65898858D01*
X135883858Y-65719253D01*
X135898000Y-65733395D01*
X136689912Y-64941483D01*
X136621923Y-64700540D01*
X136199605Y-64550241D01*
X136275201Y-64337829D01*
X136247230Y-63787552D01*
X136090460Y-63409077D01*
X135849517Y-63341088D01*
X135057605Y-64133000D01*
X135071748Y-64147143D01*
X134892143Y-64326748D01*
X134878000Y-64312605D01*
X134863858Y-64326748D01*
X134684253Y-64147143D01*
X134698395Y-64133000D01*
X134081801Y-63516406D01*
X134012831Y-63349485D01*
X133825157Y-63161483D01*
X134086088Y-63161483D01*
X134878000Y-63953395D01*
X135669912Y-63161483D01*
X135601923Y-62920540D01*
X135082829Y-62735799D01*
X134532552Y-62763770D01*
X134154077Y-62920540D01*
X134086088Y-63161483D01*
X133825157Y-63161483D01*
X133623564Y-62959539D01*
X133114702Y-62748241D01*
X132563715Y-62747760D01*
X132054485Y-62958169D01*
X131817929Y-63194313D01*
X131583564Y-62959539D01*
X131074702Y-62748241D01*
X130523715Y-62747760D01*
X130500134Y-62757503D01*
X130259814Y-62517184D01*
X130012604Y-62352003D01*
X129720999Y-62293999D01*
X128106942Y-62293999D01*
X128212611Y-62039519D01*
X128212614Y-62035619D01*
X136442613Y-62035619D01*
X136782155Y-62857372D01*
X137410321Y-63486636D01*
X138231481Y-63827611D01*
X139120619Y-63828387D01*
X139942372Y-63488845D01*
X140571636Y-62860679D01*
X140645848Y-62681956D01*
X140719155Y-62859372D01*
X141347321Y-63488636D01*
X142168481Y-63829611D01*
X143002000Y-63830338D01*
X143002000Y-68273534D01*
X142971808Y-68303673D01*
X142829162Y-68647201D01*
X142828838Y-69019167D01*
X142970883Y-69362943D01*
X143233673Y-69626192D01*
X143577201Y-69768838D01*
X143949167Y-69769162D01*
X144292943Y-69627117D01*
X144556192Y-69364327D01*
X144698838Y-69020799D01*
X144699071Y-68752930D01*
X144965167Y-68753162D01*
X145308943Y-68611117D01*
X145572192Y-68348327D01*
X145714838Y-68004799D01*
X145715162Y-67632833D01*
X145573117Y-67289057D01*
X145542000Y-67257886D01*
X145542000Y-67000872D01*
X145629436Y-67088461D01*
X146138298Y-67299759D01*
X146689285Y-67300240D01*
X147198515Y-67089831D01*
X147435071Y-66853687D01*
X147669436Y-67088461D01*
X148178298Y-67299759D01*
X148729285Y-67300240D01*
X149238515Y-67089831D01*
X149475071Y-66853687D01*
X149709436Y-67088461D01*
X150218298Y-67299759D01*
X150769285Y-67300240D01*
X151278515Y-67089831D01*
X151482183Y-66886517D01*
X151743088Y-66886517D01*
X151811077Y-67127460D01*
X152330171Y-67312201D01*
X152880448Y-67284230D01*
X153258923Y-67127460D01*
X153326912Y-66886517D01*
X152535000Y-66094605D01*
X151743088Y-66886517D01*
X151482183Y-66886517D01*
X151668461Y-66700564D01*
X151738497Y-66531898D01*
X152355395Y-65915000D01*
X152714605Y-65915000D01*
X153506517Y-66706912D01*
X153747460Y-66638923D01*
X153932201Y-66119829D01*
X153904230Y-65569552D01*
X153747460Y-65191077D01*
X153506517Y-65123088D01*
X152714605Y-65915000D01*
X152355395Y-65915000D01*
X152341253Y-65900858D01*
X152520858Y-65721253D01*
X152535000Y-65735395D01*
X153326912Y-64943483D01*
X153258923Y-64702540D01*
X152836605Y-64552241D01*
X152912201Y-64339829D01*
X152884230Y-63789552D01*
X152727460Y-63411077D01*
X152486517Y-63343088D01*
X151694605Y-64135000D01*
X151708748Y-64149143D01*
X151529143Y-64328748D01*
X151515000Y-64314605D01*
X151500858Y-64328748D01*
X151321253Y-64149143D01*
X151335395Y-64135000D01*
X150718801Y-63518406D01*
X150649831Y-63351485D01*
X150462157Y-63163483D01*
X150723088Y-63163483D01*
X151515000Y-63955395D01*
X152306912Y-63163483D01*
X152238923Y-62922540D01*
X151719829Y-62737799D01*
X151169552Y-62765770D01*
X150791077Y-62922540D01*
X150723088Y-63163483D01*
X150462157Y-63163483D01*
X150260564Y-62961539D01*
X149751702Y-62750241D01*
X149200715Y-62749760D01*
X148691485Y-62960169D01*
X148454929Y-63196313D01*
X148220564Y-62961539D01*
X147711702Y-62750241D01*
X147160715Y-62749760D01*
X147137134Y-62759503D01*
X146896814Y-62519184D01*
X146893821Y-62517184D01*
X146649604Y-62354003D01*
X146357999Y-62295999D01*
X144743942Y-62295999D01*
X144849611Y-62041519D01*
X144849614Y-62037619D01*
X153079613Y-62037619D01*
X153419155Y-62859372D01*
X154047321Y-63488636D01*
X154868481Y-63829611D01*
X155757619Y-63830387D01*
X156579372Y-63490845D01*
X157208636Y-62862679D01*
X157287272Y-62673302D01*
X157364155Y-62859372D01*
X157992321Y-63488636D01*
X158813481Y-63829611D01*
X159639000Y-63830331D01*
X159639000Y-68273534D01*
X159608808Y-68303673D01*
X159466162Y-68647201D01*
X159465838Y-69019167D01*
X159607883Y-69362943D01*
X159870673Y-69626192D01*
X160214201Y-69768838D01*
X160586167Y-69769162D01*
X160929943Y-69627117D01*
X161193192Y-69364327D01*
X161335838Y-69020799D01*
X161336079Y-68744067D01*
X161357201Y-68752838D01*
X161729167Y-68753162D01*
X162072943Y-68611117D01*
X162336192Y-68348327D01*
X162478838Y-68004799D01*
X162478918Y-67912987D01*
X162542386Y-67818000D01*
X162547995Y-67809606D01*
X162605999Y-67518001D01*
X162605999Y-67226138D01*
X162783298Y-67299759D01*
X163334285Y-67300240D01*
X163843515Y-67089831D01*
X164080071Y-66853687D01*
X164314436Y-67088461D01*
X164823298Y-67299759D01*
X165374285Y-67300240D01*
X165883515Y-67089831D01*
X166120071Y-66853687D01*
X166354436Y-67088461D01*
X166863298Y-67299759D01*
X167414285Y-67300240D01*
X167923515Y-67089831D01*
X168127183Y-66886517D01*
X168388088Y-66886517D01*
X168456077Y-67127460D01*
X168975171Y-67312201D01*
X169525448Y-67284230D01*
X169903923Y-67127460D01*
X169971912Y-66886517D01*
X169180000Y-66094605D01*
X168388088Y-66886517D01*
X168127183Y-66886517D01*
X168313461Y-66700564D01*
X168383497Y-66531898D01*
X169000395Y-65915000D01*
X169359605Y-65915000D01*
X170151517Y-66706912D01*
X170392460Y-66638923D01*
X170577201Y-66119829D01*
X170549230Y-65569552D01*
X170392460Y-65191077D01*
X170151517Y-65123088D01*
X169359605Y-65915000D01*
X169000395Y-65915000D01*
X168986253Y-65900858D01*
X169165858Y-65721253D01*
X169180000Y-65735395D01*
X169971912Y-64943483D01*
X169903923Y-64702540D01*
X169481605Y-64552241D01*
X169557201Y-64339829D01*
X169529230Y-63789552D01*
X169372460Y-63411077D01*
X169131517Y-63343088D01*
X168339605Y-64135000D01*
X168353748Y-64149143D01*
X168174143Y-64328748D01*
X168160000Y-64314605D01*
X168145858Y-64328748D01*
X167966253Y-64149143D01*
X167980395Y-64135000D01*
X167363801Y-63518406D01*
X167294831Y-63351485D01*
X167107157Y-63163483D01*
X167368088Y-63163483D01*
X168160000Y-63955395D01*
X168951912Y-63163483D01*
X168883923Y-62922540D01*
X168364829Y-62737799D01*
X167814552Y-62765770D01*
X167436077Y-62922540D01*
X167368088Y-63163483D01*
X167107157Y-63163483D01*
X166905564Y-62961539D01*
X166396702Y-62750241D01*
X165845715Y-62749760D01*
X165336485Y-62960169D01*
X165099929Y-63196313D01*
X164865564Y-62961539D01*
X164356702Y-62750241D01*
X163805715Y-62749760D01*
X163782134Y-62759503D01*
X163541814Y-62519184D01*
X163538821Y-62517184D01*
X163294604Y-62354003D01*
X163002999Y-62295999D01*
X161388942Y-62295999D01*
X161494611Y-62041519D01*
X161495387Y-61152381D01*
X161155845Y-60330628D01*
X160527679Y-59701364D01*
X159706519Y-59360389D01*
X158817381Y-59359613D01*
X157995628Y-59699155D01*
X157366364Y-60327321D01*
X157287728Y-60516698D01*
X157210845Y-60330628D01*
X156582679Y-59701364D01*
X155761519Y-59360389D01*
X154872381Y-59359613D01*
X154050628Y-59699155D01*
X153421364Y-60327321D01*
X153080389Y-61148481D01*
X153079613Y-62037619D01*
X144849614Y-62037619D01*
X144850387Y-61152381D01*
X144510845Y-60330628D01*
X143882679Y-59701364D01*
X143061519Y-59360389D01*
X142172381Y-59359613D01*
X141350628Y-59699155D01*
X140721364Y-60327321D01*
X140647152Y-60506044D01*
X140573845Y-60328628D01*
X139945679Y-59699364D01*
X139124519Y-59358389D01*
X138235381Y-59357613D01*
X137413628Y-59697155D01*
X136784364Y-60325321D01*
X136443389Y-61146481D01*
X136442613Y-62035619D01*
X128212614Y-62035619D01*
X128213387Y-61150381D01*
X127873845Y-60328628D01*
X127245679Y-59699364D01*
X126424519Y-59358389D01*
X125535381Y-59357613D01*
X124713628Y-59697155D01*
X124084364Y-60325321D01*
X124013748Y-60495385D01*
X123944845Y-60328628D01*
X123316679Y-59699364D01*
X122495519Y-59358389D01*
X121606381Y-59357613D01*
X120784628Y-59697155D01*
X120155364Y-60325321D01*
X119814389Y-61146481D01*
X119813613Y-62035619D01*
X120153155Y-62857372D01*
X120781321Y-63486636D01*
X121602481Y-63827611D01*
X122491619Y-63828387D01*
X123313372Y-63488845D01*
X123942636Y-62860679D01*
X124013252Y-62690615D01*
X124082155Y-62857372D01*
X124710321Y-63486636D01*
X125531481Y-63827611D01*
X125957641Y-63827983D01*
X125915004Y-63891793D01*
X125857000Y-64183398D01*
X125857000Y-68273534D01*
X125826808Y-68303673D01*
X125684162Y-68647201D01*
X125683838Y-69019167D01*
X125825883Y-69362943D01*
X125857000Y-69394114D01*
X125857000Y-72771841D01*
X125305000Y-72662041D01*
X124731511Y-72776115D01*
X124245330Y-73100971D01*
X124029336Y-73424228D01*
X123971821Y-73301510D01*
X123539947Y-72907312D01*
X123124026Y-72735042D01*
X122892000Y-72856183D01*
X122892000Y-74063000D01*
X122912000Y-74063000D01*
X122912000Y-74317000D01*
X122892000Y-74317000D01*
X122892000Y-74337000D01*
X122638000Y-74337000D01*
X122638000Y-74317000D01*
X122618000Y-74317000D01*
X122618000Y-74063000D01*
X122638000Y-74063000D01*
X122638000Y-72856183D01*
X122405974Y-72735042D01*
X121990053Y-72907312D01*
X121558179Y-73301510D01*
X121500664Y-73424228D01*
X121284670Y-73100971D01*
X120798489Y-72776115D01*
X120225000Y-72662041D01*
X119651511Y-72776115D01*
X119165330Y-73100971D01*
X118955000Y-73415752D01*
X118744670Y-73100971D01*
X118258489Y-72776115D01*
X117685000Y-72662041D01*
X117111511Y-72776115D01*
X116625330Y-73100971D01*
X116300474Y-73587152D01*
X116229618Y-73943372D01*
X115983225Y-73347056D01*
X114933470Y-72295467D01*
X113561197Y-71725650D01*
X112075322Y-71724353D01*
X110702056Y-72291775D01*
X109650467Y-73341530D01*
X109080650Y-74713803D01*
X109079353Y-76199678D01*
X109646775Y-77572944D01*
X110696530Y-78624533D01*
X111397702Y-78915685D01*
X111315381Y-78915613D01*
X110493628Y-79255155D01*
X109864364Y-79883321D01*
X109523389Y-80704481D01*
X109522613Y-81593619D01*
X109862155Y-82415372D01*
X110490321Y-83044636D01*
X111311481Y-83385611D01*
X112200619Y-83386387D01*
X113022372Y-83046845D01*
X113109886Y-82959483D01*
X115286088Y-82959483D01*
X116078000Y-83751395D01*
X116869912Y-82959483D01*
X116801923Y-82718540D01*
X116282829Y-82533799D01*
X115732552Y-82561770D01*
X115354077Y-82718540D01*
X115286088Y-82959483D01*
X113109886Y-82959483D01*
X113651636Y-82418679D01*
X113992611Y-81597519D01*
X113993387Y-80708381D01*
X113653845Y-79886628D01*
X113025679Y-79257364D01*
X112875620Y-79195054D01*
X113554678Y-79195647D01*
X114927944Y-78628225D01*
X115979533Y-77578470D01*
X116173960Y-77110237D01*
X116173960Y-77593600D01*
X116218238Y-77828917D01*
X116357310Y-78045041D01*
X116569510Y-78190031D01*
X116821400Y-78241040D01*
X117049048Y-78241040D01*
X117107698Y-78328815D01*
X117146185Y-78386415D01*
X118800585Y-80040815D01*
X119047795Y-80205996D01*
X119339400Y-80264000D01*
X125177524Y-80264000D01*
X125207663Y-80294192D01*
X125551191Y-80436838D01*
X125603000Y-80436883D01*
X125603000Y-81853369D01*
X119649184Y-87807186D01*
X119484003Y-88054396D01*
X119425999Y-88346001D01*
X119425999Y-91000223D01*
X119359057Y-91027883D01*
X119095808Y-91290673D01*
X119056224Y-91386001D01*
X118918048Y-91386001D01*
X118918162Y-91254833D01*
X118776117Y-90911057D01*
X118513327Y-90647808D01*
X118169799Y-90505162D01*
X117797833Y-90504838D01*
X117454057Y-90646883D01*
X117422886Y-90678000D01*
X117317303Y-90678000D01*
X117462759Y-90327702D01*
X117463240Y-89776715D01*
X117252831Y-89267485D01*
X117016687Y-89030929D01*
X117251461Y-88796564D01*
X117462759Y-88287702D01*
X117463240Y-87736715D01*
X117252831Y-87227485D01*
X117016687Y-86990929D01*
X117251461Y-86756564D01*
X117462759Y-86247702D01*
X117463240Y-85696715D01*
X117252831Y-85187485D01*
X116863564Y-84797539D01*
X116694898Y-84727503D01*
X116078000Y-84110605D01*
X116063858Y-84124748D01*
X115884253Y-83945143D01*
X115898395Y-83931000D01*
X116257605Y-83931000D01*
X117049517Y-84722912D01*
X117290460Y-84654923D01*
X117475201Y-84135829D01*
X117447230Y-83585552D01*
X117290460Y-83207077D01*
X117049517Y-83139088D01*
X116257605Y-83931000D01*
X115898395Y-83931000D01*
X115106483Y-83139088D01*
X114865540Y-83207077D01*
X114715241Y-83629395D01*
X114502829Y-83553799D01*
X113952552Y-83581770D01*
X113574077Y-83738540D01*
X113506088Y-83979483D01*
X114298000Y-84771395D01*
X114312143Y-84757253D01*
X114491748Y-84936858D01*
X114477605Y-84951000D01*
X114491748Y-84965143D01*
X114312143Y-85144748D01*
X114298000Y-85130605D01*
X113681406Y-85747199D01*
X113514485Y-85816169D01*
X113124539Y-86205436D01*
X112913241Y-86714298D01*
X112912760Y-87265285D01*
X113123169Y-87774515D01*
X113359313Y-88011071D01*
X113124539Y-88245436D01*
X112913241Y-88754298D01*
X112912760Y-89305285D01*
X112922503Y-89328866D01*
X112682184Y-89569186D01*
X112517003Y-89816396D01*
X112458999Y-90108001D01*
X112458999Y-91722058D01*
X112204519Y-91616389D01*
X111315381Y-91615613D01*
X110493628Y-91955155D01*
X109864364Y-92583321D01*
X109523389Y-93404481D01*
X109522613Y-94293619D01*
X109862155Y-95115372D01*
X110490321Y-95744636D01*
X110833001Y-95886929D01*
X110493628Y-96027155D01*
X109864364Y-96655321D01*
X109523389Y-97476481D01*
X109522613Y-98365619D01*
X109862155Y-99187372D01*
X110490321Y-99816636D01*
X111311481Y-100157611D01*
X112200619Y-100158387D01*
X113022372Y-99818845D01*
X113109886Y-99731483D01*
X115286088Y-99731483D01*
X116078000Y-100523395D01*
X116869912Y-99731483D01*
X116801923Y-99490540D01*
X116282829Y-99305799D01*
X115732552Y-99333770D01*
X115354077Y-99490540D01*
X115286088Y-99731483D01*
X113109886Y-99731483D01*
X113651636Y-99190679D01*
X113992611Y-98369519D01*
X113993387Y-97480381D01*
X113653845Y-96658628D01*
X113025679Y-96029364D01*
X112682999Y-95887071D01*
X113022372Y-95746845D01*
X113651636Y-95118679D01*
X113992611Y-94297519D01*
X113993387Y-93408381D01*
X113787460Y-92910001D01*
X119560999Y-92910001D01*
X119852604Y-92851997D01*
X119996131Y-92756095D01*
X120073167Y-92756162D01*
X120416943Y-92614117D01*
X120680192Y-92351327D01*
X120822838Y-92007799D01*
X120822918Y-91915987D01*
X120825833Y-91911624D01*
X120891995Y-91812606D01*
X120949999Y-91521001D01*
X120949999Y-88661631D01*
X126903816Y-82707815D01*
X127068997Y-82460604D01*
X127127000Y-82169000D01*
X127127000Y-78036275D01*
X127485974Y-78184958D01*
X127718000Y-78063817D01*
X127718000Y-76857000D01*
X127698000Y-76857000D01*
X127698000Y-76603000D01*
X127718000Y-76603000D01*
X127718000Y-76583000D01*
X127972000Y-76583000D01*
X127972000Y-76603000D01*
X127992000Y-76603000D01*
X127992000Y-76857000D01*
X127972000Y-76857000D01*
X127972000Y-78063817D01*
X128204026Y-78184958D01*
X128619947Y-78012688D01*
X128622096Y-78010726D01*
X130359590Y-79748220D01*
X130359590Y-87568580D01*
X130417594Y-87860185D01*
X130472264Y-87942004D01*
X130582775Y-88107395D01*
X130994380Y-88519000D01*
X129347631Y-88519000D01*
X129332125Y-88503494D01*
X129332162Y-88460833D01*
X129190117Y-88117057D01*
X128927327Y-87853808D01*
X128583799Y-87711162D01*
X128211833Y-87710838D01*
X127868057Y-87852883D01*
X127639586Y-88080956D01*
X127254000Y-87695370D01*
X127254000Y-86209266D01*
X127284192Y-86179127D01*
X127426838Y-85835599D01*
X127427162Y-85463633D01*
X127285117Y-85119857D01*
X127022327Y-84856608D01*
X126678799Y-84713962D01*
X126306833Y-84713638D01*
X125963057Y-84855683D01*
X125699808Y-85118473D01*
X125557162Y-85462001D01*
X125556838Y-85833967D01*
X125698883Y-86177743D01*
X125730000Y-86208914D01*
X125730000Y-88011000D01*
X125788004Y-88302605D01*
X125893729Y-88460833D01*
X125953185Y-88549815D01*
X129763185Y-92359816D01*
X129882600Y-92439606D01*
X130010395Y-92524996D01*
X130302000Y-92583000D01*
X169670382Y-92583000D01*
X169862853Y-92871054D01*
X170192026Y-93091000D01*
X169862853Y-93310946D01*
X169540946Y-93792715D01*
X169427907Y-94361000D01*
X169540946Y-94929285D01*
X169862853Y-95411054D01*
X170192026Y-95631000D01*
X169862853Y-95850946D01*
X169540946Y-96332715D01*
X169427907Y-96901000D01*
X169540946Y-97469285D01*
X169862853Y-97951054D01*
X170192026Y-98171000D01*
X169862853Y-98390946D01*
X169540946Y-98872715D01*
X169427907Y-99441000D01*
X169540946Y-100009285D01*
X169862853Y-100491054D01*
X170203553Y-100718702D01*
X170060642Y-100785817D01*
X169670355Y-101214076D01*
X169500524Y-101624110D01*
X169621845Y-101854000D01*
X170815000Y-101854000D01*
X170815000Y-101834000D01*
X171069000Y-101834000D01*
X171069000Y-101854000D01*
X172262155Y-101854000D01*
X172383476Y-101624110D01*
X172213645Y-101214076D01*
X171823358Y-100785817D01*
X171680447Y-100718702D01*
X172021147Y-100491054D01*
X172343054Y-100009285D01*
X172456093Y-99441000D01*
X172343054Y-98872715D01*
X172021147Y-98390946D01*
X171691974Y-98171000D01*
X172021147Y-97951054D01*
X172343054Y-97469285D01*
X172456093Y-96901000D01*
X172343054Y-96332715D01*
X172021147Y-95850946D01*
X171691974Y-95631000D01*
X172021147Y-95411054D01*
X172343054Y-94929285D01*
X172456093Y-94361000D01*
X172343054Y-93792715D01*
X172021147Y-93310946D01*
X171691974Y-93091000D01*
X172021147Y-92871054D01*
X172343054Y-92389285D01*
X172456093Y-91821000D01*
X172343054Y-91252715D01*
X172021147Y-90770946D01*
X171691974Y-90551000D01*
X172021147Y-90331054D01*
X172343054Y-89849285D01*
X172456093Y-89281000D01*
X172343054Y-88712715D01*
X172021147Y-88230946D01*
X171691974Y-88011000D01*
X172021147Y-87791054D01*
X172343054Y-87309285D01*
X172456093Y-86741000D01*
X172343054Y-86172715D01*
X172021147Y-85690946D01*
X171539378Y-85369039D01*
X170971093Y-85256000D01*
X170912907Y-85256000D01*
X170344622Y-85369039D01*
X169862853Y-85690946D01*
X169540946Y-86172715D01*
X169427907Y-86741000D01*
X169540946Y-87309285D01*
X169862853Y-87791054D01*
X170192026Y-88011000D01*
X169862853Y-88230946D01*
X169670382Y-88519000D01*
X143816336Y-88519000D01*
X143921192Y-88414327D01*
X144063838Y-88070799D01*
X144064162Y-87698833D01*
X143922117Y-87355057D01*
X143659327Y-87091808D01*
X143315799Y-86949162D01*
X142943833Y-86948838D01*
X142600057Y-87090883D01*
X142336808Y-87353673D01*
X142194162Y-87697201D01*
X142193838Y-88069167D01*
X142335883Y-88412943D01*
X142441755Y-88519000D01*
X133142118Y-88519000D01*
X133142162Y-88468823D01*
X133000117Y-88125047D01*
X132737327Y-87861798D01*
X132578687Y-87795925D01*
X132773167Y-87796094D01*
X133116943Y-87654049D01*
X133380192Y-87391259D01*
X133522838Y-87047731D01*
X133523162Y-86675765D01*
X133381117Y-86331989D01*
X133118327Y-86068740D01*
X132774799Y-85926094D01*
X132730754Y-85926056D01*
X132587865Y-85783167D01*
X142193838Y-85783167D01*
X142335883Y-86126943D01*
X142598673Y-86390192D01*
X142942201Y-86532838D01*
X143314167Y-86533162D01*
X143657943Y-86391117D01*
X143921192Y-86128327D01*
X144063838Y-85784799D01*
X144064162Y-85412833D01*
X143922117Y-85069057D01*
X143659327Y-84805808D01*
X143315799Y-84663162D01*
X142943833Y-84662838D01*
X142600057Y-84804883D01*
X142336808Y-85067673D01*
X142194162Y-85411201D01*
X142193838Y-85783167D01*
X132587865Y-85783167D01*
X132337601Y-85532903D01*
X132337601Y-81211167D01*
X139145838Y-81211167D01*
X139287883Y-81554943D01*
X139550673Y-81818192D01*
X139894201Y-81960838D01*
X140266167Y-81961162D01*
X140609943Y-81819117D01*
X140873192Y-81556327D01*
X141015838Y-81212799D01*
X141016162Y-80840833D01*
X140874117Y-80497057D01*
X140611327Y-80233808D01*
X140267799Y-80091162D01*
X139895833Y-80090838D01*
X139552057Y-80232883D01*
X139288808Y-80495673D01*
X139146162Y-80839201D01*
X139145838Y-81211167D01*
X132337601Y-81211167D01*
X132337601Y-78134591D01*
X132351511Y-78143885D01*
X132925000Y-78257959D01*
X133498489Y-78143885D01*
X133984670Y-77819029D01*
X134195000Y-77504248D01*
X134405330Y-77819029D01*
X134891511Y-78143885D01*
X135465000Y-78257959D01*
X136038489Y-78143885D01*
X136524670Y-77819029D01*
X136735000Y-77504248D01*
X136945330Y-77819029D01*
X137431511Y-78143885D01*
X138005000Y-78257959D01*
X138578489Y-78143885D01*
X139064670Y-77819029D01*
X139275000Y-77504248D01*
X139485330Y-77819029D01*
X139971511Y-78143885D01*
X140545000Y-78257959D01*
X141118489Y-78143885D01*
X141604670Y-77819029D01*
X141815000Y-77504248D01*
X142025330Y-77819029D01*
X142511511Y-78143885D01*
X143085000Y-78257959D01*
X143658489Y-78143885D01*
X144144670Y-77819029D01*
X144355000Y-77504248D01*
X144565330Y-77819029D01*
X145051511Y-78143885D01*
X145625000Y-78257959D01*
X146198489Y-78143885D01*
X146684670Y-77819029D01*
X146900664Y-77495772D01*
X146958179Y-77618490D01*
X147390053Y-78012688D01*
X147805974Y-78184958D01*
X148038000Y-78063817D01*
X148038000Y-76857000D01*
X148018000Y-76857000D01*
X148018000Y-76603000D01*
X148038000Y-76603000D01*
X148038000Y-76583000D01*
X148292000Y-76583000D01*
X148292000Y-76603000D01*
X148312000Y-76603000D01*
X148312000Y-76857000D01*
X148292000Y-76857000D01*
X148292000Y-78063817D01*
X148524026Y-78184958D01*
X148939947Y-78012688D01*
X149371821Y-77618490D01*
X149429336Y-77495772D01*
X149645330Y-77819029D01*
X150131511Y-78143885D01*
X150705000Y-78257959D01*
X151278489Y-78143885D01*
X151764670Y-77819029D01*
X151975000Y-77504248D01*
X152185330Y-77819029D01*
X152671511Y-78143885D01*
X153245000Y-78257959D01*
X153818489Y-78143885D01*
X154304670Y-77819029D01*
X154515000Y-77504248D01*
X154725330Y-77819029D01*
X155211511Y-78143885D01*
X155785000Y-78257959D01*
X156358489Y-78143885D01*
X156844670Y-77819029D01*
X157055000Y-77504248D01*
X157265330Y-77819029D01*
X157751511Y-78143885D01*
X158325000Y-78257959D01*
X158898489Y-78143885D01*
X159384670Y-77819029D01*
X159595000Y-77504248D01*
X159805330Y-77819029D01*
X160291511Y-78143885D01*
X160865000Y-78257959D01*
X161438489Y-78143885D01*
X161924670Y-77819029D01*
X162135000Y-77504248D01*
X162345330Y-77819029D01*
X162831511Y-78143885D01*
X163405000Y-78257959D01*
X163978489Y-78143885D01*
X164464670Y-77819029D01*
X164680664Y-77495772D01*
X164738179Y-77618490D01*
X165170053Y-78012688D01*
X165585974Y-78184958D01*
X165818000Y-78063817D01*
X165818000Y-76857000D01*
X165798000Y-76857000D01*
X165798000Y-76603000D01*
X165818000Y-76603000D01*
X165818000Y-76583000D01*
X166072000Y-76583000D01*
X166072000Y-76603000D01*
X166092000Y-76603000D01*
X166092000Y-76857000D01*
X166072000Y-76857000D01*
X166072000Y-78063817D01*
X166304026Y-78184958D01*
X166719947Y-78012688D01*
X167151821Y-77618490D01*
X167399968Y-77089027D01*
X167279470Y-76857002D01*
X167350954Y-76857002D01*
X167646775Y-77572944D01*
X168696530Y-78624533D01*
X170068803Y-79194350D01*
X171554678Y-79195647D01*
X172927944Y-78628225D01*
X173915000Y-77642890D01*
X173915000Y-122278712D01*
X172933470Y-121295467D01*
X171561197Y-120725650D01*
X170075322Y-120724353D01*
X168702056Y-121291775D01*
X167650467Y-122341530D01*
X167080650Y-123713803D01*
X167079353Y-125199678D01*
X167646775Y-126572944D01*
X168632110Y-127560000D01*
X114996288Y-127560000D01*
X115979533Y-126578470D01*
X116549350Y-125206197D01*
X116550647Y-123720322D01*
X116515236Y-123634619D01*
X117777613Y-123634619D01*
X118117155Y-124456372D01*
X118745321Y-125085636D01*
X119566481Y-125426611D01*
X120455619Y-125427387D01*
X121277372Y-125087845D01*
X121906636Y-124459679D01*
X122247611Y-123638519D01*
X122248387Y-122749381D01*
X121908845Y-121927628D01*
X121605265Y-121623517D01*
X123021088Y-121623517D01*
X123089077Y-121864460D01*
X123608171Y-122049201D01*
X124158448Y-122021230D01*
X124536923Y-121864460D01*
X124604912Y-121623517D01*
X123813000Y-120831605D01*
X123021088Y-121623517D01*
X121605265Y-121623517D01*
X121280679Y-121298364D01*
X120459519Y-120957389D01*
X119570381Y-120956613D01*
X118748628Y-121296155D01*
X118119364Y-121924321D01*
X117778389Y-122745481D01*
X117777613Y-123634619D01*
X116515236Y-123634619D01*
X115983225Y-122347056D01*
X114933470Y-121295467D01*
X113561197Y-120725650D01*
X112075322Y-120724353D01*
X110702056Y-121291775D01*
X109650467Y-122341530D01*
X109080650Y-123713803D01*
X109079353Y-125199678D01*
X109646775Y-126572944D01*
X110632110Y-127560000D01*
X107390000Y-127560000D01*
X107390000Y-119843517D01*
X122001088Y-119843517D01*
X122069077Y-120084460D01*
X122491395Y-120234759D01*
X122415799Y-120447171D01*
X122443770Y-120997448D01*
X122600540Y-121375923D01*
X122841483Y-121443912D01*
X123633395Y-120652000D01*
X123619253Y-120637858D01*
X123798858Y-120458253D01*
X123813000Y-120472395D01*
X123827143Y-120458253D01*
X124006748Y-120637858D01*
X123992605Y-120652000D01*
X124609199Y-121268594D01*
X124678169Y-121435515D01*
X125067436Y-121825461D01*
X125576298Y-122036759D01*
X126127285Y-122037240D01*
X126636515Y-121826831D01*
X126873071Y-121590687D01*
X127107436Y-121825461D01*
X127616298Y-122036759D01*
X128167285Y-122037240D01*
X128190866Y-122027496D01*
X128431186Y-122267817D01*
X128579378Y-122366835D01*
X128678396Y-122432997D01*
X128970001Y-122491001D01*
X130584058Y-122491001D01*
X130478389Y-122745481D01*
X130477613Y-123634619D01*
X130817155Y-124456372D01*
X131445321Y-125085636D01*
X132266481Y-125426611D01*
X133155619Y-125427387D01*
X133977372Y-125087845D01*
X134606636Y-124459679D01*
X134947611Y-123638519D01*
X134947614Y-123634619D01*
X135178613Y-123634619D01*
X135518155Y-124456372D01*
X136146321Y-125085636D01*
X136967481Y-125426611D01*
X137856619Y-125427387D01*
X138678372Y-125087845D01*
X139307636Y-124459679D01*
X139648611Y-123638519D01*
X139649387Y-122749381D01*
X139309845Y-121927628D01*
X139006265Y-121623517D01*
X140422088Y-121623517D01*
X140490077Y-121864460D01*
X141009171Y-122049201D01*
X141559448Y-122021230D01*
X141937923Y-121864460D01*
X142005912Y-121623517D01*
X141214000Y-120831605D01*
X140422088Y-121623517D01*
X139006265Y-121623517D01*
X138681679Y-121298364D01*
X137860519Y-120957389D01*
X136971381Y-120956613D01*
X136149628Y-121296155D01*
X135520364Y-121924321D01*
X135179389Y-122745481D01*
X135178613Y-123634619D01*
X134947614Y-123634619D01*
X134948387Y-122749381D01*
X134608845Y-121927628D01*
X133980679Y-121298364D01*
X133159519Y-120957389D01*
X132762875Y-120957043D01*
X132864997Y-120804206D01*
X132886122Y-120698003D01*
X132923001Y-120512601D01*
X132923001Y-119843517D01*
X139402088Y-119843517D01*
X139470077Y-120084460D01*
X139892395Y-120234759D01*
X139816799Y-120447171D01*
X139844770Y-120997448D01*
X140001540Y-121375923D01*
X140242483Y-121443912D01*
X141034395Y-120652000D01*
X141020253Y-120637858D01*
X141199858Y-120458253D01*
X141214000Y-120472395D01*
X141228143Y-120458253D01*
X141407748Y-120637858D01*
X141393605Y-120652000D01*
X142010199Y-121268594D01*
X142079169Y-121435515D01*
X142468436Y-121825461D01*
X142977298Y-122036759D01*
X143528285Y-122037240D01*
X144037515Y-121826831D01*
X144274071Y-121590687D01*
X144508436Y-121825461D01*
X145017298Y-122036759D01*
X145568285Y-122037240D01*
X146077515Y-121826831D01*
X146092903Y-121811470D01*
X146119910Y-121853441D01*
X146332110Y-121998431D01*
X146584000Y-122049440D01*
X148084000Y-122049440D01*
X148175564Y-122032211D01*
X147879389Y-122745481D01*
X147878613Y-123634619D01*
X148218155Y-124456372D01*
X148846321Y-125085636D01*
X149667481Y-125426611D01*
X150556619Y-125427387D01*
X151378372Y-125087845D01*
X152007636Y-124459679D01*
X152348611Y-123638519D01*
X152349387Y-122749381D01*
X152304105Y-122639790D01*
X157066815Y-122639790D01*
X157306963Y-123027035D01*
X158336127Y-123446921D01*
X159447634Y-123441001D01*
X160447037Y-123027035D01*
X160687185Y-122639790D01*
X158877000Y-120829605D01*
X157066815Y-122639790D01*
X152304105Y-122639790D01*
X152009845Y-121927628D01*
X151381679Y-121298364D01*
X150560519Y-120957389D01*
X149671381Y-120956613D01*
X148849628Y-121296155D01*
X148728360Y-121417212D01*
X148731440Y-121402000D01*
X148731440Y-120109127D01*
X156080079Y-120109127D01*
X156085999Y-121220634D01*
X156499965Y-122220037D01*
X156887210Y-122460185D01*
X158697395Y-120650000D01*
X156887210Y-118839815D01*
X156499965Y-119079963D01*
X156080079Y-120109127D01*
X148731440Y-120109127D01*
X148731440Y-119902000D01*
X148687162Y-119666683D01*
X148548090Y-119450559D01*
X148335890Y-119305569D01*
X148084000Y-119254560D01*
X147654803Y-119254560D01*
X147698759Y-119148702D01*
X147699185Y-118660210D01*
X157066815Y-118660210D01*
X158877000Y-120470395D01*
X160687185Y-118660210D01*
X160447037Y-118272965D01*
X159417873Y-117853079D01*
X158306366Y-117858999D01*
X157306963Y-118272965D01*
X157066815Y-118660210D01*
X147699185Y-118660210D01*
X147699240Y-118597715D01*
X147488831Y-118088485D01*
X147099564Y-117698539D01*
X146590702Y-117487241D01*
X146039715Y-117486760D01*
X145530485Y-117697169D01*
X145293929Y-117933313D01*
X145059564Y-117698539D01*
X144550702Y-117487241D01*
X143999715Y-117486760D01*
X143490485Y-117697169D01*
X143253929Y-117933313D01*
X143019564Y-117698539D01*
X142510702Y-117487241D01*
X141959715Y-117486760D01*
X141450485Y-117697169D01*
X141060539Y-118086436D01*
X140990503Y-118255102D01*
X140373605Y-118872000D01*
X140387748Y-118886143D01*
X140208143Y-119065748D01*
X140194000Y-119051605D01*
X139402088Y-119843517D01*
X132923001Y-119843517D01*
X132923001Y-118667171D01*
X138796799Y-118667171D01*
X138824770Y-119217448D01*
X138981540Y-119595923D01*
X139222483Y-119663912D01*
X140014395Y-118872000D01*
X139222483Y-118080088D01*
X138981540Y-118148077D01*
X138796799Y-118667171D01*
X132923001Y-118667171D01*
X132923001Y-117900483D01*
X139402088Y-117900483D01*
X140194000Y-118692395D01*
X140985912Y-117900483D01*
X140917923Y-117659540D01*
X140398829Y-117474799D01*
X139848552Y-117502770D01*
X139470077Y-117659540D01*
X139402088Y-117900483D01*
X132923001Y-117900483D01*
X132923001Y-117279777D01*
X132989943Y-117252117D01*
X133253192Y-116989327D01*
X133395838Y-116645799D01*
X133396162Y-116273833D01*
X133254117Y-115930057D01*
X132991327Y-115666808D01*
X132647799Y-115524162D01*
X132275833Y-115523838D01*
X131932057Y-115665883D01*
X131668808Y-115928673D01*
X131563055Y-116183352D01*
X131504799Y-116159162D01*
X131132833Y-116158838D01*
X130789057Y-116300883D01*
X130525808Y-116563673D01*
X130383162Y-116907201D01*
X130383082Y-116999013D01*
X130314005Y-117102394D01*
X130256001Y-117393999D01*
X130256001Y-118247369D01*
X130183455Y-118319915D01*
X130087831Y-118088485D01*
X129698564Y-117698539D01*
X129189702Y-117487241D01*
X128638715Y-117486760D01*
X128129485Y-117697169D01*
X127892929Y-117933313D01*
X127658564Y-117698539D01*
X127149702Y-117487241D01*
X126598715Y-117486760D01*
X126089485Y-117697169D01*
X125852929Y-117933313D01*
X125618564Y-117698539D01*
X125109702Y-117487241D01*
X124558715Y-117486760D01*
X124049485Y-117697169D01*
X123659539Y-118086436D01*
X123589503Y-118255102D01*
X122972605Y-118872000D01*
X122986748Y-118886143D01*
X122807143Y-119065748D01*
X122793000Y-119051605D01*
X122001088Y-119843517D01*
X107390000Y-119843517D01*
X107390000Y-118667171D01*
X121395799Y-118667171D01*
X121423770Y-119217448D01*
X121580540Y-119595923D01*
X121821483Y-119663912D01*
X122613395Y-118872000D01*
X121821483Y-118080088D01*
X121580540Y-118148077D01*
X121395799Y-118667171D01*
X107390000Y-118667171D01*
X107390000Y-117900483D01*
X122001088Y-117900483D01*
X122793000Y-118692395D01*
X123584912Y-117900483D01*
X123516923Y-117659540D01*
X122997829Y-117474799D01*
X122447552Y-117502770D01*
X122069077Y-117659540D01*
X122001088Y-117900483D01*
X107390000Y-117900483D01*
X107390000Y-115203843D01*
X156082516Y-115203843D01*
X156506981Y-116231126D01*
X157292260Y-117017777D01*
X158318801Y-117444034D01*
X159430323Y-117445004D01*
X160457606Y-117020539D01*
X161063218Y-116415983D01*
X160782486Y-117092061D01*
X160781516Y-118203583D01*
X161105592Y-118987907D01*
X160866790Y-118839815D01*
X159056605Y-120650000D01*
X160866790Y-122460185D01*
X161254035Y-122220037D01*
X161673921Y-121190873D01*
X161668001Y-120079366D01*
X161394952Y-119420167D01*
X161991260Y-120017517D01*
X163017801Y-120443774D01*
X164129323Y-120444744D01*
X165156606Y-120020279D01*
X165943257Y-119235000D01*
X166369514Y-118208459D01*
X166370484Y-117096937D01*
X165946019Y-116069654D01*
X165160740Y-115283003D01*
X164134199Y-114856746D01*
X163022677Y-114855776D01*
X161995394Y-115280241D01*
X161389782Y-115884797D01*
X161670514Y-115208719D01*
X161671484Y-114097197D01*
X161247019Y-113069914D01*
X160461740Y-112283263D01*
X159435199Y-111857006D01*
X158323677Y-111856036D01*
X157296394Y-112280501D01*
X156509743Y-113065780D01*
X156083486Y-114092321D01*
X156082516Y-115203843D01*
X107390000Y-115203843D01*
X107390000Y-111065619D01*
X109522613Y-111065619D01*
X109862155Y-111887372D01*
X110490321Y-112516636D01*
X111311481Y-112857611D01*
X112200619Y-112858387D01*
X113022372Y-112518845D01*
X113651636Y-111890679D01*
X113992611Y-111069519D01*
X113993387Y-110180381D01*
X113787460Y-109682001D01*
X119425999Y-109682001D01*
X119717604Y-109623997D01*
X119964814Y-109458816D01*
X120538506Y-108885125D01*
X120581167Y-108885162D01*
X120924943Y-108743117D01*
X121188192Y-108480327D01*
X121330838Y-108136799D01*
X121331162Y-107764833D01*
X121189117Y-107421057D01*
X120926327Y-107157808D01*
X120582799Y-107015162D01*
X120210833Y-107014838D01*
X119867057Y-107156883D01*
X119760935Y-107262820D01*
X119529327Y-107030808D01*
X119185799Y-106888162D01*
X118813833Y-106887838D01*
X118470057Y-107029883D01*
X118405080Y-107094747D01*
X118283131Y-107119004D01*
X118254700Y-107138001D01*
X117446856Y-107138001D01*
X117462759Y-107099702D01*
X117463240Y-106548715D01*
X117252831Y-106039485D01*
X117016687Y-105802929D01*
X117251461Y-105568564D01*
X117462759Y-105059702D01*
X117463240Y-104508715D01*
X117252831Y-103999485D01*
X117016687Y-103762929D01*
X117108776Y-103671000D01*
X169444560Y-103671000D01*
X169444560Y-105371000D01*
X169488838Y-105606317D01*
X169627910Y-105822441D01*
X169840110Y-105967431D01*
X170092000Y-106018440D01*
X171792000Y-106018440D01*
X172027317Y-105974162D01*
X172243441Y-105835090D01*
X172388431Y-105622890D01*
X172439440Y-105371000D01*
X172439440Y-103671000D01*
X172395162Y-103435683D01*
X172256090Y-103219559D01*
X172043890Y-103074569D01*
X171935893Y-103052699D01*
X172213645Y-102747924D01*
X172383476Y-102337890D01*
X172262155Y-102108000D01*
X171069000Y-102108000D01*
X171069000Y-102128000D01*
X170815000Y-102128000D01*
X170815000Y-102108000D01*
X169621845Y-102108000D01*
X169500524Y-102337890D01*
X169670355Y-102747924D01*
X169946501Y-103050937D01*
X169856683Y-103067838D01*
X169640559Y-103206910D01*
X169495569Y-103419110D01*
X169444560Y-103671000D01*
X117108776Y-103671000D01*
X117251461Y-103528564D01*
X117462759Y-103019702D01*
X117463240Y-102468715D01*
X117252831Y-101959485D01*
X116863564Y-101569539D01*
X116694898Y-101499503D01*
X116078000Y-100882605D01*
X116063858Y-100896748D01*
X115884253Y-100717143D01*
X115898395Y-100703000D01*
X116257605Y-100703000D01*
X117049517Y-101494912D01*
X117290460Y-101426923D01*
X117475201Y-100907829D01*
X117447230Y-100357552D01*
X117290460Y-99979077D01*
X117049517Y-99911088D01*
X116257605Y-100703000D01*
X115898395Y-100703000D01*
X115106483Y-99911088D01*
X114865540Y-99979077D01*
X114715241Y-100401395D01*
X114502829Y-100325799D01*
X113952552Y-100353770D01*
X113574077Y-100510540D01*
X113506088Y-100751483D01*
X114298000Y-101543395D01*
X114312143Y-101529253D01*
X114491748Y-101708858D01*
X114477605Y-101723000D01*
X114491748Y-101737143D01*
X114312143Y-101916748D01*
X114298000Y-101902605D01*
X113681406Y-102519199D01*
X113514485Y-102588169D01*
X113124539Y-102977436D01*
X112913241Y-103486298D01*
X112912760Y-104037285D01*
X113123169Y-104546515D01*
X113359313Y-104783071D01*
X113124539Y-105017436D01*
X112913241Y-105526298D01*
X112912760Y-106077285D01*
X112922503Y-106100866D01*
X112682184Y-106341186D01*
X112517003Y-106588396D01*
X112458999Y-106880001D01*
X112458999Y-108494058D01*
X112204519Y-108388389D01*
X111315381Y-108387613D01*
X110493628Y-108727155D01*
X109864364Y-109355321D01*
X109523389Y-110176481D01*
X109522613Y-111065619D01*
X107390000Y-111065619D01*
X107390000Y-101518171D01*
X112900799Y-101518171D01*
X112928770Y-102068448D01*
X113085540Y-102446923D01*
X113326483Y-102514912D01*
X114118395Y-101723000D01*
X113326483Y-100931088D01*
X113085540Y-100999077D01*
X112900799Y-101518171D01*
X107390000Y-101518171D01*
X107390000Y-84746171D01*
X112900799Y-84746171D01*
X112928770Y-85296448D01*
X113085540Y-85674923D01*
X113326483Y-85742912D01*
X114118395Y-84951000D01*
X113326483Y-84159088D01*
X113085540Y-84227077D01*
X112900799Y-84746171D01*
X107390000Y-84746171D01*
X107390000Y-62704525D01*
X107453155Y-62857372D01*
X108081321Y-63486636D01*
X108902481Y-63827611D01*
X109791619Y-63828387D01*
X110613372Y-63488845D01*
X110734640Y-63367788D01*
X110731560Y-63383000D01*
X110731560Y-64883000D01*
X110775838Y-65118317D01*
X110914910Y-65334441D01*
X111127110Y-65479431D01*
X111379000Y-65530440D01*
X111808197Y-65530440D01*
X111764241Y-65636298D01*
X111763760Y-66187285D01*
X111974169Y-66696515D01*
X112363436Y-67086461D01*
X112872298Y-67297759D01*
X113423285Y-67298240D01*
X113932515Y-67087831D01*
X114169071Y-66851687D01*
X114403436Y-67086461D01*
X114912298Y-67297759D01*
X115463285Y-67298240D01*
X115972515Y-67087831D01*
X116209071Y-66851687D01*
X116443436Y-67086461D01*
X116952298Y-67297759D01*
X117503285Y-67298240D01*
X118012515Y-67087831D01*
X118216183Y-66884517D01*
X118477088Y-66884517D01*
X118545077Y-67125460D01*
X119064171Y-67310201D01*
X119614448Y-67282230D01*
X119992923Y-67125460D01*
X120060912Y-66884517D01*
X119269000Y-66092605D01*
X118477088Y-66884517D01*
X118216183Y-66884517D01*
X118402461Y-66698564D01*
X118472497Y-66529898D01*
X119089395Y-65913000D01*
X119448605Y-65913000D01*
X120240517Y-66704912D01*
X120481460Y-66636923D01*
X120666201Y-66117829D01*
X120638230Y-65567552D01*
X120481460Y-65189077D01*
X120240517Y-65121088D01*
X119448605Y-65913000D01*
X119089395Y-65913000D01*
X119075253Y-65898858D01*
X119254858Y-65719253D01*
X119269000Y-65733395D01*
X120060912Y-64941483D01*
X119992923Y-64700540D01*
X119570605Y-64550241D01*
X119646201Y-64337829D01*
X119618230Y-63787552D01*
X119461460Y-63409077D01*
X119220517Y-63341088D01*
X118428605Y-64133000D01*
X118442748Y-64147143D01*
X118263143Y-64326748D01*
X118249000Y-64312605D01*
X118234858Y-64326748D01*
X118055253Y-64147143D01*
X118069395Y-64133000D01*
X117452801Y-63516406D01*
X117383831Y-63349485D01*
X117196157Y-63161483D01*
X117457088Y-63161483D01*
X118249000Y-63953395D01*
X119040912Y-63161483D01*
X118972923Y-62920540D01*
X118453829Y-62735799D01*
X117903552Y-62763770D01*
X117525077Y-62920540D01*
X117457088Y-63161483D01*
X117196157Y-63161483D01*
X116994564Y-62959539D01*
X116485702Y-62748241D01*
X115934715Y-62747760D01*
X115425485Y-62958169D01*
X115188929Y-63194313D01*
X114954564Y-62959539D01*
X114445702Y-62748241D01*
X113894715Y-62747760D01*
X113385485Y-62958169D01*
X113370097Y-62973530D01*
X113343090Y-62931559D01*
X113130890Y-62786569D01*
X112879000Y-62735560D01*
X111379000Y-62735560D01*
X111287436Y-62752789D01*
X111583611Y-62039519D01*
X111584387Y-61150381D01*
X111244845Y-60328628D01*
X110616679Y-59699364D01*
X109795519Y-59358389D01*
X108906381Y-59357613D01*
X108084628Y-59697155D01*
X107455364Y-60325321D01*
X107390000Y-60482735D01*
X107390000Y-57225000D01*
X173915000Y-57225000D01*
X173915000Y-60473794D01*
X173915000Y-60473794D01*
G37*
X173915000Y-60473794D02*
X173855845Y-60330628D01*
X173227679Y-59701364D01*
X172406519Y-59360389D01*
X171517381Y-59359613D01*
X170695628Y-59699155D01*
X170066364Y-60327321D01*
X169725389Y-61148481D01*
X169724613Y-62037619D01*
X170064155Y-62859372D01*
X170692321Y-63488636D01*
X171513481Y-63829611D01*
X172402619Y-63830387D01*
X173224372Y-63490845D01*
X173853636Y-62862679D01*
X173915000Y-62714898D01*
X173915000Y-73278712D01*
X172933470Y-72295467D01*
X171561197Y-71725650D01*
X170075322Y-71724353D01*
X168702056Y-72291775D01*
X167650467Y-73341530D01*
X167400440Y-73943662D01*
X167329526Y-73587152D01*
X167004670Y-73100971D01*
X166518489Y-72776115D01*
X165945000Y-72662041D01*
X165371511Y-72776115D01*
X164885330Y-73100971D01*
X164675000Y-73415752D01*
X164464670Y-73100971D01*
X163978489Y-72776115D01*
X163405000Y-72662041D01*
X162831511Y-72776115D01*
X162345330Y-73100971D01*
X162135000Y-73415752D01*
X161924670Y-73100971D01*
X161438489Y-72776115D01*
X160865000Y-72662041D01*
X160291511Y-72776115D01*
X159805330Y-73100971D01*
X159589336Y-73424228D01*
X159531821Y-73301510D01*
X159099947Y-72907312D01*
X158684026Y-72735042D01*
X158452000Y-72856183D01*
X158452000Y-74063000D01*
X158472000Y-74063000D01*
X158472000Y-74317000D01*
X158452000Y-74317000D01*
X158452000Y-74337000D01*
X158198000Y-74337000D01*
X158198000Y-74317000D01*
X158178000Y-74317000D01*
X158178000Y-74063000D01*
X158198000Y-74063000D01*
X158198000Y-72856183D01*
X157965974Y-72735042D01*
X157550053Y-72907312D01*
X157118179Y-73301510D01*
X157060664Y-73424228D01*
X156844670Y-73100971D01*
X156358489Y-72776115D01*
X155785000Y-72662041D01*
X155211511Y-72776115D01*
X154725330Y-73100971D01*
X154509336Y-73424228D01*
X154451821Y-73301510D01*
X154019947Y-72907312D01*
X153604026Y-72735042D01*
X153372000Y-72856183D01*
X153372000Y-74063000D01*
X153392000Y-74063000D01*
X153392000Y-74317000D01*
X153372000Y-74317000D01*
X153372000Y-74337000D01*
X153118000Y-74337000D01*
X153118000Y-74317000D01*
X153098000Y-74317000D01*
X153098000Y-74063000D01*
X153118000Y-74063000D01*
X153118000Y-72856183D01*
X152885974Y-72735042D01*
X152470053Y-72907312D01*
X152038179Y-73301510D01*
X151980664Y-73424228D01*
X151764670Y-73100971D01*
X151278489Y-72776115D01*
X150705000Y-72662041D01*
X150131511Y-72776115D01*
X149645330Y-73100971D01*
X149435000Y-73415752D01*
X149224670Y-73100971D01*
X148738489Y-72776115D01*
X148165000Y-72662041D01*
X147591511Y-72776115D01*
X147105330Y-73100971D01*
X146895000Y-73415752D01*
X146684670Y-73100971D01*
X146198489Y-72776115D01*
X145625000Y-72662041D01*
X145051511Y-72776115D01*
X144565330Y-73100971D01*
X144355000Y-73415752D01*
X144144670Y-73100971D01*
X143658489Y-72776115D01*
X143085000Y-72662041D01*
X142511511Y-72776115D01*
X142025330Y-73100971D01*
X141809336Y-73424228D01*
X141751821Y-73301510D01*
X141319947Y-72907312D01*
X140904026Y-72735042D01*
X140672000Y-72856183D01*
X140672000Y-74063000D01*
X140692000Y-74063000D01*
X140692000Y-74317000D01*
X140672000Y-74317000D01*
X140672000Y-74337000D01*
X140418000Y-74337000D01*
X140418000Y-74317000D01*
X140398000Y-74317000D01*
X140398000Y-74063000D01*
X140418000Y-74063000D01*
X140418000Y-72856183D01*
X140185974Y-72735042D01*
X139770053Y-72907312D01*
X139338179Y-73301510D01*
X139280664Y-73424228D01*
X139064670Y-73100971D01*
X138578489Y-72776115D01*
X138005000Y-72662041D01*
X137431511Y-72776115D01*
X136945330Y-73100971D01*
X136735000Y-73415752D01*
X136524670Y-73100971D01*
X136038489Y-72776115D01*
X135465000Y-72662041D01*
X134891511Y-72776115D01*
X134405330Y-73100971D01*
X134189336Y-73424228D01*
X134131821Y-73301510D01*
X133699947Y-72907312D01*
X133284026Y-72735042D01*
X133052000Y-72856183D01*
X133052000Y-74063000D01*
X133072000Y-74063000D01*
X133072000Y-74317000D01*
X133052000Y-74317000D01*
X133052000Y-74337000D01*
X132798000Y-74337000D01*
X132798000Y-74317000D01*
X132778000Y-74317000D01*
X132778000Y-74063000D01*
X132798000Y-74063000D01*
X132798000Y-72856183D01*
X132565974Y-72735042D01*
X132337601Y-72829632D01*
X132337601Y-67710601D01*
X132279597Y-67418996D01*
X132271037Y-67406185D01*
X132175842Y-67263715D01*
X132601515Y-67087831D01*
X132838071Y-66851687D01*
X133072436Y-67086461D01*
X133581298Y-67297759D01*
X134132285Y-67298240D01*
X134641515Y-67087831D01*
X134845183Y-66884517D01*
X135106088Y-66884517D01*
X135174077Y-67125460D01*
X135693171Y-67310201D01*
X136243448Y-67282230D01*
X136621923Y-67125460D01*
X136689912Y-66884517D01*
X135898000Y-66092605D01*
X135106088Y-66884517D01*
X134845183Y-66884517D01*
X135031461Y-66698564D01*
X135101497Y-66529898D01*
X135718395Y-65913000D01*
X136077605Y-65913000D01*
X136869517Y-66704912D01*
X137110460Y-66636923D01*
X137295201Y-66117829D01*
X137267230Y-65567552D01*
X137110460Y-65189077D01*
X136869517Y-65121088D01*
X136077605Y-65913000D01*
X135718395Y-65913000D01*
X135704253Y-65898858D01*
X135883858Y-65719253D01*
X135898000Y-65733395D01*
X136689912Y-64941483D01*
X136621923Y-64700540D01*
X136199605Y-64550241D01*
X136275201Y-64337829D01*
X136247230Y-63787552D01*
X136090460Y-63409077D01*
X135849517Y-63341088D01*
X135057605Y-64133000D01*
X135071748Y-64147143D01*
X134892143Y-64326748D01*
X134878000Y-64312605D01*
X134863858Y-64326748D01*
X134684253Y-64147143D01*
X134698395Y-64133000D01*
X134081801Y-63516406D01*
X134012831Y-63349485D01*
X133825157Y-63161483D01*
X134086088Y-63161483D01*
X134878000Y-63953395D01*
X135669912Y-63161483D01*
X135601923Y-62920540D01*
X135082829Y-62735799D01*
X134532552Y-62763770D01*
X134154077Y-62920540D01*
X134086088Y-63161483D01*
X133825157Y-63161483D01*
X133623564Y-62959539D01*
X133114702Y-62748241D01*
X132563715Y-62747760D01*
X132054485Y-62958169D01*
X131817929Y-63194313D01*
X131583564Y-62959539D01*
X131074702Y-62748241D01*
X130523715Y-62747760D01*
X130500134Y-62757503D01*
X130259814Y-62517184D01*
X130012604Y-62352003D01*
X129720999Y-62293999D01*
X128106942Y-62293999D01*
X128212611Y-62039519D01*
X128212614Y-62035619D01*
X136442613Y-62035619D01*
X136782155Y-62857372D01*
X137410321Y-63486636D01*
X138231481Y-63827611D01*
X139120619Y-63828387D01*
X139942372Y-63488845D01*
X140571636Y-62860679D01*
X140645848Y-62681956D01*
X140719155Y-62859372D01*
X141347321Y-63488636D01*
X142168481Y-63829611D01*
X143002000Y-63830338D01*
X143002000Y-68273534D01*
X142971808Y-68303673D01*
X142829162Y-68647201D01*
X142828838Y-69019167D01*
X142970883Y-69362943D01*
X143233673Y-69626192D01*
X143577201Y-69768838D01*
X143949167Y-69769162D01*
X144292943Y-69627117D01*
X144556192Y-69364327D01*
X144698838Y-69020799D01*
X144699071Y-68752930D01*
X144965167Y-68753162D01*
X145308943Y-68611117D01*
X145572192Y-68348327D01*
X145714838Y-68004799D01*
X145715162Y-67632833D01*
X145573117Y-67289057D01*
X145542000Y-67257886D01*
X145542000Y-67000872D01*
X145629436Y-67088461D01*
X146138298Y-67299759D01*
X146689285Y-67300240D01*
X147198515Y-67089831D01*
X147435071Y-66853687D01*
X147669436Y-67088461D01*
X148178298Y-67299759D01*
X148729285Y-67300240D01*
X149238515Y-67089831D01*
X149475071Y-66853687D01*
X149709436Y-67088461D01*
X150218298Y-67299759D01*
X150769285Y-67300240D01*
X151278515Y-67089831D01*
X151482183Y-66886517D01*
X151743088Y-66886517D01*
X151811077Y-67127460D01*
X152330171Y-67312201D01*
X152880448Y-67284230D01*
X153258923Y-67127460D01*
X153326912Y-66886517D01*
X152535000Y-66094605D01*
X151743088Y-66886517D01*
X151482183Y-66886517D01*
X151668461Y-66700564D01*
X151738497Y-66531898D01*
X152355395Y-65915000D01*
X152714605Y-65915000D01*
X153506517Y-66706912D01*
X153747460Y-66638923D01*
X153932201Y-66119829D01*
X153904230Y-65569552D01*
X153747460Y-65191077D01*
X153506517Y-65123088D01*
X152714605Y-65915000D01*
X152355395Y-65915000D01*
X152341253Y-65900858D01*
X152520858Y-65721253D01*
X152535000Y-65735395D01*
X153326912Y-64943483D01*
X153258923Y-64702540D01*
X152836605Y-64552241D01*
X152912201Y-64339829D01*
X152884230Y-63789552D01*
X152727460Y-63411077D01*
X152486517Y-63343088D01*
X151694605Y-64135000D01*
X151708748Y-64149143D01*
X151529143Y-64328748D01*
X151515000Y-64314605D01*
X151500858Y-64328748D01*
X151321253Y-64149143D01*
X151335395Y-64135000D01*
X150718801Y-63518406D01*
X150649831Y-63351485D01*
X150462157Y-63163483D01*
X150723088Y-63163483D01*
X151515000Y-63955395D01*
X152306912Y-63163483D01*
X152238923Y-62922540D01*
X151719829Y-62737799D01*
X151169552Y-62765770D01*
X150791077Y-62922540D01*
X150723088Y-63163483D01*
X150462157Y-63163483D01*
X150260564Y-62961539D01*
X149751702Y-62750241D01*
X149200715Y-62749760D01*
X148691485Y-62960169D01*
X148454929Y-63196313D01*
X148220564Y-62961539D01*
X147711702Y-62750241D01*
X147160715Y-62749760D01*
X147137134Y-62759503D01*
X146896814Y-62519184D01*
X146893821Y-62517184D01*
X146649604Y-62354003D01*
X146357999Y-62295999D01*
X144743942Y-62295999D01*
X144849611Y-62041519D01*
X144849614Y-62037619D01*
X153079613Y-62037619D01*
X153419155Y-62859372D01*
X154047321Y-63488636D01*
X154868481Y-63829611D01*
X155757619Y-63830387D01*
X156579372Y-63490845D01*
X157208636Y-62862679D01*
X157287272Y-62673302D01*
X157364155Y-62859372D01*
X157992321Y-63488636D01*
X158813481Y-63829611D01*
X159639000Y-63830331D01*
X159639000Y-68273534D01*
X159608808Y-68303673D01*
X159466162Y-68647201D01*
X159465838Y-69019167D01*
X159607883Y-69362943D01*
X159870673Y-69626192D01*
X160214201Y-69768838D01*
X160586167Y-69769162D01*
X160929943Y-69627117D01*
X161193192Y-69364327D01*
X161335838Y-69020799D01*
X161336079Y-68744067D01*
X161357201Y-68752838D01*
X161729167Y-68753162D01*
X162072943Y-68611117D01*
X162336192Y-68348327D01*
X162478838Y-68004799D01*
X162478918Y-67912987D01*
X162542386Y-67818000D01*
X162547995Y-67809606D01*
X162605999Y-67518001D01*
X162605999Y-67226138D01*
X162783298Y-67299759D01*
X163334285Y-67300240D01*
X163843515Y-67089831D01*
X164080071Y-66853687D01*
X164314436Y-67088461D01*
X164823298Y-67299759D01*
X165374285Y-67300240D01*
X165883515Y-67089831D01*
X166120071Y-66853687D01*
X166354436Y-67088461D01*
X166863298Y-67299759D01*
X167414285Y-67300240D01*
X167923515Y-67089831D01*
X168127183Y-66886517D01*
X168388088Y-66886517D01*
X168456077Y-67127460D01*
X168975171Y-67312201D01*
X169525448Y-67284230D01*
X169903923Y-67127460D01*
X169971912Y-66886517D01*
X169180000Y-66094605D01*
X168388088Y-66886517D01*
X168127183Y-66886517D01*
X168313461Y-66700564D01*
X168383497Y-66531898D01*
X169000395Y-65915000D01*
X169359605Y-65915000D01*
X170151517Y-66706912D01*
X170392460Y-66638923D01*
X170577201Y-66119829D01*
X170549230Y-65569552D01*
X170392460Y-65191077D01*
X170151517Y-65123088D01*
X169359605Y-65915000D01*
X169000395Y-65915000D01*
X168986253Y-65900858D01*
X169165858Y-65721253D01*
X169180000Y-65735395D01*
X169971912Y-64943483D01*
X169903923Y-64702540D01*
X169481605Y-64552241D01*
X169557201Y-64339829D01*
X169529230Y-63789552D01*
X169372460Y-63411077D01*
X169131517Y-63343088D01*
X168339605Y-64135000D01*
X168353748Y-64149143D01*
X168174143Y-64328748D01*
X168160000Y-64314605D01*
X168145858Y-64328748D01*
X167966253Y-64149143D01*
X167980395Y-64135000D01*
X167363801Y-63518406D01*
X167294831Y-63351485D01*
X167107157Y-63163483D01*
X167368088Y-63163483D01*
X168160000Y-63955395D01*
X168951912Y-63163483D01*
X168883923Y-62922540D01*
X168364829Y-62737799D01*
X167814552Y-62765770D01*
X167436077Y-62922540D01*
X167368088Y-63163483D01*
X167107157Y-63163483D01*
X166905564Y-62961539D01*
X166396702Y-62750241D01*
X165845715Y-62749760D01*
X165336485Y-62960169D01*
X165099929Y-63196313D01*
X164865564Y-62961539D01*
X164356702Y-62750241D01*
X163805715Y-62749760D01*
X163782134Y-62759503D01*
X163541814Y-62519184D01*
X163538821Y-62517184D01*
X163294604Y-62354003D01*
X163002999Y-62295999D01*
X161388942Y-62295999D01*
X161494611Y-62041519D01*
X161495387Y-61152381D01*
X161155845Y-60330628D01*
X160527679Y-59701364D01*
X159706519Y-59360389D01*
X158817381Y-59359613D01*
X157995628Y-59699155D01*
X157366364Y-60327321D01*
X157287728Y-60516698D01*
X157210845Y-60330628D01*
X156582679Y-59701364D01*
X155761519Y-59360389D01*
X154872381Y-59359613D01*
X154050628Y-59699155D01*
X153421364Y-60327321D01*
X153080389Y-61148481D01*
X153079613Y-62037619D01*
X144849614Y-62037619D01*
X144850387Y-61152381D01*
X144510845Y-60330628D01*
X143882679Y-59701364D01*
X143061519Y-59360389D01*
X142172381Y-59359613D01*
X141350628Y-59699155D01*
X140721364Y-60327321D01*
X140647152Y-60506044D01*
X140573845Y-60328628D01*
X139945679Y-59699364D01*
X139124519Y-59358389D01*
X138235381Y-59357613D01*
X137413628Y-59697155D01*
X136784364Y-60325321D01*
X136443389Y-61146481D01*
X136442613Y-62035619D01*
X128212614Y-62035619D01*
X128213387Y-61150381D01*
X127873845Y-60328628D01*
X127245679Y-59699364D01*
X126424519Y-59358389D01*
X125535381Y-59357613D01*
X124713628Y-59697155D01*
X124084364Y-60325321D01*
X124013748Y-60495385D01*
X123944845Y-60328628D01*
X123316679Y-59699364D01*
X122495519Y-59358389D01*
X121606381Y-59357613D01*
X120784628Y-59697155D01*
X120155364Y-60325321D01*
X119814389Y-61146481D01*
X119813613Y-62035619D01*
X120153155Y-62857372D01*
X120781321Y-63486636D01*
X121602481Y-63827611D01*
X122491619Y-63828387D01*
X123313372Y-63488845D01*
X123942636Y-62860679D01*
X124013252Y-62690615D01*
X124082155Y-62857372D01*
X124710321Y-63486636D01*
X125531481Y-63827611D01*
X125957641Y-63827983D01*
X125915004Y-63891793D01*
X125857000Y-64183398D01*
X125857000Y-68273534D01*
X125826808Y-68303673D01*
X125684162Y-68647201D01*
X125683838Y-69019167D01*
X125825883Y-69362943D01*
X125857000Y-69394114D01*
X125857000Y-72771841D01*
X125305000Y-72662041D01*
X124731511Y-72776115D01*
X124245330Y-73100971D01*
X124029336Y-73424228D01*
X123971821Y-73301510D01*
X123539947Y-72907312D01*
X123124026Y-72735042D01*
X122892000Y-72856183D01*
X122892000Y-74063000D01*
X122912000Y-74063000D01*
X122912000Y-74317000D01*
X122892000Y-74317000D01*
X122892000Y-74337000D01*
X122638000Y-74337000D01*
X122638000Y-74317000D01*
X122618000Y-74317000D01*
X122618000Y-74063000D01*
X122638000Y-74063000D01*
X122638000Y-72856183D01*
X122405974Y-72735042D01*
X121990053Y-72907312D01*
X121558179Y-73301510D01*
X121500664Y-73424228D01*
X121284670Y-73100971D01*
X120798489Y-72776115D01*
X120225000Y-72662041D01*
X119651511Y-72776115D01*
X119165330Y-73100971D01*
X118955000Y-73415752D01*
X118744670Y-73100971D01*
X118258489Y-72776115D01*
X117685000Y-72662041D01*
X117111511Y-72776115D01*
X116625330Y-73100971D01*
X116300474Y-73587152D01*
X116229618Y-73943372D01*
X115983225Y-73347056D01*
X114933470Y-72295467D01*
X113561197Y-71725650D01*
X112075322Y-71724353D01*
X110702056Y-72291775D01*
X109650467Y-73341530D01*
X109080650Y-74713803D01*
X109079353Y-76199678D01*
X109646775Y-77572944D01*
X110696530Y-78624533D01*
X111397702Y-78915685D01*
X111315381Y-78915613D01*
X110493628Y-79255155D01*
X109864364Y-79883321D01*
X109523389Y-80704481D01*
X109522613Y-81593619D01*
X109862155Y-82415372D01*
X110490321Y-83044636D01*
X111311481Y-83385611D01*
X112200619Y-83386387D01*
X113022372Y-83046845D01*
X113109886Y-82959483D01*
X115286088Y-82959483D01*
X116078000Y-83751395D01*
X116869912Y-82959483D01*
X116801923Y-82718540D01*
X116282829Y-82533799D01*
X115732552Y-82561770D01*
X115354077Y-82718540D01*
X115286088Y-82959483D01*
X113109886Y-82959483D01*
X113651636Y-82418679D01*
X113992611Y-81597519D01*
X113993387Y-80708381D01*
X113653845Y-79886628D01*
X113025679Y-79257364D01*
X112875620Y-79195054D01*
X113554678Y-79195647D01*
X114927944Y-78628225D01*
X115979533Y-77578470D01*
X116173960Y-77110237D01*
X116173960Y-77593600D01*
X116218238Y-77828917D01*
X116357310Y-78045041D01*
X116569510Y-78190031D01*
X116821400Y-78241040D01*
X117049048Y-78241040D01*
X117107698Y-78328815D01*
X117146185Y-78386415D01*
X118800585Y-80040815D01*
X119047795Y-80205996D01*
X119339400Y-80264000D01*
X125177524Y-80264000D01*
X125207663Y-80294192D01*
X125551191Y-80436838D01*
X125603000Y-80436883D01*
X125603000Y-81853369D01*
X119649184Y-87807186D01*
X119484003Y-88054396D01*
X119425999Y-88346001D01*
X119425999Y-91000223D01*
X119359057Y-91027883D01*
X119095808Y-91290673D01*
X119056224Y-91386001D01*
X118918048Y-91386001D01*
X118918162Y-91254833D01*
X118776117Y-90911057D01*
X118513327Y-90647808D01*
X118169799Y-90505162D01*
X117797833Y-90504838D01*
X117454057Y-90646883D01*
X117422886Y-90678000D01*
X117317303Y-90678000D01*
X117462759Y-90327702D01*
X117463240Y-89776715D01*
X117252831Y-89267485D01*
X117016687Y-89030929D01*
X117251461Y-88796564D01*
X117462759Y-88287702D01*
X117463240Y-87736715D01*
X117252831Y-87227485D01*
X117016687Y-86990929D01*
X117251461Y-86756564D01*
X117462759Y-86247702D01*
X117463240Y-85696715D01*
X117252831Y-85187485D01*
X116863564Y-84797539D01*
X116694898Y-84727503D01*
X116078000Y-84110605D01*
X116063858Y-84124748D01*
X115884253Y-83945143D01*
X115898395Y-83931000D01*
X116257605Y-83931000D01*
X117049517Y-84722912D01*
X117290460Y-84654923D01*
X117475201Y-84135829D01*
X117447230Y-83585552D01*
X117290460Y-83207077D01*
X117049517Y-83139088D01*
X116257605Y-83931000D01*
X115898395Y-83931000D01*
X115106483Y-83139088D01*
X114865540Y-83207077D01*
X114715241Y-83629395D01*
X114502829Y-83553799D01*
X113952552Y-83581770D01*
X113574077Y-83738540D01*
X113506088Y-83979483D01*
X114298000Y-84771395D01*
X114312143Y-84757253D01*
X114491748Y-84936858D01*
X114477605Y-84951000D01*
X114491748Y-84965143D01*
X114312143Y-85144748D01*
X114298000Y-85130605D01*
X113681406Y-85747199D01*
X113514485Y-85816169D01*
X113124539Y-86205436D01*
X112913241Y-86714298D01*
X112912760Y-87265285D01*
X113123169Y-87774515D01*
X113359313Y-88011071D01*
X113124539Y-88245436D01*
X112913241Y-88754298D01*
X112912760Y-89305285D01*
X112922503Y-89328866D01*
X112682184Y-89569186D01*
X112517003Y-89816396D01*
X112458999Y-90108001D01*
X112458999Y-91722058D01*
X112204519Y-91616389D01*
X111315381Y-91615613D01*
X110493628Y-91955155D01*
X109864364Y-92583321D01*
X109523389Y-93404481D01*
X109522613Y-94293619D01*
X109862155Y-95115372D01*
X110490321Y-95744636D01*
X110833001Y-95886929D01*
X110493628Y-96027155D01*
X109864364Y-96655321D01*
X109523389Y-97476481D01*
X109522613Y-98365619D01*
X109862155Y-99187372D01*
X110490321Y-99816636D01*
X111311481Y-100157611D01*
X112200619Y-100158387D01*
X113022372Y-99818845D01*
X113109886Y-99731483D01*
X115286088Y-99731483D01*
X116078000Y-100523395D01*
X116869912Y-99731483D01*
X116801923Y-99490540D01*
X116282829Y-99305799D01*
X115732552Y-99333770D01*
X115354077Y-99490540D01*
X115286088Y-99731483D01*
X113109886Y-99731483D01*
X113651636Y-99190679D01*
X113992611Y-98369519D01*
X113993387Y-97480381D01*
X113653845Y-96658628D01*
X113025679Y-96029364D01*
X112682999Y-95887071D01*
X113022372Y-95746845D01*
X113651636Y-95118679D01*
X113992611Y-94297519D01*
X113993387Y-93408381D01*
X113787460Y-92910001D01*
X119560999Y-92910001D01*
X119852604Y-92851997D01*
X119996131Y-92756095D01*
X120073167Y-92756162D01*
X120416943Y-92614117D01*
X120680192Y-92351327D01*
X120822838Y-92007799D01*
X120822918Y-91915987D01*
X120825833Y-91911624D01*
X120891995Y-91812606D01*
X120949999Y-91521001D01*
X120949999Y-88661631D01*
X126903816Y-82707815D01*
X127068997Y-82460604D01*
X127127000Y-82169000D01*
X127127000Y-78036275D01*
X127485974Y-78184958D01*
X127718000Y-78063817D01*
X127718000Y-76857000D01*
X127698000Y-76857000D01*
X127698000Y-76603000D01*
X127718000Y-76603000D01*
X127718000Y-76583000D01*
X127972000Y-76583000D01*
X127972000Y-76603000D01*
X127992000Y-76603000D01*
X127992000Y-76857000D01*
X127972000Y-76857000D01*
X127972000Y-78063817D01*
X128204026Y-78184958D01*
X128619947Y-78012688D01*
X128622096Y-78010726D01*
X130359590Y-79748220D01*
X130359590Y-87568580D01*
X130417594Y-87860185D01*
X130472264Y-87942004D01*
X130582775Y-88107395D01*
X130994380Y-88519000D01*
X129347631Y-88519000D01*
X129332125Y-88503494D01*
X129332162Y-88460833D01*
X129190117Y-88117057D01*
X128927327Y-87853808D01*
X128583799Y-87711162D01*
X128211833Y-87710838D01*
X127868057Y-87852883D01*
X127639586Y-88080956D01*
X127254000Y-87695370D01*
X127254000Y-86209266D01*
X127284192Y-86179127D01*
X127426838Y-85835599D01*
X127427162Y-85463633D01*
X127285117Y-85119857D01*
X127022327Y-84856608D01*
X126678799Y-84713962D01*
X126306833Y-84713638D01*
X125963057Y-84855683D01*
X125699808Y-85118473D01*
X125557162Y-85462001D01*
X125556838Y-85833967D01*
X125698883Y-86177743D01*
X125730000Y-86208914D01*
X125730000Y-88011000D01*
X125788004Y-88302605D01*
X125893729Y-88460833D01*
X125953185Y-88549815D01*
X129763185Y-92359816D01*
X129882600Y-92439606D01*
X130010395Y-92524996D01*
X130302000Y-92583000D01*
X169670382Y-92583000D01*
X169862853Y-92871054D01*
X170192026Y-93091000D01*
X169862853Y-93310946D01*
X169540946Y-93792715D01*
X169427907Y-94361000D01*
X169540946Y-94929285D01*
X169862853Y-95411054D01*
X170192026Y-95631000D01*
X169862853Y-95850946D01*
X169540946Y-96332715D01*
X169427907Y-96901000D01*
X169540946Y-97469285D01*
X169862853Y-97951054D01*
X170192026Y-98171000D01*
X169862853Y-98390946D01*
X169540946Y-98872715D01*
X169427907Y-99441000D01*
X169540946Y-100009285D01*
X169862853Y-100491054D01*
X170203553Y-100718702D01*
X170060642Y-100785817D01*
X169670355Y-101214076D01*
X169500524Y-101624110D01*
X169621845Y-101854000D01*
X170815000Y-101854000D01*
X170815000Y-101834000D01*
X171069000Y-101834000D01*
X171069000Y-101854000D01*
X172262155Y-101854000D01*
X172383476Y-101624110D01*
X172213645Y-101214076D01*
X171823358Y-100785817D01*
X171680447Y-100718702D01*
X172021147Y-100491054D01*
X172343054Y-100009285D01*
X172456093Y-99441000D01*
X172343054Y-98872715D01*
X172021147Y-98390946D01*
X171691974Y-98171000D01*
X172021147Y-97951054D01*
X172343054Y-97469285D01*
X172456093Y-96901000D01*
X172343054Y-96332715D01*
X172021147Y-95850946D01*
X171691974Y-95631000D01*
X172021147Y-95411054D01*
X172343054Y-94929285D01*
X172456093Y-94361000D01*
X172343054Y-93792715D01*
X172021147Y-93310946D01*
X171691974Y-93091000D01*
X172021147Y-92871054D01*
X172343054Y-92389285D01*
X172456093Y-91821000D01*
X172343054Y-91252715D01*
X172021147Y-90770946D01*
X171691974Y-90551000D01*
X172021147Y-90331054D01*
X172343054Y-89849285D01*
X172456093Y-89281000D01*
X172343054Y-88712715D01*
X172021147Y-88230946D01*
X171691974Y-88011000D01*
X172021147Y-87791054D01*
X172343054Y-87309285D01*
X172456093Y-86741000D01*
X172343054Y-86172715D01*
X172021147Y-85690946D01*
X171539378Y-85369039D01*
X170971093Y-85256000D01*
X170912907Y-85256000D01*
X170344622Y-85369039D01*
X169862853Y-85690946D01*
X169540946Y-86172715D01*
X169427907Y-86741000D01*
X169540946Y-87309285D01*
X169862853Y-87791054D01*
X170192026Y-88011000D01*
X169862853Y-88230946D01*
X169670382Y-88519000D01*
X143816336Y-88519000D01*
X143921192Y-88414327D01*
X144063838Y-88070799D01*
X144064162Y-87698833D01*
X143922117Y-87355057D01*
X143659327Y-87091808D01*
X143315799Y-86949162D01*
X142943833Y-86948838D01*
X142600057Y-87090883D01*
X142336808Y-87353673D01*
X142194162Y-87697201D01*
X142193838Y-88069167D01*
X142335883Y-88412943D01*
X142441755Y-88519000D01*
X133142118Y-88519000D01*
X133142162Y-88468823D01*
X133000117Y-88125047D01*
X132737327Y-87861798D01*
X132578687Y-87795925D01*
X132773167Y-87796094D01*
X133116943Y-87654049D01*
X133380192Y-87391259D01*
X133522838Y-87047731D01*
X133523162Y-86675765D01*
X133381117Y-86331989D01*
X133118327Y-86068740D01*
X132774799Y-85926094D01*
X132730754Y-85926056D01*
X132587865Y-85783167D01*
X142193838Y-85783167D01*
X142335883Y-86126943D01*
X142598673Y-86390192D01*
X142942201Y-86532838D01*
X143314167Y-86533162D01*
X143657943Y-86391117D01*
X143921192Y-86128327D01*
X144063838Y-85784799D01*
X144064162Y-85412833D01*
X143922117Y-85069057D01*
X143659327Y-84805808D01*
X143315799Y-84663162D01*
X142943833Y-84662838D01*
X142600057Y-84804883D01*
X142336808Y-85067673D01*
X142194162Y-85411201D01*
X142193838Y-85783167D01*
X132587865Y-85783167D01*
X132337601Y-85532903D01*
X132337601Y-81211167D01*
X139145838Y-81211167D01*
X139287883Y-81554943D01*
X139550673Y-81818192D01*
X139894201Y-81960838D01*
X140266167Y-81961162D01*
X140609943Y-81819117D01*
X140873192Y-81556327D01*
X141015838Y-81212799D01*
X141016162Y-80840833D01*
X140874117Y-80497057D01*
X140611327Y-80233808D01*
X140267799Y-80091162D01*
X139895833Y-80090838D01*
X139552057Y-80232883D01*
X139288808Y-80495673D01*
X139146162Y-80839201D01*
X139145838Y-81211167D01*
X132337601Y-81211167D01*
X132337601Y-78134591D01*
X132351511Y-78143885D01*
X132925000Y-78257959D01*
X133498489Y-78143885D01*
X133984670Y-77819029D01*
X134195000Y-77504248D01*
X134405330Y-77819029D01*
X134891511Y-78143885D01*
X135465000Y-78257959D01*
X136038489Y-78143885D01*
X136524670Y-77819029D01*
X136735000Y-77504248D01*
X136945330Y-77819029D01*
X137431511Y-78143885D01*
X138005000Y-78257959D01*
X138578489Y-78143885D01*
X139064670Y-77819029D01*
X139275000Y-77504248D01*
X139485330Y-77819029D01*
X139971511Y-78143885D01*
X140545000Y-78257959D01*
X141118489Y-78143885D01*
X141604670Y-77819029D01*
X141815000Y-77504248D01*
X142025330Y-77819029D01*
X142511511Y-78143885D01*
X143085000Y-78257959D01*
X143658489Y-78143885D01*
X144144670Y-77819029D01*
X144355000Y-77504248D01*
X144565330Y-77819029D01*
X145051511Y-78143885D01*
X145625000Y-78257959D01*
X146198489Y-78143885D01*
X146684670Y-77819029D01*
X146900664Y-77495772D01*
X146958179Y-77618490D01*
X147390053Y-78012688D01*
X147805974Y-78184958D01*
X148038000Y-78063817D01*
X148038000Y-76857000D01*
X148018000Y-76857000D01*
X148018000Y-76603000D01*
X148038000Y-76603000D01*
X148038000Y-76583000D01*
X148292000Y-76583000D01*
X148292000Y-76603000D01*
X148312000Y-76603000D01*
X148312000Y-76857000D01*
X148292000Y-76857000D01*
X148292000Y-78063817D01*
X148524026Y-78184958D01*
X148939947Y-78012688D01*
X149371821Y-77618490D01*
X149429336Y-77495772D01*
X149645330Y-77819029D01*
X150131511Y-78143885D01*
X150705000Y-78257959D01*
X151278489Y-78143885D01*
X151764670Y-77819029D01*
X151975000Y-77504248D01*
X152185330Y-77819029D01*
X152671511Y-78143885D01*
X153245000Y-78257959D01*
X153818489Y-78143885D01*
X154304670Y-77819029D01*
X154515000Y-77504248D01*
X154725330Y-77819029D01*
X155211511Y-78143885D01*
X155785000Y-78257959D01*
X156358489Y-78143885D01*
X156844670Y-77819029D01*
X157055000Y-77504248D01*
X157265330Y-77819029D01*
X157751511Y-78143885D01*
X158325000Y-78257959D01*
X158898489Y-78143885D01*
X159384670Y-77819029D01*
X159595000Y-77504248D01*
X159805330Y-77819029D01*
X160291511Y-78143885D01*
X160865000Y-78257959D01*
X161438489Y-78143885D01*
X161924670Y-77819029D01*
X162135000Y-77504248D01*
X162345330Y-77819029D01*
X162831511Y-78143885D01*
X163405000Y-78257959D01*
X163978489Y-78143885D01*
X164464670Y-77819029D01*
X164680664Y-77495772D01*
X164738179Y-77618490D01*
X165170053Y-78012688D01*
X165585974Y-78184958D01*
X165818000Y-78063817D01*
X165818000Y-76857000D01*
X165798000Y-76857000D01*
X165798000Y-76603000D01*
X165818000Y-76603000D01*
X165818000Y-76583000D01*
X166072000Y-76583000D01*
X166072000Y-76603000D01*
X166092000Y-76603000D01*
X166092000Y-76857000D01*
X166072000Y-76857000D01*
X166072000Y-78063817D01*
X166304026Y-78184958D01*
X166719947Y-78012688D01*
X167151821Y-77618490D01*
X167399968Y-77089027D01*
X167279470Y-76857002D01*
X167350954Y-76857002D01*
X167646775Y-77572944D01*
X168696530Y-78624533D01*
X170068803Y-79194350D01*
X171554678Y-79195647D01*
X172927944Y-78628225D01*
X173915000Y-77642890D01*
X173915000Y-122278712D01*
X172933470Y-121295467D01*
X171561197Y-120725650D01*
X170075322Y-120724353D01*
X168702056Y-121291775D01*
X167650467Y-122341530D01*
X167080650Y-123713803D01*
X167079353Y-125199678D01*
X167646775Y-126572944D01*
X168632110Y-127560000D01*
X114996288Y-127560000D01*
X115979533Y-126578470D01*
X116549350Y-125206197D01*
X116550647Y-123720322D01*
X116515236Y-123634619D01*
X117777613Y-123634619D01*
X118117155Y-124456372D01*
X118745321Y-125085636D01*
X119566481Y-125426611D01*
X120455619Y-125427387D01*
X121277372Y-125087845D01*
X121906636Y-124459679D01*
X122247611Y-123638519D01*
X122248387Y-122749381D01*
X121908845Y-121927628D01*
X121605265Y-121623517D01*
X123021088Y-121623517D01*
X123089077Y-121864460D01*
X123608171Y-122049201D01*
X124158448Y-122021230D01*
X124536923Y-121864460D01*
X124604912Y-121623517D01*
X123813000Y-120831605D01*
X123021088Y-121623517D01*
X121605265Y-121623517D01*
X121280679Y-121298364D01*
X120459519Y-120957389D01*
X119570381Y-120956613D01*
X118748628Y-121296155D01*
X118119364Y-121924321D01*
X117778389Y-122745481D01*
X117777613Y-123634619D01*
X116515236Y-123634619D01*
X115983225Y-122347056D01*
X114933470Y-121295467D01*
X113561197Y-120725650D01*
X112075322Y-120724353D01*
X110702056Y-121291775D01*
X109650467Y-122341530D01*
X109080650Y-123713803D01*
X109079353Y-125199678D01*
X109646775Y-126572944D01*
X110632110Y-127560000D01*
X107390000Y-127560000D01*
X107390000Y-119843517D01*
X122001088Y-119843517D01*
X122069077Y-120084460D01*
X122491395Y-120234759D01*
X122415799Y-120447171D01*
X122443770Y-120997448D01*
X122600540Y-121375923D01*
X122841483Y-121443912D01*
X123633395Y-120652000D01*
X123619253Y-120637858D01*
X123798858Y-120458253D01*
X123813000Y-120472395D01*
X123827143Y-120458253D01*
X124006748Y-120637858D01*
X123992605Y-120652000D01*
X124609199Y-121268594D01*
X124678169Y-121435515D01*
X125067436Y-121825461D01*
X125576298Y-122036759D01*
X126127285Y-122037240D01*
X126636515Y-121826831D01*
X126873071Y-121590687D01*
X127107436Y-121825461D01*
X127616298Y-122036759D01*
X128167285Y-122037240D01*
X128190866Y-122027496D01*
X128431186Y-122267817D01*
X128579378Y-122366835D01*
X128678396Y-122432997D01*
X128970001Y-122491001D01*
X130584058Y-122491001D01*
X130478389Y-122745481D01*
X130477613Y-123634619D01*
X130817155Y-124456372D01*
X131445321Y-125085636D01*
X132266481Y-125426611D01*
X133155619Y-125427387D01*
X133977372Y-125087845D01*
X134606636Y-124459679D01*
X134947611Y-123638519D01*
X134947614Y-123634619D01*
X135178613Y-123634619D01*
X135518155Y-124456372D01*
X136146321Y-125085636D01*
X136967481Y-125426611D01*
X137856619Y-125427387D01*
X138678372Y-125087845D01*
X139307636Y-124459679D01*
X139648611Y-123638519D01*
X139649387Y-122749381D01*
X139309845Y-121927628D01*
X139006265Y-121623517D01*
X140422088Y-121623517D01*
X140490077Y-121864460D01*
X141009171Y-122049201D01*
X141559448Y-122021230D01*
X141937923Y-121864460D01*
X142005912Y-121623517D01*
X141214000Y-120831605D01*
X140422088Y-121623517D01*
X139006265Y-121623517D01*
X138681679Y-121298364D01*
X137860519Y-120957389D01*
X136971381Y-120956613D01*
X136149628Y-121296155D01*
X135520364Y-121924321D01*
X135179389Y-122745481D01*
X135178613Y-123634619D01*
X134947614Y-123634619D01*
X134948387Y-122749381D01*
X134608845Y-121927628D01*
X133980679Y-121298364D01*
X133159519Y-120957389D01*
X132762875Y-120957043D01*
X132864997Y-120804206D01*
X132886122Y-120698003D01*
X132923001Y-120512601D01*
X132923001Y-119843517D01*
X139402088Y-119843517D01*
X139470077Y-120084460D01*
X139892395Y-120234759D01*
X139816799Y-120447171D01*
X139844770Y-120997448D01*
X140001540Y-121375923D01*
X140242483Y-121443912D01*
X141034395Y-120652000D01*
X141020253Y-120637858D01*
X141199858Y-120458253D01*
X141214000Y-120472395D01*
X141228143Y-120458253D01*
X141407748Y-120637858D01*
X141393605Y-120652000D01*
X142010199Y-121268594D01*
X142079169Y-121435515D01*
X142468436Y-121825461D01*
X142977298Y-122036759D01*
X143528285Y-122037240D01*
X144037515Y-121826831D01*
X144274071Y-121590687D01*
X144508436Y-121825461D01*
X145017298Y-122036759D01*
X145568285Y-122037240D01*
X146077515Y-121826831D01*
X146092903Y-121811470D01*
X146119910Y-121853441D01*
X146332110Y-121998431D01*
X146584000Y-122049440D01*
X148084000Y-122049440D01*
X148175564Y-122032211D01*
X147879389Y-122745481D01*
X147878613Y-123634619D01*
X148218155Y-124456372D01*
X148846321Y-125085636D01*
X149667481Y-125426611D01*
X150556619Y-125427387D01*
X151378372Y-125087845D01*
X152007636Y-124459679D01*
X152348611Y-123638519D01*
X152349387Y-122749381D01*
X152304105Y-122639790D01*
X157066815Y-122639790D01*
X157306963Y-123027035D01*
X158336127Y-123446921D01*
X159447634Y-123441001D01*
X160447037Y-123027035D01*
X160687185Y-122639790D01*
X158877000Y-120829605D01*
X157066815Y-122639790D01*
X152304105Y-122639790D01*
X152009845Y-121927628D01*
X151381679Y-121298364D01*
X150560519Y-120957389D01*
X149671381Y-120956613D01*
X148849628Y-121296155D01*
X148728360Y-121417212D01*
X148731440Y-121402000D01*
X148731440Y-120109127D01*
X156080079Y-120109127D01*
X156085999Y-121220634D01*
X156499965Y-122220037D01*
X156887210Y-122460185D01*
X158697395Y-120650000D01*
X156887210Y-118839815D01*
X156499965Y-119079963D01*
X156080079Y-120109127D01*
X148731440Y-120109127D01*
X148731440Y-119902000D01*
X148687162Y-119666683D01*
X148548090Y-119450559D01*
X148335890Y-119305569D01*
X148084000Y-119254560D01*
X147654803Y-119254560D01*
X147698759Y-119148702D01*
X147699185Y-118660210D01*
X157066815Y-118660210D01*
X158877000Y-120470395D01*
X160687185Y-118660210D01*
X160447037Y-118272965D01*
X159417873Y-117853079D01*
X158306366Y-117858999D01*
X157306963Y-118272965D01*
X157066815Y-118660210D01*
X147699185Y-118660210D01*
X147699240Y-118597715D01*
X147488831Y-118088485D01*
X147099564Y-117698539D01*
X146590702Y-117487241D01*
X146039715Y-117486760D01*
X145530485Y-117697169D01*
X145293929Y-117933313D01*
X145059564Y-117698539D01*
X144550702Y-117487241D01*
X143999715Y-117486760D01*
X143490485Y-117697169D01*
X143253929Y-117933313D01*
X143019564Y-117698539D01*
X142510702Y-117487241D01*
X141959715Y-117486760D01*
X141450485Y-117697169D01*
X141060539Y-118086436D01*
X140990503Y-118255102D01*
X140373605Y-118872000D01*
X140387748Y-118886143D01*
X140208143Y-119065748D01*
X140194000Y-119051605D01*
X139402088Y-119843517D01*
X132923001Y-119843517D01*
X132923001Y-118667171D01*
X138796799Y-118667171D01*
X138824770Y-119217448D01*
X138981540Y-119595923D01*
X139222483Y-119663912D01*
X140014395Y-118872000D01*
X139222483Y-118080088D01*
X138981540Y-118148077D01*
X138796799Y-118667171D01*
X132923001Y-118667171D01*
X132923001Y-117900483D01*
X139402088Y-117900483D01*
X140194000Y-118692395D01*
X140985912Y-117900483D01*
X140917923Y-117659540D01*
X140398829Y-117474799D01*
X139848552Y-117502770D01*
X139470077Y-117659540D01*
X139402088Y-117900483D01*
X132923001Y-117900483D01*
X132923001Y-117279777D01*
X132989943Y-117252117D01*
X133253192Y-116989327D01*
X133395838Y-116645799D01*
X133396162Y-116273833D01*
X133254117Y-115930057D01*
X132991327Y-115666808D01*
X132647799Y-115524162D01*
X132275833Y-115523838D01*
X131932057Y-115665883D01*
X131668808Y-115928673D01*
X131563055Y-116183352D01*
X131504799Y-116159162D01*
X131132833Y-116158838D01*
X130789057Y-116300883D01*
X130525808Y-116563673D01*
X130383162Y-116907201D01*
X130383082Y-116999013D01*
X130314005Y-117102394D01*
X130256001Y-117393999D01*
X130256001Y-118247369D01*
X130183455Y-118319915D01*
X130087831Y-118088485D01*
X129698564Y-117698539D01*
X129189702Y-117487241D01*
X128638715Y-117486760D01*
X128129485Y-117697169D01*
X127892929Y-117933313D01*
X127658564Y-117698539D01*
X127149702Y-117487241D01*
X126598715Y-117486760D01*
X126089485Y-117697169D01*
X125852929Y-117933313D01*
X125618564Y-117698539D01*
X125109702Y-117487241D01*
X124558715Y-117486760D01*
X124049485Y-117697169D01*
X123659539Y-118086436D01*
X123589503Y-118255102D01*
X122972605Y-118872000D01*
X122986748Y-118886143D01*
X122807143Y-119065748D01*
X122793000Y-119051605D01*
X122001088Y-119843517D01*
X107390000Y-119843517D01*
X107390000Y-118667171D01*
X121395799Y-118667171D01*
X121423770Y-119217448D01*
X121580540Y-119595923D01*
X121821483Y-119663912D01*
X122613395Y-118872000D01*
X121821483Y-118080088D01*
X121580540Y-118148077D01*
X121395799Y-118667171D01*
X107390000Y-118667171D01*
X107390000Y-117900483D01*
X122001088Y-117900483D01*
X122793000Y-118692395D01*
X123584912Y-117900483D01*
X123516923Y-117659540D01*
X122997829Y-117474799D01*
X122447552Y-117502770D01*
X122069077Y-117659540D01*
X122001088Y-117900483D01*
X107390000Y-117900483D01*
X107390000Y-115203843D01*
X156082516Y-115203843D01*
X156506981Y-116231126D01*
X157292260Y-117017777D01*
X158318801Y-117444034D01*
X159430323Y-117445004D01*
X160457606Y-117020539D01*
X161063218Y-116415983D01*
X160782486Y-117092061D01*
X160781516Y-118203583D01*
X161105592Y-118987907D01*
X160866790Y-118839815D01*
X159056605Y-120650000D01*
X160866790Y-122460185D01*
X161254035Y-122220037D01*
X161673921Y-121190873D01*
X161668001Y-120079366D01*
X161394952Y-119420167D01*
X161991260Y-120017517D01*
X163017801Y-120443774D01*
X164129323Y-120444744D01*
X165156606Y-120020279D01*
X165943257Y-119235000D01*
X166369514Y-118208459D01*
X166370484Y-117096937D01*
X165946019Y-116069654D01*
X165160740Y-115283003D01*
X164134199Y-114856746D01*
X163022677Y-114855776D01*
X161995394Y-115280241D01*
X161389782Y-115884797D01*
X161670514Y-115208719D01*
X161671484Y-114097197D01*
X161247019Y-113069914D01*
X160461740Y-112283263D01*
X159435199Y-111857006D01*
X158323677Y-111856036D01*
X157296394Y-112280501D01*
X156509743Y-113065780D01*
X156083486Y-114092321D01*
X156082516Y-115203843D01*
X107390000Y-115203843D01*
X107390000Y-111065619D01*
X109522613Y-111065619D01*
X109862155Y-111887372D01*
X110490321Y-112516636D01*
X111311481Y-112857611D01*
X112200619Y-112858387D01*
X113022372Y-112518845D01*
X113651636Y-111890679D01*
X113992611Y-111069519D01*
X113993387Y-110180381D01*
X113787460Y-109682001D01*
X119425999Y-109682001D01*
X119717604Y-109623997D01*
X119964814Y-109458816D01*
X120538506Y-108885125D01*
X120581167Y-108885162D01*
X120924943Y-108743117D01*
X121188192Y-108480327D01*
X121330838Y-108136799D01*
X121331162Y-107764833D01*
X121189117Y-107421057D01*
X120926327Y-107157808D01*
X120582799Y-107015162D01*
X120210833Y-107014838D01*
X119867057Y-107156883D01*
X119760935Y-107262820D01*
X119529327Y-107030808D01*
X119185799Y-106888162D01*
X118813833Y-106887838D01*
X118470057Y-107029883D01*
X118405080Y-107094747D01*
X118283131Y-107119004D01*
X118254700Y-107138001D01*
X117446856Y-107138001D01*
X117462759Y-107099702D01*
X117463240Y-106548715D01*
X117252831Y-106039485D01*
X117016687Y-105802929D01*
X117251461Y-105568564D01*
X117462759Y-105059702D01*
X117463240Y-104508715D01*
X117252831Y-103999485D01*
X117016687Y-103762929D01*
X117108776Y-103671000D01*
X169444560Y-103671000D01*
X169444560Y-105371000D01*
X169488838Y-105606317D01*
X169627910Y-105822441D01*
X169840110Y-105967431D01*
X170092000Y-106018440D01*
X171792000Y-106018440D01*
X172027317Y-105974162D01*
X172243441Y-105835090D01*
X172388431Y-105622890D01*
X172439440Y-105371000D01*
X172439440Y-103671000D01*
X172395162Y-103435683D01*
X172256090Y-103219559D01*
X172043890Y-103074569D01*
X171935893Y-103052699D01*
X172213645Y-102747924D01*
X172383476Y-102337890D01*
X172262155Y-102108000D01*
X171069000Y-102108000D01*
X171069000Y-102128000D01*
X170815000Y-102128000D01*
X170815000Y-102108000D01*
X169621845Y-102108000D01*
X169500524Y-102337890D01*
X169670355Y-102747924D01*
X169946501Y-103050937D01*
X169856683Y-103067838D01*
X169640559Y-103206910D01*
X169495569Y-103419110D01*
X169444560Y-103671000D01*
X117108776Y-103671000D01*
X117251461Y-103528564D01*
X117462759Y-103019702D01*
X117463240Y-102468715D01*
X117252831Y-101959485D01*
X116863564Y-101569539D01*
X116694898Y-101499503D01*
X116078000Y-100882605D01*
X116063858Y-100896748D01*
X115884253Y-100717143D01*
X115898395Y-100703000D01*
X116257605Y-100703000D01*
X117049517Y-101494912D01*
X117290460Y-101426923D01*
X117475201Y-100907829D01*
X117447230Y-100357552D01*
X117290460Y-99979077D01*
X117049517Y-99911088D01*
X116257605Y-100703000D01*
X115898395Y-100703000D01*
X115106483Y-99911088D01*
X114865540Y-99979077D01*
X114715241Y-100401395D01*
X114502829Y-100325799D01*
X113952552Y-100353770D01*
X113574077Y-100510540D01*
X113506088Y-100751483D01*
X114298000Y-101543395D01*
X114312143Y-101529253D01*
X114491748Y-101708858D01*
X114477605Y-101723000D01*
X114491748Y-101737143D01*
X114312143Y-101916748D01*
X114298000Y-101902605D01*
X113681406Y-102519199D01*
X113514485Y-102588169D01*
X113124539Y-102977436D01*
X112913241Y-103486298D01*
X112912760Y-104037285D01*
X113123169Y-104546515D01*
X113359313Y-104783071D01*
X113124539Y-105017436D01*
X112913241Y-105526298D01*
X112912760Y-106077285D01*
X112922503Y-106100866D01*
X112682184Y-106341186D01*
X112517003Y-106588396D01*
X112458999Y-106880001D01*
X112458999Y-108494058D01*
X112204519Y-108388389D01*
X111315381Y-108387613D01*
X110493628Y-108727155D01*
X109864364Y-109355321D01*
X109523389Y-110176481D01*
X109522613Y-111065619D01*
X107390000Y-111065619D01*
X107390000Y-101518171D01*
X112900799Y-101518171D01*
X112928770Y-102068448D01*
X113085540Y-102446923D01*
X113326483Y-102514912D01*
X114118395Y-101723000D01*
X113326483Y-100931088D01*
X113085540Y-100999077D01*
X112900799Y-101518171D01*
X107390000Y-101518171D01*
X107390000Y-84746171D01*
X112900799Y-84746171D01*
X112928770Y-85296448D01*
X113085540Y-85674923D01*
X113326483Y-85742912D01*
X114118395Y-84951000D01*
X113326483Y-84159088D01*
X113085540Y-84227077D01*
X112900799Y-84746171D01*
X107390000Y-84746171D01*
X107390000Y-62704525D01*
X107453155Y-62857372D01*
X108081321Y-63486636D01*
X108902481Y-63827611D01*
X109791619Y-63828387D01*
X110613372Y-63488845D01*
X110734640Y-63367788D01*
X110731560Y-63383000D01*
X110731560Y-64883000D01*
X110775838Y-65118317D01*
X110914910Y-65334441D01*
X111127110Y-65479431D01*
X111379000Y-65530440D01*
X111808197Y-65530440D01*
X111764241Y-65636298D01*
X111763760Y-66187285D01*
X111974169Y-66696515D01*
X112363436Y-67086461D01*
X112872298Y-67297759D01*
X113423285Y-67298240D01*
X113932515Y-67087831D01*
X114169071Y-66851687D01*
X114403436Y-67086461D01*
X114912298Y-67297759D01*
X115463285Y-67298240D01*
X115972515Y-67087831D01*
X116209071Y-66851687D01*
X116443436Y-67086461D01*
X116952298Y-67297759D01*
X117503285Y-67298240D01*
X118012515Y-67087831D01*
X118216183Y-66884517D01*
X118477088Y-66884517D01*
X118545077Y-67125460D01*
X119064171Y-67310201D01*
X119614448Y-67282230D01*
X119992923Y-67125460D01*
X120060912Y-66884517D01*
X119269000Y-66092605D01*
X118477088Y-66884517D01*
X118216183Y-66884517D01*
X118402461Y-66698564D01*
X118472497Y-66529898D01*
X119089395Y-65913000D01*
X119448605Y-65913000D01*
X120240517Y-66704912D01*
X120481460Y-66636923D01*
X120666201Y-66117829D01*
X120638230Y-65567552D01*
X120481460Y-65189077D01*
X120240517Y-65121088D01*
X119448605Y-65913000D01*
X119089395Y-65913000D01*
X119075253Y-65898858D01*
X119254858Y-65719253D01*
X119269000Y-65733395D01*
X120060912Y-64941483D01*
X119992923Y-64700540D01*
X119570605Y-64550241D01*
X119646201Y-64337829D01*
X119618230Y-63787552D01*
X119461460Y-63409077D01*
X119220517Y-63341088D01*
X118428605Y-64133000D01*
X118442748Y-64147143D01*
X118263143Y-64326748D01*
X118249000Y-64312605D01*
X118234858Y-64326748D01*
X118055253Y-64147143D01*
X118069395Y-64133000D01*
X117452801Y-63516406D01*
X117383831Y-63349485D01*
X117196157Y-63161483D01*
X117457088Y-63161483D01*
X118249000Y-63953395D01*
X119040912Y-63161483D01*
X118972923Y-62920540D01*
X118453829Y-62735799D01*
X117903552Y-62763770D01*
X117525077Y-62920540D01*
X117457088Y-63161483D01*
X117196157Y-63161483D01*
X116994564Y-62959539D01*
X116485702Y-62748241D01*
X115934715Y-62747760D01*
X115425485Y-62958169D01*
X115188929Y-63194313D01*
X114954564Y-62959539D01*
X114445702Y-62748241D01*
X113894715Y-62747760D01*
X113385485Y-62958169D01*
X113370097Y-62973530D01*
X113343090Y-62931559D01*
X113130890Y-62786569D01*
X112879000Y-62735560D01*
X111379000Y-62735560D01*
X111287436Y-62752789D01*
X111583611Y-62039519D01*
X111584387Y-61150381D01*
X111244845Y-60328628D01*
X110616679Y-59699364D01*
X109795519Y-59358389D01*
X108906381Y-59357613D01*
X108084628Y-59697155D01*
X107455364Y-60325321D01*
X107390000Y-60482735D01*
X107390000Y-57225000D01*
X173915000Y-57225000D01*
X173915000Y-60473794D01*
M02*
